G04 DipTrace 3.1.0.0*
G04 uO_c.GTS*
%MOIN*%
G04 #@! TF.FileFunction,Soldermask,Top*
G04 #@! TF.Part,Single*
%AMOUTLINE0*
4,1,4,
-0.019685,-0.031496,
0.019685,-0.031496,
0.019685,0.031496,
-0.019685,0.031496,
-0.019685,-0.031496,
0*%
%AMOUTLINE1*
4,1,4,
-0.106299,-0.122047,
0.106299,-0.122047,
0.106299,0.122047,
-0.106299,0.122047,
-0.106299,-0.122047,
0*%
%AMOUTLINE2*5,1,8,0,0,0.074,-202.499184*%
%AMOUTLINE3*
4,1,4,
-0.031496,-0.035492,
0.031496,-0.035492,
0.031496,0.035492,
-0.031496,0.035492,
-0.031496,-0.035492,
0*%
%ADD59O,0.068031X0.088031*%
%ADD61R,0.031654X0.051339*%
%ADD63R,0.031654X0.086772*%
%ADD65R,0.02378X0.078898*%
%ADD67C,0.071024*%
%ADD69R,0.071024X0.071024*%
%ADD71R,0.033622X0.04937*%
%ADD73R,0.04937X0.033622*%
%ADD75R,0.114331X0.071024*%
%ADD77C,0.073031*%
%ADD79O,0.093031X0.083031*%
%ADD81O,0.177323X0.126142*%
%ADD83R,0.126142X0.145827*%
%ADD85C,0.086772*%
%ADD87R,0.094646X0.047402*%
%ADD89R,0.059213X0.067087*%
%ADD91R,0.071024X0.108425*%
%ADD93R,0.067087X0.059213*%
%ADD95R,0.078898X0.071024*%
%ADD97R,0.072992X0.120236*%
%ADD105OUTLINE0*%
%ADD106OUTLINE1*%
%ADD107OUTLINE2*%
%ADD108OUTLINE3*%
%FSLAX26Y26*%
G04*
G70*
G90*
G75*
G01*
G04 TopMask*
%LPD*%
D97*
X1292210Y2710014D3*
Y2875368D3*
X1054710Y2869119D3*
Y2703764D3*
D95*
X1485955Y4025363D3*
Y3915127D3*
X1810958Y3912862D3*
Y4023098D3*
D93*
X1160960Y1912862D3*
Y1838058D3*
X1448399Y4124970D3*
Y4199774D3*
D91*
X861085Y4063010D3*
Y3925215D3*
D89*
X1135762Y2356616D3*
X1060959D3*
X1798262Y3800362D3*
X1723459D3*
D93*
X1360959Y2050363D3*
Y2125166D3*
X510959Y962667D3*
Y887864D3*
X1167178Y575343D3*
Y650146D3*
X1742210Y569112D3*
Y643915D3*
D89*
X692013Y3806615D3*
X617210D3*
D93*
X1479710Y569211D3*
Y644014D3*
Y1181514D3*
Y1106711D3*
X604710Y569211D3*
Y644014D3*
X729710Y1181514D3*
Y1106711D3*
X1110959Y1162863D3*
Y1237666D3*
X1104710Y994112D3*
Y919309D3*
Y819112D3*
Y744309D3*
X1617308Y1331711D3*
Y1406514D3*
X985927Y1606604D3*
Y1681408D3*
D91*
X1073597Y4056761D3*
Y3918965D3*
D93*
X1473557Y1856514D3*
Y1931317D3*
X731854Y1332104D3*
Y1406908D3*
X717210Y1850363D3*
Y1925166D3*
X948427Y2156171D3*
Y2081368D3*
X1823459Y2818915D3*
Y2744112D3*
X1167210Y3219112D3*
Y3293915D3*
X1010959Y3225363D3*
Y3300166D3*
X1498393Y4456186D3*
Y4381383D3*
D89*
X879519Y2912598D3*
X804716D3*
D93*
X617178Y1668908D3*
Y1594104D3*
X1392178Y1662854D3*
Y1588051D3*
D87*
X1604706Y4412866D3*
Y4312866D3*
X1829509D3*
Y4412866D3*
D85*
X1567210Y2248837D3*
X1665635D3*
X1468784D3*
X1665635Y2819703D3*
X1468784D3*
D83*
X1342800Y2544112D3*
X1791619D3*
D85*
X767210Y2248837D3*
X865635D3*
X668784D3*
X865635Y2819703D3*
X668784D3*
D83*
X542800Y2544112D3*
X991619D3*
D81*
X567178Y4594104D3*
D105*
X692212Y4281644D3*
X512685D3*
D106*
X602448Y3994242D3*
D79*
X1729710Y781112D3*
Y456112D3*
D77*
Y881112D3*
D79*
X1354710Y781112D3*
Y456112D3*
D77*
Y881112D3*
D79*
X979710Y781112D3*
Y456112D3*
D77*
Y881112D3*
D79*
X604710Y781112D3*
Y456112D3*
D77*
Y881112D3*
D79*
X1729710Y1793612D3*
Y1468612D3*
D77*
Y1893612D3*
D79*
X1354710Y1793612D3*
Y1468612D3*
D77*
Y1893612D3*
D79*
X979710Y1793612D3*
Y1468612D3*
D77*
Y1893612D3*
D79*
X604710Y1793612D3*
Y1468612D3*
D77*
Y1893612D3*
D79*
X1729710Y1287363D3*
Y962363D3*
D77*
Y1387363D3*
D79*
X1354710Y1287363D3*
Y962363D3*
D77*
Y1387363D3*
D79*
X979710Y1287363D3*
Y962363D3*
D77*
Y1387363D3*
D79*
X604710Y1287363D3*
Y962363D3*
D77*
Y1387363D3*
D107*
X1373459Y4444112D3*
Y4344112D3*
X1273459Y4444112D3*
Y4344112D3*
X1173459Y4444112D3*
Y4344112D3*
X1073459Y4444112D3*
Y4344112D3*
X973459Y4444112D3*
Y4344112D3*
D75*
X1342160Y4024981D3*
Y3914745D3*
D73*
X1567210Y2031612D3*
Y2106415D3*
X1476658Y2069014D3*
D71*
X1512584Y2617684D3*
X1587387D3*
X1549985Y2708236D3*
X706333Y2617684D3*
X781136D3*
X743735Y2708236D3*
D73*
X785959Y2106612D3*
Y2031809D3*
X876510Y2069211D3*
D93*
X1604710Y644014D3*
Y569211D3*
Y1106711D3*
Y1181514D3*
X1854710Y569211D3*
Y644014D3*
X1354710D3*
Y569211D3*
X1729710Y1181514D3*
Y1106711D3*
X1354710D3*
Y1181514D3*
X729710Y644014D3*
Y569211D3*
X854710Y1106711D3*
Y1181514D3*
Y569211D3*
Y644014D3*
X979710Y569211D3*
Y644014D3*
Y1181514D3*
Y1106711D3*
X604710D3*
Y1181514D3*
X1223460Y919309D3*
Y994112D3*
Y750363D3*
Y825166D3*
X1798360Y2112763D3*
Y2037960D3*
X1679611Y2112763D3*
Y2037960D3*
D89*
X1585959Y2387863D3*
X1511156D3*
X1585959Y2512863D3*
X1511156D3*
X779710Y2381612D3*
X704906D3*
X779710Y2506612D3*
X704906D3*
D93*
X573459Y2037863D3*
Y2112666D3*
X692210Y2037863D3*
Y2112666D3*
X1867111Y956711D3*
Y1031514D3*
X1485960Y1325363D3*
Y1400166D3*
X1879611Y1525461D3*
Y1600264D3*
X1217208Y1475362D3*
Y1400558D3*
X1867111Y1131711D3*
Y1206514D3*
X1610959Y1856612D3*
Y1931415D3*
X1879710Y1862863D3*
Y1937666D3*
X1217111Y1569408D3*
Y1644211D3*
X460959Y1275363D3*
Y1350166D3*
X848459Y1331612D3*
Y1406415D3*
X467210Y1537863D3*
Y1612666D3*
X1104710Y1475558D3*
Y1400755D3*
X460959Y1100362D3*
Y1175165D3*
X848460Y1850363D3*
Y1925166D3*
X454710Y1906612D3*
Y1981415D3*
X1104710Y1569506D3*
Y1644309D3*
D89*
X1123557Y2600267D3*
X1198360D3*
D93*
X1542210Y3231612D3*
Y3306415D3*
X785959Y3225363D3*
Y3300166D3*
D89*
X867210Y4474934D3*
X792406D3*
D108*
X1779614Y4162467D3*
X1667645D3*
D69*
X504710Y3035993D3*
D67*
X604710D3*
X704710D3*
X804710D3*
X904710D3*
X1004710D3*
X1104710D3*
X1204710D3*
X1304710D3*
X1404710D3*
X1504710D3*
X1604710D3*
X1704710D3*
X1804710D3*
Y3635993D3*
X1704710D3*
X1604710D3*
X1504710D3*
X1404710D3*
X1304710D3*
X1204710D3*
X1104710D3*
X1004710D3*
X904710D3*
X804710D3*
X704710D3*
X604710D3*
X504710D3*
D65*
X1067210Y2031612D3*
X1092800D3*
X1118391D3*
X1143981D3*
X1169572D3*
X1195162D3*
X1220753D3*
X1246343D3*
Y2259967D3*
X1220753Y2259959D3*
X1195162D3*
X1169572D3*
X1143981D3*
X1118391D3*
X1092800D3*
X1067210D3*
D63*
X1460959Y762863D3*
X1510959D3*
X1560959D3*
X1610959D3*
Y975461D3*
X1560959D3*
X1510959D3*
X1460959D3*
X710959Y769112D3*
X760959D3*
X810959D3*
X860959D3*
Y981711D3*
X810959D3*
X760959D3*
X710959D3*
X1467210Y1519112D3*
X1517210D3*
X1567210D3*
X1617210D3*
Y1731711D3*
X1567210D3*
X1517210D3*
X1467210D3*
D73*
X1201510Y2444310D3*
Y2519114D3*
X1110959Y2481712D3*
D61*
X1685956Y4031612D3*
X1648555D3*
X1611153D3*
Y3925313D3*
X1685956D3*
D85*
X1695162Y3318325D3*
Y3141159D3*
X1439257D3*
Y3318325D3*
X895162D3*
Y3141159D3*
X639257D3*
Y3318325D3*
D63*
X704710Y1525363D3*
X754710D3*
X804710D3*
X854710D3*
Y1737961D3*
X804710D3*
X754710D3*
X704710D3*
D59*
X1467147Y4593671D3*
X1367147D3*
X1267147D3*
X1167147D3*
X1067147D3*
X967147D3*
X867147D3*
D81*
X1767178Y4594104D3*
G36*
X404758Y3675010D2*
X548493D1*
Y3887488D1*
X710976D1*
Y4024973D1*
X917204D1*
Y4218703D1*
X642233D1*
Y4356188D1*
X679729Y4393684D1*
Y4456178D1*
X404758D1*
D1*
Y3675010D1*
G37*
M02*
