M48
INCH
T01C0.015
T02C0.0354
T03C0.0394
T04C0.04
T05C0.052
T06C0.1024
T07C0.1063
%
T01
X+011547Y+017691
X+011985Y+017129
X+012297Y+016754
X+012171Y+015188
X+013172Y+015251
X+012297Y+013691
X+010985Y+013629
X+011110Y+013066
X+012047Y+012190
X+011359Y+011753
X+010734Y+011128
X+010735Y+010504
X+011422Y+009753
X+011547Y+009129
X+012235Y+008594
X+011610Y+007629
X+011672Y+007066
X+012484Y+006691
X+010859Y+006378
X+009422Y+005566
X+008610Y+007191
X+007110Y+007191
X+006860Y+006379
X+005360Y+006441
X+006860Y+010128
X+007297Y+010691
X+008110Y+010879
X+008610Y+010504
X+009485Y+011066
X+010047Y+012129
X+008610Y+012191
X+008110Y+013378
X+008485Y+014440
X+006922Y+014064
X+006797Y+013378
X+007172Y+012191
X+006360Y+012004
X+005671Y+011067
X+004610Y+010629
X+004610Y+012316
X+004610Y+013941
X+004672Y+014941
X+006797Y+015379
X+006609Y+016629
X+006860Y+017254
X+006735Y+018504
X+007547Y+019252
X+008174Y+019252
X+008110Y+018504
X+010922Y+018504
X+011485Y+019691
X+011235Y+021066
X+011422Y+022066
X+011985Y+021816
X+012610Y+023129
X+012422Y+023504
X+012235Y+023877
X+011672Y+023316
X+009797Y+023566
X+009547Y+024441
X+008172Y+023629
X+008110Y+021379
X+006922Y+021504
X+005672Y+021504
X+005735Y+022129
X+004797Y+022066
X+005422Y+023254
X+006172Y+027504
X+007735Y+028066
X+007922Y+026939
X+008860Y+027191
X+010394Y+027191
X+009984Y+028501
X+010359Y+029687
X+011547Y+029624
X+011297Y+028504
X+012422Y+028566
X+013547Y+028566
X+013297Y+029624
X+015610Y+027629
X+015860Y+027129
X+016547Y+029379
X+017953Y+029655
X+018235Y+028754
X+017922Y+031562
X+017922Y+034566
X+018672Y+035066
X+018734Y+035562
X+018859Y+037379
X+015609Y+038313
X+015609Y+039250
X+014610Y+038129
X+013547Y+037441
X+012797Y+037625
X+012109Y+038875
X+010672Y+038438
X+009672Y+038129
X+009547Y+037563
X+008610Y+038438
X+007110Y+037563
X+005484Y+035937
X+005235Y+035316
X+004797Y+035629
X+004797Y+035004
X+007235Y+034629
X+008360Y+034191
X+008985Y+034504
X+010047Y+035379
X+011110Y+034941
X+011984Y+035124
X+012859Y+035687
X+014047Y+035500
X+015110Y+034754
X+016047Y+034316
X+015422Y+033691
X+014797Y+032504
X+011297Y+032066
X+010547Y+032191
X+007797Y+031879
X+007860Y+033183
X+005235Y+031566
X+005172Y+029687
X+005547Y+029066
X+008110Y+029813
X+008797Y+029501
X+015672Y+023566
X+015172Y+023004
X+016609Y+023377
X+017046Y+023877
X+016796Y+024376
X+017422Y+023129
X+017360Y+021816
X+018047Y+021816
X+016172Y+021754
X+014610Y+021379
X+015235Y+020191
X+015110Y+019441
X+015797Y+019504
X+015735Y+018504
X+015110Y+018566
X+014734Y+017752
X+014047Y+017317
X+015171Y+016315
X+015672Y+016816
X+015921Y+016315
X+016672Y+015941
X+016922Y+015254
X+016485Y+014378
X+016610Y+013441
X+015297Y+013379
X+014734Y+014378
X+014735Y+012191
X+016047Y+012191
X+016610Y+011441
X+017735Y+011067
X+017797Y+011815
X+018547Y+010941
X+018547Y+009129
X+016160Y+010254
X+015110Y+010678
X+014610Y+010128
X+013547Y+010754
X+012985Y+010871
X+012609Y+010815
X+012547Y+009753
X+010735Y+008504
X+013860Y+005316
X+016485Y+005754
X+016610Y+006379
X+016360Y+007629
X+018172Y+005754
X+018110Y+013379
X+018360Y+015191
X+017985Y+016754
X+018610Y+018316
X+017735Y+019941
X+016735Y+020004
X+011047Y+015191
X+009859Y+015691
X+005110Y+018504
X+004547Y+018691
X+005422Y+039812
X+005422Y+040312
X+005803Y+040630
X+005985Y+040875
X+005485Y+040875
X+005985Y+040312
X+005985Y+039812
X+006610Y+039812
X+006610Y+040312
X+006610Y+040875
X+008110Y+040630
X+010426Y+041000
X+011547Y+041687
X+011672Y+042437
X+012734Y+042375
X+013734Y+042254
X+015046Y+042750
X+015609Y+042375
X+016233Y+041625
X+017734Y+042062
X+018547Y+043504
X+018859Y+044749
X+017359Y+044374
X+012734Y+045249
X+011797Y+045187
X+010735Y+045191
X+007547Y+046562
X+007297Y+043437
X+006797Y+043437
X+005110Y+043125
X+005110Y+042625
X+012547Y+040379
T02
X+005047Y+030360
X+006047Y+030360
X+007047Y+030360
X+008047Y+030360
X+009047Y+030360
X+010047Y+030360
X+011047Y+030360
X+012047Y+030360
X+013047Y+030360
X+014047Y+030360
X+015047Y+030360
X+016047Y+030360
X+017047Y+030360
X+018047Y+030360
X+018047Y+036360
X+017047Y+036360
X+016047Y+036360
X+015047Y+036360
X+014047Y+036360
X+013047Y+036360
X+012047Y+036360
X+011047Y+036360
X+010047Y+036360
X+009047Y+036360
X+008047Y+036360
X+007047Y+036360
X+006047Y+036360
X+005047Y+036360
T03
X+015672Y+022488
X+016656Y+022488
X+014688Y+022488
X+014688Y+028197
X+016656Y+028197
X+016952Y+031412
X+016952Y+033183
X+014393Y+033183
X+014393Y+031412
X+008952Y+031412
X+008952Y+033183
X+006393Y+033183
X+006393Y+031412
X+006688Y+028197
X+008656Y+028197
X+008656Y+022488
X+007672Y+022488
X+006688Y+022488
T04
X+017297Y+008811
X+013547Y+008811
X+009797Y+008811
X+006047Y+008811
X+006047Y+013874
X+009797Y+013874
X+013547Y+013874
X+017297Y+013874
X+017297Y+018936
X+013547Y+018936
X+009797Y+018936
X+006047Y+018936
X+009735Y+043441
X+009735Y+044441
X+010735Y+044441
X+011735Y+044441
X+011735Y+043441
X+012735Y+043441
X+012735Y+044441
X+013735Y+044441
X+013735Y+043441
X+013671Y+045937
X+014671Y+045937
X+012671Y+045937
X+011671Y+045937
X+010671Y+045937
X+009671Y+045937
X+008671Y+045937
X+010735Y+043441
T05
X+017297Y+007811
X+017297Y+009624
X+017297Y+012874
X+017297Y+014686
X+017297Y+017936
X+013547Y+017936
X+013547Y+014686
X+013547Y+012874
X+013547Y+009624
X+013547Y+007811
X+013547Y+004561
X+009797Y+004561
X+009797Y+007811
X+009797Y+009624
X+009797Y+012874
X+009797Y+014686
X+009797Y+017936
X+006047Y+017936
X+006047Y+014686
X+006047Y+012874
X+006047Y+009624
X+006047Y+007811
X+006047Y+004561
X+017297Y+004561
T06
X+013428Y+025441
X+009916Y+025441
X+005428Y+025441
X+017916Y+025441
T07
X+005928Y+045941G85X+005416Y+045941
X+017928Y+045941G85X+017416Y+045941
T00
M30
