G04 DipTrace 3.1.0.0*
G04 uO_c1.1.GTO*
%MOIN*%
G04 #@! TF.FileFunction,Legend,Top*
G04 #@! TF.Part,Single*
%ADD10C,0.009843*%
%ADD12C,0.001*%
%ADD15C,0.008*%
%ADD21O,0.070197X0.070678*%
%ADD22C,0.02362*%
%ADD26C,0.023616*%
%ADD32C,0.006*%
%ADD38C,0.015422*%
%ADD40C,0.015404*%
%ADD46C,0.015401*%
%ADD102C,0.004632*%
%ADD105C,0.006176*%
%ADD106C,0.00772*%
%FSLAX26Y26*%
G04*
G70*
G90*
G75*
G01*
G04 TopSilk*
%LPD*%
X1187863Y2896980D2*
D10*
X1242991Y2897008D1*
X1187863Y2896980D2*
Y2721828D1*
X1221332Y2688363D2*
X1187863Y2721828D1*
X1221332Y2688363D2*
X1242991Y2688335D1*
X1341396Y2897008D2*
X1396525Y2896980D1*
Y2721828D1*
X1363055Y2688363D2*
X1396525Y2721828D1*
X1341396Y2688335D2*
X1363055Y2688363D1*
D22*
X1235104Y2662752D3*
X1159025Y2682121D2*
D10*
X1103896Y2682093D1*
X1159025Y2682121D2*
Y2857273D1*
X1125555Y2890738D2*
X1159025Y2857273D1*
X1125555Y2890738D2*
X1103896Y2890766D1*
X1005491Y2682093D2*
X950363Y2682121D1*
Y2857273D1*
X983832Y2890738D2*
X950363Y2857273D1*
X1005491Y2890766D2*
X983832Y2890738D1*
D22*
X1111784Y2916349D3*
X1454475Y3974560D2*
D10*
X1517404D1*
X1454475Y3982009D2*
X1517404D1*
X1454475D2*
Y3958449D1*
X1517404Y3982009D2*
Y3958449D1*
X1842406Y3963633D2*
X1779477D1*
X1842406Y3956184D2*
X1779477D1*
X1842406D2*
Y3979743D1*
X1779477Y3956184D2*
Y3979743D1*
X1135374Y1954205D2*
X1186515D1*
X1473954Y4083595D2*
X1422812D1*
X945715Y3909468D2*
X910282Y3909444D1*
X945715Y3909468D2*
Y4049166D1*
X916190Y4078725D2*
X945715Y4049166D1*
X916190Y4078725D2*
X910282Y4078749D1*
X811856Y3909444D2*
X776423Y3909468D1*
Y4049166D1*
X805948Y4078725D2*
X776423Y4049166D1*
X811856Y4078749D2*
X805948Y4078725D1*
D26*
X916199Y4100376D3*
X1177106Y2382171D2*
D10*
Y2331030D1*
X1839606Y3825917D2*
Y3774775D1*
X1386514Y2008988D2*
X1335372D1*
X485372Y1004011D2*
X536514D1*
X1192733Y533968D2*
X1141591D1*
X1767765Y527737D2*
X1716623D1*
X733357Y3832170D2*
Y3781028D1*
X1505265Y527835D2*
X1454123D1*
Y1222858D2*
X1505265D1*
X630265Y527835D2*
X579123D1*
X704123Y1222858D2*
X755265D1*
X1136514Y1121488D2*
X1085372D1*
X1079123Y1035456D2*
X1130265D1*
X1079123Y860456D2*
X1130265D1*
X1642863Y1290335D2*
X1591721D1*
X1011483Y1565229D2*
X960341D1*
X1158227Y3903219D2*
X1122794Y3903195D1*
X1158227Y3903219D2*
Y4042916D1*
X1128702Y4072476D2*
X1158227Y4042916D1*
X1128702Y4072476D2*
X1122794Y4072499D1*
X1024368Y3903195D2*
X988935Y3903219D1*
Y4042916D1*
X1018460Y4072476D2*
X988935Y4042916D1*
X1024368Y4072499D2*
X1018460Y4072476D1*
D26*
X1128711Y4094127D3*
X1499112Y1815138D2*
D10*
X1447971D1*
X757409Y1290729D2*
X706267D1*
X742765Y1808988D2*
X691623D1*
X922841Y2197515D2*
X973983D1*
X1797872Y2860259D2*
X1849014D1*
X1242733Y3177729D2*
X1191591D1*
X1130233D2*
X1079091D1*
X1472807Y4497530D2*
X1523948D1*
X1661971Y4455373D2*
Y4270326D1*
X1770250D1*
X1772212D2*
Y4455373D1*
X1732849D1*
X1661971D2*
X1701334D1*
G03X1732849Y4455373I15758J-1844D01*
G01*
G36*
X585445Y4181634D2*
X619404D1*
Y4211663D1*
X585445D1*
Y4181634D1*
G37*
X473427Y3941672D2*
D15*
Y4177666D1*
X731448D1*
X731423Y3941672D1*
G36*
X1183443Y4434091D2*
X1163443D1*
Y4454071D1*
X1183443D1*
Y4434091D1*
G37*
X1423443Y4469101D2*
D32*
X1398443Y4494099D1*
X1348443D2*
X1323443Y4469101D1*
X1298443Y4494099D1*
X1248443D2*
X1223443Y4469101D1*
X1198443Y4494099D1*
X1148443D2*
X1123443Y4469101D1*
X1098443Y4494099D1*
X1048443D2*
X1023443Y4469101D1*
X1423443D2*
Y4319094D1*
X1398443Y4294096D1*
X1348443D1*
X1323443Y4319094D1*
X1298443Y4294096D1*
X1248443D1*
X1223443Y4319094D1*
X1198443Y4294096D1*
X1148443D1*
X1123443Y4319094D1*
X1098443Y4294096D1*
X1048443D1*
X1023443Y4319094D1*
X1323443D2*
Y4469101D1*
X1223443Y4319094D2*
Y4469101D1*
X1123443Y4319094D2*
Y4469101D1*
X1023443Y4319094D2*
Y4469101D1*
X1098443Y4494099D2*
X1048443D1*
X1198443D2*
X1148443D1*
X1298443D2*
X1248443D1*
X1398443D2*
X1348443D1*
X1023443Y4469101D2*
X998443Y4494099D1*
X948443D2*
X923443Y4469101D1*
X1023443Y4319094D2*
X998443Y4294096D1*
X948443D1*
X923443Y4319094D1*
Y4469101D1*
X998443Y4494099D2*
X948443D1*
X1398443Y4519096D2*
D15*
X1348443D1*
X1391360Y3981627D2*
D10*
Y3958068D1*
X1292927Y3981627D2*
Y3958068D1*
D38*
X1581903Y2000747D3*
X1531761Y2009948D2*
D10*
Y2128053D1*
X1512076D1*
Y2009948D1*
X1531761D1*
D40*
X1481719Y2602960D3*
X1490920Y2653102D2*
D10*
X1609025D1*
Y2672787D1*
X1490920D1*
Y2653102D1*
D40*
X675468Y2602960D3*
X684669Y2653102D2*
D10*
X802774D1*
Y2672787D1*
X684669D1*
Y2653102D1*
D38*
X771234Y2137445D3*
X821376Y2128245D2*
D10*
Y2010140D1*
X841061D1*
Y2128245D1*
X821376D1*
X454694Y2985977D2*
X1854694D1*
X454694Y3685977D2*
X1854694D1*
Y2985977D2*
Y3685977D1*
X454694Y2985977D2*
Y3685977D1*
Y3285997D2*
G03X454694Y3385957I0J49980D01*
G01*
X1050461Y2082788D2*
X1263061D1*
X1050461Y2208760D2*
X1263061D1*
Y2082788D2*
Y2208760D1*
X1050461Y2082788D2*
Y2126085D1*
Y2165462D2*
Y2208760D1*
Y2126085D2*
G03X1050461Y2165462I-23J19689D01*
G01*
X1437516Y817958D2*
X1634370D1*
X1437516Y920335D2*
X1634370D1*
Y817958D2*
Y920335D1*
X1437516Y849452D2*
Y817958D1*
Y888841D2*
Y920335D1*
Y849452D2*
G03X1437516Y888841I-9J19694D01*
G01*
X687516Y824208D2*
X884370D1*
X687516Y926584D2*
X884370D1*
Y824208D2*
Y926584D1*
X687516Y855701D2*
Y824208D1*
Y895090D2*
Y926584D1*
Y855701D2*
G03X687516Y895090I-9J19694D01*
G01*
X1443767Y1574208D2*
X1640621D1*
X1443767Y1676584D2*
X1640621D1*
Y1574208D2*
Y1676584D1*
X1443767Y1605701D2*
Y1574208D1*
Y1645090D2*
Y1676584D1*
Y1605701D2*
G03X1443767Y1645090I-9J19694D01*
G01*
D38*
X1216203Y2413446D3*
X1166061Y2422646D2*
D10*
Y2540751D1*
X1146376D1*
Y2422646D1*
X1166061D1*
D46*
X1712854Y4048222D3*
X1707592Y3994156D2*
D10*
X1589484D1*
X1707592Y3962666D2*
X1589484D1*
Y3994156D2*
Y3962666D1*
X1707592Y3994156D2*
Y3962666D1*
X681267Y1580458D2*
X878121D1*
X681267Y1682835D2*
X878121D1*
Y1580458D2*
Y1682835D1*
X681267Y1611952D2*
Y1580458D1*
Y1651341D2*
Y1682835D1*
Y1611952D2*
G03X681267Y1651341I-9J19694D01*
G01*
X920863Y2938153D2*
Y2887011D1*
X591591Y1710251D2*
X642733D1*
X1366591Y1704198D2*
X1417733D1*
D38*
X589953Y3549938D3*
X640095Y3540737D2*
D10*
Y3422632D1*
X659781D1*
Y3540737D1*
X640095D1*
G36*
X1856347Y2176725D2*
X1922303D1*
Y2105276D1*
X1856347D1*
Y2176725D1*
G37*
G36*
X1920908Y2266211D2*
Y2192633D1*
X1854941Y2227791D1*
X1920908Y2266211D1*
G37*
D21*
X1890935Y2052547D3*
X1857996Y2349041D2*
D15*
X1917401D1*
Y2286446D1*
X1857996D1*
Y2349041D1*
X1869616Y2352673D2*
D12*
X1881616D1*
X1870616Y2351673D2*
X1882616D1*
X1871616Y2350673D2*
X1883616D1*
X1872612Y2349673D2*
X1884616D1*
X1873577Y2348673D2*
X1885616D1*
X1874450Y2347673D2*
X1886612D1*
X1875206Y2346673D2*
X1887577D1*
X1875915Y2345673D2*
X1888446D1*
X1876609Y2344673D2*
X1889171D1*
X1877242Y2343673D2*
X1889784D1*
X1877812Y2342673D2*
X1890331D1*
X1878341Y2341673D2*
X1890815D1*
X1878819Y2340673D2*
X1891192D1*
X1879193Y2339673D2*
X1891419D1*
X1879420Y2338673D2*
X1891534D1*
X1879534Y2337673D2*
X1891584D1*
X1879584Y2336673D2*
X1891604D1*
X1879604Y2335673D2*
X1891612D1*
X1879608Y2334673D2*
X1891615D1*
X1879576Y2333673D2*
X1891616D1*
X1879446Y2332673D2*
X1891616D1*
X1879171Y2331673D2*
X1891612D1*
X1878784Y2330673D2*
X1891577D1*
X1878335Y2329673D2*
X1891450D1*
X1877854Y2328673D2*
X1891206D1*
X1877363Y2327673D2*
X1890915D1*
X1876865Y2326673D2*
X1890609D1*
X1876366Y2325673D2*
X1890242D1*
X1875866Y2324673D2*
X1889812D1*
X1875367Y2323673D2*
X1889345D1*
X1874866Y2322673D2*
X1888858D1*
X1874367Y2321673D2*
X1888364D1*
X1873866Y2320673D2*
X1887865D1*
X1873367Y2319673D2*
X1887363D1*
X1872866Y2318673D2*
X1886831D1*
X1872367Y2317673D2*
X1886235D1*
X1871870Y2316673D2*
X1885591D1*
X1871402Y2315673D2*
X1884979D1*
X1870997Y2314673D2*
X1884417D1*
X1870645Y2313673D2*
X1883890D1*
X1870293Y2312673D2*
X1883410D1*
X1869982Y2311673D2*
X1883000D1*
X1869752Y2310673D2*
X1882646D1*
X1869525Y2309673D2*
X1882293D1*
X1869240Y2308673D2*
X1881982D1*
X1868965Y2307673D2*
X1881753D1*
X1868783Y2306673D2*
X1881525D1*
X1868688Y2305673D2*
X1881244D1*
X1868649Y2304673D2*
X1881004D1*
X1868666Y2303673D2*
X1880950D1*
X1868787Y2302673D2*
X1881094D1*
X1869028Y2301673D2*
X1881311D1*
X1869318Y2300673D2*
X1881503D1*
X1869620Y2299673D2*
X1881720D1*
X1869956Y2298673D2*
X1882035D1*
X1870294Y2297673D2*
X1882439D1*
X1870648Y2296673D2*
X1882899D1*
X1871119Y2295673D2*
X1883417D1*
X1871698Y2294673D2*
X1884040D1*
X1872314Y2293673D2*
X1884813D1*
X1872998Y2292673D2*
X1885699D1*
X1873833Y2291673D2*
X1886649D1*
X1874859Y2290673D2*
X1887628D1*
X1876061Y2289673D2*
X1888621D1*
X1877340Y2288673D2*
X1889618D1*
X1878616Y2287673D2*
X1890616D1*
X1895668Y2352968D2*
X1907668D1*
X1896668Y2351968D2*
X1908668D1*
X1897668Y2350968D2*
X1909668D1*
X1898664Y2349968D2*
X1910668D1*
X1899629Y2348968D2*
X1911668D1*
X1900501Y2347968D2*
X1912664D1*
X1901258Y2346968D2*
X1913629D1*
X1901966Y2345968D2*
X1914497D1*
X1902660Y2344968D2*
X1915223D1*
X1903293Y2343968D2*
X1915835D1*
X1903863Y2342968D2*
X1916382D1*
X1904392Y2341968D2*
X1916866D1*
X1904870Y2340968D2*
X1917243D1*
X1905245Y2339968D2*
X1917471D1*
X1905471Y2338968D2*
X1917585D1*
X1905585Y2337968D2*
X1917635D1*
X1905635Y2336968D2*
X1917656D1*
X1905656Y2335968D2*
X1917663D1*
X1905659Y2334968D2*
X1917666D1*
X1905627Y2333968D2*
X1917667D1*
X1905497Y2332968D2*
X1917667D1*
X1905222Y2331968D2*
X1917664D1*
X1904835Y2330968D2*
X1917628D1*
X1904386Y2329968D2*
X1917501D1*
X1903905Y2328968D2*
X1917258D1*
X1903414Y2327968D2*
X1916966D1*
X1902916Y2326968D2*
X1916660D1*
X1902417Y2325968D2*
X1916293D1*
X1901917Y2324968D2*
X1915863D1*
X1901418Y2323968D2*
X1915396D1*
X1900917Y2322968D2*
X1914909D1*
X1900418Y2321968D2*
X1914415D1*
X1899917Y2320968D2*
X1913916D1*
X1899418Y2319968D2*
X1913414D1*
X1898917Y2318968D2*
X1912882D1*
X1898418Y2317968D2*
X1912287D1*
X1897921Y2316968D2*
X1911643D1*
X1897453Y2315968D2*
X1911030D1*
X1897049Y2314968D2*
X1910468D1*
X1896697Y2313968D2*
X1909941D1*
X1896344Y2312968D2*
X1909461D1*
X1896034Y2311968D2*
X1909051D1*
X1895804Y2310968D2*
X1908698D1*
X1895576Y2309968D2*
X1908344D1*
X1895291Y2308968D2*
X1908034D1*
X1895016Y2307968D2*
X1907804D1*
X1894835Y2306968D2*
X1907576D1*
X1894739Y2305968D2*
X1907295D1*
X1894700Y2304968D2*
X1907055D1*
X1894717Y2303968D2*
X1907001D1*
X1894838Y2302968D2*
X1907145D1*
X1895079Y2301968D2*
X1907362D1*
X1895369Y2300968D2*
X1907554D1*
X1895671Y2299968D2*
X1907771D1*
X1896007Y2298968D2*
X1908086D1*
X1896345Y2297968D2*
X1908490D1*
X1896699Y2296968D2*
X1908950D1*
X1897170Y2295968D2*
X1909468D1*
X1897750Y2294968D2*
X1910091D1*
X1898365Y2293968D2*
X1910864D1*
X1899049Y2292968D2*
X1911750D1*
X1899885Y2291968D2*
X1912700D1*
X1900911Y2290968D2*
X1913680D1*
X1902113Y2289968D2*
X1914672D1*
X1903391Y2288968D2*
X1915669D1*
X1904668Y2287968D2*
X1916668D1*
X1869616Y2352673D2*
X1870616Y2351673D1*
X1871616Y2350673D1*
X1872612Y2349673D1*
X1873577Y2348673D1*
X1874450Y2347673D1*
X1875206Y2346673D1*
X1875915Y2345673D1*
X1876609Y2344673D1*
X1877242Y2343673D1*
X1877812Y2342673D1*
X1878341Y2341673D1*
X1878819Y2340673D1*
X1879193Y2339673D1*
X1879420Y2338673D1*
X1879534Y2337673D1*
X1879584Y2336673D1*
X1879604Y2335673D1*
X1879608Y2334673D1*
X1879576Y2333673D1*
X1879446Y2332673D1*
X1879171Y2331673D1*
X1878784Y2330673D1*
X1878335Y2329673D1*
X1877854Y2328673D1*
X1877363Y2327673D1*
X1876865Y2326673D1*
X1876366Y2325673D1*
X1875866Y2324673D1*
X1875367Y2323673D1*
X1874866Y2322673D1*
X1874367Y2321673D1*
X1873866Y2320673D1*
X1873367Y2319673D1*
X1872866Y2318673D1*
X1872367Y2317673D1*
X1871870Y2316673D1*
X1871402Y2315673D1*
X1870997Y2314673D1*
X1870645Y2313673D1*
X1870293Y2312673D1*
X1869982Y2311673D1*
X1869752Y2310673D1*
X1869525Y2309673D1*
X1869240Y2308673D1*
X1868965Y2307673D1*
X1868783Y2306673D1*
X1868688Y2305673D1*
X1868649Y2304673D1*
X1868666Y2303673D1*
X1868787Y2302673D1*
X1869028Y2301673D1*
X1869318Y2300673D1*
X1869620Y2299673D1*
X1869956Y2298673D1*
X1870294Y2297673D1*
X1870648Y2296673D1*
X1871119Y2295673D1*
X1871698Y2294673D1*
X1872314Y2293673D1*
X1872998Y2292673D1*
X1873833Y2291673D1*
X1874859Y2290673D1*
X1876061Y2289673D1*
X1877340Y2288673D1*
X1878616Y2287673D1*
X1881616Y2352673D2*
X1882616Y2351673D1*
X1883616Y2350673D1*
X1884616Y2349673D1*
X1885616Y2348673D1*
X1886612Y2347673D1*
X1887577Y2346673D1*
X1888446Y2345673D1*
X1889171Y2344673D1*
X1889784Y2343673D1*
X1890331Y2342673D1*
X1890815Y2341673D1*
X1891192Y2340673D1*
X1891419Y2339673D1*
X1891534Y2338673D1*
X1891584Y2337673D1*
X1891604Y2336673D1*
X1891612Y2335673D1*
X1891615Y2334673D1*
X1891616Y2333673D1*
Y2332673D1*
X1891612Y2331673D1*
X1891577Y2330673D1*
X1891450Y2329673D1*
X1891206Y2328673D1*
X1890915Y2327673D1*
X1890609Y2326673D1*
X1890242Y2325673D1*
X1889812Y2324673D1*
X1889345Y2323673D1*
X1888858Y2322673D1*
X1888364Y2321673D1*
X1887865Y2320673D1*
X1887363Y2319673D1*
X1886831Y2318673D1*
X1886235Y2317673D1*
X1885591Y2316673D1*
X1884979Y2315673D1*
X1884417Y2314673D1*
X1883890Y2313673D1*
X1883410Y2312673D1*
X1883000Y2311673D1*
X1882646Y2310673D1*
X1882293Y2309673D1*
X1881982Y2308673D1*
X1881753Y2307673D1*
X1881525Y2306673D1*
X1881244Y2305673D1*
X1881004Y2304673D1*
X1880950Y2303673D1*
X1881094Y2302673D1*
X1881311Y2301673D1*
X1881503Y2300673D1*
X1881720Y2299673D1*
X1882035Y2298673D1*
X1882439Y2297673D1*
X1882899Y2296673D1*
X1883417Y2295673D1*
X1884040Y2294673D1*
X1884813Y2293673D1*
X1885699Y2292673D1*
X1886649Y2291673D1*
X1887628Y2290673D1*
X1888621Y2289673D1*
X1889618Y2288673D1*
X1890616Y2287673D1*
X1895668Y2352968D2*
X1896668Y2351968D1*
X1897668Y2350968D1*
X1898664Y2349968D1*
X1899629Y2348968D1*
X1900501Y2347968D1*
X1901258Y2346968D1*
X1901966Y2345968D1*
X1902660Y2344968D1*
X1903293Y2343968D1*
X1903863Y2342968D1*
X1904392Y2341968D1*
X1904870Y2340968D1*
X1905245Y2339968D1*
X1905471Y2338968D1*
X1905585Y2337968D1*
X1905635Y2336968D1*
X1905656Y2335968D1*
X1905659Y2334968D1*
X1905627Y2333968D1*
X1905497Y2332968D1*
X1905222Y2331968D1*
X1904835Y2330968D1*
X1904386Y2329968D1*
X1903905Y2328968D1*
X1903414Y2327968D1*
X1902916Y2326968D1*
X1902417Y2325968D1*
X1901917Y2324968D1*
X1901418Y2323968D1*
X1900917Y2322968D1*
X1900418Y2321968D1*
X1899917Y2320968D1*
X1899418Y2319968D1*
X1898917Y2318968D1*
X1898418Y2317968D1*
X1897921Y2316968D1*
X1897453Y2315968D1*
X1897049Y2314968D1*
X1896697Y2313968D1*
X1896344Y2312968D1*
X1896034Y2311968D1*
X1895804Y2310968D1*
X1895576Y2309968D1*
X1895291Y2308968D1*
X1895016Y2307968D1*
X1894835Y2306968D1*
X1894739Y2305968D1*
X1894700Y2304968D1*
X1894717Y2303968D1*
X1894838Y2302968D1*
X1895079Y2301968D1*
X1895369Y2300968D1*
X1895671Y2299968D1*
X1896007Y2298968D1*
X1896345Y2297968D1*
X1896699Y2296968D1*
X1897170Y2295968D1*
X1897750Y2294968D1*
X1898365Y2293968D1*
X1899049Y2292968D1*
X1899885Y2291968D1*
X1900911Y2290968D1*
X1902113Y2289968D1*
X1903391Y2288968D1*
X1904668Y2287968D1*
X1907668Y2352968D2*
X1908668Y2351968D1*
X1909668Y2350968D1*
X1910668Y2349968D1*
X1911668Y2348968D1*
X1912664Y2347968D1*
X1913629Y2346968D1*
X1914497Y2345968D1*
X1915223Y2344968D1*
X1915835Y2343968D1*
X1916382Y2342968D1*
X1916866Y2341968D1*
X1917243Y2340968D1*
X1917471Y2339968D1*
X1917585Y2338968D1*
X1917635Y2337968D1*
X1917656Y2336968D1*
X1917663Y2335968D1*
X1917666Y2334968D1*
X1917667Y2333968D1*
Y2332968D1*
X1917664Y2331968D1*
X1917628Y2330968D1*
X1917501Y2329968D1*
X1917258Y2328968D1*
X1916966Y2327968D1*
X1916660Y2326968D1*
X1916293Y2325968D1*
X1915863Y2324968D1*
X1915396Y2323968D1*
X1914909Y2322968D1*
X1914415Y2321968D1*
X1913916Y2320968D1*
X1913414Y2319968D1*
X1912882Y2318968D1*
X1912287Y2317968D1*
X1911643Y2316968D1*
X1911030Y2315968D1*
X1910468Y2314968D1*
X1909941Y2313968D1*
X1909461Y2312968D1*
X1909051Y2311968D1*
X1908698Y2310968D1*
X1908344Y2309968D1*
X1908034Y2308968D1*
X1907804Y2307968D1*
X1907576Y2306968D1*
X1907295Y2305968D1*
X1907055Y2304968D1*
X1907001Y2303968D1*
X1907145Y2302968D1*
X1907362Y2301968D1*
X1907554Y2300968D1*
X1907771Y2299968D1*
X1908086Y2298968D1*
X1908490Y2297968D1*
X1908950Y2296968D1*
X1909468Y2295968D1*
X1910091Y2294968D1*
X1910864Y2293968D1*
X1911750Y2292968D1*
X1912700Y2291968D1*
X1913680Y2290968D1*
X1914672Y2289968D1*
X1915669Y2288968D1*
X1916668Y2287968D1*
X1294725Y2968226D2*
D102*
X1293299Y2971078D1*
X1290414Y2973963D1*
X1287562Y2975389D1*
X1281825D1*
X1278940Y2973963D1*
X1276088Y2971078D1*
X1274629Y2968226D1*
X1273203Y2963915D1*
Y2956719D1*
X1274629Y2952441D1*
X1276088Y2949556D1*
X1278940Y2946704D1*
X1281825Y2945245D1*
X1287562D1*
X1290414Y2946704D1*
X1293299Y2949556D1*
X1294725Y2952441D1*
X1303989Y2969618D2*
X1306874Y2971078D1*
X1311185Y2975355D1*
Y2945245D1*
X1050775Y2964929D2*
X1049349Y2967781D1*
X1046464Y2970666D1*
X1043612Y2972092D1*
X1037875D1*
X1034990Y2970666D1*
X1032138Y2967781D1*
X1030679Y2964929D1*
X1029253Y2960618D1*
Y2953422D1*
X1030679Y2949144D1*
X1032138Y2946259D1*
X1034990Y2943407D1*
X1037875Y2941948D1*
X1043612D1*
X1046464Y2943407D1*
X1049349Y2946259D1*
X1050775Y2949144D1*
X1061498Y2964896D2*
Y2966322D1*
X1062924Y2969207D1*
X1064350Y2970633D1*
X1067235Y2972059D1*
X1072972D1*
X1075824Y2970633D1*
X1077250Y2969207D1*
X1078709Y2966322D1*
Y2963470D1*
X1077250Y2960585D1*
X1074398Y2956307D1*
X1060039Y2941948D1*
X1080135D1*
X1488735Y3828810D2*
X1485883Y3827384D1*
X1482998Y3824499D1*
X1481572Y3821647D1*
Y3815910D1*
X1482998Y3813025D1*
X1485883Y3810173D1*
X1488735Y3808714D1*
X1493046Y3807288D1*
X1500242D1*
X1504520Y3808714D1*
X1507405Y3810173D1*
X1510257Y3813025D1*
X1511716Y3815910D1*
Y3821647D1*
X1510257Y3824499D1*
X1507405Y3827384D1*
X1504520Y3828810D1*
X1481606Y3840959D2*
Y3856711D1*
X1493079Y3848122D1*
Y3852433D1*
X1494505Y3855285D1*
X1495931Y3856711D1*
X1500242Y3858170D1*
X1503094D1*
X1507405Y3856711D1*
X1510290Y3853859D1*
X1511716Y3849548D1*
Y3845237D1*
X1510290Y3840959D1*
X1508831Y3839533D1*
X1505979Y3838074D1*
X1738738Y3963332D2*
X1735886Y3961906D1*
X1733001Y3959021D1*
X1731575Y3956169D1*
Y3950432D1*
X1733001Y3947547D1*
X1735886Y3944695D1*
X1738738Y3943236D1*
X1743049Y3941810D1*
X1750245D1*
X1754523Y3943236D1*
X1757408Y3944695D1*
X1760260Y3947547D1*
X1761719Y3950432D1*
Y3956169D1*
X1760260Y3959021D1*
X1757408Y3961906D1*
X1754523Y3963332D1*
X1761719Y3986955D2*
X1731608D1*
X1751671Y3972596D1*
Y3994118D1*
X1094646Y1879410D2*
X1091794Y1877984D1*
X1088909Y1875099D1*
X1087483Y1872247D1*
Y1866510D1*
X1088909Y1863625D1*
X1091794Y1860773D1*
X1094646Y1859314D1*
X1098957Y1857888D1*
X1106153D1*
X1110431Y1859314D1*
X1113316Y1860773D1*
X1116168Y1863625D1*
X1117627Y1866510D1*
Y1872247D1*
X1116168Y1875099D1*
X1113316Y1877984D1*
X1110431Y1879410D1*
X1087516Y1905885D2*
Y1891559D1*
X1100416Y1890133D1*
X1098990Y1891559D1*
X1097531Y1895870D1*
Y1900148D1*
X1098990Y1904459D1*
X1101842Y1907344D1*
X1106153Y1908770D1*
X1109005D1*
X1113316Y1907344D1*
X1116201Y1904458D1*
X1117627Y1900147D1*
Y1895870D1*
X1116201Y1891559D1*
X1114742Y1890133D1*
X1111890Y1888674D1*
X1507084Y4138783D2*
X1504232Y4137357D1*
X1501347Y4134472D1*
X1499921Y4131620D1*
Y4125883D1*
X1501347Y4122998D1*
X1504232Y4120146D1*
X1507084Y4118687D1*
X1511395Y4117261D1*
X1518591D1*
X1522869Y4118687D1*
X1525754Y4120146D1*
X1528606Y4122998D1*
X1530065Y4125883D1*
Y4131620D1*
X1528606Y4134472D1*
X1525754Y4137357D1*
X1522869Y4138783D1*
X1504232Y4165257D2*
X1501381Y4163831D1*
X1499955Y4159520D1*
Y4156668D1*
X1501381Y4152357D1*
X1505692Y4149472D1*
X1512855Y4148046D1*
X1520017D1*
X1525754Y4149472D1*
X1528639Y4152357D1*
X1530065Y4156668D1*
Y4158094D1*
X1528639Y4162372D1*
X1525754Y4165257D1*
X1521443Y4166683D1*
X1520017D1*
X1515706Y4165257D1*
X1512855Y4162372D1*
X1511429Y4158094D1*
Y4156668D1*
X1512855Y4152357D1*
X1515706Y4149472D1*
X1520017Y4148046D1*
X857150Y3837462D2*
X855724Y3840314D1*
X852839Y3843199D1*
X849987Y3844625D1*
X844250D1*
X841365Y3843199D1*
X838513Y3840314D1*
X837054Y3837462D1*
X835628Y3833151D1*
Y3825955D1*
X837054Y3821677D1*
X838513Y3818792D1*
X841365Y3815940D1*
X844250Y3814481D1*
X849987D1*
X852839Y3815940D1*
X855724Y3818792D1*
X857150Y3821677D1*
X872151Y3814481D2*
X886510Y3844592D1*
X866414D1*
X1102327Y2422899D2*
X1100901Y2425751D1*
X1098016Y2428636D1*
X1095164Y2430062D1*
X1089427D1*
X1086542Y2428636D1*
X1083690Y2425751D1*
X1082231Y2422899D1*
X1080805Y2418588D1*
Y2411392D1*
X1082231Y2407114D1*
X1083690Y2404229D1*
X1086542Y2401377D1*
X1089427Y2399918D1*
X1095164D1*
X1098016Y2401377D1*
X1100901Y2404229D1*
X1102327Y2407114D1*
X1118754Y2430029D2*
X1114476Y2428603D1*
X1113017Y2425751D1*
Y2422866D1*
X1114476Y2420014D1*
X1117328Y2418555D1*
X1123065Y2417129D1*
X1127376Y2415703D1*
X1130227Y2412818D1*
X1131653Y2409966D1*
Y2405655D1*
X1130227Y2402803D1*
X1128802Y2401344D1*
X1124490Y2399918D1*
X1118754D1*
X1114476Y2401344D1*
X1113017Y2402803D1*
X1111591Y2405655D1*
Y2409966D1*
X1113017Y2412818D1*
X1115902Y2415703D1*
X1120179Y2417129D1*
X1125916Y2418555D1*
X1128802Y2420014D1*
X1130227Y2422866D1*
Y2425751D1*
X1128802Y2428603D1*
X1124490Y2430029D1*
X1118754D1*
X1765523Y3866644D2*
X1764097Y3869496D1*
X1761212Y3872381D1*
X1758361Y3873807D1*
X1752624D1*
X1749738Y3872381D1*
X1746887Y3869496D1*
X1745427Y3866644D1*
X1744001Y3862333D1*
Y3855137D1*
X1745427Y3850859D1*
X1746887Y3847974D1*
X1749738Y3845122D1*
X1752624Y3843663D1*
X1758361D1*
X1761212Y3845122D1*
X1764097Y3847974D1*
X1765523Y3850859D1*
X1793457Y3863759D2*
X1791998Y3859448D1*
X1789146Y3856563D1*
X1784835Y3855137D1*
X1783409D1*
X1779098Y3856563D1*
X1776246Y3859448D1*
X1774787Y3863759D1*
Y3865185D1*
X1776246Y3869496D1*
X1779098Y3872348D1*
X1783409Y3873774D1*
X1784835D1*
X1789146Y3872348D1*
X1791998Y3869496D1*
X1793457Y3863759D1*
Y3856563D1*
X1791998Y3849400D1*
X1789146Y3845089D1*
X1784835Y3843663D1*
X1781983D1*
X1777672Y3845089D1*
X1776246Y3847974D1*
X1294645Y2067716D2*
X1291793Y2066290D1*
X1288908Y2063405D1*
X1287482Y2060553D1*
Y2054816D1*
X1288908Y2051931D1*
X1291793Y2049079D1*
X1294645Y2047620D1*
X1298956Y2046194D1*
X1306152D1*
X1310430Y2047620D1*
X1313315Y2049079D1*
X1316167Y2051931D1*
X1317626Y2054816D1*
Y2060553D1*
X1316167Y2063405D1*
X1313315Y2066290D1*
X1310430Y2067716D1*
X1293252Y2076979D2*
X1291793Y2079864D1*
X1287515Y2084175D1*
X1317626D1*
X1287515Y2102061D2*
X1288941Y2097750D1*
X1293252Y2094865D1*
X1300415Y2093439D1*
X1304726D1*
X1311889Y2094865D1*
X1316200Y2097750D1*
X1317626Y2102061D1*
Y2104913D1*
X1316200Y2109224D1*
X1311889Y2112076D1*
X1304726Y2113535D1*
X1300415D1*
X1293252Y2112076D1*
X1288941Y2109224D1*
X1287515Y2104913D1*
Y2102061D1*
X1293252Y2112076D2*
X1311889Y2094865D1*
X507138Y808698D2*
X504286Y807272D1*
X501401Y804387D1*
X499975Y801536D1*
Y795799D1*
X501401Y792913D1*
X504286Y790062D1*
X507138Y788602D1*
X511449Y787177D1*
X518645D1*
X522923Y788602D1*
X525808Y790062D1*
X528660Y792913D1*
X530119Y795799D1*
Y801535D1*
X528660Y804387D1*
X525808Y807272D1*
X522923Y808698D1*
X505745Y817962D2*
X504286Y820847D1*
X500008Y825158D1*
X530119D1*
X505745Y834422D2*
X504286Y837307D1*
X500008Y841618D1*
X530119D1*
X1100864Y592696D2*
X1098012Y591270D1*
X1095127Y588385D1*
X1093701Y585533D1*
Y579796D1*
X1095127Y576911D1*
X1098012Y574059D1*
X1100864Y572600D1*
X1105175Y571174D1*
X1112371D1*
X1116649Y572600D1*
X1119534Y574059D1*
X1122386Y576911D1*
X1123845Y579796D1*
Y585533D1*
X1122386Y588385D1*
X1119534Y591270D1*
X1116649Y592696D1*
X1099471Y601960D2*
X1098012Y604845D1*
X1093734Y609156D1*
X1123845D1*
X1100897Y619878D2*
X1099471D1*
X1096586Y621304D1*
X1095160Y622730D1*
X1093734Y625615D1*
Y631352D1*
X1095160Y634204D1*
X1096586Y635630D1*
X1099471Y637089D1*
X1102323D1*
X1105208Y635630D1*
X1109486Y632778D1*
X1123845Y618419D1*
Y638515D1*
X1675895Y586465D2*
X1673043Y585039D1*
X1670158Y582154D1*
X1668732Y579302D1*
Y573565D1*
X1670158Y570680D1*
X1673043Y567828D1*
X1675895Y566369D1*
X1680206Y564943D1*
X1687402D1*
X1691680Y566369D1*
X1694565Y567828D1*
X1697417Y570680D1*
X1698876Y573565D1*
Y579302D1*
X1697417Y582154D1*
X1694565Y585039D1*
X1691680Y586465D1*
X1674503Y595729D2*
X1673044Y598614D1*
X1668766Y602925D1*
X1698876D1*
X1668766Y615073D2*
Y630825D1*
X1680240Y622236D1*
Y626547D1*
X1681666Y629399D1*
X1683091Y630825D1*
X1687403Y632284D1*
X1690254D1*
X1694565Y630825D1*
X1697450Y627973D1*
X1698876Y623662D1*
Y619351D1*
X1697450Y615073D1*
X1695991Y613647D1*
X1693139Y612188D1*
X618368Y3747898D2*
X616942Y3750749D1*
X614057Y3753635D1*
X611205Y3755061D1*
X605468D1*
X602583Y3753635D1*
X599731Y3750749D1*
X598272Y3747898D1*
X596846Y3743587D1*
Y3736390D1*
X598272Y3732113D1*
X599731Y3729228D1*
X602583Y3726376D1*
X605468Y3724917D1*
X611205D1*
X614057Y3726376D1*
X616942Y3729228D1*
X618368Y3732113D1*
X627631Y3749290D2*
X630516Y3750749D1*
X634827Y3755027D1*
Y3724917D1*
X658450D2*
Y3755027D1*
X644091Y3734965D1*
X665613D1*
X1413395Y586563D2*
X1410543Y585137D1*
X1407658Y582252D1*
X1406232Y579401D1*
Y573664D1*
X1407658Y570778D1*
X1410543Y567927D1*
X1413395Y566467D1*
X1417706Y565042D1*
X1424902D1*
X1429180Y566467D1*
X1432065Y567927D1*
X1434917Y570778D1*
X1436376Y573664D1*
Y579400D1*
X1434917Y582252D1*
X1432065Y585137D1*
X1429180Y586563D1*
X1412003Y595827D2*
X1410544Y598712D1*
X1406266Y603023D1*
X1436376D1*
X1406266Y629498D2*
Y615172D1*
X1419166Y613746D1*
X1417740Y615172D1*
X1416280Y619483D1*
Y623761D1*
X1417740Y628072D1*
X1420591Y630957D1*
X1424903Y632383D1*
X1427754D1*
X1432065Y630957D1*
X1434950Y628072D1*
X1436376Y623760D1*
Y619483D1*
X1434950Y615172D1*
X1433491Y613746D1*
X1430639Y612287D1*
X1413395Y1140562D2*
X1410543Y1139136D1*
X1407658Y1136251D1*
X1406232Y1133399D1*
Y1127662D1*
X1407658Y1124777D1*
X1410543Y1121925D1*
X1413395Y1120466D1*
X1417706Y1119040D1*
X1424902D1*
X1429180Y1120466D1*
X1432065Y1121925D1*
X1434917Y1124777D1*
X1436376Y1127662D1*
Y1133399D1*
X1434917Y1136251D1*
X1432065Y1139136D1*
X1429180Y1140562D1*
X1412003Y1149826D2*
X1410544Y1152711D1*
X1406266Y1157022D1*
X1436376D1*
X1410543Y1183496D2*
X1407692Y1182070D1*
X1406266Y1177759D1*
Y1174907D1*
X1407692Y1170596D1*
X1412003Y1167711D1*
X1419166Y1166285D1*
X1426328D1*
X1432065Y1167711D1*
X1434950Y1170596D1*
X1436376Y1174907D1*
Y1176333D1*
X1434950Y1180611D1*
X1432065Y1183496D1*
X1427754Y1184922D1*
X1426328D1*
X1422017Y1183496D1*
X1419166Y1180611D1*
X1417740Y1176333D1*
Y1174907D1*
X1419166Y1170596D1*
X1422017Y1167711D1*
X1426328Y1166285D1*
X538395Y586563D2*
X535543Y585137D1*
X532658Y582252D1*
X531232Y579401D1*
Y573664D1*
X532658Y570778D1*
X535543Y567927D1*
X538395Y566467D1*
X542706Y565042D1*
X549902D1*
X554180Y566467D1*
X557065Y567927D1*
X559917Y570778D1*
X561376Y573664D1*
Y579400D1*
X559917Y582252D1*
X557065Y585137D1*
X554180Y586563D1*
X537003Y595827D2*
X535544Y598712D1*
X531266Y603023D1*
X561376D1*
Y618024D2*
X531266Y632383D1*
Y612287D1*
X663395Y1139849D2*
X660543Y1138423D1*
X657658Y1135538D1*
X656232Y1132686D1*
Y1126949D1*
X657658Y1124064D1*
X660543Y1121212D1*
X663395Y1119753D1*
X667706Y1118327D1*
X674902D1*
X679180Y1119753D1*
X682065Y1121212D1*
X684917Y1124064D1*
X686376Y1126949D1*
Y1132686D1*
X684917Y1135538D1*
X682065Y1138423D1*
X679180Y1139849D1*
X662003Y1149113D2*
X660544Y1151998D1*
X656266Y1156309D1*
X686376D1*
X656266Y1172735D2*
X657692Y1168457D1*
X660544Y1166998D1*
X663429D1*
X666280Y1168457D1*
X667740Y1171309D1*
X669166Y1177046D1*
X670591Y1181357D1*
X673477Y1184209D1*
X676328Y1185635D1*
X680639D1*
X683491Y1184209D1*
X684950Y1182783D1*
X686376Y1178472D1*
Y1172735D1*
X684950Y1168457D1*
X683491Y1166998D1*
X680639Y1165572D1*
X676328D1*
X673477Y1166998D1*
X670591Y1169883D1*
X669166Y1174161D1*
X667740Y1179898D1*
X666280Y1182783D1*
X663429Y1184209D1*
X660543D1*
X657692Y1182783D1*
X656266Y1178472D1*
Y1172735D1*
X1044645Y1180929D2*
X1041793Y1179503D1*
X1038908Y1176618D1*
X1037482Y1173766D1*
Y1168029D1*
X1038908Y1165144D1*
X1041793Y1162292D1*
X1044645Y1160833D1*
X1048956Y1159407D1*
X1056152D1*
X1060430Y1160833D1*
X1063315Y1162292D1*
X1066167Y1165144D1*
X1067626Y1168029D1*
Y1173766D1*
X1066167Y1176618D1*
X1063315Y1179503D1*
X1060430Y1180929D1*
X1043252Y1190192D2*
X1041793Y1193077D1*
X1037515Y1197388D1*
X1067626D1*
X1047530Y1225322D2*
X1051841Y1223863D1*
X1054726Y1221011D1*
X1056152Y1216700D1*
Y1215274D1*
X1054726Y1210963D1*
X1051841Y1208111D1*
X1047530Y1206652D1*
X1046104D1*
X1041793Y1208111D1*
X1038941Y1210963D1*
X1037515Y1215274D1*
Y1216700D1*
X1038941Y1221011D1*
X1041793Y1223863D1*
X1047530Y1225322D1*
X1054726D1*
X1061889Y1223863D1*
X1066200Y1221011D1*
X1067626Y1216700D1*
Y1213848D1*
X1066200Y1209537D1*
X1063315Y1208111D1*
X1038395Y945981D2*
X1035543Y944555D1*
X1032658Y941670D1*
X1031232Y938818D1*
Y933081D1*
X1032658Y930196D1*
X1035543Y927344D1*
X1038395Y925885D1*
X1042706Y924459D1*
X1049902D1*
X1054180Y925885D1*
X1057065Y927344D1*
X1059917Y930196D1*
X1061376Y933081D1*
Y938818D1*
X1059917Y941670D1*
X1057065Y944555D1*
X1054180Y945981D1*
X1038429Y956704D2*
X1037003D1*
X1034118Y958130D1*
X1032692Y959555D1*
X1031266Y962441D1*
Y968178D1*
X1032692Y971029D1*
X1034118Y972455D1*
X1037003Y973914D1*
X1039855D1*
X1042740Y972455D1*
X1047017Y969603D1*
X1061376Y955244D1*
Y975340D1*
X1031266Y993226D2*
X1032692Y988915D1*
X1037003Y986030D1*
X1044166Y984604D1*
X1048477D1*
X1055639Y986030D1*
X1059950Y988915D1*
X1061376Y993226D1*
Y996078D1*
X1059950Y1000389D1*
X1055639Y1003241D1*
X1048477Y1004700D1*
X1044166D1*
X1037003Y1003241D1*
X1032692Y1000389D1*
X1031266Y996078D1*
Y993226D1*
X1037003Y1003241D2*
X1055639Y986030D1*
X1038395Y777431D2*
X1035543Y776005D1*
X1032658Y773120D1*
X1031232Y770268D1*
Y764531D1*
X1032658Y761646D1*
X1035543Y758794D1*
X1038395Y757335D1*
X1042706Y755909D1*
X1049902D1*
X1054180Y757335D1*
X1057065Y758794D1*
X1059917Y761646D1*
X1061376Y764531D1*
Y770268D1*
X1059917Y773120D1*
X1057065Y776005D1*
X1054180Y777431D1*
X1038429Y788154D2*
X1037003D1*
X1034118Y789579D1*
X1032692Y791005D1*
X1031266Y793891D1*
Y799627D1*
X1032692Y802479D1*
X1034118Y803905D1*
X1037003Y805364D1*
X1039855D1*
X1042740Y803905D1*
X1047017Y801053D1*
X1061376Y786694D1*
Y806790D1*
X1037003Y816054D2*
X1035543Y818939D1*
X1031266Y823250D1*
X1061376D1*
X1550994Y1342613D2*
X1548142Y1341188D1*
X1545257Y1338302D1*
X1543831Y1335451D1*
Y1329714D1*
X1545257Y1326829D1*
X1548142Y1323977D1*
X1550994Y1322518D1*
X1555305Y1321092D1*
X1562501D1*
X1566779Y1322518D1*
X1569664Y1323977D1*
X1572516Y1326829D1*
X1573975Y1329714D1*
Y1335451D1*
X1572516Y1338302D1*
X1569664Y1341187D1*
X1566779Y1342613D1*
X1551027Y1353336D2*
X1549601D1*
X1546716Y1354762D1*
X1545290Y1356188D1*
X1543864Y1359073D1*
Y1364810D1*
X1545290Y1367662D1*
X1546716Y1369088D1*
X1549601Y1370547D1*
X1552453D1*
X1555338Y1369088D1*
X1559616Y1366236D1*
X1573975Y1351877D1*
Y1371973D1*
X1551027Y1382696D2*
X1549601D1*
X1546716Y1384122D1*
X1545290Y1385548D1*
X1543864Y1388433D1*
Y1394170D1*
X1545290Y1397021D1*
X1546716Y1398447D1*
X1549601Y1399907D1*
X1552453D1*
X1555338Y1398447D1*
X1559616Y1395596D1*
X1573975Y1381236D1*
Y1401332D1*
X913364Y1655007D2*
X910512Y1653581D1*
X907627Y1650696D1*
X906201Y1647844D1*
Y1642107D1*
X907627Y1639222D1*
X910512Y1636370D1*
X913364Y1634911D1*
X917675Y1633485D1*
X924871D1*
X929149Y1634911D1*
X932034Y1636370D1*
X934886Y1639222D1*
X936345Y1642107D1*
Y1647844D1*
X934886Y1650696D1*
X932034Y1653581D1*
X929149Y1655007D1*
X913397Y1665730D2*
X911971D1*
X909086Y1667156D1*
X907660Y1668582D1*
X906234Y1671467D1*
Y1677204D1*
X907660Y1680056D1*
X909086Y1681482D1*
X911971Y1682941D1*
X914823D1*
X917708Y1681482D1*
X921986Y1678630D1*
X936345Y1664271D1*
Y1684367D1*
X906234Y1696515D2*
Y1712267D1*
X917708Y1703678D1*
Y1707989D1*
X919134Y1710841D1*
X920560Y1712267D1*
X924871Y1713726D1*
X927723D1*
X932034Y1712267D1*
X934919Y1709415D1*
X936345Y1705104D1*
Y1700793D1*
X934919Y1696515D1*
X933460Y1695089D1*
X930608Y1693630D1*
X1029255Y3824967D2*
X1027829Y3827819D1*
X1024944Y3830704D1*
X1022092Y3832130D1*
X1016355D1*
X1013470Y3830704D1*
X1010618Y3827819D1*
X1009159Y3824967D1*
X1007733Y3820656D1*
Y3813460D1*
X1009159Y3809182D1*
X1010618Y3806297D1*
X1013470Y3803445D1*
X1016355Y3801986D1*
X1022092D1*
X1024944Y3803445D1*
X1027829Y3806297D1*
X1029255Y3809182D1*
X1039978Y3824934D2*
Y3826360D1*
X1041404Y3829245D1*
X1042830Y3830671D1*
X1045715Y3832097D1*
X1051452D1*
X1054304Y3830671D1*
X1055729Y3829245D1*
X1057189Y3826360D1*
Y3823508D1*
X1055729Y3820623D1*
X1052878Y3816345D1*
X1038519Y3801986D1*
X1058615D1*
X1082237D2*
Y3832097D1*
X1067878Y3812034D1*
X1089400D1*
X1407243Y1867417D2*
X1404391Y1865991D1*
X1401506Y1863106D1*
X1400080Y1860254D1*
Y1854517D1*
X1401506Y1851632D1*
X1404391Y1848780D1*
X1407243Y1847321D1*
X1411554Y1845895D1*
X1418750D1*
X1423028Y1847321D1*
X1425913Y1848780D1*
X1428765Y1851632D1*
X1430224Y1854517D1*
Y1860254D1*
X1428765Y1863106D1*
X1425913Y1865991D1*
X1423028Y1867417D1*
X1407276Y1878139D2*
X1405850D1*
X1402965Y1879565D1*
X1401539Y1880991D1*
X1400113Y1883876D1*
Y1889613D1*
X1401539Y1892465D1*
X1402965Y1893891D1*
X1405850Y1895350D1*
X1408702D1*
X1411587Y1893891D1*
X1415865Y1891039D1*
X1430224Y1876680D1*
Y1896776D1*
X1400113Y1923251D2*
Y1908925D1*
X1413013Y1907499D1*
X1411587Y1908925D1*
X1410128Y1913236D1*
Y1917514D1*
X1411587Y1921825D1*
X1414439Y1924710D1*
X1418750Y1926136D1*
X1421602D1*
X1425913Y1924710D1*
X1428798Y1921825D1*
X1430224Y1917514D1*
Y1913236D1*
X1428798Y1908925D1*
X1427339Y1907499D1*
X1424487Y1906040D1*
X665540Y1343737D2*
X662688Y1342311D1*
X659803Y1339426D1*
X658377Y1336574D1*
Y1330837D1*
X659803Y1327952D1*
X662688Y1325100D1*
X665540Y1323641D1*
X669851Y1322215D1*
X677047D1*
X681325Y1323641D1*
X684210Y1325100D1*
X687062Y1327952D1*
X688521Y1330837D1*
Y1336574D1*
X687062Y1339426D1*
X684210Y1342311D1*
X681325Y1343737D1*
X665573Y1354459D2*
X664147D1*
X661262Y1355885D1*
X659836Y1357311D1*
X658410Y1360196D1*
Y1365933D1*
X659836Y1368785D1*
X661262Y1370211D1*
X664147Y1371670D1*
X666999D1*
X669884Y1370211D1*
X674162Y1367359D1*
X688521Y1353000D1*
Y1373096D1*
X662688Y1399571D2*
X659836Y1398145D1*
X658410Y1393834D1*
Y1390982D1*
X659836Y1386671D1*
X664147Y1383786D1*
X671310Y1382360D1*
X678473D1*
X684210Y1383786D1*
X687095Y1386671D1*
X688521Y1390982D1*
Y1392408D1*
X687095Y1396686D1*
X684210Y1399571D1*
X679899Y1400997D1*
X678473D1*
X674162Y1399571D1*
X671310Y1396686D1*
X669884Y1392408D1*
Y1390982D1*
X671310Y1386671D1*
X674162Y1383786D1*
X678473Y1382360D1*
X650895Y1861266D2*
X648043Y1859840D1*
X645158Y1856955D1*
X643732Y1854103D1*
Y1848366D1*
X645158Y1845481D1*
X648043Y1842629D1*
X650895Y1841170D1*
X655206Y1839744D1*
X662402D1*
X666680Y1841170D1*
X669565Y1842629D1*
X672417Y1845481D1*
X673876Y1848366D1*
Y1854103D1*
X672417Y1856955D1*
X669565Y1859840D1*
X666680Y1861266D1*
X650929Y1871988D2*
X649503D1*
X646618Y1873414D1*
X645192Y1874840D1*
X643766Y1877725D1*
Y1883462D1*
X645192Y1886314D1*
X646618Y1887740D1*
X649503Y1889199D1*
X652355D1*
X655240Y1887740D1*
X659517Y1884888D1*
X673876Y1870529D1*
Y1890625D1*
Y1905626D2*
X643766Y1919985D1*
Y1899889D1*
X882113Y2108057D2*
X879261Y2106631D1*
X876376Y2103746D1*
X874950Y2100894D1*
Y2095157D1*
X876376Y2092272D1*
X879261Y2089420D1*
X882113Y2087961D1*
X886424Y2086535D1*
X893620D1*
X897898Y2087961D1*
X900783Y2089420D1*
X903635Y2092272D1*
X905094Y2095157D1*
Y2100894D1*
X903635Y2103746D1*
X900783Y2106631D1*
X897898Y2108057D1*
X882146Y2118779D2*
X880720D1*
X877835Y2120205D1*
X876409Y2121631D1*
X874983Y2124516D1*
Y2130253D1*
X876409Y2133105D1*
X877835Y2134531D1*
X880720Y2135990D1*
X883572D1*
X886457Y2134531D1*
X890735Y2131679D1*
X905094Y2117320D1*
Y2137416D1*
X874983Y2153843D2*
X876409Y2149565D1*
X879261Y2148106D1*
X882146D1*
X884998Y2149565D1*
X886457Y2152417D1*
X887883Y2158154D1*
X889309Y2162465D1*
X892194Y2165316D1*
X895046Y2166742D1*
X899357D1*
X902209Y2165316D1*
X903668Y2163891D1*
X905094Y2159579D1*
Y2153843D1*
X903668Y2149565D1*
X902209Y2148106D1*
X899357Y2146680D1*
X895046D1*
X892194Y2148106D1*
X889309Y2150991D1*
X887883Y2155268D1*
X886457Y2161005D1*
X884998Y2163891D1*
X882146Y2165316D1*
X879261D1*
X876409Y2163891D1*
X874983Y2159580D1*
Y2153843D1*
X1757145Y2771497D2*
X1754293Y2770071D1*
X1751408Y2767186D1*
X1749982Y2764334D1*
Y2758597D1*
X1751408Y2755712D1*
X1754293Y2752860D1*
X1757145Y2751401D1*
X1761456Y2749975D1*
X1768652D1*
X1772930Y2751401D1*
X1775815Y2752860D1*
X1778667Y2755712D1*
X1780126Y2758597D1*
Y2764334D1*
X1778667Y2767186D1*
X1775815Y2770071D1*
X1772930Y2771497D1*
X1757178Y2782220D2*
X1755752D1*
X1752867Y2783646D1*
X1751441Y2785072D1*
X1750015Y2787957D1*
Y2793694D1*
X1751441Y2796546D1*
X1752867Y2797972D1*
X1755752Y2799431D1*
X1758604D1*
X1761489Y2797971D1*
X1765767Y2795120D1*
X1780126Y2780761D1*
Y2800857D1*
X1760030Y2828790D2*
X1764341Y2827331D1*
X1767226Y2824479D1*
X1768652Y2820168D1*
Y2818742D1*
X1767226Y2814431D1*
X1764341Y2811579D1*
X1760030Y2810120D1*
X1758604D1*
X1754293Y2811579D1*
X1751441Y2814431D1*
X1750015Y2818742D1*
Y2820168D1*
X1751441Y2824479D1*
X1754293Y2827331D1*
X1760030Y2828790D1*
X1767226D1*
X1774389Y2827331D1*
X1778700Y2824479D1*
X1780126Y2820168D1*
Y2817316D1*
X1778700Y2813005D1*
X1775815Y2811579D1*
X1150864Y3230007D2*
X1148012Y3228581D1*
X1145127Y3225696D1*
X1143701Y3222844D1*
Y3217107D1*
X1145127Y3214222D1*
X1148012Y3211370D1*
X1150864Y3209911D1*
X1155175Y3208485D1*
X1162371D1*
X1166649Y3209911D1*
X1169534Y3211370D1*
X1172386Y3214222D1*
X1173845Y3217107D1*
Y3222844D1*
X1172386Y3225696D1*
X1169534Y3228581D1*
X1166649Y3230007D1*
X1143734Y3242156D2*
Y3257908D1*
X1155208Y3249319D1*
Y3253630D1*
X1156634Y3256482D1*
X1158060Y3257908D1*
X1162371Y3259367D1*
X1165223D1*
X1169534Y3257908D1*
X1172419Y3255056D1*
X1173845Y3250745D1*
Y3246434D1*
X1172419Y3242156D1*
X1170960Y3240730D1*
X1168108Y3239271D1*
X1143734Y3277252D2*
X1145160Y3272941D1*
X1149471Y3270056D1*
X1156634Y3268630D1*
X1160945D1*
X1168108Y3270056D1*
X1172419Y3272941D1*
X1173845Y3277252D1*
Y3280104D1*
X1172419Y3284415D1*
X1168108Y3287267D1*
X1160945Y3288726D1*
X1156634D1*
X1149471Y3287267D1*
X1145160Y3284415D1*
X1143734Y3280104D1*
Y3277252D1*
X1149471Y3287267D2*
X1168108Y3270056D1*
X1038364Y3236457D2*
X1035512Y3235031D1*
X1032627Y3232146D1*
X1031201Y3229294D1*
Y3223557D1*
X1032627Y3220672D1*
X1035512Y3217820D1*
X1038364Y3216361D1*
X1042675Y3214935D1*
X1049871D1*
X1054149Y3216361D1*
X1057034Y3217820D1*
X1059886Y3220672D1*
X1061345Y3223557D1*
Y3229294D1*
X1059886Y3232146D1*
X1057034Y3235031D1*
X1054149Y3236457D1*
X1031234Y3248606D2*
Y3264358D1*
X1042708Y3255769D1*
Y3260080D1*
X1044134Y3262932D1*
X1045560Y3264358D1*
X1049871Y3265817D1*
X1052723D1*
X1057034Y3264357D1*
X1059919Y3261506D1*
X1061345Y3257195D1*
Y3252884D1*
X1059919Y3248606D1*
X1058460Y3247180D1*
X1055608Y3245721D1*
X1036971Y3275080D2*
X1035512Y3277965D1*
X1031234Y3282276D1*
X1061345D1*
X1557079Y4483054D2*
X1554227Y4481628D1*
X1551342Y4478743D1*
X1549916Y4475892D1*
Y4470155D1*
X1551342Y4467269D1*
X1554227Y4464418D1*
X1557079Y4462958D1*
X1561390Y4461533D1*
X1568586D1*
X1572864Y4462958D1*
X1575749Y4464418D1*
X1578601Y4467269D1*
X1580060Y4470155D1*
Y4475891D1*
X1578601Y4478743D1*
X1575749Y4481628D1*
X1572864Y4483054D1*
X1549949Y4495203D2*
Y4510955D1*
X1561423Y4502366D1*
Y4506677D1*
X1562849Y4509529D1*
X1564275Y4510955D1*
X1568586Y4512414D1*
X1571438D1*
X1575749Y4510955D1*
X1578634Y4508103D1*
X1580060Y4503792D1*
Y4499481D1*
X1578634Y4495203D1*
X1577175Y4493777D1*
X1574323Y4492318D1*
X1557112Y4523137D2*
X1555686D1*
X1552801Y4524563D1*
X1551375Y4525988D1*
X1549949Y4528874D1*
Y4534611D1*
X1551375Y4537462D1*
X1552801Y4538888D1*
X1555686Y4540348D1*
X1558538D1*
X1561423Y4538888D1*
X1565701Y4536036D1*
X1580060Y4521677D1*
Y4541773D1*
X1692364Y4499307D2*
Y4469163D1*
X1702412D1*
X1706723Y4470622D1*
X1709608Y4473474D1*
X1711034Y4476359D1*
X1712460Y4480637D1*
Y4487833D1*
X1711034Y4492144D1*
X1709608Y4494996D1*
X1706723Y4497881D1*
X1702412Y4499307D1*
X1692364D1*
X1727460Y4469163D2*
X1741819Y4499274D1*
X1721723D1*
X573082Y4357058D2*
Y4326914D1*
X603867Y4349895D2*
X602441Y4352747D1*
X599556Y4355632D1*
X596704Y4357058D1*
X590967D1*
X588082Y4355632D1*
X585230Y4352747D1*
X583771Y4349895D1*
X582345Y4345584D1*
Y4338388D1*
X583771Y4334110D1*
X585230Y4331225D1*
X588082Y4328373D1*
X590967Y4326914D1*
X596704D1*
X599556Y4328373D1*
X602441Y4331225D1*
X603867Y4334110D1*
X630342Y4352747D2*
X628916Y4355599D1*
X624605Y4357025D1*
X621753D1*
X617442Y4355599D1*
X614557Y4351288D1*
X613131Y4344125D1*
Y4336962D1*
X614557Y4331225D1*
X617442Y4328340D1*
X621753Y4326914D1*
X623179D1*
X627457Y4328340D1*
X630342Y4331225D1*
X631768Y4335536D1*
Y4336962D1*
X630342Y4341273D1*
X627457Y4344125D1*
X623179Y4345551D1*
X621753D1*
X617442Y4344125D1*
X614557Y4341273D1*
X613131Y4336962D1*
X1095213Y4538030D2*
Y4515082D1*
X1093787Y4510771D1*
X1092328Y4509345D1*
X1089476Y4507886D1*
X1086591D1*
X1083739Y4509345D1*
X1082313Y4510771D1*
X1080854Y4515082D1*
Y4517934D1*
X1104477Y4522245D2*
X1117410D1*
X1121688Y4523671D1*
X1123147Y4525130D1*
X1124573Y4527982D1*
Y4532293D1*
X1123147Y4535145D1*
X1121688Y4536604D1*
X1117410Y4538030D1*
X1104477D1*
Y4507886D1*
X1133836Y4532260D2*
X1136721Y4533719D1*
X1141032Y4537997D1*
Y4507886D1*
X1325309Y4100395D2*
Y4070251D1*
X1342520D1*
X1351783Y4094625D2*
X1354668Y4096084D1*
X1358979Y4100362D1*
Y4070251D1*
X1511695Y2171987D2*
X1508843Y2170594D1*
X1505958Y2167709D1*
X1504532Y2164824D1*
X1503073Y2160513D1*
Y2153350D1*
X1504532Y2149039D1*
X1505958Y2146187D1*
X1508843Y2143302D1*
X1511695Y2141876D1*
X1517432D1*
X1520317Y2143302D1*
X1523169Y2146187D1*
X1524595Y2149039D1*
X1526054Y2153350D1*
Y2160513D1*
X1524595Y2164824D1*
X1523169Y2167709D1*
X1520317Y2170594D1*
X1517432Y2171987D1*
X1511695D1*
X1516006Y2147613D2*
X1524595Y2138991D1*
X1535318Y2166217D2*
X1538203Y2167676D1*
X1542514Y2171954D1*
Y2141843D1*
X1523972Y2772823D2*
X1521120Y2771430D1*
X1518235Y2768545D1*
X1516809Y2765660D1*
X1515350Y2761349D1*
Y2754186D1*
X1516809Y2749875D1*
X1518235Y2747023D1*
X1521120Y2744138D1*
X1523972Y2742712D1*
X1529709D1*
X1532594Y2744138D1*
X1535446Y2747023D1*
X1536872Y2749875D1*
X1538331Y2754186D1*
Y2761349D1*
X1536872Y2765660D1*
X1535446Y2768545D1*
X1532594Y2771430D1*
X1529709Y2772823D1*
X1523972D1*
X1528283Y2748449D2*
X1536872Y2739827D1*
X1549054Y2765627D2*
Y2767053D1*
X1550480Y2769938D1*
X1551906Y2771364D1*
X1554791Y2772790D1*
X1560528D1*
X1563380Y2771364D1*
X1564806Y2769938D1*
X1566265Y2767053D1*
Y2764201D1*
X1564806Y2761316D1*
X1561954Y2757038D1*
X1547595Y2742679D1*
X1567691D1*
X717722Y2772823D2*
X714870Y2771430D1*
X711985Y2768545D1*
X710559Y2765660D1*
X709100Y2761349D1*
Y2754186D1*
X710559Y2749875D1*
X711985Y2747023D1*
X714870Y2744138D1*
X717722Y2742712D1*
X723459D1*
X726344Y2744138D1*
X729196Y2747023D1*
X730622Y2749875D1*
X732081Y2754186D1*
Y2761349D1*
X730622Y2765660D1*
X729196Y2768545D1*
X726344Y2771430D1*
X723459Y2772823D1*
X717722D1*
X722033Y2748449D2*
X730622Y2739827D1*
X744229Y2772790D2*
X759981D1*
X751392Y2761316D1*
X755703D1*
X758555Y2759890D1*
X759981Y2758464D1*
X761440Y2754153D1*
Y2751301D1*
X759981Y2746990D1*
X757129Y2744105D1*
X752818Y2742679D1*
X748507D1*
X744229Y2744105D1*
X742803Y2745564D1*
X741344Y2748416D1*
X812082Y2189082D2*
X809230Y2187689D1*
X806345Y2184804D1*
X804919Y2181919D1*
X803460Y2177608D1*
Y2170445D1*
X804919Y2166134D1*
X806345Y2163282D1*
X809230Y2160397D1*
X812082Y2158971D1*
X817819D1*
X820704Y2160397D1*
X823556Y2163282D1*
X824982Y2166134D1*
X826441Y2170445D1*
Y2177608D1*
X824982Y2181919D1*
X823556Y2184804D1*
X820704Y2187689D1*
X817819Y2189082D1*
X812082D1*
X816393Y2164708D2*
X824982Y2156086D1*
X850064Y2158938D2*
Y2189048D1*
X835705Y2168986D1*
X857227D1*
X1545591Y588319D2*
Y601219D1*
X1544132Y605530D1*
X1542706Y606989D1*
X1539855Y608415D1*
X1536969D1*
X1534118Y606989D1*
X1532658Y605530D1*
X1531232Y601219D1*
Y588319D1*
X1561376D1*
X1545591Y598367D2*
X1561376Y608415D1*
X1537003Y617678D2*
X1535544Y620563D1*
X1531266Y624874D1*
X1561376D1*
X1545591Y1119369D2*
Y1132269D1*
X1544132Y1136580D1*
X1542706Y1138039D1*
X1539855Y1139465D1*
X1536969D1*
X1534118Y1138039D1*
X1532658Y1136580D1*
X1531232Y1132269D1*
Y1119369D1*
X1561376D1*
X1545591Y1129417D2*
X1561376Y1139465D1*
X1538429Y1150187D2*
X1537003D1*
X1534118Y1151613D1*
X1532692Y1153039D1*
X1531266Y1155924D1*
Y1161661D1*
X1532692Y1164513D1*
X1534118Y1165939D1*
X1537003Y1167398D1*
X1539855D1*
X1542740Y1165939D1*
X1547017Y1163087D1*
X1561376Y1148728D1*
Y1168824D1*
X1795591Y581869D2*
Y594769D1*
X1794132Y599080D1*
X1792706Y600539D1*
X1789855Y601965D1*
X1786969D1*
X1784118Y600539D1*
X1782658Y599080D1*
X1781232Y594769D1*
Y581869D1*
X1811376D1*
X1795591Y591917D2*
X1811376Y601965D1*
X1781266Y614113D2*
Y629865D1*
X1792740Y621276D1*
Y625587D1*
X1794166Y628439D1*
X1795591Y629865D1*
X1799903Y631324D1*
X1802754D1*
X1807065Y629865D1*
X1809951Y627013D1*
X1811376Y622702D1*
Y618391D1*
X1809951Y614113D1*
X1808491Y612687D1*
X1805640Y611228D1*
X1295591Y581156D2*
Y594056D1*
X1294132Y598367D1*
X1292706Y599826D1*
X1289855Y601252D1*
X1286969D1*
X1284118Y599826D1*
X1282658Y598367D1*
X1281232Y594056D1*
Y581156D1*
X1311376D1*
X1295591Y591204D2*
X1311376Y601252D1*
Y624874D2*
X1281266D1*
X1301328Y610515D1*
Y632037D1*
X1670591Y1119369D2*
Y1132269D1*
X1669132Y1136580D1*
X1667706Y1138039D1*
X1664855Y1139465D1*
X1661969D1*
X1659118Y1138039D1*
X1657658Y1136580D1*
X1656232Y1132269D1*
Y1119369D1*
X1686376D1*
X1670591Y1129417D2*
X1686376Y1139465D1*
X1656266Y1165939D2*
Y1151613D1*
X1669166Y1150187D1*
X1667740Y1151613D1*
X1666280Y1155924D1*
Y1160202D1*
X1667740Y1164513D1*
X1670591Y1167398D1*
X1674903Y1168824D1*
X1677754D1*
X1682065Y1167398D1*
X1684951Y1164513D1*
X1686376Y1160202D1*
Y1155924D1*
X1684951Y1151613D1*
X1683491Y1150187D1*
X1680640Y1148728D1*
X1295591Y1120098D2*
Y1132998D1*
X1294132Y1137309D1*
X1292706Y1138768D1*
X1289855Y1140194D1*
X1286969D1*
X1284118Y1138768D1*
X1282658Y1137309D1*
X1281232Y1132998D1*
Y1120098D1*
X1311376D1*
X1295591Y1130146D2*
X1311376Y1140194D1*
X1285544Y1166669D2*
X1282692Y1165243D1*
X1281266Y1160932D1*
Y1158080D1*
X1282692Y1153769D1*
X1287003Y1150884D1*
X1294166Y1149458D1*
X1301328D1*
X1307065Y1150884D1*
X1309951Y1153769D1*
X1311376Y1158080D1*
Y1159506D1*
X1309951Y1163784D1*
X1307065Y1166669D1*
X1302754Y1168095D1*
X1301328D1*
X1297017Y1166669D1*
X1294166Y1163784D1*
X1292740Y1159506D1*
Y1158080D1*
X1294166Y1153769D1*
X1297017Y1150884D1*
X1301328Y1149458D1*
X670591Y581869D2*
Y594769D1*
X669132Y599080D1*
X667706Y600539D1*
X664855Y601965D1*
X661969D1*
X659118Y600539D1*
X657658Y599080D1*
X656232Y594769D1*
Y581869D1*
X686376D1*
X670591Y591917D2*
X686376Y601965D1*
Y616965D2*
X656266Y631324D1*
Y611228D1*
X795591Y1119385D2*
Y1132285D1*
X794132Y1136596D1*
X792706Y1138055D1*
X789855Y1139481D1*
X786969D1*
X784118Y1138055D1*
X782658Y1136596D1*
X781232Y1132285D1*
Y1119385D1*
X811376D1*
X795591Y1129433D2*
X811376Y1139481D1*
X781266Y1155908D2*
X782692Y1151630D1*
X785544Y1150171D1*
X788429D1*
X791280Y1151630D1*
X792740Y1154482D1*
X794166Y1160219D1*
X795592Y1164530D1*
X798477Y1167382D1*
X801328Y1168808D1*
X805639D1*
X808491Y1167382D1*
X809951Y1165956D1*
X811376Y1161645D1*
Y1155908D1*
X809951Y1151630D1*
X808491Y1150171D1*
X805640Y1148745D1*
X801328D1*
X798477Y1150171D1*
X795592Y1153056D1*
X794166Y1157334D1*
X792740Y1163071D1*
X791280Y1165956D1*
X788429Y1167382D1*
X785544D1*
X782692Y1165956D1*
X781266Y1161645D1*
Y1155908D1*
X795591Y582582D2*
Y595482D1*
X794132Y599793D1*
X792706Y601252D1*
X789855Y602678D1*
X786969D1*
X784118Y601252D1*
X782658Y599793D1*
X781232Y595482D1*
Y582582D1*
X811376D1*
X795591Y592630D2*
X811376Y602678D1*
X791280Y630611D2*
X795592Y629152D1*
X798477Y626300D1*
X799903Y621989D1*
Y620563D1*
X798477Y616252D1*
X795592Y613400D1*
X791280Y611941D1*
X789855D1*
X785544Y613400D1*
X782692Y616252D1*
X781266Y620563D1*
Y621989D1*
X782692Y626300D1*
X785544Y629152D1*
X791280Y630611D1*
X798477D1*
X805639Y629152D1*
X809951Y626300D1*
X811376Y621989D1*
Y619137D1*
X809951Y614826D1*
X807065Y613400D1*
X920591Y573639D2*
Y586539D1*
X919132Y590850D1*
X917706Y592309D1*
X914855Y593735D1*
X911969D1*
X909118Y592309D1*
X907658Y590850D1*
X906232Y586539D1*
Y573639D1*
X936376D1*
X920591Y583687D2*
X936376Y593735D1*
X912003Y602999D2*
X910544Y605884D1*
X906266Y610195D1*
X936376D1*
X906266Y628080D2*
X907692Y623769D1*
X912003Y620884D1*
X919166Y619458D1*
X923477D1*
X930639Y620884D1*
X934950Y623769D1*
X936376Y628080D1*
Y630932D1*
X934950Y635243D1*
X930639Y638095D1*
X923477Y639554D1*
X919166D1*
X912003Y638095D1*
X907692Y635243D1*
X906266Y630932D1*
Y628080D1*
X912003Y638095D2*
X930639Y620884D1*
X920591Y1117589D2*
Y1130489D1*
X919132Y1134800D1*
X917706Y1136259D1*
X914855Y1137685D1*
X911969D1*
X909118Y1136259D1*
X907658Y1134800D1*
X906232Y1130489D1*
Y1117589D1*
X936376D1*
X920591Y1127637D2*
X936376Y1137685D1*
X912003Y1146948D2*
X910544Y1149834D1*
X906266Y1154145D1*
X936376Y1154144D1*
X912003Y1163408D2*
X910544Y1166293D1*
X906266Y1170604D1*
X936376D1*
X545591Y1111139D2*
Y1124039D1*
X544132Y1128350D1*
X542706Y1129809D1*
X539855Y1131235D1*
X536969D1*
X534118Y1129809D1*
X532658Y1128350D1*
X531232Y1124039D1*
Y1111139D1*
X561376D1*
X545591Y1121187D2*
X561376Y1131235D1*
X537003Y1140499D2*
X535544Y1143384D1*
X531266Y1147695D1*
X561376D1*
X538429Y1158417D2*
X537003D1*
X534118Y1159843D1*
X532692Y1161269D1*
X531266Y1164154D1*
Y1169891D1*
X532692Y1172743D1*
X534118Y1174169D1*
X537003Y1175628D1*
X539855D1*
X542740Y1174169D1*
X547017Y1171317D1*
X561376Y1156958D1*
Y1177054D1*
X1164342Y923737D2*
Y936637D1*
X1162883Y940948D1*
X1161457Y942407D1*
X1158605Y943833D1*
X1155720D1*
X1152868Y942407D1*
X1151409Y940948D1*
X1149983Y936637D1*
Y923737D1*
X1180127D1*
X1164342Y933785D2*
X1180127Y943833D1*
X1155753Y953097D2*
X1154294Y955982D1*
X1150016Y960293D1*
X1180127D1*
X1150016Y972442D2*
Y988193D1*
X1161490Y979605D1*
Y983916D1*
X1162916Y986767D1*
X1164342Y988193D1*
X1168653Y989653D1*
X1171505D1*
X1175816Y988193D1*
X1178701Y985341D1*
X1180127Y981030D1*
Y976719D1*
X1178701Y972442D1*
X1177242Y971016D1*
X1174390Y969557D1*
X1164342Y754078D2*
Y766978D1*
X1162883Y771289D1*
X1161457Y772748D1*
X1158605Y774174D1*
X1155720D1*
X1152868Y772748D1*
X1151409Y771289D1*
X1149983Y766978D1*
Y754078D1*
X1180127D1*
X1164342Y764126D2*
X1180127Y774174D1*
X1155753Y783438D2*
X1154294Y786323D1*
X1150016Y790634D1*
X1180127D1*
Y814256D2*
X1150016D1*
X1170079Y799897D1*
Y821419D1*
X1795480Y2161138D2*
Y2174038D1*
X1794021Y2178349D1*
X1792595Y2179808D1*
X1789743Y2181234D1*
X1786858D1*
X1784006Y2179808D1*
X1782547Y2178349D1*
X1781121Y2174038D1*
Y2161138D1*
X1811265D1*
X1795480Y2171186D2*
X1811265Y2181234D1*
X1786891Y2190497D2*
X1785432Y2193382D1*
X1781154Y2197693D1*
X1811265D1*
X1781154Y2224168D2*
Y2209842D1*
X1794054Y2208416D1*
X1792628Y2209842D1*
X1791169Y2214153D1*
Y2218431D1*
X1792628Y2222742D1*
X1795480Y2225627D1*
X1799791Y2227053D1*
X1802643D1*
X1806954Y2225627D1*
X1809839Y2222742D1*
X1811265Y2218431D1*
Y2214153D1*
X1809839Y2209842D1*
X1808380Y2208416D1*
X1805528Y2206957D1*
X1739231Y2043118D2*
Y2056018D1*
X1737771Y2060329D1*
X1736346Y2061788D1*
X1733494Y2063214D1*
X1730609D1*
X1727757Y2061788D1*
X1726298Y2060329D1*
X1724872Y2056018D1*
Y2043118D1*
X1755016D1*
X1739231Y2053166D2*
X1755016Y2063214D1*
X1730642Y2072477D2*
X1729183Y2075362D1*
X1724905Y2079673D1*
X1755016D1*
X1729183Y2106148D2*
X1726331Y2104722D1*
X1724905Y2100411D1*
Y2097559D1*
X1726331Y2093248D1*
X1730642Y2090363D1*
X1737805Y2088937D1*
X1744968D1*
X1750705Y2090363D1*
X1753590Y2093248D1*
X1755016Y2097559D1*
Y2098985D1*
X1753590Y2103263D1*
X1750705Y2106148D1*
X1746394Y2107574D1*
X1744968D1*
X1740657Y2106148D1*
X1737805Y2103263D1*
X1736379Y2098985D1*
Y2097559D1*
X1737805Y2093248D1*
X1740657Y2090363D1*
X1744968Y2088937D1*
X1515584Y2446950D2*
X1528484D1*
X1532795Y2448409D1*
X1534254Y2449835D1*
X1535680Y2452686D1*
Y2455572D1*
X1534254Y2458423D1*
X1532795Y2459883D1*
X1528484Y2461309D1*
X1515584D1*
Y2431165D1*
X1525632Y2446950D2*
X1535680Y2431165D1*
X1544944Y2455538D2*
X1547829Y2456998D1*
X1552140Y2461275D1*
Y2431165D1*
X1567140D2*
X1581499Y2461275D1*
X1561403D1*
X1515601Y2571950D2*
X1528500D1*
X1532812Y2573409D1*
X1534271Y2574835D1*
X1535697Y2577686D1*
Y2580572D1*
X1534271Y2583423D1*
X1532812Y2584883D1*
X1528500Y2586309D1*
X1515601D1*
Y2556165D1*
X1525649Y2571950D2*
X1535697Y2556165D1*
X1544960Y2580538D2*
X1547845Y2581998D1*
X1552156Y2586275D1*
Y2556165D1*
X1568583Y2586275D2*
X1564305Y2584849D1*
X1562846Y2581998D1*
Y2579112D1*
X1564305Y2576261D1*
X1567157Y2574801D1*
X1572894Y2573375D1*
X1577205Y2571950D1*
X1580057Y2569064D1*
X1581483Y2566213D1*
Y2561902D1*
X1580057Y2559050D1*
X1578631Y2557590D1*
X1574320Y2556165D1*
X1568583D1*
X1564305Y2557590D1*
X1562846Y2559050D1*
X1561420Y2561902D1*
Y2566213D1*
X1562846Y2569064D1*
X1565731Y2571950D1*
X1570009Y2573375D1*
X1575746Y2574801D1*
X1578631Y2576261D1*
X1580057Y2579112D1*
Y2581998D1*
X1578631Y2584849D1*
X1574320Y2586275D1*
X1568583D1*
X710048Y2440699D2*
X722948D1*
X727259Y2442158D1*
X728718Y2443584D1*
X730144Y2446436D1*
Y2449321D1*
X728718Y2452173D1*
X727259Y2453632D1*
X722948Y2455058D1*
X710048D1*
Y2424914D1*
X720096Y2440699D2*
X730144Y2424914D1*
X739407Y2449288D2*
X742292Y2450747D1*
X746603Y2455025D1*
Y2424914D1*
X774537Y2445010D2*
X773078Y2440699D1*
X770226Y2437814D1*
X765915Y2436388D1*
X764489D1*
X760178Y2437814D1*
X757326Y2440699D1*
X755867Y2445010D1*
Y2446436D1*
X757326Y2450747D1*
X760178Y2453599D1*
X764489Y2455025D1*
X765915D1*
X770226Y2453599D1*
X773078Y2450747D1*
X774537Y2445010D1*
Y2437814D1*
X773078Y2430651D1*
X770226Y2426340D1*
X765915Y2424914D1*
X763063D1*
X758752Y2426340D1*
X757326Y2429225D1*
X702885Y2565699D2*
X715785D1*
X720096Y2567158D1*
X721555Y2568584D1*
X722981Y2571436D1*
Y2574321D1*
X721555Y2577173D1*
X720096Y2578632D1*
X715785Y2580058D1*
X702885D1*
Y2549914D1*
X712933Y2565699D2*
X722981Y2549914D1*
X733703Y2572862D2*
Y2574288D1*
X735129Y2577173D1*
X736555Y2578599D1*
X739440Y2580025D1*
X745177D1*
X748029Y2578599D1*
X749455Y2577173D1*
X750914Y2574288D1*
Y2571436D1*
X749455Y2568551D1*
X746603Y2564273D1*
X732244Y2549914D1*
X752340D1*
X770226Y2580025D2*
X765915Y2578599D1*
X763030Y2574288D1*
X761604Y2567125D1*
Y2562814D1*
X763030Y2555651D1*
X765915Y2551340D1*
X770226Y2549914D1*
X773078D1*
X777389Y2551340D1*
X780241Y2555651D1*
X781700Y2562814D1*
Y2567125D1*
X780241Y2574288D1*
X777389Y2578599D1*
X773078Y2580025D1*
X770226D1*
X780241Y2574288D2*
X763030Y2555651D1*
X514341Y2042291D2*
Y2055191D1*
X512882Y2059502D1*
X511456Y2060961D1*
X508604Y2062387D1*
X505719D1*
X502867Y2060961D1*
X501408Y2059502D1*
X499982Y2055191D1*
Y2042291D1*
X530126D1*
X514341Y2052339D2*
X530126Y2062387D1*
X507178Y2073110D2*
X505752D1*
X502867Y2074536D1*
X501441Y2075962D1*
X500015Y2078847D1*
Y2084584D1*
X501441Y2087436D1*
X502867Y2088862D1*
X505752Y2090321D1*
X508604D1*
X511489Y2088862D1*
X515767Y2086010D1*
X530126Y2071651D1*
Y2091747D1*
X505752Y2101010D2*
X504293Y2103895D1*
X500015Y2108206D1*
X530126D1*
X633091Y2035841D2*
Y2048741D1*
X631632Y2053052D1*
X630206Y2054511D1*
X627355Y2055937D1*
X624469D1*
X621618Y2054511D1*
X620158Y2053052D1*
X618732Y2048741D1*
Y2035841D1*
X648876D1*
X633091Y2045889D2*
X648876Y2055937D1*
X625929Y2066660D2*
X624503D1*
X621618Y2068086D1*
X620192Y2069512D1*
X618766Y2072397D1*
Y2078134D1*
X620192Y2080986D1*
X621618Y2082412D1*
X624503Y2083871D1*
X627355D1*
X630240Y2082412D1*
X634517Y2079560D1*
X648876Y2065201D1*
Y2085297D1*
X625929Y2096019D2*
X624503D1*
X621618Y2097445D1*
X620192Y2098871D1*
X618766Y2101756D1*
Y2107493D1*
X620192Y2110345D1*
X621618Y2111771D1*
X624503Y2113230D1*
X627355D1*
X630240Y2111771D1*
X634517Y2108919D1*
X648876Y2094560D1*
Y2114656D1*
X1807993Y954689D2*
Y967589D1*
X1806534Y971900D1*
X1805108Y973359D1*
X1802256Y974785D1*
X1799371D1*
X1796519Y973359D1*
X1795060Y971900D1*
X1793634Y967589D1*
Y954689D1*
X1823778D1*
X1807993Y964737D2*
X1823778Y974785D1*
X1800830Y985508D2*
X1799404D1*
X1796519Y986934D1*
X1795093Y988360D1*
X1793667Y991245D1*
Y996982D1*
X1795093Y999834D1*
X1796519Y1001259D1*
X1799404Y1002719D1*
X1802256D1*
X1805141Y1001259D1*
X1809419Y998408D1*
X1823778Y984048D1*
Y1004144D1*
X1793667Y1016293D2*
Y1032045D1*
X1805141Y1023456D1*
Y1027767D1*
X1806567Y1030619D1*
X1807993Y1032045D1*
X1812304Y1033504D1*
X1815156D1*
X1819467Y1032045D1*
X1822352Y1029193D1*
X1823778Y1024882D1*
Y1020571D1*
X1822352Y1016293D1*
X1820893Y1014867D1*
X1818041Y1013408D1*
X1426842Y1322628D2*
Y1335528D1*
X1425383Y1339839D1*
X1423957Y1341298D1*
X1421105Y1342724D1*
X1418220D1*
X1415368Y1341298D1*
X1413909Y1339839D1*
X1412483Y1335528D1*
Y1322628D1*
X1442627D1*
X1426842Y1332676D2*
X1442627Y1342724D1*
X1419679Y1353447D2*
X1418253D1*
X1415368Y1354873D1*
X1413942Y1356299D1*
X1412516Y1359184D1*
Y1364921D1*
X1413942Y1367773D1*
X1415368Y1369199D1*
X1418253Y1370658D1*
X1421105D1*
X1423990Y1369199D1*
X1428268Y1366347D1*
X1442627Y1351988D1*
Y1372084D1*
Y1395706D2*
X1412516D1*
X1432579Y1381347D1*
Y1402869D1*
X1820493Y1523440D2*
Y1536340D1*
X1819034Y1540651D1*
X1817608Y1542110D1*
X1814756Y1543536D1*
X1811871D1*
X1809019Y1542110D1*
X1807560Y1540651D1*
X1806134Y1536340D1*
Y1523440D1*
X1836278D1*
X1820493Y1533488D2*
X1836278Y1543536D1*
X1813330Y1554258D2*
X1811904D1*
X1809019Y1555684D1*
X1807593Y1557110D1*
X1806167Y1559995D1*
Y1565732D1*
X1807593Y1568584D1*
X1809019Y1570010D1*
X1811904Y1571469D1*
X1814756D1*
X1817641Y1570010D1*
X1821919Y1567158D1*
X1836278Y1552799D1*
Y1572895D1*
X1806167Y1599370D2*
Y1585044D1*
X1819067Y1583618D1*
X1817641Y1585044D1*
X1816182Y1589355D1*
Y1593633D1*
X1817641Y1597944D1*
X1820493Y1600829D1*
X1824804Y1602255D1*
X1827656D1*
X1831967Y1600829D1*
X1834852Y1597944D1*
X1836278Y1593633D1*
Y1589355D1*
X1834852Y1585044D1*
X1833393Y1583618D1*
X1830541Y1582159D1*
X1158090Y1399266D2*
Y1412166D1*
X1156631Y1416477D1*
X1155205Y1417936D1*
X1152353Y1419362D1*
X1149468D1*
X1146616Y1417936D1*
X1145157Y1416477D1*
X1143731Y1412166D1*
Y1399266D1*
X1173875D1*
X1158090Y1409314D2*
X1173875Y1419362D1*
X1150927Y1430085D2*
X1149501D1*
X1146616Y1431511D1*
X1145190Y1432937D1*
X1143764Y1435822D1*
Y1441559D1*
X1145190Y1444411D1*
X1146616Y1445837D1*
X1149501Y1447296D1*
X1152353D1*
X1155238Y1445837D1*
X1159516Y1442985D1*
X1173875Y1428626D1*
Y1448722D1*
X1148042Y1475196D2*
X1145190Y1473770D1*
X1143764Y1469459D1*
Y1466607D1*
X1145190Y1462296D1*
X1149501Y1459411D1*
X1156664Y1457985D1*
X1163827D1*
X1169564Y1459411D1*
X1172449Y1462296D1*
X1173875Y1466607D1*
Y1468033D1*
X1172449Y1472311D1*
X1169564Y1475196D1*
X1165253Y1476622D1*
X1163827D1*
X1159516Y1475196D1*
X1156664Y1472311D1*
X1155238Y1468033D1*
Y1466607D1*
X1156664Y1462296D1*
X1159516Y1459411D1*
X1163827Y1457985D1*
X1807993Y1129689D2*
Y1142589D1*
X1806534Y1146900D1*
X1805108Y1148359D1*
X1802256Y1149785D1*
X1799371D1*
X1796519Y1148359D1*
X1795060Y1146900D1*
X1793634Y1142589D1*
Y1129689D1*
X1823778D1*
X1807993Y1139737D2*
X1823778Y1149785D1*
X1800830Y1160508D2*
X1799404D1*
X1796519Y1161934D1*
X1795093Y1163360D1*
X1793667Y1166245D1*
Y1171982D1*
X1795093Y1174834D1*
X1796519Y1176259D1*
X1799404Y1177719D1*
X1802256D1*
X1805141Y1176259D1*
X1809419Y1173408D1*
X1823778Y1159048D1*
Y1179144D1*
Y1194145D2*
X1793667Y1208504D1*
Y1188408D1*
X1551841Y1854607D2*
Y1867507D1*
X1550382Y1871818D1*
X1548956Y1873277D1*
X1546104Y1874703D1*
X1543219D1*
X1540367Y1873277D1*
X1538908Y1871818D1*
X1537482Y1867507D1*
Y1854607D1*
X1567626D1*
X1551841Y1864655D2*
X1567626Y1874703D1*
X1544678Y1885426D2*
X1543252D1*
X1540367Y1886852D1*
X1538941Y1888278D1*
X1537515Y1891163D1*
Y1896900D1*
X1538941Y1899752D1*
X1540367Y1901178D1*
X1543252Y1902637D1*
X1546104D1*
X1548989Y1901178D1*
X1553267Y1898326D1*
X1567626Y1883967D1*
Y1904063D1*
X1537515Y1920489D2*
X1538941Y1916211D1*
X1541793Y1914752D1*
X1544678D1*
X1547530Y1916211D1*
X1548989Y1919063D1*
X1550415Y1924800D1*
X1551841Y1929111D1*
X1554726Y1931963D1*
X1557578Y1933389D1*
X1561889D1*
X1564741Y1931963D1*
X1566200Y1930537D1*
X1567626Y1926226D1*
Y1920489D1*
X1566200Y1916211D1*
X1564741Y1914752D1*
X1561889Y1913326D1*
X1557578D1*
X1554726Y1914752D1*
X1551841Y1917637D1*
X1550415Y1921915D1*
X1548989Y1927652D1*
X1547530Y1930537D1*
X1544678Y1931963D1*
X1541793D1*
X1538941Y1930537D1*
X1537515Y1926226D1*
Y1920489D1*
X1820591Y1861554D2*
Y1874454D1*
X1819132Y1878765D1*
X1817706Y1880224D1*
X1814855Y1881650D1*
X1811969D1*
X1809118Y1880224D1*
X1807658Y1878765D1*
X1806232Y1874454D1*
Y1861554D1*
X1836376D1*
X1820591Y1871602D2*
X1836376Y1881650D1*
X1813429Y1892373D2*
X1812003D1*
X1809118Y1893799D1*
X1807692Y1895225D1*
X1806266Y1898110D1*
Y1903847D1*
X1807692Y1906699D1*
X1809118Y1908125D1*
X1812003Y1909584D1*
X1814855D1*
X1817740Y1908125D1*
X1822017Y1905273D1*
X1836376Y1890914D1*
Y1911010D1*
X1816280Y1938943D2*
X1820591Y1937484D1*
X1823477Y1934632D1*
X1824903Y1930321D1*
Y1928895D1*
X1823477Y1924584D1*
X1820591Y1921732D1*
X1816280Y1920273D1*
X1814855D1*
X1810544Y1921732D1*
X1807692Y1924584D1*
X1806266Y1928895D1*
Y1930321D1*
X1807692Y1934632D1*
X1810543Y1937484D1*
X1816280Y1938943D1*
X1823477D1*
X1830639Y1937484D1*
X1834950Y1934632D1*
X1836376Y1930321D1*
Y1927469D1*
X1834950Y1923158D1*
X1832065Y1921732D1*
X1157993Y1567386D2*
Y1580286D1*
X1156534Y1584597D1*
X1155108Y1586056D1*
X1152256Y1587482D1*
X1149371D1*
X1146519Y1586056D1*
X1145060Y1584597D1*
X1143634Y1580286D1*
Y1567386D1*
X1173778D1*
X1157993Y1577434D2*
X1173778Y1587482D1*
X1143667Y1599630D2*
Y1615382D1*
X1155141Y1606793D1*
Y1611104D1*
X1156567Y1613956D1*
X1157993Y1615382D1*
X1162304Y1616841D1*
X1165156D1*
X1169467Y1615382D1*
X1172352Y1612530D1*
X1173778Y1608219D1*
Y1603908D1*
X1172352Y1599630D1*
X1170893Y1598204D1*
X1168041Y1596745D1*
X1143667Y1634727D2*
X1145093Y1630416D1*
X1149404Y1627531D1*
X1156567Y1626105D1*
X1160878D1*
X1168041Y1627531D1*
X1172352Y1630416D1*
X1173778Y1634727D1*
Y1637579D1*
X1172352Y1641890D1*
X1168041Y1644742D1*
X1160878Y1646201D1*
X1156567D1*
X1149404Y1644742D1*
X1145093Y1641890D1*
X1143667Y1637579D1*
Y1634727D1*
X1149404Y1644742D2*
X1168041Y1627531D1*
X433088Y1398529D2*
Y1411429D1*
X431628Y1415740D1*
X430202Y1417199D1*
X427351Y1418625D1*
X424466D1*
X421614Y1417199D1*
X420154Y1415740D1*
X418729Y1411429D1*
X418728Y1398529D1*
X448872D1*
X433088Y1408577D2*
X448873Y1418625D1*
X418762Y1430773D2*
Y1446525D1*
X430236Y1437936D1*
Y1442247D1*
X431662Y1445099D1*
X433088Y1446525D1*
X437399Y1447984D1*
X440250D1*
X444562Y1446525D1*
X447447Y1443673D1*
X448873Y1439362D1*
Y1435051D1*
X447447Y1430773D1*
X445987Y1429347D1*
X443136Y1427888D1*
X424499Y1457248D2*
X423040Y1460133D1*
X418762Y1464444D1*
X448873D1*
X789341Y1329591D2*
Y1342491D1*
X787882Y1346802D1*
X786456Y1348261D1*
X783604Y1349687D1*
X780719D1*
X777867Y1348261D1*
X776408Y1346802D1*
X774982Y1342491D1*
Y1329591D1*
X805126D1*
X789341Y1339639D2*
X805126Y1349687D1*
X775015Y1361835D2*
Y1377587D1*
X786489Y1368998D1*
Y1373309D1*
X787915Y1376161D1*
X789341Y1377587D1*
X793652Y1379046D1*
X796504D1*
X800815Y1377587D1*
X803700Y1374735D1*
X805126Y1370424D1*
Y1366113D1*
X803700Y1361835D1*
X802241Y1360409D1*
X799389Y1358950D1*
X782178Y1389769D2*
X780752D1*
X777867Y1391195D1*
X776441Y1392621D1*
X775015Y1395506D1*
Y1401243D1*
X776441Y1404095D1*
X777867Y1405521D1*
X780752Y1406980D1*
X783604D1*
X786489Y1405521D1*
X790767Y1402669D1*
X805126Y1388310D1*
Y1408406D1*
X426839Y1660828D2*
X426840Y1673728D1*
X425380Y1678039D1*
X423954Y1679498D1*
X421103Y1680924D1*
X418217D1*
X415366Y1679498D1*
X413906Y1678039D1*
X412480Y1673728D1*
Y1660828D1*
X442624D1*
X426840Y1670876D2*
X442625Y1680924D1*
X412514Y1693073D2*
Y1708825D1*
X423988Y1700236D1*
Y1704547D1*
X425414Y1707399D1*
X426840Y1708825D1*
X431151Y1710284D1*
X434002D1*
X438313Y1708824D1*
X441199Y1705973D1*
X442624Y1701662D1*
Y1697351D1*
X441199Y1693073D1*
X439739Y1691647D1*
X436888Y1690188D1*
X412514Y1722432D2*
Y1738184D1*
X423988Y1729595D1*
Y1733906D1*
X425414Y1736758D1*
X426840Y1738184D1*
X431151Y1739643D1*
X434002D1*
X438313Y1738184D1*
X441199Y1735332D1*
X442624Y1731021D1*
Y1726710D1*
X441199Y1722432D1*
X439739Y1721006D1*
X436888Y1719547D1*
X1045591Y1398021D2*
Y1410921D1*
X1044132Y1415232D1*
X1042706Y1416691D1*
X1039855Y1418117D1*
X1036969D1*
X1034118Y1416691D1*
X1032658Y1415232D1*
X1031232Y1410921D1*
Y1398021D1*
X1061376D1*
X1045591Y1408069D2*
X1061376Y1418117D1*
X1031266Y1430265D2*
Y1446017D1*
X1042740Y1437428D1*
Y1441739D1*
X1044166Y1444591D1*
X1045591Y1446017D1*
X1049903Y1447476D1*
X1052754D1*
X1057065Y1446017D1*
X1059951Y1443165D1*
X1061376Y1438854D1*
Y1434543D1*
X1059951Y1430265D1*
X1058491Y1428839D1*
X1055640Y1427380D1*
X1061376Y1471099D2*
X1031266D1*
X1051328Y1456740D1*
Y1478262D1*
X426838Y979602D2*
Y992502D1*
X425379Y996813D1*
X423953Y998272D1*
X421101Y999698D1*
X418216D1*
X415364Y998272D1*
X413905Y996813D1*
X412479Y992502D1*
Y979602D1*
X442623D1*
X426838Y989650D2*
X442623Y999698D1*
X412512Y1011847D2*
Y1027599D1*
X423986Y1019010D1*
Y1023321D1*
X425412Y1026173D1*
X426838Y1027599D1*
X431149Y1029058D1*
X434001D1*
X438312Y1027599D1*
X441197Y1024747D1*
X442623Y1020436D1*
Y1016125D1*
X441197Y1011847D1*
X439738Y1010421D1*
X436886Y1008962D1*
X412512Y1055532D2*
Y1041207D1*
X425412Y1039781D1*
X423986Y1041207D1*
X422527Y1045518D1*
Y1049795D1*
X423986Y1054106D1*
X426838Y1056991D1*
X431149Y1058417D1*
X434001D1*
X438312Y1056991D1*
X441197Y1054106D1*
X442623Y1049795D1*
Y1045518D1*
X441197Y1041206D1*
X439738Y1039781D1*
X436886Y1038321D1*
X789342Y1849071D2*
Y1861971D1*
X787883Y1866282D1*
X786457Y1867741D1*
X783605Y1869167D1*
X780720D1*
X777868Y1867741D1*
X776409Y1866282D1*
X774983Y1861971D1*
Y1849071D1*
X805127D1*
X789342Y1859119D2*
X805127Y1869167D1*
X775016Y1881315D2*
Y1897067D1*
X786490Y1888478D1*
Y1892789D1*
X787916Y1895641D1*
X789342Y1897067D1*
X793653Y1898526D1*
X796505D1*
X800816Y1897067D1*
X803701Y1894215D1*
X805127Y1889904D1*
Y1885593D1*
X803701Y1881315D1*
X802242Y1879889D1*
X799390Y1878430D1*
X779294Y1925001D2*
X776442Y1923575D1*
X775016Y1919264D1*
Y1916412D1*
X776442Y1912101D1*
X780753Y1909216D1*
X787916Y1907790D1*
X795079D1*
X800816Y1909216D1*
X803701Y1912101D1*
X805127Y1916412D1*
Y1917838D1*
X803701Y1922116D1*
X800816Y1925001D1*
X796505Y1926427D1*
X795079D1*
X790768Y1925001D1*
X787916Y1922116D1*
X786490Y1917838D1*
Y1916412D1*
X787916Y1912101D1*
X790768Y1909216D1*
X795079Y1907790D1*
X439337Y2029578D2*
Y2042477D1*
X437878Y2046788D1*
X436452Y2048248D1*
X433600Y2049673D1*
X430715D1*
X427863Y2048248D1*
X426404Y2046788D1*
X424978Y2042477D1*
Y2029578D1*
X455122D1*
X439337Y2039625D2*
X455122Y2049673D1*
X425011Y2061822D2*
Y2077574D1*
X436485Y2068985D1*
Y2073296D1*
X437911Y2076148D1*
X439337Y2077574D1*
X443648Y2079033D1*
X446500D1*
X450811Y2077574D1*
X453696Y2074722D1*
X455122Y2070411D1*
Y2066100D1*
X453696Y2061822D1*
X452237Y2060396D1*
X449385Y2058937D1*
X455122Y2094033D2*
X425011Y2108393D1*
Y2088297D1*
X1045591Y1567501D2*
Y1580401D1*
X1044132Y1584712D1*
X1042706Y1586171D1*
X1039855Y1587597D1*
X1036969D1*
X1034118Y1586171D1*
X1032658Y1584712D1*
X1031232Y1580401D1*
Y1567501D1*
X1061376D1*
X1045591Y1577549D2*
X1061376Y1587597D1*
X1031266Y1599745D2*
Y1615497D1*
X1042740Y1606908D1*
Y1611219D1*
X1044166Y1614071D1*
X1045591Y1615497D1*
X1049903Y1616956D1*
X1052754D1*
X1057065Y1615497D1*
X1059951Y1612645D1*
X1061376Y1608334D1*
Y1604023D1*
X1059951Y1599745D1*
X1058491Y1598319D1*
X1055640Y1596860D1*
X1031266Y1633383D2*
X1032692Y1629105D1*
X1035544Y1627646D1*
X1038429D1*
X1041280Y1629105D1*
X1042740Y1631957D1*
X1044166Y1637694D1*
X1045591Y1642005D1*
X1048477Y1644857D1*
X1051328Y1646283D1*
X1055639D1*
X1058491Y1644857D1*
X1059950Y1643431D1*
X1061376Y1639120D1*
Y1633383D1*
X1059950Y1629105D1*
X1058491Y1627646D1*
X1055639Y1626220D1*
X1051328D1*
X1048477Y1627646D1*
X1045591Y1630531D1*
X1044166Y1634809D1*
X1042740Y1640546D1*
X1041280Y1643431D1*
X1038429Y1644857D1*
X1035543D1*
X1032692Y1643431D1*
X1031266Y1639120D1*
Y1633383D1*
X1122249Y2659354D2*
X1135149D1*
X1139460Y2660813D1*
X1140919Y2662239D1*
X1142345Y2665091D1*
Y2667976D1*
X1140919Y2670828D1*
X1139460Y2672287D1*
X1135149Y2673713D1*
X1122249D1*
Y2643569D1*
X1132297Y2659354D2*
X1142345Y2643569D1*
X1154493Y2673680D2*
X1170245D1*
X1161656Y2662206D1*
X1165967D1*
X1168819Y2660780D1*
X1170245Y2659354D1*
X1171704Y2655043D1*
Y2652191D1*
X1170245Y2647880D1*
X1167393Y2644995D1*
X1163082Y2643569D1*
X1158771D1*
X1154493Y2644995D1*
X1153067Y2646454D1*
X1151608Y2649306D1*
X1199638Y2663665D2*
X1198179Y2659354D1*
X1195327Y2656469D1*
X1191016Y2655043D1*
X1189590D1*
X1185279Y2656469D1*
X1182427Y2659354D1*
X1180968Y2663665D1*
Y2665091D1*
X1182427Y2669402D1*
X1185279Y2672254D1*
X1189590Y2673680D1*
X1191016D1*
X1195327Y2672254D1*
X1198179Y2669402D1*
X1199638Y2663665D1*
Y2656469D1*
X1198179Y2649306D1*
X1195327Y2644995D1*
X1191016Y2643569D1*
X1188164D1*
X1183853Y2644995D1*
X1182427Y2647880D1*
X1545591Y3103878D2*
Y3116778D1*
X1544132Y3121089D1*
X1542706Y3122548D1*
X1539855Y3123974D1*
X1536969D1*
X1534118Y3122548D1*
X1532658Y3121089D1*
X1531232Y3116778D1*
Y3103878D1*
X1561376D1*
X1545591Y3113926D2*
X1561376Y3123974D1*
Y3147596D2*
X1531266D1*
X1551328Y3133237D1*
Y3154759D1*
X1531266Y3172645D2*
X1532692Y3168334D1*
X1537003Y3165449D1*
X1544166Y3164023D1*
X1548477D1*
X1555639Y3165449D1*
X1559950Y3168334D1*
X1561376Y3172645D1*
Y3175497D1*
X1559950Y3179808D1*
X1555639Y3182659D1*
X1548477Y3184119D1*
X1544166D1*
X1537003Y3182659D1*
X1532692Y3179808D1*
X1531266Y3175497D1*
Y3172645D1*
X1537003Y3182659D2*
X1555639Y3165449D1*
X945560Y3223017D2*
Y3235916D1*
X944101Y3240227D1*
X942675Y3241687D1*
X939823Y3243113D1*
X936938D1*
X934086Y3241687D1*
X932627Y3240227D1*
X931201Y3235916D1*
Y3223017D1*
X961345D1*
X945560Y3233065D2*
X961345Y3243112D1*
Y3266735D2*
X931234D1*
X951297Y3252376D1*
Y3273898D1*
X936971Y3283162D2*
X935512Y3286047D1*
X931234Y3290358D1*
X961345D1*
X789672Y4409020D2*
X802572D1*
X806883Y4410479D1*
X808342Y4411905D1*
X809768Y4414757D1*
Y4417642D1*
X808342Y4420494D1*
X806883Y4421953D1*
X802572Y4423379D1*
X789672D1*
Y4393235D1*
X799720Y4409020D2*
X809768Y4393235D1*
X833390D2*
Y4423346D1*
X819031Y4403283D1*
X840553D1*
X851276Y4416183D2*
Y4417609D1*
X852702Y4420494D1*
X854128Y4421920D1*
X857013Y4423346D1*
X862750D1*
X865602Y4421920D1*
X867028Y4420494D1*
X868487Y4417609D1*
Y4414757D1*
X867028Y4411872D1*
X864176Y4407594D1*
X849817Y4393235D1*
X869913D1*
X1811416Y2973662D2*
Y2952140D1*
X1812842Y2947829D1*
X1815727Y2944977D1*
X1820038Y2943518D1*
X1822890D1*
X1827201Y2944977D1*
X1830086Y2947829D1*
X1831512Y2952140D1*
Y2973662D1*
X1840776Y2967891D2*
X1843661Y2969351D1*
X1847972Y2973628D1*
Y2943518D1*
X982049Y2158087D2*
Y2136565D1*
X983475Y2132254D1*
X986360Y2129402D1*
X990671Y2127943D1*
X993523D1*
X997834Y2129402D1*
X1000719Y2132254D1*
X1002145Y2136565D1*
Y2158087D1*
X1012867Y2150891D2*
Y2152317D1*
X1014293Y2155202D1*
X1015719Y2156628D1*
X1018604Y2158054D1*
X1024341D1*
X1027193Y2156628D1*
X1028619Y2155202D1*
X1030078Y2152317D1*
Y2149465D1*
X1028619Y2146580D1*
X1025767Y2142302D1*
X1011408Y2127943D1*
X1031504D1*
X1648701Y858770D2*
Y837249D1*
X1650127Y832938D1*
X1653012Y830086D1*
X1657323Y828626D1*
X1660175D1*
X1664486Y830086D1*
X1667371Y832938D1*
X1668797Y837249D1*
Y858770D1*
X1680946Y858737D2*
X1696697D1*
X1688109Y847263D1*
X1692420D1*
X1695271Y845837D1*
X1696697Y844411D1*
X1698157Y840100D1*
Y837249D1*
X1696697Y832938D1*
X1693845Y830052D1*
X1689534Y828626D1*
X1685223D1*
X1680946Y830052D1*
X1679520Y831512D1*
X1678061Y834363D1*
X897988Y858770D2*
Y837249D1*
X899414Y832938D1*
X902299Y830086D1*
X906610Y828626D1*
X909462D1*
X913773Y830086D1*
X916658Y832938D1*
X918084Y837249D1*
Y858770D1*
X941707Y828626D2*
Y858737D1*
X927348Y838674D1*
X948869D1*
X1661201Y1615020D2*
Y1593498D1*
X1662627Y1589187D1*
X1665512Y1586335D1*
X1669823Y1584876D1*
X1672675D1*
X1676986Y1586335D1*
X1679871Y1589187D1*
X1681297Y1593498D1*
Y1615020D1*
X1707771Y1614987D2*
X1693446D1*
X1692020Y1602087D1*
X1693446Y1603513D1*
X1697757Y1604972D1*
X1702034D1*
X1706345Y1603513D1*
X1709231Y1600661D1*
X1710657Y1596350D1*
Y1593498D1*
X1709231Y1589187D1*
X1706345Y1586302D1*
X1702034Y1584876D1*
X1697757D1*
X1693446Y1586302D1*
X1692020Y1587761D1*
X1690561Y1590613D1*
X1258096Y2447185D2*
Y2425663D1*
X1259522Y2421352D1*
X1262407Y2418500D1*
X1266718Y2417041D1*
X1269570D1*
X1273881Y2418500D1*
X1276766Y2421352D1*
X1278192Y2425663D1*
Y2447185D1*
X1304666Y2442874D2*
X1303240Y2445726D1*
X1298929Y2447152D1*
X1296077D1*
X1291766Y2445726D1*
X1288881Y2441415D1*
X1287455Y2434252D1*
Y2427089D1*
X1288881Y2421352D1*
X1291766Y2418467D1*
X1296077Y2417041D1*
X1297503D1*
X1301781Y2418467D1*
X1304666Y2421352D1*
X1306092Y2425663D1*
Y2427089D1*
X1304666Y2431400D1*
X1301781Y2434252D1*
X1297503Y2435678D1*
X1296077D1*
X1291766Y2434252D1*
X1288881Y2431400D1*
X1287455Y2427089D1*
X1617792Y3874853D2*
Y3853331D1*
X1619217Y3849020D1*
X1622103Y3846168D1*
X1626414Y3844709D1*
X1629265D1*
X1633576Y3846168D1*
X1636462Y3849020D1*
X1637888Y3853331D1*
Y3874853D1*
X1652888Y3844709D2*
X1667247Y3874820D1*
X1647151D1*
X890470Y1552521D2*
Y1530999D1*
X891896Y1526688D1*
X894781Y1523836D1*
X899092Y1522377D1*
X901944D1*
X906255Y1523836D1*
X909140Y1526688D1*
X910566Y1530999D1*
Y1552521D1*
X919829Y1546751D2*
X922714Y1548210D1*
X927025Y1552488D1*
Y1522377D1*
X944911Y1552488D2*
X940600Y1551062D1*
X937715Y1546751D1*
X936289Y1539588D1*
Y1535277D1*
X937715Y1528114D1*
X940600Y1523803D1*
X944911Y1522377D1*
X947763D1*
X952074Y1523803D1*
X954926Y1528114D1*
X956385Y1535277D1*
Y1539588D1*
X954926Y1546751D1*
X952074Y1551062D1*
X947763Y1552488D1*
X944911D1*
X954926Y1546751D2*
X937715Y1528114D1*
X693888Y2916381D2*
X692462Y2919232D1*
X689577Y2922117D1*
X686725Y2923543D1*
X680988D1*
X678103Y2922117D1*
X675251Y2919232D1*
X673792Y2916381D1*
X672366Y2912069D1*
Y2904873D1*
X673792Y2900596D1*
X675251Y2897710D1*
X678103Y2894859D1*
X680988Y2893399D1*
X686725D1*
X689577Y2894859D1*
X692462Y2897710D1*
X693888Y2900596D1*
X706037Y2923510D2*
X721788D1*
X713199Y2912036D1*
X717510D1*
X720362Y2910610D1*
X721788Y2909184D1*
X723247Y2904873D1*
Y2902021D1*
X721788Y2897710D1*
X718936Y2894825D1*
X714625Y2893399D1*
X710314D1*
X706037Y2894825D1*
X704611Y2896285D1*
X703151Y2899136D1*
X735396Y2923510D2*
X751148D1*
X742559Y2912036D1*
X746870D1*
X749722Y2910610D1*
X751148Y2909184D1*
X752607Y2904873D1*
Y2902021D1*
X751148Y2897710D1*
X748296Y2894825D1*
X743985Y2893399D1*
X739674D1*
X735396Y2894825D1*
X733970Y2896285D1*
X732511Y2899136D1*
X1684936Y4230726D2*
X1697836D1*
X1702147Y4232186D1*
X1703606Y4233611D1*
X1705032Y4236463D1*
Y4239348D1*
X1703606Y4242200D1*
X1702147Y4243659D1*
X1697836Y4245085D1*
X1684936D1*
Y4214941D1*
X1694984Y4230726D2*
X1705032Y4214941D1*
X1731506Y4240774D2*
X1730080Y4243626D1*
X1725769Y4245052D1*
X1722917D1*
X1718606Y4243626D1*
X1715721Y4239315D1*
X1714295Y4232152D1*
Y4224989D1*
X1715721Y4219252D1*
X1718606Y4216367D1*
X1722917Y4214941D1*
X1724343D1*
X1728621Y4216367D1*
X1731506Y4219252D1*
X1732932Y4223563D1*
Y4224989D1*
X1731506Y4229300D1*
X1728621Y4232152D1*
X1724343Y4233578D1*
X1722917D1*
X1718606Y4232152D1*
X1715721Y4229300D1*
X1714295Y4224989D1*
X1750818Y4245052D2*
X1746507Y4243626D1*
X1743622Y4239315D1*
X1742196Y4232152D1*
Y4227841D1*
X1743622Y4220678D1*
X1746507Y4216367D1*
X1750818Y4214941D1*
X1753670D1*
X1757981Y4216367D1*
X1760833Y4220678D1*
X1762292Y4227841D1*
Y4232152D1*
X1760833Y4239315D1*
X1757981Y4243626D1*
X1753670Y4245052D1*
X1750818D1*
X1760833Y4239315D2*
X1743622Y4220678D1*
X550864Y1620063D2*
X548012Y1618637D1*
X545127Y1615752D1*
X543701Y1612900D1*
Y1607163D1*
X545127Y1604278D1*
X548012Y1601426D1*
X550864Y1599967D1*
X555175Y1598541D1*
X562371D1*
X566649Y1599967D1*
X569534Y1601426D1*
X572386Y1604278D1*
X573845Y1607163D1*
Y1612900D1*
X572386Y1615752D1*
X569534Y1618637D1*
X566649Y1620063D1*
X543734Y1632212D2*
Y1647964D1*
X555208Y1639375D1*
Y1643686D1*
X556634Y1646538D1*
X558060Y1647964D1*
X562371Y1649423D1*
X565223D1*
X569534Y1647964D1*
X572419Y1645112D1*
X573845Y1640801D1*
Y1636490D1*
X572419Y1632212D1*
X570960Y1630786D1*
X568108Y1629327D1*
X573845Y1673045D2*
X543734D1*
X563797Y1658686D1*
Y1680208D1*
X1325864Y1614722D2*
X1323012Y1613296D1*
X1320127Y1610411D1*
X1318701Y1607560D1*
Y1601823D1*
X1320127Y1598937D1*
X1323012Y1596086D1*
X1325864Y1594626D1*
X1330175Y1593200D1*
X1337371D1*
X1341649Y1594626D1*
X1344534Y1596086D1*
X1347386Y1598937D1*
X1348845Y1601822D1*
Y1607559D1*
X1347386Y1610411D1*
X1344534Y1613296D1*
X1341649Y1614722D1*
X1318734Y1626871D2*
Y1642623D1*
X1330208Y1634034D1*
Y1638345D1*
X1331634Y1641197D1*
X1333060Y1642623D1*
X1337371Y1644082D1*
X1340223D1*
X1344534Y1642623D1*
X1347419Y1639771D1*
X1348845Y1635460D1*
Y1631149D1*
X1347419Y1626871D1*
X1345960Y1625445D1*
X1343108Y1623986D1*
X1318734Y1670556D2*
Y1656231D1*
X1331634Y1654805D1*
X1330208Y1656231D1*
X1328749Y1660542D1*
Y1664819D1*
X1330208Y1669130D1*
X1333060Y1672015D1*
X1337371Y1673441D1*
X1340223D1*
X1344534Y1672015D1*
X1347419Y1669130D1*
X1348845Y1664819D1*
Y1660542D1*
X1347419Y1656230D1*
X1345960Y1654805D1*
X1343108Y1653345D1*
X739309Y3467083D2*
Y3479983D1*
X737850Y3484294D1*
X736424Y3485753D1*
X733572Y3487179D1*
X730687D1*
X727835Y3485753D1*
X726376Y3484294D1*
X724950Y3479983D1*
Y3467083D1*
X755094D1*
X739309Y3477131D2*
X755094Y3487179D1*
X724983Y3513653D2*
Y3499327D1*
X737883Y3497901D1*
X736457Y3499327D1*
X734998Y3503638D1*
Y3507916D1*
X736457Y3512227D1*
X739309Y3515112D1*
X743620Y3516538D1*
X746472D1*
X750783Y3515112D1*
X753668Y3512227D1*
X755094Y3507916D1*
Y3503638D1*
X753668Y3499327D1*
X752209Y3497901D1*
X749357Y3496442D1*
X724983Y3528687D2*
Y3544439D1*
X736457Y3535850D1*
Y3540161D1*
X737883Y3543013D1*
X739309Y3544439D1*
X743620Y3545898D1*
X746472D1*
X750783Y3544439D1*
X753668Y3541587D1*
X755094Y3537276D1*
Y3532965D1*
X753668Y3528687D1*
X752209Y3527261D1*
X749357Y3525802D1*
X616105Y3601574D2*
Y3580052D1*
X617531Y3575741D1*
X620416Y3572889D1*
X624727Y3571430D1*
X627579D1*
X631890Y3572889D1*
X634775Y3575741D1*
X636201Y3580052D1*
Y3601574D1*
X645465Y3595803D2*
X648350Y3597263D1*
X652661Y3601540D1*
Y3571430D1*
X663383Y3594378D2*
Y3595803D1*
X664809Y3598689D1*
X666235Y3600115D1*
X669120Y3601540D1*
X674857D1*
X677709Y3600115D1*
X679135Y3598689D1*
X680594Y3595803D1*
Y3592952D1*
X679135Y3590067D1*
X676283Y3585789D1*
X661924Y3571430D1*
X682020D1*
X687354Y3395191D2*
X700254D1*
X704565Y3396650D1*
X706024Y3398076D1*
X707450Y3400928D1*
Y3403813D1*
X706024Y3406665D1*
X704565Y3408124D1*
X700254Y3409550D1*
X687354D1*
Y3379406D1*
X697402Y3395191D2*
X707450Y3379406D1*
X735351Y3409550D2*
X716714D1*
Y3379406D1*
X735351D1*
X716714Y3395191D2*
X728188D1*
X764710Y3405239D2*
X761858Y3408124D1*
X757547Y3409550D1*
X751810D1*
X747499Y3408124D1*
X744614Y3405239D1*
Y3402387D1*
X746073Y3399502D1*
X747499Y3398076D1*
X750351Y3396650D1*
X758973Y3393765D1*
X761858Y3392339D1*
X763284Y3390880D1*
X764710Y3388028D1*
Y3383717D1*
X761858Y3380865D1*
X757547Y3379406D1*
X751810D1*
X747499Y3380865D1*
X744614Y3383717D1*
X792611Y3409550D2*
X773974D1*
Y3379406D1*
X792611D1*
X773974Y3395191D2*
X785448D1*
X811922Y3409550D2*
Y3379406D1*
X801874Y3409550D2*
X821970D1*
X445564Y2879603D2*
D105*
X449367Y2881504D1*
X453214Y2885351D1*
X455115Y2889153D1*
Y2896802D1*
X453214Y2900649D1*
X449367Y2904452D1*
X445564Y2906397D1*
X439816Y2908299D1*
X430222D1*
X424518Y2906397D1*
X420671Y2904452D1*
X416868Y2900649D1*
X414923Y2896803D1*
Y2889153D1*
X416868Y2885351D1*
X420671Y2881504D1*
X424518Y2879603D1*
X445564Y2838555D2*
X449367Y2840457D1*
X453214Y2844303D1*
X455115Y2848106D1*
Y2855755D1*
X453214Y2859602D1*
X449367Y2863404D1*
X445564Y2865350D1*
X439816Y2867251D1*
X430222D1*
X424518Y2865350D1*
X420671Y2863405D1*
X416869Y2859602D1*
X414923Y2855755D1*
Y2848106D1*
X416869Y2844303D1*
X420671Y2840457D1*
X424518Y2838555D1*
X455115Y2787323D2*
X414923D1*
Y2770079D1*
X416869Y2764331D1*
X418770Y2762430D1*
X422572Y2760529D1*
X428320D1*
X432167Y2762430D1*
X434068Y2764331D1*
X435970Y2770079D1*
X437915Y2764331D1*
X439816Y2762430D1*
X443619Y2760529D1*
X447466D1*
X451268Y2762430D1*
X453214Y2764331D1*
X455115Y2770079D1*
Y2787323D1*
X435970D2*
Y2770079D1*
X455115Y2748177D2*
X435970Y2732879D1*
X414923D1*
X455115Y2717580D2*
X435970Y2732879D1*
X434997Y2705229D2*
Y2683121D1*
X449367Y2643975D2*
X453214Y2647777D1*
X455115Y2653525D1*
Y2661175D1*
X453214Y2666923D1*
X449367Y2670769D1*
X445564D1*
X441718Y2668824D1*
X439816Y2666923D1*
X437915Y2663120D1*
X434068Y2651624D1*
X432167Y2647777D1*
X430222Y2645876D1*
X426419Y2643975D1*
X420671D1*
X416869Y2647777D1*
X414923Y2653525D1*
Y2661175D1*
X416869Y2666923D1*
X420671Y2670769D1*
X414923Y2600982D2*
X455115Y2616325D1*
X414923Y2631623D1*
X428320Y2625875D2*
Y2606730D1*
X414923Y2530604D2*
X455071D1*
X428320Y2549750D1*
Y2521054D1*
X418770Y2506801D2*
X416824Y2508702D1*
X414923Y2506801D1*
X416824Y2504856D1*
X418770Y2506801D1*
X455071Y2481008D2*
X453170Y2486756D1*
X447422Y2490603D1*
X437871Y2492504D1*
X432123D1*
X422572Y2490603D1*
X416824Y2486756D1*
X414923Y2481008D1*
Y2477206D1*
X416824Y2471458D1*
X422572Y2467655D1*
X432123Y2465709D1*
X437871D1*
X447422Y2467655D1*
X453170Y2471458D1*
X455071Y2477206D1*
Y2481008D1*
X447422Y2467655D2*
X422572Y2490603D1*
X964584Y4227130D2*
D106*
X933522D1*
Y4176890D1*
X964584D1*
X933522Y4203198D2*
X952645D1*
X980023Y4227130D2*
Y4176890D1*
X1012209Y4227130D2*
Y4176890D1*
X995462Y4227130D2*
X1028955D1*
X1044395D2*
Y4176890D1*
X1077888Y4227130D2*
Y4176890D1*
X1044395Y4203198D2*
X1077888D1*
X1124389Y4227130D2*
X1093327D1*
Y4176890D1*
X1124389D1*
X1093327Y4203198D2*
X1112451D1*
X1139828D2*
X1161328D1*
X1168513Y4205630D1*
X1170945Y4208007D1*
X1173321Y4212760D1*
Y4217568D1*
X1170945Y4222321D1*
X1168513Y4224753D1*
X1161328Y4227130D1*
X1139828D1*
Y4176890D1*
X1156575Y4203198D2*
X1173321Y4176890D1*
X1237362Y4227130D2*
X1249355Y4176890D1*
X1261293Y4227130D1*
X1273231Y4176890D1*
X1285225Y4227130D1*
X1338966Y4176890D2*
X1319787Y4227130D1*
X1300664Y4176890D1*
X1307849Y4193637D2*
X1331781D1*
X1354405Y4227130D2*
X1373529Y4203198D1*
Y4176890D1*
X1392652Y4227130D2*
X1373529Y4203198D1*
X834694Y3758381D2*
X829886Y3756004D1*
X825132Y3751196D1*
X822701Y3746442D1*
X820324Y3739257D1*
Y3727264D1*
X822701Y3720134D1*
X825132Y3715326D1*
X829886Y3710572D1*
X834694Y3708141D1*
X844256D1*
X849009Y3710572D1*
X853817Y3715326D1*
X856194Y3720134D1*
X858570Y3727264D1*
Y3739257D1*
X856194Y3746442D1*
X853817Y3751196D1*
X849009Y3756004D1*
X844256Y3758381D1*
X834694D1*
X874010Y3734449D2*
X895510D1*
X902695Y3736881D1*
X905126Y3739257D1*
X907503Y3744010D1*
Y3748819D1*
X905126Y3753572D1*
X902695Y3756004D1*
X895510Y3758381D1*
X874010D1*
Y3708141D1*
X890756Y3734449D2*
X907503Y3708141D1*
X922942Y3758381D2*
Y3708141D1*
X974251Y3746442D2*
X971875Y3751196D1*
X967066Y3756004D1*
X962313Y3758381D1*
X952752D1*
X947943Y3756004D1*
X943190Y3751196D1*
X940758Y3746442D1*
X938382Y3739257D1*
Y3727264D1*
X940758Y3720134D1*
X943190Y3715326D1*
X947943Y3710572D1*
X952752Y3708141D1*
X962313D1*
X967066Y3710572D1*
X971875Y3715326D1*
X974251Y3720134D1*
Y3727264D1*
X962313D1*
X989691Y3758381D2*
Y3708141D1*
X1038623Y3758381D2*
Y3708141D1*
X1005130Y3758381D1*
Y3708141D1*
X1092364D2*
X1073186Y3758381D1*
X1054063Y3708141D1*
X1061248Y3724887D2*
X1085179D1*
X1107804Y3758381D2*
Y3708141D1*
X1136488D1*
X1214899Y3758381D2*
X1210090Y3756004D1*
X1205337Y3751196D1*
X1202905Y3746442D1*
X1200529Y3739257D1*
Y3727264D1*
X1202905Y3720134D1*
X1205337Y3715326D1*
X1210090Y3710572D1*
X1214899Y3708141D1*
X1224460D1*
X1229214Y3710572D1*
X1234022Y3715326D1*
X1236399Y3720134D1*
X1238775Y3727264D1*
Y3739257D1*
X1236399Y3746442D1*
X1234022Y3751196D1*
X1229214Y3756004D1*
X1224460Y3758381D1*
X1214899D1*
X1254214Y3699850D2*
X1299646D1*
X1350955Y3746442D2*
X1348579Y3751196D1*
X1343770Y3756004D1*
X1339017Y3758381D1*
X1329455D1*
X1324647Y3756004D1*
X1319894Y3751196D1*
X1317462Y3746442D1*
X1315085Y3739257D1*
Y3727264D1*
X1317462Y3720134D1*
X1319894Y3715326D1*
X1324647Y3710572D1*
X1329455Y3708141D1*
X1339017D1*
X1343770Y3710572D1*
X1348579Y3715326D1*
X1350955Y3720134D1*
X1414995Y3758381D2*
Y3708141D1*
X1436551D1*
X1443736Y3710572D1*
X1446112Y3712949D1*
X1448489Y3717702D1*
Y3724887D1*
X1446112Y3729696D1*
X1443736Y3732072D1*
X1436551Y3734449D1*
X1443736Y3736881D1*
X1446112Y3739257D1*
X1448489Y3744010D1*
Y3748819D1*
X1446112Y3753572D1*
X1443736Y3756004D1*
X1436551Y3758381D1*
X1414995D1*
Y3734449D2*
X1436551D1*
X1463928Y3758381D2*
X1483051Y3734449D1*
Y3708141D1*
X1502175Y3758381D2*
X1483051Y3734449D1*
X1604461Y3708141D2*
Y3758381D1*
X1585338Y3708141D1*
X1566215Y3758381D1*
Y3708141D1*
X1619900Y3758381D2*
X1653394Y3708141D1*
Y3758381D2*
X1619900Y3708141D1*
X1707080D2*
Y3758381D1*
X1687956Y3708141D1*
X1668833Y3758381D1*
Y3708141D1*
X1722519Y3758381D2*
X1756012Y3708141D1*
Y3758381D2*
X1722519Y3708141D1*
X1809698D2*
Y3758381D1*
X1790575Y3708141D1*
X1771451Y3758381D1*
Y3708141D1*
X1825137Y3758381D2*
X1858631Y3708141D1*
Y3758381D2*
X1825137Y3708141D1*
M02*
