M48
INCH
T01C0.015
T02C0.0354
T03C0.0394
T04C0.04
T05C0.052
T06C0.1024
T07C0.1063
%
T01
X+011547Y+017691
X+011984Y+017128
X+012297Y+016753
X+012171Y+015188
X+013172Y+015251
X+012297Y+013691
X+010984Y+013628
X+011109Y+013066
X+012047Y+012190
X+011359Y+011753
X+010734Y+011128
X+010735Y+010503
X+011422Y+009753
X+011547Y+009128
X+012234Y+008594
X+011609Y+007628
X+011672Y+007066
X+012484Y+006691
X+010859Y+006378
X+009422Y+005566
X+008609Y+007191
X+007109Y+007191
X+006859Y+006378
X+005359Y+006441
X+006859Y+010128
X+007297Y+010691
X+008109Y+010878
X+008609Y+010503
X+009484Y+011066
X+010047Y+012128
X+008609Y+012191
X+008109Y+013377
X+008484Y+014440
X+006922Y+014064
X+006797Y+013377
X+007172Y+012191
X+006359Y+012003
X+005671Y+011067
X+004609Y+010628
X+004609Y+012316
X+004609Y+013941
X+004672Y+014941
X+006797Y+015378
X+006609Y+016628
X+006859Y+017253
X+006734Y+018503
X+007547Y+019252
X+008174Y+019252
X+008109Y+018503
X+010922Y+018503
X+011484Y+019691
X+011234Y+021066
X+011422Y+022066
X+011984Y+021816
X+012609Y+023128
X+012422Y+023503
X+012234Y+023876
X+011672Y+023316
X+009797Y+023566
X+009547Y+024441
X+008172Y+023628
X+008109Y+021378
X+006922Y+021503
X+005672Y+021503
X+005734Y+022128
X+004797Y+022066
X+005422Y+023253
X+006172Y+027503
X+007734Y+028066
X+007922Y+026939
X+008859Y+027191
X+010393Y+027191
X+009984Y+028501
X+010359Y+029687
X+011547Y+029624
X+011297Y+028503
X+012422Y+028566
X+013547Y+028566
X+013297Y+029624
X+011672Y+032066
X+010047Y+031816
X+008797Y+029501
X+008109Y+029813
X+005547Y+029066
X+005172Y+029687
X+005234Y+031566
X+007047Y+034191
X+007484Y+034691
X+008672Y+034191
X+008984Y+034503
X+010047Y+035378
X+011109Y+034941
X+011984Y+035124
X+013172Y+035628
X+014047Y+035499
X+015109Y+034753
X+016047Y+034316
X+015422Y+033691
X+014797Y+032503
X+017922Y+031562
X+017953Y+029655
X+018234Y+028753
X+016547Y+029378
X+015609Y+027628
X+015859Y+027128
X+016796Y+024376
X+017046Y+023876
X+016609Y+023376
X+017422Y+023128
X+017359Y+021816
X+018047Y+021816
X+016172Y+021753
X+015172Y+023003
X+015672Y+023566
X+014609Y+021378
X+015234Y+020191
X+015109Y+019441
X+015797Y+019503
X+015734Y+018503
X+015109Y+018566
X+014734Y+017752
X+014047Y+017316
X+015171Y+016315
X+015672Y+016816
X+015921Y+016315
X+016672Y+015941
X+016922Y+015253
X+016485Y+014377
X+016609Y+013441
X+015297Y+013378
X+014734Y+014377
X+014734Y+012191
X+016047Y+012191
X+016609Y+011441
X+017734Y+011067
X+017797Y+011815
X+018547Y+010941
X+018547Y+009128
X+016160Y+010253
X+015109Y+010677
X+014609Y+010128
X+013547Y+010753
X+012984Y+010871
X+012609Y+010815
X+012547Y+009753
X+010734Y+008503
X+013859Y+005316
X+016484Y+005753
X+016609Y+006378
X+016359Y+007628
X+018172Y+005753
X+018109Y+013378
X+018359Y+015191
X+017984Y+016753
X+018609Y+018316
X+017734Y+019941
X+016734Y+020003
X+011047Y+015191
X+009859Y+015691
X+005109Y+018503
X+004547Y+018691
X+006047Y+034691
X+005234Y+035316
X+004797Y+035003
X+004797Y+035628
X+005484Y+035937
X+007109Y+037562
X+008609Y+038437
X+009672Y+038128
X+009547Y+037562
X+010672Y+038437
X+012109Y+038875
X+012797Y+037625
X+013546Y+037441
X+014609Y+038128
X+015609Y+038312
X+015609Y+039250
X+016233Y+041625
X+015609Y+042374
X+015046Y+042749
X+013734Y+042253
X+012734Y+042374
X+011672Y+042437
X+011547Y+041687
X+010425Y+041000
X+012547Y+040378
X+008109Y+040630
X+006610Y+040875
X+006610Y+040312
X+006610Y+039812
X+005985Y+039812
X+005985Y+040312
X+005803Y+040630
X+005985Y+040875
X+005485Y+040875
X+005422Y+040312
X+005422Y+039812
X+005110Y+042624
X+005110Y+043124
X+006797Y+043437
X+007297Y+043437
X+007547Y+046561
X+010734Y+045191
X+011797Y+045187
X+012734Y+045249
X+017359Y+044374
X+018547Y+043503
X+018858Y+044749
X+017733Y+042062
X+018859Y+037378
X+018734Y+035562
X+018672Y+035066
X+017922Y+034566
T02
X+005047Y+030360
X+006047Y+030360
X+007047Y+030360
X+008047Y+030360
X+009047Y+030360
X+010047Y+030360
X+011047Y+030360
X+012047Y+030360
X+013047Y+030360
X+014047Y+030360
X+015047Y+030360
X+016047Y+030360
X+017047Y+030360
X+018047Y+030360
X+018047Y+036360
X+017047Y+036360
X+016047Y+036360
X+015047Y+036360
X+014047Y+036360
X+013047Y+036360
X+012047Y+036360
X+011047Y+036360
X+010047Y+036360
X+009047Y+036360
X+008047Y+036360
X+007047Y+036360
X+006047Y+036360
X+005047Y+036360
X+007547Y+033361
T03
X+015672Y+022488
X+016656Y+022488
X+014688Y+022488
X+014688Y+028197
X+016656Y+028197
X+016951Y+031411
X+016951Y+033183
X+014392Y+033183
X+014392Y+031411
X+008951Y+031411
X+008951Y+033183
X+006392Y+033183
X+006392Y+031411
X+006688Y+028197
X+008656Y+028197
X+008656Y+022488
X+007672Y+022488
X+006688Y+022488
T04
X+017297Y+008811
X+013547Y+008811
X+009797Y+008811
X+006047Y+008811
X+006047Y+013873
X+009797Y+013873
X+013547Y+013873
X+017297Y+013873
X+017297Y+018936
X+013547Y+018936
X+009797Y+018936
X+006047Y+018936
X+009734Y+043441
X+009734Y+044441
X+010734Y+044441
X+011734Y+044441
X+011734Y+043441
X+012734Y+043441
X+012734Y+044441
X+013734Y+044441
X+013734Y+043441
X+013671Y+045937
X+014671Y+045937
X+012671Y+045937
X+011671Y+045937
X+010671Y+045937
X+009671Y+045937
X+008671Y+045937
X+010734Y+043441
T05
X+017297Y+007811
X+017297Y+009623
X+017297Y+012873
X+017297Y+014686
X+017297Y+017936
X+013547Y+017936
X+013547Y+014686
X+013547Y+012873
X+013547Y+009623
X+013547Y+007811
X+013547Y+004561
X+009797Y+004561
X+009797Y+007811
X+009797Y+009623
X+009797Y+012873
X+009797Y+014686
X+009797Y+017936
X+006047Y+017936
X+006047Y+014686
X+006047Y+012873
X+006047Y+009623
X+006047Y+007811
X+006047Y+004561
X+017297Y+004561
T06
X+013428Y+025441
X+009916Y+025441
X+005428Y+025441
X+017916Y+025441
T07
X+005928Y+045941G85X+005416Y+045941
X+017928Y+045941G85X+017416Y+045941
T00
M30
