G04 DipTrace 3.1.0.0*
G04 uO_c1.1.GBS*
%MOIN*%
G04 #@! TF.FileFunction,Soldermask,Bot*
G04 #@! TF.Part,Single*
%AMOUTLINE2*5,1,8,0,0,0.074,-202.499184*%
%ADD49C,0.059055*%
%ADD60O,0.177291X0.12611*%
%ADD64O,0.068X0.088*%
%ADD72C,0.070992*%
%ADD74R,0.070992X0.070992*%
%ADD82C,0.073*%
%ADD84O,0.093X0.083*%
%ADD86R,0.12611X0.145795*%
%ADD88C,0.08674*%
%ADD110OUTLINE2*%
%FSLAX26Y26*%
G04*
G70*
G90*
G75*
G01*
G04 BotMask*
%LPD*%
D88*
X1567194Y2248821D3*
X1665619D3*
X1468769D3*
X1665619Y2819687D3*
X1468769D3*
D86*
X1342784Y2544096D3*
X1791603D3*
D88*
X767194Y2248821D3*
X865619D3*
X668769D3*
X865619Y2819687D3*
X668769D3*
D86*
X542784Y2544096D3*
X991603D3*
D84*
X1729694Y781096D3*
Y456096D3*
D82*
Y881096D3*
D84*
X1354694Y781096D3*
Y456096D3*
D82*
Y881096D3*
D84*
X979694Y781096D3*
Y456096D3*
D82*
Y881096D3*
D84*
X604694Y781096D3*
Y456096D3*
D82*
Y881096D3*
D84*
X1729694Y1793596D3*
Y1468596D3*
D82*
Y1893596D3*
D84*
X1354694Y1793596D3*
Y1468596D3*
D82*
Y1893596D3*
D84*
X979694Y1793596D3*
Y1468596D3*
D82*
Y1893596D3*
D84*
X604694Y1793596D3*
Y1468596D3*
D82*
Y1893596D3*
D84*
X1729694Y1287347D3*
Y962347D3*
D82*
Y1387347D3*
D84*
X1354694Y1287347D3*
Y962347D3*
D82*
Y1387347D3*
D84*
X979694Y1287347D3*
Y962347D3*
D82*
Y1387347D3*
D84*
X604694Y1287347D3*
Y962347D3*
D82*
Y1387347D3*
D110*
X1373443Y4444096D3*
Y4344096D3*
X1273443Y4444096D3*
Y4344096D3*
X1173443Y4444096D3*
Y4344096D3*
X1073443Y4444096D3*
Y4344096D3*
X973443Y4444096D3*
Y4344096D3*
D74*
X504694Y3035977D3*
D72*
X604694D3*
X704694D3*
X804694D3*
X904694D3*
X1004694D3*
X1104694D3*
X1204694D3*
X1304694D3*
X1404694D3*
X1504694D3*
X1604694D3*
X1704694D3*
X1804694D3*
Y3635977D3*
X1704694D3*
X1604694D3*
X1504694D3*
X1404694D3*
X1304694D3*
X1204694D3*
X1104694D3*
X1004694D3*
X904694D3*
X804694D3*
X704694D3*
X604694D3*
X504694D3*
D88*
X1695147Y3318309D3*
Y3141144D3*
X1439241D3*
Y3318309D3*
X639241Y3141144D3*
Y3318309D3*
X895147D3*
Y3141144D3*
D64*
X1467131Y4593656D3*
X1367131D3*
X1267131D3*
X1167131D3*
X1067131D3*
X967131D3*
X867131D3*
D49*
X754662Y3336089D3*
D60*
X567162Y4594089D3*
X1767162D3*
G36*
X904690Y3768734D2*
X417241D1*
X410992Y4449913D1*
X654716D1*
Y4312427D1*
X879693D1*
X904690Y4287430D1*
D1*
Y3768734D1*
G37*
M02*
