G04 DipTrace 3.1.0.0*
G04 uO_c1.1.GTP*
%MOIN*%
G04 #@! TF.FileFunction,Paste,Top*
G04 #@! TF.Part,Single*
%AMOUTLINE0*
4,1,4,
-0.019685,-0.031496,
0.019685,-0.031496,
0.019685,0.031496,
-0.019685,0.031496,
-0.019685,-0.031496,
0*%
%AMOUTLINE1*
4,1,4,
-0.106299,-0.122047,
0.106299,-0.122047,
0.106299,0.122047,
-0.106299,0.122047,
-0.106299,-0.122047,
0*%
%AMOUTLINE3*
4,1,4,
-0.031496,-0.035492,
0.031496,-0.035492,
0.031496,0.035492,
-0.031496,0.035492,
-0.031496,-0.035492,
0*%
%ADD67R,0.015622X0.035307*%
%ADD69R,0.015622X0.07074*%
%ADD71R,0.007748X0.062866*%
%ADD77R,0.017591X0.033339*%
%ADD79R,0.033339X0.017591*%
%ADD81R,0.098299X0.054992*%
%ADD91R,0.078614X0.03137*%
%ADD93R,0.043181X0.051055*%
%ADD95R,0.054992X0.092394*%
%ADD97R,0.051055X0.043181*%
%ADD99R,0.062866X0.054992*%
%ADD101R,0.056961X0.104205*%
%ADD108OUTLINE0*%
%ADD109OUTLINE1*%
%ADD111OUTLINE3*%
%FSLAX26Y26*%
G04*
G70*
G90*
G75*
G01*
G04 TopPaste*
%LPD*%
D101*
X1292194Y2709998D3*
Y2875352D3*
X1054694Y2869103D3*
Y2703749D3*
D99*
X1485939Y4025347D3*
Y3915111D3*
X1810942Y3912846D3*
Y4023082D3*
D97*
X1160944Y1912846D3*
Y1838043D3*
X1448383Y4124955D3*
Y4199758D3*
D95*
X861069Y4062994D3*
Y3925199D3*
D93*
X1135746Y2356600D3*
X1060943D3*
X1798246Y3800346D3*
X1723443D3*
D97*
X1360943Y2050347D3*
Y2125150D3*
X510943Y962652D3*
Y887848D3*
X1167162Y575327D3*
Y650131D3*
X1742194Y569096D3*
Y643900D3*
D93*
X691997Y3806599D3*
X617194D3*
D97*
X1479694Y569195D3*
Y643998D3*
Y1181498D3*
Y1106695D3*
X604694Y569195D3*
Y643998D3*
X729694Y1181498D3*
Y1106695D3*
X1110943Y1162847D3*
Y1237650D3*
X1104694Y994096D3*
Y919293D3*
Y819096D3*
Y744293D3*
X1617292Y1331695D3*
Y1406498D3*
X985912Y1606589D3*
Y1681392D3*
D95*
X1073581Y4056745D3*
Y3918949D3*
D97*
X1473542Y1856498D3*
Y1931301D3*
X731838Y1332089D3*
Y1406892D3*
X717194Y1850347D3*
Y1925150D3*
X948412Y2156156D3*
Y2081352D3*
X1823443Y2818900D3*
Y2744096D3*
X1217162Y3219089D3*
Y3293892D3*
X1104662Y3219089D3*
Y3293892D3*
X1498378Y4456170D3*
Y4381367D3*
D91*
X1604690Y4412850D3*
Y4312850D3*
X1829493D3*
Y4412850D3*
D108*
X692196Y4281628D3*
X512669D3*
D109*
X602433Y3994226D3*
D81*
X1342144Y4024965D3*
Y3914729D3*
D79*
X1567194Y2031596D3*
Y2106400D3*
X1476643Y2068998D3*
D77*
X1512568Y2617669D3*
X1587371D3*
X1549969Y2708220D3*
X706317Y2617669D3*
X781120D3*
X743719Y2708220D3*
D79*
X785943Y2106596D3*
Y2031793D3*
X876494Y2069195D3*
D97*
X1604694Y643998D3*
Y569195D3*
Y1106695D3*
Y1181498D3*
X1854694Y569195D3*
Y643998D3*
X1354694D3*
Y569195D3*
X1729694Y1181498D3*
Y1106695D3*
X1354694D3*
Y1181498D3*
X729694Y643998D3*
Y569195D3*
X854694Y1106695D3*
Y1181498D3*
Y569195D3*
Y643998D3*
X979694Y569195D3*
Y643998D3*
Y1181498D3*
Y1106695D3*
X604694D3*
Y1181498D3*
X1223444Y919293D3*
Y994096D3*
Y750347D3*
Y825150D3*
X1798345Y2112747D3*
Y2037944D3*
X1679595Y2112747D3*
Y2037944D3*
D93*
X1585943Y2387847D3*
X1511140D3*
X1585943Y2512847D3*
X1511140D3*
X779694Y2381596D3*
X704891D3*
X779694Y2506596D3*
X704891D3*
D97*
X573443Y2037847D3*
Y2112650D3*
X692194Y2037847D3*
Y2112650D3*
X1867095Y956695D3*
Y1031498D3*
X1485944Y1325347D3*
Y1400150D3*
X1879595Y1525446D3*
Y1600249D3*
X1217193Y1475346D3*
Y1400543D3*
X1867095Y1131695D3*
Y1206498D3*
X1610943Y1856596D3*
Y1931400D3*
X1879694Y1862847D3*
Y1937650D3*
X1217095Y1569392D3*
Y1644195D3*
X460943Y1275347D3*
Y1350150D3*
X848443Y1331596D3*
Y1406400D3*
X467194Y1537847D3*
Y1612650D3*
X1104694Y1475543D3*
Y1400740D3*
X460943Y1100346D3*
Y1175149D3*
X848444Y1850347D3*
Y1925150D3*
X454694Y1906596D3*
Y1981400D3*
X1104694Y1569490D3*
Y1644293D3*
D93*
X1123542Y2600251D3*
X1198345D3*
D97*
X1542194Y3231596D3*
Y3306400D3*
X1004662Y3294089D3*
Y3219285D3*
D93*
X867194Y4474918D3*
X792391D3*
D71*
X1067194Y2031596D3*
X1092784D3*
X1118375D3*
X1143965D3*
X1169556D3*
X1195147D3*
X1220737D3*
X1246328D3*
Y2259951D3*
X1220737Y2259943D3*
X1195147D3*
X1169556D3*
X1143965D3*
X1118375D3*
X1092784D3*
X1067194D3*
D69*
X1460943Y762847D3*
X1510943D3*
X1560943D3*
X1610943D3*
Y975446D3*
X1560943D3*
X1510943D3*
X1460943D3*
X710943Y769096D3*
X760943D3*
X810943D3*
X860943D3*
Y981695D3*
X810943D3*
X760943D3*
X710943D3*
X1467194Y1519096D3*
X1517194D3*
X1567194D3*
X1617194D3*
Y1731695D3*
X1567194D3*
X1517194D3*
X1467194D3*
D79*
X1201494Y2444295D3*
Y2519098D3*
X1110943Y2481696D3*
D67*
X1685941Y4031596D3*
X1648539D3*
X1611137D3*
Y3925297D3*
X1685941D3*
D69*
X704694Y1525347D3*
X754694D3*
X804694D3*
X854694D3*
Y1737946D3*
X804694D3*
X754694D3*
X704694D3*
D93*
X879504Y2912582D3*
X804700D3*
D111*
X1779598Y4162451D3*
X1667630D3*
D97*
X617162Y1668892D3*
Y1594089D3*
X1392162Y1662838D3*
Y1588035D3*
X798412Y3543892D3*
Y3469089D3*
D79*
X604662Y3519089D3*
Y3444285D3*
X695214Y3481687D3*
M02*
