G04 DipTrace 3.1.0.0*
G04 uO_c_panel.GBO*
%MOIN*%
G04 #@! TF.FileFunction,Legend,Bot*
G04 #@! TF.Part,Single*
%ADD12C,0.001*%
%ADD13C,0.01*%
%ADD25C,0.013895*%
%FSLAX26Y26*%
G04*
G70*
G90*
G75*
G01*
G04 BotSilk*
%LPD*%
X1149807Y2262751D2*
D13*
X1112307D1*
X1149807Y2262749D2*
Y2200251D1*
X1224807Y2200249D2*
X1149807D1*
X1224807Y2200251D2*
Y2262749D1*
X1262307Y2262751D2*
X1224807D1*
G36*
X1474806Y3900251D2*
X1699806D1*
X1581056Y4018999D1*
X1462306Y3900251D1*
D1*
X1474806D1*
G37*
G36*
X897307Y4029000D2*
X672307D1*
X791056Y3910252D1*
X909807Y4029000D1*
D1*
X897307D1*
G37*
X1040869Y597975D2*
D12*
X1053869D1*
X1040869Y596975D2*
X1053869D1*
X1040869Y595975D2*
X1053869D1*
X1040869Y594975D2*
X1053869D1*
X1040869Y593975D2*
X1053869D1*
X1040869Y592975D2*
X1053869D1*
X1040869Y591975D2*
X1053869D1*
X1040869Y590975D2*
X1053869D1*
X1040869Y589975D2*
X1053869D1*
X1040869Y588975D2*
X1053869D1*
X1040869Y587975D2*
X1053869D1*
X1040869Y586975D2*
X1053869D1*
X1040869Y585975D2*
X1053869D1*
X1221869D2*
X1294869D1*
X1040869Y584975D2*
X1053869D1*
X1221869D2*
X1294869D1*
X1040869Y583975D2*
X1053869D1*
X1221869D2*
X1294869D1*
X1040869Y582975D2*
X1053869D1*
X1221869D2*
X1294869D1*
X1040869Y581975D2*
X1053869D1*
X1221869D2*
X1294869D1*
X1040869Y580975D2*
X1053869D1*
X1221869D2*
X1294869D1*
X1040869Y579975D2*
X1053869D1*
X1221869D2*
X1294869D1*
X1040869Y578975D2*
X1053869D1*
X1221869D2*
X1294869D1*
X1040869Y577975D2*
X1053869D1*
X1221869D2*
X1294869D1*
X1040869Y576975D2*
X1053869D1*
X1221869D2*
X1294869D1*
X1040869Y575975D2*
X1053869D1*
X1221869D2*
X1294869D1*
X1040869Y574975D2*
X1053869D1*
X1221869D2*
X1294869D1*
X1040869Y573975D2*
X1053869D1*
X1221869D2*
X1294869D1*
X1040869Y572975D2*
X1053869D1*
X1221869D2*
X1294869D1*
X1040869Y571975D2*
X1053869D1*
X1040869Y570975D2*
X1053869D1*
X1040869Y569975D2*
X1053869D1*
X1040869Y568975D2*
X1053869D1*
X1040869Y567975D2*
X1053865D1*
X1040869Y566975D2*
X1053827D1*
X1040869Y565975D2*
X1053672D1*
X1062869D2*
X1071869D1*
X1155869D2*
X1167869D1*
X1330869D2*
X1340869D1*
X1040869Y564975D2*
X1053330D1*
X1059036D2*
X1075250D1*
X1151301D2*
X1172250D1*
X1327453D2*
X1344592D1*
X1040869Y563975D2*
X1052869D1*
X1055025D2*
X1078072D1*
X1147428D2*
X1176072D1*
X1324368D2*
X1347708D1*
X1040869Y562975D2*
X1080342D1*
X1144232D2*
X1179338D1*
X1321760D2*
X1350128D1*
X1040869Y561975D2*
X1082129D1*
X1141557D2*
X1182090D1*
X1319637D2*
X1351847D1*
X1040869Y560975D2*
X1083545D1*
X1139321D2*
X1184375D1*
X1317871D2*
X1353094D1*
X1040869Y559975D2*
X1084738D1*
X1137427D2*
X1186293D1*
X1316371D2*
X1353498D1*
X1040869Y558975D2*
X1085819D1*
X1135745D2*
X1187986D1*
X1315094D2*
X1353713D1*
X1040869Y557975D2*
X1086847D1*
X1134170D2*
X1189565D1*
X1313962D2*
X1353808D1*
X1040869Y556975D2*
X1087823D1*
X1132676D2*
X1191061D1*
X1312905D2*
X1353847D1*
X1040869Y555975D2*
X1088696D1*
X1131291D2*
X1192442D1*
X1311882D2*
X1353861D1*
X1040869Y554975D2*
X1089423D1*
X1130027D2*
X1193671D1*
X1310877D2*
X1353866D1*
X1040869Y553975D2*
X1090036D1*
X1128785D2*
X1194786D1*
X1309909D2*
X1353868D1*
X1040869Y552975D2*
X1063262D1*
X1070476D2*
X1090583D1*
X1127499D2*
X1195836D1*
X1309036D2*
X1332300D1*
X1339434D2*
X1353868D1*
X1040869Y551975D2*
X1061092D1*
X1072645D2*
X1091071D1*
X1126257D2*
X1157266D1*
X1165275D2*
X1196857D1*
X1308279D2*
X1329262D1*
X1342440D2*
X1353869D1*
X1040869Y550975D2*
X1059426D1*
X1074311D2*
X1091484D1*
X1125203D2*
X1153139D1*
X1169991D2*
X1197865D1*
X1307574D2*
X1326871D1*
X1344739D2*
X1353869D1*
X1040869Y549975D2*
X1058140D1*
X1075601D2*
X1091838D1*
X1124347D2*
X1149671D1*
X1173825D2*
X1198867D1*
X1306911D2*
X1324973D1*
X1346529D2*
X1353869D1*
X1040869Y548975D2*
X1057163D1*
X1076610D2*
X1092192D1*
X1123560D2*
X1146883D1*
X1176867D2*
X1199868D1*
X1306375D2*
X1323448D1*
X1348072D2*
X1353869D1*
X1040869Y547975D2*
X1056477D1*
X1077387D2*
X1092499D1*
X1122720D2*
X1144684D1*
X1179253D2*
X1200869D1*
X1305948D2*
X1322275D1*
X1349451D2*
X1353869D1*
X1040869Y546975D2*
X1055991D1*
X1077986D2*
X1092694D1*
X1121841D2*
X1142884D1*
X1181129D2*
X1201865D1*
X1305528D2*
X1321377D1*
X1350636D2*
X1353869D1*
X1040869Y545975D2*
X1055581D1*
X1078417D2*
X1092794D1*
X1121009D2*
X1141338D1*
X1182696D2*
X1202830D1*
X1305080D2*
X1320608D1*
X1351592D2*
X1353869D1*
X1040869Y544975D2*
X1055248D1*
X1078699D2*
X1092843D1*
X1120269D2*
X1139930D1*
X1184138D2*
X1203702D1*
X1304641D2*
X1319890D1*
X1352301D2*
X1353869D1*
X1040869Y543975D2*
X1055009D1*
X1078948D2*
X1092897D1*
X1119567D2*
X1138556D1*
X1185479D2*
X1204459D1*
X1304278D2*
X1319252D1*
X1352869D2*
X1353869D1*
X1040869Y542975D2*
X1054779D1*
X1079241D2*
X1093031D1*
X1118871D2*
X1137246D1*
X1186687D2*
X1205167D1*
X1304023D2*
X1318710D1*
X1040869Y541975D2*
X1054493D1*
X1079519D2*
X1093273D1*
X1118208D2*
X1136084D1*
X1187792D2*
X1205862D1*
X1303784D2*
X1318272D1*
X1040869Y540975D2*
X1054218D1*
X1079701D2*
X1093531D1*
X1117542D2*
X1135110D1*
X1188835D2*
X1206494D1*
X1303495D2*
X1317906D1*
X1040869Y539975D2*
X1054036D1*
X1079797D2*
X1093705D1*
X1116865D2*
X1134304D1*
X1189818D2*
X1207064D1*
X1303218D2*
X1317548D1*
X1040869Y538975D2*
X1053941D1*
X1079840D2*
X1093798D1*
X1116244D2*
X1133546D1*
X1190698D2*
X1207597D1*
X1303036D2*
X1317240D1*
X1040869Y537975D2*
X1053897D1*
X1079858D2*
X1093841D1*
X1115707D2*
X1132749D1*
X1191457D2*
X1208110D1*
X1302941D2*
X1317044D1*
X1040869Y536975D2*
X1053879D1*
X1079865D2*
X1093858D1*
X1115271D2*
X1131966D1*
X1192167D2*
X1208616D1*
X1302897D2*
X1316944D1*
X1040869Y535975D2*
X1053873D1*
X1079867D2*
X1093865D1*
X1114902D2*
X1131251D1*
X1192861D2*
X1209117D1*
X1302879D2*
X1316898D1*
X1040869Y534975D2*
X1053870D1*
X1079868D2*
X1093867D1*
X1114509D2*
X1130560D1*
X1193494D2*
X1209615D1*
X1302873D2*
X1316880D1*
X1040869Y533975D2*
X1053869D1*
X1079869D2*
X1093868D1*
X1114073D2*
X1129872D1*
X1194064D2*
X1210083D1*
X1302870D2*
X1316873D1*
X1040869Y532975D2*
X1053869D1*
X1079869D2*
X1093869D1*
X1113634D2*
X1129242D1*
X1194597D2*
X1210488D1*
X1302869D2*
X1316870D1*
X1040869Y531975D2*
X1053869D1*
X1079869D2*
X1093869D1*
X1113242D2*
X1128673D1*
X1195110D2*
X1210840D1*
X1302869D2*
X1316869D1*
X1040869Y530975D2*
X1053869D1*
X1079869D2*
X1093869D1*
X1112895D2*
X1128144D1*
X1195616D2*
X1211192D1*
X1302869D2*
X1316873D1*
X1040869Y529975D2*
X1053869D1*
X1079869D2*
X1093869D1*
X1112544D2*
X1127662D1*
X1196117D2*
X1211503D1*
X1302873D2*
X1316908D1*
X1040869Y528975D2*
X1053869D1*
X1079869D2*
X1093869D1*
X1112238D2*
X1127253D1*
X1196615D2*
X1211733D1*
X1302908D2*
X1317035D1*
X1040869Y527975D2*
X1053869D1*
X1079869D2*
X1093869D1*
X1112040D2*
X1126899D1*
X1197079D2*
X1211961D1*
X1303035D2*
X1317279D1*
X1040869Y526975D2*
X1053869D1*
X1079869D2*
X1093869D1*
X1111904D2*
X1126546D1*
X1197453D2*
X1212245D1*
X1303275D2*
X1317570D1*
X1040869Y525975D2*
X1053869D1*
X1079869D2*
X1093869D1*
X1111732D2*
X1126235D1*
X1197712D2*
X1212520D1*
X1303535D2*
X1317876D1*
X1040869Y524975D2*
X1053869D1*
X1079869D2*
X1093869D1*
X1111474D2*
X1126005D1*
X1197953D2*
X1212702D1*
X1303745D2*
X1318243D1*
X1040869Y523975D2*
X1053869D1*
X1079869D2*
X1093869D1*
X1111210D2*
X1125777D1*
X1198242D2*
X1212801D1*
X1303965D2*
X1318674D1*
X1040869Y522975D2*
X1053869D1*
X1079869D2*
X1093869D1*
X1111033D2*
X1125492D1*
X1198519D2*
X1212879D1*
X1304251D2*
X1319144D1*
X1040869Y521975D2*
X1053869D1*
X1079869D2*
X1093869D1*
X1110940D2*
X1125217D1*
X1198701D2*
X1213025D1*
X1304560D2*
X1319666D1*
X1352869D2*
X1353869D1*
X1040869Y520975D2*
X1053869D1*
X1079869D2*
X1093869D1*
X1110897D2*
X1125036D1*
X1198797D2*
X1213271D1*
X1304872D2*
X1320292D1*
X1351869D2*
X1353869D1*
X1040869Y519975D2*
X1053869D1*
X1079869D2*
X1093869D1*
X1110879D2*
X1124941D1*
X1198840D2*
X1213530D1*
X1305242D2*
X1321069D1*
X1350869D2*
X1353869D1*
X1040869Y518975D2*
X1053869D1*
X1079869D2*
X1093869D1*
X1110873D2*
X1124897D1*
X1198858D2*
X1213705D1*
X1305673D2*
X1321991D1*
X1349865D2*
X1353869D1*
X1040869Y517975D2*
X1053869D1*
X1079869D2*
X1093869D1*
X1110870D2*
X1124879D1*
X1198865D2*
X1213798D1*
X1306144D2*
X1323075D1*
X1348826D2*
X1353869D1*
X1040869Y516975D2*
X1053869D1*
X1079869D2*
X1093869D1*
X1110869D2*
X1124873D1*
X1198867D2*
X1213841D1*
X1306666D2*
X1324373D1*
X1347659D2*
X1353869D1*
X1040869Y515975D2*
X1053869D1*
X1079869D2*
X1093869D1*
X1110869D2*
X1124870D1*
X1198868D2*
X1213858D1*
X1307288D2*
X1325954D1*
X1346253D2*
X1353869D1*
X1040869Y514975D2*
X1053869D1*
X1079869D2*
X1093869D1*
X1110869D2*
X1124869D1*
X1198869D2*
X1213865D1*
X1308026D2*
X1327931D1*
X1344592D2*
X1353869D1*
X1040869Y513975D2*
X1053869D1*
X1079869D2*
X1093869D1*
X1110869D2*
X1124869D1*
X1198869D2*
X1213867D1*
X1308785D2*
X1330307D1*
X1342763D2*
X1353869D1*
X1040869Y512975D2*
X1053869D1*
X1079869D2*
X1093869D1*
X1110869D2*
X1124869D1*
X1198869D2*
X1213864D1*
X1309495D2*
X1353869D1*
X1040869Y511975D2*
X1053869D1*
X1079869D2*
X1093869D1*
X1110869D2*
X1124869D1*
X1198869D2*
X1213830D1*
X1310218D2*
X1353869D1*
X1040869Y510975D2*
X1053869D1*
X1079869D2*
X1093869D1*
X1110869D2*
X1124869D1*
X1198869D2*
X1213702D1*
X1311040D2*
X1353869D1*
X1040869Y509975D2*
X1053869D1*
X1079869D2*
X1093869D1*
X1110869D2*
X1124873D1*
X1198869D2*
X1213463D1*
X1311980D2*
X1353869D1*
X1040869Y508975D2*
X1053869D1*
X1079869D2*
X1093869D1*
X1110869D2*
X1124908D1*
X1198865D2*
X1213206D1*
X1313064D2*
X1353869D1*
X1040869Y507975D2*
X1053869D1*
X1079869D2*
X1093869D1*
X1110873D2*
X1125035D1*
X1198830D2*
X1213032D1*
X1314289D2*
X1353865D1*
X1040869Y506975D2*
X1053869D1*
X1079869D2*
X1093869D1*
X1110908D2*
X1125275D1*
X1198702D2*
X1212935D1*
X1315578D2*
X1353822D1*
X1040869Y505975D2*
X1053869D1*
X1079869D2*
X1093869D1*
X1111035D2*
X1125535D1*
X1198459D2*
X1212858D1*
X1316920D2*
X1353716D1*
X1040869Y504975D2*
X1053869D1*
X1079869D2*
X1093869D1*
X1111275D2*
X1125745D1*
X1198167D2*
X1212713D1*
X1318457D2*
X1353195D1*
X1040869Y503975D2*
X1053869D1*
X1079869D2*
X1093869D1*
X1111535D2*
X1125969D1*
X1197865D2*
X1212467D1*
X1320344D2*
X1351799D1*
X1040869Y502975D2*
X1053869D1*
X1079869D2*
X1093869D1*
X1111745D2*
X1126286D1*
X1197529D2*
X1212204D1*
X1322756D2*
X1349705D1*
X1040869Y501975D2*
X1053869D1*
X1079869D2*
X1093869D1*
X1111965D2*
X1126687D1*
X1197195D2*
X1211993D1*
X1325972D2*
X1346650D1*
X1112251Y500975D2*
X1127112D1*
X1196872D2*
X1211773D1*
X1330142D2*
X1342553D1*
X1112560Y499975D2*
X1127498D1*
X1196498D2*
X1211487D1*
X1334869D2*
X1337869D1*
X1112868Y498975D2*
X1127848D1*
X1196065D2*
X1211178D1*
X1113207Y497975D2*
X1128237D1*
X1195598D2*
X1210865D1*
X1113542Y496975D2*
X1128705D1*
X1195110D2*
X1210495D1*
X1113865Y495975D2*
X1129270D1*
X1194612D2*
X1210064D1*
X1114240Y494975D2*
X1129905D1*
X1194078D2*
X1209598D1*
X1114672Y493975D2*
X1130548D1*
X1193452D2*
X1209110D1*
X1115140Y492975D2*
X1131240D1*
X1192712D2*
X1208616D1*
X1115627Y491975D2*
X1132044D1*
X1191953D2*
X1208117D1*
X1116125Y490975D2*
X1132944D1*
X1191242D2*
X1207619D1*
X1116655Y489975D2*
X1133898D1*
X1190519D2*
X1207118D1*
X1117250Y488975D2*
X1134880D1*
X1189697D2*
X1206615D1*
X1117898Y487975D2*
X1135873D1*
X1188758D2*
X1206079D1*
X1118545Y486975D2*
X1136874D1*
X1187674D2*
X1205453D1*
X1119239Y485975D2*
X1137908D1*
X1186448D2*
X1204712D1*
X1120040Y484975D2*
X1139039D1*
X1185160D2*
X1203953D1*
X1120904Y483975D2*
X1140318D1*
X1183821D2*
X1203242D1*
X1121732Y482975D2*
X1141745D1*
X1182319D2*
X1202519D1*
X1122474Y481975D2*
X1143368D1*
X1180572D2*
X1201701D1*
X1123210Y480975D2*
X1145329D1*
X1178512D2*
X1200797D1*
X1124033Y479975D2*
X1147780D1*
X1176004D2*
X1199840D1*
X1124944Y478975D2*
X1150791D1*
X1172965D2*
X1198858D1*
X1125936Y477975D2*
X1154238D1*
X1169507D2*
X1197861D1*
X1127046Y476975D2*
X1196828D1*
X1128282Y475975D2*
X1195702D1*
X1129572Y474975D2*
X1194459D1*
X1130876Y473975D2*
X1193167D1*
X1132244Y472975D2*
X1191862D1*
X1133674Y471975D2*
X1190490D1*
X1135148Y470975D2*
X1189025D1*
X1136705Y469975D2*
X1187423D1*
X1138462Y468975D2*
X1185622D1*
X1140522Y467975D2*
X1183570D1*
X1142907Y466975D2*
X1181178D1*
X1145743Y465975D2*
X1178383D1*
X1149144Y464975D2*
X1175220D1*
X1152869Y463975D2*
X1171869D1*
X1114556Y1251249D2*
X1134556D1*
X1172556D2*
X1193556D1*
X1235556D2*
X1241556D1*
X1112137Y1250249D2*
X1136702D1*
X1170295D2*
X1195634D1*
X1235556D2*
X1241556D1*
X1110017Y1249249D2*
X1138584D1*
X1168458D2*
X1197453D1*
X1235556D2*
X1241556D1*
X1108282Y1248249D2*
X1140109D1*
X1167106D2*
X1198967D1*
X1235556D2*
X1241556D1*
X1106915Y1247249D2*
X1141365D1*
X1166122D2*
X1200140D1*
X1235556D2*
X1241556D1*
X1105857Y1246249D2*
X1142444D1*
X1165317D2*
X1201010D1*
X1235556D2*
X1241556D1*
X1105051Y1245249D2*
X1117991D1*
X1130121D2*
X1143359D1*
X1164585D2*
X1175799D1*
X1190318D2*
X1201685D1*
X1235556D2*
X1241556D1*
X1104407Y1244249D2*
X1114989D1*
X1133124D2*
X1144102D1*
X1163942D2*
X1173416D1*
X1192732D2*
X1202260D1*
X1235556D2*
X1241556D1*
X1103845Y1243249D2*
X1112729D1*
X1135387D2*
X1144720D1*
X1163399D2*
X1171619D1*
X1194625D2*
X1202789D1*
X1235556D2*
X1241556D1*
X1103321Y1242249D2*
X1111102D1*
X1137046D2*
X1145270D1*
X1162960D2*
X1170394D1*
X1195994D2*
X1203297D1*
X1235556D2*
X1241556D1*
X1102815Y1241249D2*
X1109930D1*
X1138314D2*
X1145759D1*
X1162594D2*
X1169548D1*
X1196953D2*
X1203769D1*
X1235556D2*
X1241556D1*
X1102348Y1240249D2*
X1109078D1*
X1139309D2*
X1146171D1*
X1162236D2*
X1168903D1*
X1197663D2*
X1204175D1*
X1235556D2*
X1241556D1*
X1101973Y1239249D2*
X1108417D1*
X1140080D2*
X1146526D1*
X1161923D2*
X1168376D1*
X1198249D2*
X1204527D1*
X1235556D2*
X1241556D1*
X1101713Y1238249D2*
X1107852D1*
X1140675D2*
X1146880D1*
X1161693D2*
X1167949D1*
X1198747D2*
X1204880D1*
X1235556D2*
X1241556D1*
X1101472Y1237249D2*
X1107361D1*
X1141105D2*
X1147186D1*
X1161465D2*
X1167589D1*
X1199134D2*
X1205187D1*
X1235556D2*
X1241556D1*
X1101183Y1236249D2*
X1106982D1*
X1141387D2*
X1147385D1*
X1161180D2*
X1167234D1*
X1199398D2*
X1205385D1*
X1235556D2*
X1241556D1*
X1100906Y1235249D2*
X1106754D1*
X1141636D2*
X1147521D1*
X1160905D2*
X1166927D1*
X1199640D2*
X1205521D1*
X1235556D2*
X1241556D1*
X1100724Y1234249D2*
X1106636D1*
X1141929D2*
X1147693D1*
X1160724D2*
X1166732D1*
X1199930D2*
X1205693D1*
X1235556D2*
X1241556D1*
X1100628Y1233249D2*
X1106550D1*
X1142206D2*
X1147951D1*
X1160628D2*
X1166627D1*
X1200207D2*
X1205951D1*
X1235556D2*
X1241556D1*
X1100585Y1232249D2*
X1106402D1*
X1142389D2*
X1148215D1*
X1160585D2*
X1166547D1*
X1200389D2*
X1206215D1*
X1235556D2*
X1241556D1*
X1100567Y1231249D2*
X1106155D1*
X1142484D2*
X1148392D1*
X1160567D2*
X1166401D1*
X1200485D2*
X1206392D1*
X1235556D2*
X1241556D1*
X1100556Y1230249D2*
X1105895D1*
X1142528D2*
X1148486D1*
X1160560D2*
X1166154D1*
X1200528D2*
X1206486D1*
X1235556D2*
X1241556D1*
X1100519Y1229249D2*
X1105720D1*
X1142546D2*
X1148528D1*
X1160558D2*
X1165895D1*
X1200546D2*
X1206528D1*
X1235556D2*
X1241556D1*
X1100390Y1228249D2*
X1105627D1*
X1142557D2*
X1148546D1*
X1160557D2*
X1165720D1*
X1200553D2*
X1206546D1*
X1235556D2*
X1241556D1*
X1100151Y1227249D2*
X1105585D1*
X1142594D2*
X1148553D1*
X1160557D2*
X1165627D1*
X1200555D2*
X1206553D1*
X1235556D2*
X1241556D1*
X1099894Y1226249D2*
X1105567D1*
X1142722D2*
X1148555D1*
X1160556D2*
X1165585D1*
X1200556D2*
X1206555D1*
X1235556D2*
X1241556D1*
X1099720Y1225249D2*
X1105560D1*
X1142962D2*
X1148556D1*
X1160556D2*
X1165567D1*
X1200556D2*
X1206556D1*
X1235556D2*
X1241556D1*
X1099627Y1224249D2*
X1105558D1*
X1143219D2*
X1148556D1*
X1160556D2*
X1165560D1*
X1200556D2*
X1206556D1*
X1235556D2*
X1241556D1*
X1099584Y1223249D2*
X1105557D1*
X1143393D2*
X1148556D1*
X1160556D2*
X1165558D1*
X1200556D2*
X1206556D1*
X1235556D2*
X1241556D1*
X1099567Y1222249D2*
X1105557D1*
X1143486D2*
X1148556D1*
X1160556D2*
X1165557D1*
X1200556D2*
X1206556D1*
X1235556D2*
X1241556D1*
X1099560Y1221249D2*
X1105556D1*
X1143528D2*
X1148556D1*
X1160556D2*
X1165557D1*
X1200556D2*
X1206556D1*
X1235556D2*
X1241556D1*
X1099558Y1220249D2*
X1105556D1*
X1143546D2*
X1148556D1*
X1160556D2*
X1165556D1*
X1200556D2*
X1206556D1*
X1235556D2*
X1241556D1*
X1099557Y1219249D2*
X1105556D1*
X1143553D2*
X1148556D1*
X1160556D2*
X1165556D1*
X1200556D2*
X1206556D1*
X1235556D2*
X1241556D1*
X1099557Y1218249D2*
X1105556D1*
X1143551D2*
X1148556D1*
X1160556D2*
X1165556D1*
X1200556D2*
X1206556D1*
X1235556D2*
X1241556D1*
X1099556Y1217249D2*
X1105556D1*
X1143517D2*
X1148556D1*
X1160556D2*
X1165556D1*
X1200556D2*
X1206556D1*
X1235556D2*
X1241556D1*
X1099560Y1216249D2*
X1105556D1*
X1143390D2*
X1148556D1*
X1160556D2*
X1165556D1*
X1200556D2*
X1206556D1*
X1235556D2*
X1241556D1*
X1099595Y1215249D2*
X1105556D1*
X1143150D2*
X1148556D1*
X1160556D2*
X1165556D1*
X1200556D2*
X1206556D1*
X1235556D2*
X1241556D1*
X1099723Y1214249D2*
X1105556D1*
X1142894D2*
X1148556D1*
X1160556D2*
X1165556D1*
X1200556D2*
X1206556D1*
X1235556D2*
X1241556D1*
X1099962Y1213249D2*
X1105560D1*
X1142720D2*
X1148556D1*
X1160556D2*
X1165556D1*
X1200556D2*
X1206556D1*
X1235556D2*
X1241556D1*
X1100219Y1212249D2*
X1105595D1*
X1142627D2*
X1148556D1*
X1160556D2*
X1165556D1*
X1200556D2*
X1206556D1*
X1235556D2*
X1241556D1*
X1100393Y1211249D2*
X1105723D1*
X1142584D2*
X1148553D1*
X1160556D2*
X1165556D1*
X1200556D2*
X1206556D1*
X1235556D2*
X1241556D1*
X1100486Y1210249D2*
X1105962D1*
X1142567D2*
X1148517D1*
X1160556D2*
X1165556D1*
X1200556D2*
X1206556D1*
X1235556D2*
X1241556D1*
X1100528Y1209249D2*
X1106219D1*
X1142560D2*
X1148390D1*
X1160556D2*
X1165556D1*
X1200556D2*
X1206556D1*
X1235556D2*
X1241556D1*
X1100550Y1208249D2*
X1106393D1*
X1142554D2*
X1148150D1*
X1160556D2*
X1165556D1*
X1200556D2*
X1206556D1*
X1235556D2*
X1241556D1*
X1100592Y1207249D2*
X1106486D1*
X1142518D2*
X1147894D1*
X1160556D2*
X1165556D1*
X1200556D2*
X1206556D1*
X1235556D2*
X1241556D1*
X1100722Y1206249D2*
X1106532D1*
X1142390D2*
X1147720D1*
X1160556D2*
X1165556D1*
X1200556D2*
X1206556D1*
X1235556D2*
X1241556D1*
X1100962Y1205249D2*
X1106585D1*
X1142147D2*
X1147623D1*
X1160556D2*
X1165556D1*
X1200556D2*
X1206556D1*
X1235556D2*
X1241556D1*
X1101223Y1204249D2*
X1106723D1*
X1141855D2*
X1147545D1*
X1160556D2*
X1165556D1*
X1200556D2*
X1206556D1*
X1235556D2*
X1241556D1*
X1101432Y1203249D2*
X1107000D1*
X1141553D2*
X1147400D1*
X1160556D2*
X1165556D1*
X1200556D2*
X1206556D1*
X1235556D2*
X1241556D1*
X1101652Y1202249D2*
X1107389D1*
X1141217D2*
X1147150D1*
X1160556D2*
X1165556D1*
X1200556D2*
X1206556D1*
X1235556D2*
X1241556D1*
X1101938Y1201249D2*
X1107838D1*
X1140879D2*
X1146856D1*
X1160556D2*
X1165556D1*
X1200556D2*
X1206556D1*
X1235556D2*
X1241556D1*
X1102247Y1200249D2*
X1108319D1*
X1140521D2*
X1146550D1*
X1160556D2*
X1165556D1*
X1200556D2*
X1206556D1*
X1235556D2*
X1241556D1*
X1102560Y1199249D2*
X1108818D1*
X1140015D2*
X1146182D1*
X1160556D2*
X1165556D1*
X1200556D2*
X1206556D1*
X1235556D2*
X1241556D1*
X1102934Y1198249D2*
X1109390D1*
X1139304D2*
X1145752D1*
X1160556D2*
X1165556D1*
X1200556D2*
X1206556D1*
X1235556D2*
X1241556D1*
X1103396Y1197249D2*
X1110186D1*
X1138410D2*
X1145281D1*
X1160556D2*
X1165556D1*
X1200556D2*
X1206556D1*
X1235556D2*
X1241556D1*
X1103959Y1196249D2*
X1111367D1*
X1137307D2*
X1144763D1*
X1160556D2*
X1165556D1*
X1200556D2*
X1206556D1*
X1235556D2*
X1241556D1*
X1104594Y1195249D2*
X1112915D1*
X1135930D2*
X1144173D1*
X1160556D2*
X1165556D1*
X1200556D2*
X1206556D1*
X1235556D2*
X1241556D1*
X1105236Y1194249D2*
X1114692D1*
X1134300D2*
X1143523D1*
X1160556D2*
X1165556D1*
X1200556D2*
X1206556D1*
X1235556D2*
X1241556D1*
X1105931Y1193249D2*
X1142841D1*
X1160556D2*
X1165556D1*
X1200556D2*
X1206556D1*
X1217556D2*
X1260556D1*
X1106779Y1192249D2*
X1142012D1*
X1160556D2*
X1165556D1*
X1200556D2*
X1206556D1*
X1217556D2*
X1260556D1*
X1107888Y1191249D2*
X1140885D1*
X1160556D2*
X1165556D1*
X1200556D2*
X1206556D1*
X1217556D2*
X1260556D1*
X1109453Y1190249D2*
X1139359D1*
X1160556D2*
X1165556D1*
X1200556D2*
X1206556D1*
X1217556D2*
X1260556D1*
X1111652Y1189249D2*
X1137269D1*
X1160556D2*
X1165556D1*
X1200556D2*
X1206556D1*
X1217556D2*
X1260556D1*
X1114456Y1188249D2*
X1134570D1*
X1160556D2*
X1165556D1*
X1200556D2*
X1206556D1*
X1217556D2*
X1260556D1*
X1117556Y1187249D2*
X1131556D1*
X1140307Y1785751D2*
X1148307D1*
X1136926Y1784751D2*
X1160307D1*
X1202307D2*
X1209307D1*
X1134104Y1783751D2*
X1167307D1*
X1202149D2*
X1209807D1*
X1131834Y1782751D2*
X1167307D1*
X1201866D2*
X1210222D1*
X1130047Y1781751D2*
X1167307D1*
X1201479D2*
X1210611D1*
X1128635Y1780751D2*
X1167307D1*
X1201061D2*
X1210967D1*
X1127477Y1779751D2*
X1167307D1*
X1200676D2*
X1211299D1*
X1126523Y1778751D2*
X1167307D1*
X1200332D2*
X1211676D1*
X1125735Y1777751D2*
X1138662D1*
X1162307D2*
X1167307D1*
X1199978D2*
X1212106D1*
X1125015Y1776751D2*
X1136368D1*
X1199637D2*
X1212543D1*
X1124316Y1775751D2*
X1134494D1*
X1199316D2*
X1212934D1*
X1123686Y1774751D2*
X1133040D1*
X1198972D2*
X1213281D1*
X1123147Y1773751D2*
X1131968D1*
X1198635D2*
X1213636D1*
X1122710Y1772751D2*
X1131111D1*
X1198315D2*
X1213977D1*
X1122344Y1771751D2*
X1130354D1*
X1197972D2*
X1205153D1*
X1207462D2*
X1214302D1*
X1121983Y1770751D2*
X1129696D1*
X1197635D2*
X1204901D1*
X1207713D2*
X1214677D1*
X1121639Y1769751D2*
X1129117D1*
X1197315D2*
X1204607D1*
X1208008D2*
X1215107D1*
X1121316Y1768751D2*
X1128584D1*
X1196972D2*
X1204300D1*
X1208310D2*
X1215543D1*
X1120976Y1767751D2*
X1128105D1*
X1196635D2*
X1203933D1*
X1208646D2*
X1215934D1*
X1120670Y1766751D2*
X1127726D1*
X1196311D2*
X1203506D1*
X1208980D2*
X1216281D1*
X1120442Y1765751D2*
X1127465D1*
X1195936D2*
X1203071D1*
X1209300D2*
X1216636D1*
X1120215Y1764751D2*
X1127223D1*
X1195508D2*
X1202680D1*
X1209643D2*
X1216977D1*
X1119930Y1763751D2*
X1126933D1*
X1195071D2*
X1202333D1*
X1209979D2*
X1217299D1*
X1119656Y1762751D2*
X1126657D1*
X1194680D2*
X1201979D1*
X1210303D2*
X1217642D1*
X1119474Y1761751D2*
X1126471D1*
X1194333D2*
X1201638D1*
X1210678D2*
X1217979D1*
X1119379Y1760751D2*
X1126340D1*
X1193979D2*
X1201316D1*
X1211107D2*
X1218303D1*
X1119336Y1759751D2*
X1126169D1*
X1193638D2*
X1200972D1*
X1211543D2*
X1218678D1*
X1119314Y1758751D2*
X1125912D1*
X1193316D2*
X1200635D1*
X1211934D2*
X1219107D1*
X1119272Y1757751D2*
X1125648D1*
X1192972D2*
X1200315D1*
X1212281D2*
X1219543D1*
X1119142Y1756751D2*
X1125472D1*
X1192635D2*
X1199972D1*
X1212636D2*
X1219934D1*
X1118902Y1755751D2*
X1125378D1*
X1192315D2*
X1199635D1*
X1212977D2*
X1220281D1*
X1118645Y1754751D2*
X1125335D1*
X1191972D2*
X1199315D1*
X1213299D2*
X1220636D1*
X1118470Y1753751D2*
X1125318D1*
X1191635D2*
X1198972D1*
X1213642D2*
X1220977D1*
X1118378Y1752751D2*
X1125311D1*
X1191315D2*
X1198635D1*
X1213979D2*
X1221302D1*
X1118335Y1751751D2*
X1125308D1*
X1190972D2*
X1198315D1*
X1214303D2*
X1221677D1*
X1118318Y1750751D2*
X1125308D1*
X1190635D2*
X1197972D1*
X1214678D2*
X1222107D1*
X1118311Y1749751D2*
X1125307D1*
X1190315D2*
X1197635D1*
X1215107D2*
X1222543D1*
X1118308Y1748751D2*
X1125307D1*
X1189972D2*
X1197315D1*
X1215543D2*
X1222934D1*
X1118308Y1747751D2*
X1125307D1*
X1189635D2*
X1196972D1*
X1215934D2*
X1223281D1*
X1118307Y1746751D2*
X1125307D1*
X1189311D2*
X1196635D1*
X1216281D2*
X1223636D1*
X1118307Y1745751D2*
X1125307D1*
X1188936D2*
X1196311D1*
X1216636D2*
X1223977D1*
X1118307Y1744751D2*
X1125307D1*
X1188508D2*
X1195936D1*
X1216977D2*
X1224299D1*
X1118307Y1743751D2*
X1125307D1*
X1188071D2*
X1195508D1*
X1217299D2*
X1224642D1*
X1118311Y1742751D2*
X1125307D1*
X1187680D2*
X1195071D1*
X1217642D2*
X1224979D1*
X1118346Y1741751D2*
X1125307D1*
X1187333D2*
X1194680D1*
X1217979D2*
X1225303D1*
X1118474Y1740751D2*
X1125307D1*
X1186979D2*
X1194333D1*
X1218303D2*
X1225678D1*
X1118713Y1739751D2*
X1125307D1*
X1186638D2*
X1193979D1*
X1218678D2*
X1226107D1*
X1118969Y1738751D2*
X1125311D1*
X1186316D2*
X1193638D1*
X1219107D2*
X1226543D1*
X1119144Y1737751D2*
X1125346D1*
X1185972D2*
X1193316D1*
X1219543D2*
X1226934D1*
X1119237Y1736751D2*
X1125474D1*
X1185635D2*
X1192972D1*
X1219934D2*
X1227281D1*
X1119279Y1735751D2*
X1125713D1*
X1185315D2*
X1192635D1*
X1220281D2*
X1227636D1*
X1119300Y1734751D2*
X1125969D1*
X1184972D2*
X1192315D1*
X1220636D2*
X1227977D1*
X1119342Y1733751D2*
X1126144D1*
X1184635D2*
X1191972D1*
X1220977D2*
X1228302D1*
X1119472Y1732751D2*
X1126241D1*
X1184315D2*
X1191635D1*
X1221299D2*
X1228677D1*
X1119713Y1731751D2*
X1126318D1*
X1183972D2*
X1191315D1*
X1221642D2*
X1229107D1*
X1119969Y1730751D2*
X1126463D1*
X1183635D2*
X1190972D1*
X1221979D2*
X1229543D1*
X1120148Y1729751D2*
X1126713D1*
X1183311D2*
X1190635D1*
X1222303D2*
X1229934D1*
X1120276Y1728751D2*
X1127007D1*
X1182936D2*
X1190315D1*
X1222678D2*
X1230281D1*
X1120446Y1727751D2*
X1127314D1*
X1182508D2*
X1189972D1*
X1223107D2*
X1230636D1*
X1120706Y1726751D2*
X1127682D1*
X1182071D2*
X1189635D1*
X1223543D2*
X1230977D1*
X1121005Y1725751D2*
X1128112D1*
X1181680D2*
X1189311D1*
X1223934D2*
X1231299D1*
X1121313Y1724751D2*
X1128582D1*
X1181333D2*
X1188936D1*
X1224281D2*
X1231642D1*
X1121681Y1723751D2*
X1129105D1*
X1180979D2*
X1188508D1*
X1224636D2*
X1231979D1*
X1122112Y1722751D2*
X1129734D1*
X1180638D2*
X1188071D1*
X1224977D2*
X1232303D1*
X1122578Y1721751D2*
X1130550D1*
X1180316D2*
X1187680D1*
X1225302D2*
X1232678D1*
X1123066Y1720751D2*
X1131642D1*
X1179972D2*
X1187333D1*
X1225677D2*
X1233107D1*
X1123564Y1719751D2*
X1133164D1*
X1179635D2*
X1186979D1*
X1226107D2*
X1233543D1*
X1124098Y1718751D2*
X1135208D1*
X1179315D2*
X1186638D1*
X1226543D2*
X1233934D1*
X1124727Y1717751D2*
X1137668D1*
X1157307D2*
X1167307D1*
X1178972D2*
X1186316D1*
X1226934D2*
X1234281D1*
X1125507Y1716751D2*
X1167307D1*
X1178635D2*
X1185972D1*
X1227281D2*
X1234636D1*
X1126433Y1715751D2*
X1167295D1*
X1178315D2*
X1185635D1*
X1227636D2*
X1234977D1*
X1127553Y1714751D2*
X1167260D1*
X1177975D2*
X1185311D1*
X1227977D2*
X1235299D1*
X1128976Y1713751D2*
X1166834D1*
X1177674D2*
X1184933D1*
X1228299D2*
X1235639D1*
X1130785Y1712751D2*
X1164767D1*
X1177480D2*
X1184475D1*
X1228648D2*
X1235943D1*
X1132953Y1711751D2*
X1161420D1*
X1177375D2*
X1183924D1*
X1228992D2*
X1236151D1*
X1135307Y1710751D2*
X1157307D1*
X1177307D2*
X1183307D1*
X1229307D2*
X1236307D1*
X1040869Y597975D2*
Y596975D1*
Y595975D1*
Y594975D1*
Y593975D1*
Y592975D1*
Y591975D1*
Y590975D1*
Y589975D1*
Y588975D1*
Y587975D1*
Y586975D1*
Y585975D1*
Y584975D1*
Y583975D1*
Y582975D1*
Y581975D1*
Y580975D1*
Y579975D1*
Y578975D1*
Y577975D1*
Y576975D1*
Y575975D1*
Y574975D1*
Y573975D1*
Y572975D1*
Y571975D1*
Y570975D1*
Y569975D1*
Y568975D1*
Y567975D1*
Y566975D1*
Y565975D1*
Y564975D1*
Y563975D1*
Y562975D1*
Y561975D1*
Y560975D1*
Y559975D1*
Y558975D1*
Y557975D1*
Y556975D1*
Y555975D1*
Y554975D1*
Y553975D1*
Y552975D1*
Y551975D1*
Y550975D1*
Y549975D1*
Y548975D1*
Y547975D1*
Y546975D1*
Y545975D1*
Y544975D1*
Y543975D1*
Y542975D1*
Y541975D1*
Y540975D1*
Y539975D1*
Y538975D1*
Y537975D1*
Y536975D1*
Y535975D1*
Y534975D1*
Y533975D1*
Y532975D1*
Y531975D1*
Y530975D1*
Y529975D1*
Y528975D1*
Y527975D1*
Y526975D1*
Y525975D1*
Y524975D1*
Y523975D1*
Y522975D1*
Y521975D1*
Y520975D1*
Y519975D1*
Y518975D1*
Y517975D1*
Y516975D1*
Y515975D1*
Y514975D1*
Y513975D1*
Y512975D1*
Y511975D1*
Y510975D1*
Y509975D1*
Y508975D1*
Y507975D1*
Y506975D1*
Y505975D1*
Y504975D1*
Y503975D1*
Y502975D1*
Y501975D1*
X1053869Y597975D2*
Y596975D1*
Y595975D1*
Y594975D1*
Y593975D1*
Y592975D1*
Y591975D1*
Y590975D1*
Y589975D1*
Y588975D1*
Y587975D1*
Y586975D1*
Y585975D1*
Y584975D1*
Y583975D1*
Y582975D1*
Y581975D1*
Y580975D1*
Y579975D1*
Y578975D1*
Y577975D1*
Y576975D1*
Y575975D1*
Y574975D1*
Y573975D1*
Y572975D1*
Y571975D1*
Y570975D1*
Y569975D1*
Y568975D1*
X1053865Y567975D1*
X1053827Y566975D1*
X1053672Y565975D1*
X1053330Y564975D1*
X1052869Y563975D1*
X1053869Y562975D1*
X1221869Y585975D2*
Y584975D1*
Y583975D1*
Y582975D1*
Y581975D1*
Y580975D1*
Y579975D1*
Y578975D1*
Y577975D1*
Y576975D1*
Y575975D1*
Y574975D1*
Y573975D1*
Y572975D1*
X1294869Y585975D2*
Y584975D1*
Y583975D1*
Y582975D1*
Y581975D1*
Y580975D1*
Y579975D1*
Y578975D1*
Y577975D1*
Y576975D1*
Y575975D1*
Y574975D1*
Y573975D1*
Y572975D1*
X1062869Y565975D2*
X1059036Y564975D1*
X1055025Y563975D1*
X1050869Y562975D1*
X1071869Y565975D2*
X1075250Y564975D1*
X1078072Y563975D1*
X1080342Y562975D1*
X1082129Y561975D1*
X1083545Y560975D1*
X1084738Y559975D1*
X1085819Y558975D1*
X1086847Y557975D1*
X1087823Y556975D1*
X1088696Y555975D1*
X1089423Y554975D1*
X1090036Y553975D1*
X1090583Y552975D1*
X1091071Y551975D1*
X1091484Y550975D1*
X1091838Y549975D1*
X1092192Y548975D1*
X1092499Y547975D1*
X1092694Y546975D1*
X1092794Y545975D1*
X1092843Y544975D1*
X1092897Y543975D1*
X1093031Y542975D1*
X1093273Y541975D1*
X1093531Y540975D1*
X1093705Y539975D1*
X1093798Y538975D1*
X1093841Y537975D1*
X1093858Y536975D1*
X1093865Y535975D1*
X1093867Y534975D1*
X1093868Y533975D1*
X1093869Y532975D1*
Y531975D1*
Y530975D1*
Y529975D1*
Y528975D1*
Y527975D1*
Y526975D1*
Y525975D1*
Y524975D1*
Y523975D1*
Y522975D1*
Y521975D1*
Y520975D1*
Y519975D1*
Y518975D1*
Y517975D1*
Y516975D1*
Y515975D1*
Y514975D1*
Y513975D1*
Y512975D1*
Y511975D1*
Y510975D1*
Y509975D1*
Y508975D1*
Y507975D1*
Y506975D1*
Y505975D1*
Y504975D1*
Y503975D1*
Y502975D1*
Y501975D1*
X1155869Y565975D2*
X1151301Y564975D1*
X1147428Y563975D1*
X1144232Y562975D1*
X1141557Y561975D1*
X1139321Y560975D1*
X1137427Y559975D1*
X1135745Y558975D1*
X1134170Y557975D1*
X1132676Y556975D1*
X1131291Y555975D1*
X1130027Y554975D1*
X1128785Y553975D1*
X1127499Y552975D1*
X1126257Y551975D1*
X1125203Y550975D1*
X1124347Y549975D1*
X1123560Y548975D1*
X1122720Y547975D1*
X1121841Y546975D1*
X1121009Y545975D1*
X1120269Y544975D1*
X1119567Y543975D1*
X1118871Y542975D1*
X1118208Y541975D1*
X1117542Y540975D1*
X1116865Y539975D1*
X1116244Y538975D1*
X1115707Y537975D1*
X1115271Y536975D1*
X1114902Y535975D1*
X1114509Y534975D1*
X1114073Y533975D1*
X1113634Y532975D1*
X1113242Y531975D1*
X1112895Y530975D1*
X1112544Y529975D1*
X1112238Y528975D1*
X1112040Y527975D1*
X1111904Y526975D1*
X1111732Y525975D1*
X1111474Y524975D1*
X1111210Y523975D1*
X1111033Y522975D1*
X1110940Y521975D1*
X1110897Y520975D1*
X1110879Y519975D1*
X1110873Y518975D1*
X1110870Y517975D1*
X1110869Y516975D1*
Y515975D1*
Y514975D1*
Y513975D1*
Y512975D1*
Y511975D1*
Y510975D1*
Y509975D1*
Y508975D1*
X1110873Y507975D1*
X1110908Y506975D1*
X1111035Y505975D1*
X1111275Y504975D1*
X1111535Y503975D1*
X1111745Y502975D1*
X1111965Y501975D1*
X1112251Y500975D1*
X1112560Y499975D1*
X1112868Y498975D1*
X1113207Y497975D1*
X1113542Y496975D1*
X1113865Y495975D1*
X1114240Y494975D1*
X1114672Y493975D1*
X1115140Y492975D1*
X1115627Y491975D1*
X1116125Y490975D1*
X1116655Y489975D1*
X1117250Y488975D1*
X1117898Y487975D1*
X1118545Y486975D1*
X1119239Y485975D1*
X1120040Y484975D1*
X1120904Y483975D1*
X1121732Y482975D1*
X1122474Y481975D1*
X1123210Y480975D1*
X1124033Y479975D1*
X1124944Y478975D1*
X1125936Y477975D1*
X1127046Y476975D1*
X1128282Y475975D1*
X1129572Y474975D1*
X1130876Y473975D1*
X1132244Y472975D1*
X1133674Y471975D1*
X1135148Y470975D1*
X1136705Y469975D1*
X1138462Y468975D1*
X1140522Y467975D1*
X1142907Y466975D1*
X1145743Y465975D1*
X1149144Y464975D1*
X1152869Y463975D1*
X1167869Y565975D2*
X1172250Y564975D1*
X1176072Y563975D1*
X1179338Y562975D1*
X1182090Y561975D1*
X1184375Y560975D1*
X1186293Y559975D1*
X1187986Y558975D1*
X1189565Y557975D1*
X1191061Y556975D1*
X1192442Y555975D1*
X1193671Y554975D1*
X1194786Y553975D1*
X1195836Y552975D1*
X1196857Y551975D1*
X1197865Y550975D1*
X1198867Y549975D1*
X1199868Y548975D1*
X1200869Y547975D1*
X1201865Y546975D1*
X1202830Y545975D1*
X1203702Y544975D1*
X1204459Y543975D1*
X1205167Y542975D1*
X1205862Y541975D1*
X1206494Y540975D1*
X1207064Y539975D1*
X1207597Y538975D1*
X1208110Y537975D1*
X1208616Y536975D1*
X1209117Y535975D1*
X1209615Y534975D1*
X1210083Y533975D1*
X1210488Y532975D1*
X1210840Y531975D1*
X1211192Y530975D1*
X1211503Y529975D1*
X1211733Y528975D1*
X1211961Y527975D1*
X1212245Y526975D1*
X1212520Y525975D1*
X1212702Y524975D1*
X1212801Y523975D1*
X1212879Y522975D1*
X1213025Y521975D1*
X1213271Y520975D1*
X1213530Y519975D1*
X1213705Y518975D1*
X1213798Y517975D1*
X1213841Y516975D1*
X1213858Y515975D1*
X1213865Y514975D1*
X1213867Y513975D1*
X1213864Y512975D1*
X1213830Y511975D1*
X1213702Y510975D1*
X1213463Y509975D1*
X1213206Y508975D1*
X1213032Y507975D1*
X1212935Y506975D1*
X1212858Y505975D1*
X1212713Y504975D1*
X1212467Y503975D1*
X1212204Y502975D1*
X1211993Y501975D1*
X1211773Y500975D1*
X1211487Y499975D1*
X1211178Y498975D1*
X1210865Y497975D1*
X1210495Y496975D1*
X1210064Y495975D1*
X1209598Y494975D1*
X1209110Y493975D1*
X1208616Y492975D1*
X1208117Y491975D1*
X1207619Y490975D1*
X1207118Y489975D1*
X1206615Y488975D1*
X1206079Y487975D1*
X1205453Y486975D1*
X1204712Y485975D1*
X1203953Y484975D1*
X1203242Y483975D1*
X1202519Y482975D1*
X1201701Y481975D1*
X1200797Y480975D1*
X1199840Y479975D1*
X1198858Y478975D1*
X1197861Y477975D1*
X1196828Y476975D1*
X1195702Y475975D1*
X1194459Y474975D1*
X1193167Y473975D1*
X1191862Y472975D1*
X1190490Y471975D1*
X1189025Y470975D1*
X1187423Y469975D1*
X1185622Y468975D1*
X1183570Y467975D1*
X1181178Y466975D1*
X1178383Y465975D1*
X1175220Y464975D1*
X1171869Y463975D1*
X1330869Y565975D2*
X1327453Y564975D1*
X1324368Y563975D1*
X1321760Y562975D1*
X1319637Y561975D1*
X1317871Y560975D1*
X1316371Y559975D1*
X1315094Y558975D1*
X1313962Y557975D1*
X1312905Y556975D1*
X1311882Y555975D1*
X1310877Y554975D1*
X1309909Y553975D1*
X1309036Y552975D1*
X1308279Y551975D1*
X1307574Y550975D1*
X1306911Y549975D1*
X1306375Y548975D1*
X1305948Y547975D1*
X1305528Y546975D1*
X1305080Y545975D1*
X1304641Y544975D1*
X1304278Y543975D1*
X1304023Y542975D1*
X1303784Y541975D1*
X1303495Y540975D1*
X1303218Y539975D1*
X1303036Y538975D1*
X1302941Y537975D1*
X1302897Y536975D1*
X1302879Y535975D1*
X1302873Y534975D1*
X1302870Y533975D1*
X1302869Y532975D1*
Y531975D1*
Y530975D1*
X1302873Y529975D1*
X1302908Y528975D1*
X1303035Y527975D1*
X1303275Y526975D1*
X1303535Y525975D1*
X1303745Y524975D1*
X1303965Y523975D1*
X1304251Y522975D1*
X1304560Y521975D1*
X1304872Y520975D1*
X1305242Y519975D1*
X1305673Y518975D1*
X1306144Y517975D1*
X1306666Y516975D1*
X1307288Y515975D1*
X1308026Y514975D1*
X1308785Y513975D1*
X1309495Y512975D1*
X1310218Y511975D1*
X1311040Y510975D1*
X1311980Y509975D1*
X1313064Y508975D1*
X1314289Y507975D1*
X1315578Y506975D1*
X1316920Y505975D1*
X1318457Y504975D1*
X1320344Y503975D1*
X1322756Y502975D1*
X1325972Y501975D1*
X1330142Y500975D1*
X1334869Y499975D1*
X1340869Y565975D2*
X1344592Y564975D1*
X1347708Y563975D1*
X1350128Y562975D1*
X1351847Y561975D1*
X1353094Y560975D1*
X1353498Y559975D1*
X1353713Y558975D1*
X1353808Y557975D1*
X1353847Y556975D1*
X1353861Y555975D1*
X1353866Y554975D1*
X1353868Y553975D1*
Y552975D1*
X1353869Y551975D1*
Y550975D1*
Y549975D1*
Y548975D1*
Y547975D1*
Y546975D1*
Y545975D1*
Y544975D1*
Y543975D1*
X1065869Y553975D2*
X1063262Y552975D1*
X1061092Y551975D1*
X1059426Y550975D1*
X1058140Y549975D1*
X1057163Y548975D1*
X1056477Y547975D1*
X1055991Y546975D1*
X1055581Y545975D1*
X1055248Y544975D1*
X1055009Y543975D1*
X1054779Y542975D1*
X1054493Y541975D1*
X1054218Y540975D1*
X1054036Y539975D1*
X1053941Y538975D1*
X1053897Y537975D1*
X1053879Y536975D1*
X1053873Y535975D1*
X1053870Y534975D1*
X1053869Y533975D1*
Y532975D1*
Y531975D1*
Y530975D1*
Y529975D1*
Y528975D1*
Y527975D1*
Y526975D1*
Y525975D1*
Y524975D1*
Y523975D1*
Y522975D1*
Y521975D1*
Y520975D1*
Y519975D1*
Y518975D1*
Y517975D1*
Y516975D1*
Y515975D1*
Y514975D1*
Y513975D1*
Y512975D1*
Y511975D1*
Y510975D1*
Y509975D1*
Y508975D1*
Y507975D1*
Y506975D1*
Y505975D1*
Y504975D1*
Y503975D1*
Y502975D1*
Y501975D1*
X1067869Y553975D2*
X1070476Y552975D1*
X1072645Y551975D1*
X1074311Y550975D1*
X1075601Y549975D1*
X1076610Y548975D1*
X1077387Y547975D1*
X1077986Y546975D1*
X1078417Y545975D1*
X1078699Y544975D1*
X1078948Y543975D1*
X1079241Y542975D1*
X1079519Y541975D1*
X1079701Y540975D1*
X1079797Y539975D1*
X1079840Y538975D1*
X1079858Y537975D1*
X1079865Y536975D1*
X1079867Y535975D1*
X1079868Y534975D1*
X1079869Y533975D1*
Y532975D1*
Y531975D1*
Y530975D1*
Y529975D1*
Y528975D1*
Y527975D1*
Y526975D1*
Y525975D1*
Y524975D1*
Y523975D1*
Y522975D1*
Y521975D1*
Y520975D1*
Y519975D1*
Y518975D1*
Y517975D1*
Y516975D1*
Y515975D1*
Y514975D1*
Y513975D1*
Y512975D1*
Y511975D1*
Y510975D1*
Y509975D1*
Y508975D1*
Y507975D1*
Y506975D1*
Y505975D1*
Y504975D1*
Y503975D1*
Y502975D1*
Y501975D1*
X1335869Y553975D2*
X1332300Y552975D1*
X1329262Y551975D1*
X1326871Y550975D1*
X1324973Y549975D1*
X1323448Y548975D1*
X1322275Y547975D1*
X1321377Y546975D1*
X1320608Y545975D1*
X1319890Y544975D1*
X1319252Y543975D1*
X1318710Y542975D1*
X1318272Y541975D1*
X1317906Y540975D1*
X1317548Y539975D1*
X1317240Y538975D1*
X1317044Y537975D1*
X1316944Y536975D1*
X1316898Y535975D1*
X1316880Y534975D1*
X1316873Y533975D1*
X1316870Y532975D1*
X1316869Y531975D1*
X1316873Y530975D1*
X1316908Y529975D1*
X1317035Y528975D1*
X1317279Y527975D1*
X1317570Y526975D1*
X1317876Y525975D1*
X1318243Y524975D1*
X1318674Y523975D1*
X1319144Y522975D1*
X1319666Y521975D1*
X1320292Y520975D1*
X1321069Y519975D1*
X1321991Y518975D1*
X1323075Y517975D1*
X1324373Y516975D1*
X1325954Y515975D1*
X1327931Y514975D1*
X1330307Y513975D1*
X1332869Y512975D1*
X1335869Y553975D2*
X1339434Y552975D1*
X1342440Y551975D1*
X1344739Y550975D1*
X1346529Y549975D1*
X1348072Y548975D1*
X1349451Y547975D1*
X1350636Y546975D1*
X1351592Y545975D1*
X1352301Y544975D1*
X1352869Y543975D1*
X1161869Y552975D2*
X1157266Y551975D1*
X1153139Y550975D1*
X1149671Y549975D1*
X1146883Y548975D1*
X1144684Y547975D1*
X1142884Y546975D1*
X1141338Y545975D1*
X1139930Y544975D1*
X1138556Y543975D1*
X1137246Y542975D1*
X1136084Y541975D1*
X1135110Y540975D1*
X1134304Y539975D1*
X1133546Y538975D1*
X1132749Y537975D1*
X1131966Y536975D1*
X1131251Y535975D1*
X1130560Y534975D1*
X1129872Y533975D1*
X1129242Y532975D1*
X1128673Y531975D1*
X1128144Y530975D1*
X1127662Y529975D1*
X1127253Y528975D1*
X1126899Y527975D1*
X1126546Y526975D1*
X1126235Y525975D1*
X1126005Y524975D1*
X1125777Y523975D1*
X1125492Y522975D1*
X1125217Y521975D1*
X1125036Y520975D1*
X1124941Y519975D1*
X1124897Y518975D1*
X1124879Y517975D1*
X1124873Y516975D1*
X1124870Y515975D1*
X1124869Y514975D1*
Y513975D1*
Y512975D1*
Y511975D1*
Y510975D1*
X1124873Y509975D1*
X1124908Y508975D1*
X1125035Y507975D1*
X1125275Y506975D1*
X1125535Y505975D1*
X1125745Y504975D1*
X1125969Y503975D1*
X1126286Y502975D1*
X1126687Y501975D1*
X1127112Y500975D1*
X1127498Y499975D1*
X1127848Y498975D1*
X1128237Y497975D1*
X1128705Y496975D1*
X1129270Y495975D1*
X1129905Y494975D1*
X1130548Y493975D1*
X1131240Y492975D1*
X1132044Y491975D1*
X1132944Y490975D1*
X1133898Y489975D1*
X1134880Y488975D1*
X1135873Y487975D1*
X1136874Y486975D1*
X1137908Y485975D1*
X1139039Y484975D1*
X1140318Y483975D1*
X1141745Y482975D1*
X1143368Y481975D1*
X1145329Y480975D1*
X1147780Y479975D1*
X1150791Y478975D1*
X1154238Y477975D1*
X1157869Y476975D1*
X1159869Y552975D2*
X1165275Y551975D1*
X1169991Y550975D1*
X1173825Y549975D1*
X1176867Y548975D1*
X1179253Y547975D1*
X1181129Y546975D1*
X1182696Y545975D1*
X1184138Y544975D1*
X1185479Y543975D1*
X1186687Y542975D1*
X1187792Y541975D1*
X1188835Y540975D1*
X1189818Y539975D1*
X1190698Y538975D1*
X1191457Y537975D1*
X1192167Y536975D1*
X1192861Y535975D1*
X1193494Y534975D1*
X1194064Y533975D1*
X1194597Y532975D1*
X1195110Y531975D1*
X1195616Y530975D1*
X1196117Y529975D1*
X1196615Y528975D1*
X1197079Y527975D1*
X1197453Y526975D1*
X1197712Y525975D1*
X1197953Y524975D1*
X1198242Y523975D1*
X1198519Y522975D1*
X1198701Y521975D1*
X1198797Y520975D1*
X1198840Y519975D1*
X1198858Y518975D1*
X1198865Y517975D1*
X1198867Y516975D1*
X1198868Y515975D1*
X1198869Y514975D1*
Y513975D1*
Y512975D1*
Y511975D1*
Y510975D1*
Y509975D1*
X1198865Y508975D1*
X1198830Y507975D1*
X1198702Y506975D1*
X1198459Y505975D1*
X1198167Y504975D1*
X1197865Y503975D1*
X1197529Y502975D1*
X1197195Y501975D1*
X1196872Y500975D1*
X1196498Y499975D1*
X1196065Y498975D1*
X1195598Y497975D1*
X1195110Y496975D1*
X1194612Y495975D1*
X1194078Y494975D1*
X1193452Y493975D1*
X1192712Y492975D1*
X1191953Y491975D1*
X1191242Y490975D1*
X1190519Y489975D1*
X1189697Y488975D1*
X1188758Y487975D1*
X1187674Y486975D1*
X1186448Y485975D1*
X1185160Y484975D1*
X1183821Y483975D1*
X1182319Y482975D1*
X1180572Y481975D1*
X1178512Y480975D1*
X1176004Y479975D1*
X1172965Y478975D1*
X1169507Y477975D1*
X1165869Y476975D1*
X1352869Y521975D2*
X1351869Y520975D1*
X1350869Y519975D1*
X1349865Y518975D1*
X1348826Y517975D1*
X1347659Y516975D1*
X1346253Y515975D1*
X1344592Y514975D1*
X1342763Y513975D1*
X1340869Y512975D1*
X1353869Y521975D2*
Y520975D1*
Y519975D1*
Y518975D1*
Y517975D1*
Y516975D1*
Y515975D1*
Y514975D1*
Y513975D1*
Y512975D1*
Y511975D1*
Y510975D1*
Y509975D1*
Y508975D1*
X1353865Y507975D1*
X1353822Y506975D1*
X1353716Y505975D1*
X1353195Y504975D1*
X1351799Y503975D1*
X1349705Y502975D1*
X1346650Y501975D1*
X1342553Y500975D1*
X1337869Y499975D1*
X1114556Y1251249D2*
X1112137Y1250249D1*
X1110017Y1249249D1*
X1108282Y1248249D1*
X1106915Y1247249D1*
X1105857Y1246249D1*
X1105051Y1245249D1*
X1104407Y1244249D1*
X1103845Y1243249D1*
X1103321Y1242249D1*
X1102815Y1241249D1*
X1102348Y1240249D1*
X1101973Y1239249D1*
X1101713Y1238249D1*
X1101472Y1237249D1*
X1101183Y1236249D1*
X1100906Y1235249D1*
X1100724Y1234249D1*
X1100628Y1233249D1*
X1100585Y1232249D1*
X1100567Y1231249D1*
X1100556Y1230249D1*
X1100519Y1229249D1*
X1100390Y1228249D1*
X1100151Y1227249D1*
X1099894Y1226249D1*
X1099720Y1225249D1*
X1099627Y1224249D1*
X1099584Y1223249D1*
X1099567Y1222249D1*
X1099560Y1221249D1*
X1099558Y1220249D1*
X1099557Y1219249D1*
Y1218249D1*
X1099556Y1217249D1*
X1099560Y1216249D1*
X1099595Y1215249D1*
X1099723Y1214249D1*
X1099962Y1213249D1*
X1100219Y1212249D1*
X1100393Y1211249D1*
X1100486Y1210249D1*
X1100528Y1209249D1*
X1100550Y1208249D1*
X1100592Y1207249D1*
X1100722Y1206249D1*
X1100962Y1205249D1*
X1101223Y1204249D1*
X1101432Y1203249D1*
X1101652Y1202249D1*
X1101938Y1201249D1*
X1102247Y1200249D1*
X1102560Y1199249D1*
X1102934Y1198249D1*
X1103396Y1197249D1*
X1103959Y1196249D1*
X1104594Y1195249D1*
X1105236Y1194249D1*
X1105931Y1193249D1*
X1106779Y1192249D1*
X1107888Y1191249D1*
X1109453Y1190249D1*
X1111652Y1189249D1*
X1114456Y1188249D1*
X1117556Y1187249D1*
X1134556Y1251249D2*
X1136702Y1250249D1*
X1138584Y1249249D1*
X1140109Y1248249D1*
X1141365Y1247249D1*
X1142444Y1246249D1*
X1143359Y1245249D1*
X1144102Y1244249D1*
X1144720Y1243249D1*
X1145270Y1242249D1*
X1145759Y1241249D1*
X1146171Y1240249D1*
X1146526Y1239249D1*
X1146880Y1238249D1*
X1147186Y1237249D1*
X1147385Y1236249D1*
X1147521Y1235249D1*
X1147693Y1234249D1*
X1147951Y1233249D1*
X1148215Y1232249D1*
X1148392Y1231249D1*
X1148486Y1230249D1*
X1148528Y1229249D1*
X1148546Y1228249D1*
X1148553Y1227249D1*
X1148555Y1226249D1*
X1148556Y1225249D1*
Y1224249D1*
Y1223249D1*
Y1222249D1*
Y1221249D1*
Y1220249D1*
Y1219249D1*
Y1218249D1*
Y1217249D1*
Y1216249D1*
Y1215249D1*
Y1214249D1*
Y1213249D1*
Y1212249D1*
X1148553Y1211249D1*
X1148517Y1210249D1*
X1148390Y1209249D1*
X1148150Y1208249D1*
X1147894Y1207249D1*
X1147720Y1206249D1*
X1147623Y1205249D1*
X1147545Y1204249D1*
X1147400Y1203249D1*
X1147150Y1202249D1*
X1146856Y1201249D1*
X1146550Y1200249D1*
X1146182Y1199249D1*
X1145752Y1198249D1*
X1145281Y1197249D1*
X1144763Y1196249D1*
X1144173Y1195249D1*
X1143523Y1194249D1*
X1142841Y1193249D1*
X1142012Y1192249D1*
X1140885Y1191249D1*
X1139359Y1190249D1*
X1137269Y1189249D1*
X1134570Y1188249D1*
X1131556Y1187249D1*
X1172556Y1251249D2*
X1170295Y1250249D1*
X1168458Y1249249D1*
X1167106Y1248249D1*
X1166122Y1247249D1*
X1165317Y1246249D1*
X1164585Y1245249D1*
X1163942Y1244249D1*
X1163399Y1243249D1*
X1162960Y1242249D1*
X1162594Y1241249D1*
X1162236Y1240249D1*
X1161923Y1239249D1*
X1161693Y1238249D1*
X1161465Y1237249D1*
X1161180Y1236249D1*
X1160905Y1235249D1*
X1160724Y1234249D1*
X1160628Y1233249D1*
X1160585Y1232249D1*
X1160567Y1231249D1*
X1160560Y1230249D1*
X1160558Y1229249D1*
X1160557Y1228249D1*
Y1227249D1*
X1160556Y1226249D1*
Y1225249D1*
Y1224249D1*
Y1223249D1*
Y1222249D1*
Y1221249D1*
Y1220249D1*
Y1219249D1*
Y1218249D1*
Y1217249D1*
Y1216249D1*
Y1215249D1*
Y1214249D1*
Y1213249D1*
Y1212249D1*
Y1211249D1*
Y1210249D1*
Y1209249D1*
Y1208249D1*
Y1207249D1*
Y1206249D1*
Y1205249D1*
Y1204249D1*
Y1203249D1*
Y1202249D1*
Y1201249D1*
Y1200249D1*
Y1199249D1*
Y1198249D1*
Y1197249D1*
Y1196249D1*
Y1195249D1*
Y1194249D1*
Y1193249D1*
Y1192249D1*
Y1191249D1*
Y1190249D1*
Y1189249D1*
Y1188249D1*
X1193556Y1251249D2*
X1195634Y1250249D1*
X1197453Y1249249D1*
X1198967Y1248249D1*
X1200140Y1247249D1*
X1201010Y1246249D1*
X1201685Y1245249D1*
X1202260Y1244249D1*
X1202789Y1243249D1*
X1203297Y1242249D1*
X1203769Y1241249D1*
X1204175Y1240249D1*
X1204527Y1239249D1*
X1204880Y1238249D1*
X1205187Y1237249D1*
X1205385Y1236249D1*
X1205521Y1235249D1*
X1205693Y1234249D1*
X1205951Y1233249D1*
X1206215Y1232249D1*
X1206392Y1231249D1*
X1206486Y1230249D1*
X1206528Y1229249D1*
X1206546Y1228249D1*
X1206553Y1227249D1*
X1206555Y1226249D1*
X1206556Y1225249D1*
Y1224249D1*
Y1223249D1*
Y1222249D1*
Y1221249D1*
Y1220249D1*
Y1219249D1*
Y1218249D1*
Y1217249D1*
Y1216249D1*
Y1215249D1*
Y1214249D1*
Y1213249D1*
Y1212249D1*
Y1211249D1*
Y1210249D1*
Y1209249D1*
Y1208249D1*
Y1207249D1*
Y1206249D1*
Y1205249D1*
Y1204249D1*
Y1203249D1*
Y1202249D1*
Y1201249D1*
Y1200249D1*
Y1199249D1*
Y1198249D1*
Y1197249D1*
Y1196249D1*
Y1195249D1*
Y1194249D1*
Y1193249D1*
Y1192249D1*
Y1191249D1*
Y1190249D1*
Y1189249D1*
Y1188249D1*
X1235556Y1251249D2*
Y1250249D1*
Y1249249D1*
Y1248249D1*
Y1247249D1*
Y1246249D1*
Y1245249D1*
Y1244249D1*
Y1243249D1*
Y1242249D1*
Y1241249D1*
Y1240249D1*
Y1239249D1*
Y1238249D1*
Y1237249D1*
Y1236249D1*
Y1235249D1*
Y1234249D1*
Y1233249D1*
Y1232249D1*
Y1231249D1*
Y1230249D1*
Y1229249D1*
Y1228249D1*
Y1227249D1*
Y1226249D1*
Y1225249D1*
Y1224249D1*
Y1223249D1*
Y1222249D1*
Y1221249D1*
Y1220249D1*
Y1219249D1*
Y1218249D1*
Y1217249D1*
Y1216249D1*
Y1215249D1*
Y1214249D1*
Y1213249D1*
Y1212249D1*
Y1211249D1*
Y1210249D1*
Y1209249D1*
Y1208249D1*
Y1207249D1*
Y1206249D1*
Y1205249D1*
Y1204249D1*
Y1203249D1*
Y1202249D1*
Y1201249D1*
Y1200249D1*
Y1199249D1*
Y1198249D1*
Y1197249D1*
Y1196249D1*
Y1195249D1*
Y1194249D1*
Y1193249D1*
X1241556Y1251249D2*
Y1250249D1*
Y1249249D1*
Y1248249D1*
Y1247249D1*
Y1246249D1*
Y1245249D1*
Y1244249D1*
Y1243249D1*
Y1242249D1*
Y1241249D1*
Y1240249D1*
Y1239249D1*
Y1238249D1*
Y1237249D1*
Y1236249D1*
Y1235249D1*
Y1234249D1*
Y1233249D1*
Y1232249D1*
Y1231249D1*
Y1230249D1*
Y1229249D1*
Y1228249D1*
Y1227249D1*
Y1226249D1*
Y1225249D1*
Y1224249D1*
Y1223249D1*
Y1222249D1*
Y1221249D1*
Y1220249D1*
Y1219249D1*
Y1218249D1*
Y1217249D1*
Y1216249D1*
Y1215249D1*
Y1214249D1*
Y1213249D1*
Y1212249D1*
Y1211249D1*
Y1210249D1*
Y1209249D1*
Y1208249D1*
Y1207249D1*
Y1206249D1*
Y1205249D1*
Y1204249D1*
Y1203249D1*
Y1202249D1*
Y1201249D1*
Y1200249D1*
Y1199249D1*
Y1198249D1*
Y1197249D1*
Y1196249D1*
Y1195249D1*
Y1194249D1*
Y1193249D1*
X1121556Y1246249D2*
X1117991Y1245249D1*
X1114989Y1244249D1*
X1112729Y1243249D1*
X1111102Y1242249D1*
X1109930Y1241249D1*
X1109078Y1240249D1*
X1108417Y1239249D1*
X1107852Y1238249D1*
X1107361Y1237249D1*
X1106982Y1236249D1*
X1106754Y1235249D1*
X1106636Y1234249D1*
X1106550Y1233249D1*
X1106402Y1232249D1*
X1106155Y1231249D1*
X1105895Y1230249D1*
X1105720Y1229249D1*
X1105627Y1228249D1*
X1105585Y1227249D1*
X1105567Y1226249D1*
X1105560Y1225249D1*
X1105558Y1224249D1*
X1105557Y1223249D1*
Y1222249D1*
X1105556Y1221249D1*
Y1220249D1*
Y1219249D1*
Y1218249D1*
Y1217249D1*
Y1216249D1*
Y1215249D1*
Y1214249D1*
X1105560Y1213249D1*
X1105595Y1212249D1*
X1105723Y1211249D1*
X1105962Y1210249D1*
X1106219Y1209249D1*
X1106393Y1208249D1*
X1106486Y1207249D1*
X1106532Y1206249D1*
X1106585Y1205249D1*
X1106723Y1204249D1*
X1107000Y1203249D1*
X1107389Y1202249D1*
X1107838Y1201249D1*
X1108319Y1200249D1*
X1108818Y1199249D1*
X1109390Y1198249D1*
X1110186Y1197249D1*
X1111367Y1196249D1*
X1112915Y1195249D1*
X1114692Y1194249D1*
X1116556Y1193249D1*
X1126556Y1246249D2*
X1130121Y1245249D1*
X1133124Y1244249D1*
X1135387Y1243249D1*
X1137046Y1242249D1*
X1138314Y1241249D1*
X1139309Y1240249D1*
X1140080Y1239249D1*
X1140675Y1238249D1*
X1141105Y1237249D1*
X1141387Y1236249D1*
X1141636Y1235249D1*
X1141929Y1234249D1*
X1142206Y1233249D1*
X1142389Y1232249D1*
X1142484Y1231249D1*
X1142528Y1230249D1*
X1142546Y1229249D1*
X1142557Y1228249D1*
X1142594Y1227249D1*
X1142722Y1226249D1*
X1142962Y1225249D1*
X1143219Y1224249D1*
X1143393Y1223249D1*
X1143486Y1222249D1*
X1143528Y1221249D1*
X1143546Y1220249D1*
X1143553Y1219249D1*
X1143551Y1218249D1*
X1143517Y1217249D1*
X1143390Y1216249D1*
X1143150Y1215249D1*
X1142894Y1214249D1*
X1142720Y1213249D1*
X1142627Y1212249D1*
X1142584Y1211249D1*
X1142567Y1210249D1*
X1142560Y1209249D1*
X1142554Y1208249D1*
X1142518Y1207249D1*
X1142390Y1206249D1*
X1142147Y1205249D1*
X1141855Y1204249D1*
X1141553Y1203249D1*
X1141217Y1202249D1*
X1140879Y1201249D1*
X1140521Y1200249D1*
X1140015Y1199249D1*
X1139304Y1198249D1*
X1138410Y1197249D1*
X1137307Y1196249D1*
X1135930Y1195249D1*
X1134300Y1194249D1*
X1132556Y1193249D1*
X1178556Y1246249D2*
X1175799Y1245249D1*
X1173416Y1244249D1*
X1171619Y1243249D1*
X1170394Y1242249D1*
X1169548Y1241249D1*
X1168903Y1240249D1*
X1168376Y1239249D1*
X1167949Y1238249D1*
X1167589Y1237249D1*
X1167234Y1236249D1*
X1166927Y1235249D1*
X1166732Y1234249D1*
X1166627Y1233249D1*
X1166547Y1232249D1*
X1166401Y1231249D1*
X1166154Y1230249D1*
X1165895Y1229249D1*
X1165720Y1228249D1*
X1165627Y1227249D1*
X1165585Y1226249D1*
X1165567Y1225249D1*
X1165560Y1224249D1*
X1165558Y1223249D1*
X1165557Y1222249D1*
Y1221249D1*
X1165556Y1220249D1*
Y1219249D1*
Y1218249D1*
Y1217249D1*
Y1216249D1*
Y1215249D1*
Y1214249D1*
Y1213249D1*
Y1212249D1*
Y1211249D1*
Y1210249D1*
Y1209249D1*
Y1208249D1*
Y1207249D1*
Y1206249D1*
Y1205249D1*
Y1204249D1*
Y1203249D1*
Y1202249D1*
Y1201249D1*
Y1200249D1*
Y1199249D1*
Y1198249D1*
Y1197249D1*
Y1196249D1*
Y1195249D1*
Y1194249D1*
Y1193249D1*
Y1192249D1*
Y1191249D1*
Y1190249D1*
Y1189249D1*
Y1188249D1*
X1187556Y1246249D2*
X1190318Y1245249D1*
X1192732Y1244249D1*
X1194625Y1243249D1*
X1195994Y1242249D1*
X1196953Y1241249D1*
X1197663Y1240249D1*
X1198249Y1239249D1*
X1198747Y1238249D1*
X1199134Y1237249D1*
X1199398Y1236249D1*
X1199640Y1235249D1*
X1199930Y1234249D1*
X1200207Y1233249D1*
X1200389Y1232249D1*
X1200485Y1231249D1*
X1200528Y1230249D1*
X1200546Y1229249D1*
X1200553Y1228249D1*
X1200555Y1227249D1*
X1200556Y1226249D1*
Y1225249D1*
Y1224249D1*
Y1223249D1*
Y1222249D1*
Y1221249D1*
Y1220249D1*
Y1219249D1*
Y1218249D1*
Y1217249D1*
Y1216249D1*
Y1215249D1*
Y1214249D1*
Y1213249D1*
Y1212249D1*
Y1211249D1*
Y1210249D1*
Y1209249D1*
Y1208249D1*
Y1207249D1*
Y1206249D1*
Y1205249D1*
Y1204249D1*
Y1203249D1*
Y1202249D1*
Y1201249D1*
Y1200249D1*
Y1199249D1*
Y1198249D1*
Y1197249D1*
Y1196249D1*
Y1195249D1*
Y1194249D1*
Y1193249D1*
Y1192249D1*
Y1191249D1*
Y1190249D1*
Y1189249D1*
Y1188249D1*
X1217556Y1193249D2*
Y1192249D1*
Y1191249D1*
Y1190249D1*
Y1189249D1*
Y1188249D1*
X1260556Y1193249D2*
Y1192249D1*
Y1191249D1*
Y1190249D1*
Y1189249D1*
Y1188249D1*
X1140307Y1785751D2*
X1136926Y1784751D1*
X1134104Y1783751D1*
X1131834Y1782751D1*
X1130047Y1781751D1*
X1128635Y1780751D1*
X1127477Y1779751D1*
X1126523Y1778751D1*
X1125735Y1777751D1*
X1125015Y1776751D1*
X1124316Y1775751D1*
X1123686Y1774751D1*
X1123147Y1773751D1*
X1122710Y1772751D1*
X1122344Y1771751D1*
X1121983Y1770751D1*
X1121639Y1769751D1*
X1121316Y1768751D1*
X1120976Y1767751D1*
X1120670Y1766751D1*
X1120442Y1765751D1*
X1120215Y1764751D1*
X1119930Y1763751D1*
X1119656Y1762751D1*
X1119474Y1761751D1*
X1119379Y1760751D1*
X1119336Y1759751D1*
X1119314Y1758751D1*
X1119272Y1757751D1*
X1119142Y1756751D1*
X1118902Y1755751D1*
X1118645Y1754751D1*
X1118470Y1753751D1*
X1118378Y1752751D1*
X1118335Y1751751D1*
X1118318Y1750751D1*
X1118311Y1749751D1*
X1118308Y1748751D1*
Y1747751D1*
X1118307Y1746751D1*
Y1745751D1*
Y1744751D1*
Y1743751D1*
X1118311Y1742751D1*
X1118346Y1741751D1*
X1118474Y1740751D1*
X1118713Y1739751D1*
X1118969Y1738751D1*
X1119144Y1737751D1*
X1119237Y1736751D1*
X1119279Y1735751D1*
X1119300Y1734751D1*
X1119342Y1733751D1*
X1119472Y1732751D1*
X1119713Y1731751D1*
X1119969Y1730751D1*
X1120148Y1729751D1*
X1120276Y1728751D1*
X1120446Y1727751D1*
X1120706Y1726751D1*
X1121005Y1725751D1*
X1121313Y1724751D1*
X1121681Y1723751D1*
X1122112Y1722751D1*
X1122578Y1721751D1*
X1123066Y1720751D1*
X1123564Y1719751D1*
X1124098Y1718751D1*
X1124727Y1717751D1*
X1125507Y1716751D1*
X1126433Y1715751D1*
X1127553Y1714751D1*
X1128976Y1713751D1*
X1130785Y1712751D1*
X1132953Y1711751D1*
X1135307Y1710751D1*
X1148307Y1785751D2*
Y1784751D1*
X1160307D2*
X1167307Y1783751D1*
Y1782751D1*
Y1781751D1*
Y1780751D1*
Y1779751D1*
Y1778751D1*
Y1777751D1*
X1202307Y1784751D2*
X1202149Y1783751D1*
X1201866Y1782751D1*
X1201479Y1781751D1*
X1201061Y1780751D1*
X1200676Y1779751D1*
X1200332Y1778751D1*
X1199978Y1777751D1*
X1199637Y1776751D1*
X1199316Y1775751D1*
X1198972Y1774751D1*
X1198635Y1773751D1*
X1198315Y1772751D1*
X1197972Y1771751D1*
X1197635Y1770751D1*
X1197315Y1769751D1*
X1196972Y1768751D1*
X1196635Y1767751D1*
X1196311Y1766751D1*
X1195936Y1765751D1*
X1195508Y1764751D1*
X1195071Y1763751D1*
X1194680Y1762751D1*
X1194333Y1761751D1*
X1193979Y1760751D1*
X1193638Y1759751D1*
X1193316Y1758751D1*
X1192972Y1757751D1*
X1192635Y1756751D1*
X1192315Y1755751D1*
X1191972Y1754751D1*
X1191635Y1753751D1*
X1191315Y1752751D1*
X1190972Y1751751D1*
X1190635Y1750751D1*
X1190315Y1749751D1*
X1189972Y1748751D1*
X1189635Y1747751D1*
X1189311Y1746751D1*
X1188936Y1745751D1*
X1188508Y1744751D1*
X1188071Y1743751D1*
X1187680Y1742751D1*
X1187333Y1741751D1*
X1186979Y1740751D1*
X1186638Y1739751D1*
X1186316Y1738751D1*
X1185972Y1737751D1*
X1185635Y1736751D1*
X1185315Y1735751D1*
X1184972Y1734751D1*
X1184635Y1733751D1*
X1184315Y1732751D1*
X1183972Y1731751D1*
X1183635Y1730751D1*
X1183311Y1729751D1*
X1182936Y1728751D1*
X1182508Y1727751D1*
X1182071Y1726751D1*
X1181680Y1725751D1*
X1181333Y1724751D1*
X1180979Y1723751D1*
X1180638Y1722751D1*
X1180316Y1721751D1*
X1179972Y1720751D1*
X1179635Y1719751D1*
X1179315Y1718751D1*
X1178972Y1717751D1*
X1178635Y1716751D1*
X1178315Y1715751D1*
X1177975Y1714751D1*
X1177674Y1713751D1*
X1177480Y1712751D1*
X1177375Y1711751D1*
X1177307Y1710751D1*
X1209307Y1784751D2*
X1209807Y1783751D1*
X1210222Y1782751D1*
X1210611Y1781751D1*
X1210967Y1780751D1*
X1211299Y1779751D1*
X1211676Y1778751D1*
X1212106Y1777751D1*
X1212543Y1776751D1*
X1212934Y1775751D1*
X1213281Y1774751D1*
X1213636Y1773751D1*
X1213977Y1772751D1*
X1214302Y1771751D1*
X1214677Y1770751D1*
X1215107Y1769751D1*
X1215543Y1768751D1*
X1215934Y1767751D1*
X1216281Y1766751D1*
X1216636Y1765751D1*
X1216977Y1764751D1*
X1217299Y1763751D1*
X1217642Y1762751D1*
X1217979Y1761751D1*
X1218303Y1760751D1*
X1218678Y1759751D1*
X1219107Y1758751D1*
X1219543Y1757751D1*
X1219934Y1756751D1*
X1220281Y1755751D1*
X1220636Y1754751D1*
X1220977Y1753751D1*
X1221302Y1752751D1*
X1221677Y1751751D1*
X1222107Y1750751D1*
X1222543Y1749751D1*
X1222934Y1748751D1*
X1223281Y1747751D1*
X1223636Y1746751D1*
X1223977Y1745751D1*
X1224299Y1744751D1*
X1224642Y1743751D1*
X1224979Y1742751D1*
X1225303Y1741751D1*
X1225678Y1740751D1*
X1226107Y1739751D1*
X1226543Y1738751D1*
X1226934Y1737751D1*
X1227281Y1736751D1*
X1227636Y1735751D1*
X1227977Y1734751D1*
X1228302Y1733751D1*
X1228677Y1732751D1*
X1229107Y1731751D1*
X1229543Y1730751D1*
X1229934Y1729751D1*
X1230281Y1728751D1*
X1230636Y1727751D1*
X1230977Y1726751D1*
X1231299Y1725751D1*
X1231642Y1724751D1*
X1231979Y1723751D1*
X1232303Y1722751D1*
X1232678Y1721751D1*
X1233107Y1720751D1*
X1233543Y1719751D1*
X1233934Y1718751D1*
X1234281Y1717751D1*
X1234636Y1716751D1*
X1234977Y1715751D1*
X1235299Y1714751D1*
X1235639Y1713751D1*
X1235943Y1712751D1*
X1236151Y1711751D1*
X1236307Y1710751D1*
X1141307Y1778751D2*
X1138662Y1777751D1*
X1136368Y1776751D1*
X1134494Y1775751D1*
X1133040Y1774751D1*
X1131968Y1773751D1*
X1131111Y1772751D1*
X1130354Y1771751D1*
X1129696Y1770751D1*
X1129117Y1769751D1*
X1128584Y1768751D1*
X1128105Y1767751D1*
X1127726Y1766751D1*
X1127465Y1765751D1*
X1127223Y1764751D1*
X1126933Y1763751D1*
X1126657Y1762751D1*
X1126471Y1761751D1*
X1126340Y1760751D1*
X1126169Y1759751D1*
X1125912Y1758751D1*
X1125648Y1757751D1*
X1125472Y1756751D1*
X1125378Y1755751D1*
X1125335Y1754751D1*
X1125318Y1753751D1*
X1125311Y1752751D1*
X1125308Y1751751D1*
Y1750751D1*
X1125307Y1749751D1*
Y1748751D1*
Y1747751D1*
Y1746751D1*
Y1745751D1*
Y1744751D1*
Y1743751D1*
Y1742751D1*
Y1741751D1*
Y1740751D1*
Y1739751D1*
X1125311Y1738751D1*
X1125346Y1737751D1*
X1125474Y1736751D1*
X1125713Y1735751D1*
X1125969Y1734751D1*
X1126144Y1733751D1*
X1126241Y1732751D1*
X1126318Y1731751D1*
X1126463Y1730751D1*
X1126713Y1729751D1*
X1127007Y1728751D1*
X1127314Y1727751D1*
X1127682Y1726751D1*
X1128112Y1725751D1*
X1128582Y1724751D1*
X1129105Y1723751D1*
X1129734Y1722751D1*
X1130550Y1721751D1*
X1131642Y1720751D1*
X1133164Y1719751D1*
X1135208Y1718751D1*
X1137668Y1717751D1*
X1140307Y1716751D1*
X1161307Y1778751D2*
X1162307Y1777751D1*
X1205307Y1772751D2*
X1205153Y1771751D1*
X1204901Y1770751D1*
X1204607Y1769751D1*
X1204300Y1768751D1*
X1203933Y1767751D1*
X1203506Y1766751D1*
X1203071Y1765751D1*
X1202680Y1764751D1*
X1202333Y1763751D1*
X1201979Y1762751D1*
X1201638Y1761751D1*
X1201316Y1760751D1*
X1200972Y1759751D1*
X1200635Y1758751D1*
X1200315Y1757751D1*
X1199972Y1756751D1*
X1199635Y1755751D1*
X1199315Y1754751D1*
X1198972Y1753751D1*
X1198635Y1752751D1*
X1198315Y1751751D1*
X1197972Y1750751D1*
X1197635Y1749751D1*
X1197315Y1748751D1*
X1196972Y1747751D1*
X1196635Y1746751D1*
X1196311Y1745751D1*
X1195936Y1744751D1*
X1195508Y1743751D1*
X1195071Y1742751D1*
X1194680Y1741751D1*
X1194333Y1740751D1*
X1193979Y1739751D1*
X1193638Y1738751D1*
X1193316Y1737751D1*
X1192972Y1736751D1*
X1192635Y1735751D1*
X1192315Y1734751D1*
X1191972Y1733751D1*
X1191635Y1732751D1*
X1191315Y1731751D1*
X1190972Y1730751D1*
X1190635Y1729751D1*
X1190315Y1728751D1*
X1189972Y1727751D1*
X1189635Y1726751D1*
X1189311Y1725751D1*
X1188936Y1724751D1*
X1188508Y1723751D1*
X1188071Y1722751D1*
X1187680Y1721751D1*
X1187333Y1720751D1*
X1186979Y1719751D1*
X1186638Y1718751D1*
X1186316Y1717751D1*
X1185972Y1716751D1*
X1185635Y1715751D1*
X1185311Y1714751D1*
X1184933Y1713751D1*
X1184475Y1712751D1*
X1183924Y1711751D1*
X1183307Y1710751D1*
X1207307Y1772751D2*
X1207462Y1771751D1*
X1207713Y1770751D1*
X1208008Y1769751D1*
X1208310Y1768751D1*
X1208646Y1767751D1*
X1208980Y1766751D1*
X1209300Y1765751D1*
X1209643Y1764751D1*
X1209979Y1763751D1*
X1210303Y1762751D1*
X1210678Y1761751D1*
X1211107Y1760751D1*
X1211543Y1759751D1*
X1211934Y1758751D1*
X1212281Y1757751D1*
X1212636Y1756751D1*
X1212977Y1755751D1*
X1213299Y1754751D1*
X1213642Y1753751D1*
X1213979Y1752751D1*
X1214303Y1751751D1*
X1214678Y1750751D1*
X1215107Y1749751D1*
X1215543Y1748751D1*
X1215934Y1747751D1*
X1216281Y1746751D1*
X1216636Y1745751D1*
X1216977Y1744751D1*
X1217299Y1743751D1*
X1217642Y1742751D1*
X1217979Y1741751D1*
X1218303Y1740751D1*
X1218678Y1739751D1*
X1219107Y1738751D1*
X1219543Y1737751D1*
X1219934Y1736751D1*
X1220281Y1735751D1*
X1220636Y1734751D1*
X1220977Y1733751D1*
X1221299Y1732751D1*
X1221642Y1731751D1*
X1221979Y1730751D1*
X1222303Y1729751D1*
X1222678Y1728751D1*
X1223107Y1727751D1*
X1223543Y1726751D1*
X1223934Y1725751D1*
X1224281Y1724751D1*
X1224636Y1723751D1*
X1224977Y1722751D1*
X1225302Y1721751D1*
X1225677Y1720751D1*
X1226107Y1719751D1*
X1226543Y1718751D1*
X1226934Y1717751D1*
X1227281Y1716751D1*
X1227636Y1715751D1*
X1227977Y1714751D1*
X1228299Y1713751D1*
X1228648Y1712751D1*
X1228992Y1711751D1*
X1229307Y1710751D1*
X1157307Y1717751D2*
Y1716751D1*
X1167307Y1717751D2*
Y1716751D1*
X1167295Y1715751D1*
X1167260Y1714751D1*
X1166834Y1713751D1*
X1164767Y1712751D1*
X1161420Y1711751D1*
X1157307Y1710751D1*
X612306Y717706D2*
D25*
X620962Y713329D1*
X633895Y700495D1*
Y790828D1*
X979185Y721984D2*
Y717706D1*
X983463Y709051D1*
X987741Y704773D1*
X996396Y700495D1*
X1013607D1*
X1022162Y704773D1*
X1026440Y709051D1*
X1030818Y717706D1*
Y726262D1*
X1026440Y734917D1*
X1017885Y747751D1*
X974808Y790828D1*
X1035096D1*
X1358463Y700495D2*
X1405718D1*
X1379952Y734917D1*
X1392885D1*
X1401440Y739195D1*
X1405718Y743473D1*
X1410096Y756406D1*
Y764962D1*
X1405718Y777895D1*
X1397162Y786550D1*
X1384229Y790828D1*
X1371296D1*
X1358463Y786550D1*
X1354185Y782173D1*
X1349808Y773617D1*
X1761634Y790828D2*
Y700495D1*
X1718557Y760684D1*
X1783123D1*
M02*
