G04 DipTrace 3.1.0.0*
G04 uO_c_panel.GTO*
%MOIN*%
G04 #@! TF.FileFunction,Legend,Top*
G04 #@! TF.Part,Single*
%ADD12C,0.001*%
%ADD13C,0.01*%
%FSLAX26Y26*%
G04*
G70*
G90*
G75*
G01*
G04 TopSilk*
%LPD*%
G36*
X681056Y3900251D2*
X906056D1*
X787307Y4018999D1*
X668556Y3900251D1*
D1*
X681056D1*
G37*
G36*
X1481056Y4025249D2*
X1699807D1*
X1587307Y3912751D1*
X1474807Y4025249D1*
D1*
X1481056D1*
G37*
X1112307Y1837751D2*
D13*
X1149807D1*
Y1900249D1*
X1224807D1*
Y1837751D1*
X1262307D1*
X1139575Y5386764D2*
D12*
X1159575D1*
X1136155Y5385764D2*
X1162878D1*
X1133035Y5384764D2*
X1165874D1*
X1130300Y5383764D2*
X1168559D1*
X1127933Y5382764D2*
X1170911D1*
X1125875Y5381764D2*
X1172907D1*
X1124073Y5380764D2*
X1174650D1*
X1122461Y5379764D2*
X1176253D1*
X1120994Y5378764D2*
X1177764D1*
X1119618Y5377764D2*
X1179185D1*
X1118256Y5376764D2*
X1180543D1*
X1116946Y5375764D2*
X1181897D1*
X1115750Y5374764D2*
X1183205D1*
X1114650Y5373764D2*
X1184400D1*
X1113604Y5372764D2*
X1141813D1*
X1157336D2*
X1185496D1*
X1112586Y5371764D2*
X1138396D1*
X1160750D2*
X1186506D1*
X1111583Y5370764D2*
X1135471D1*
X1163644D2*
X1187397D1*
X1110615Y5369764D2*
X1133010D1*
X1166012D2*
X1188165D1*
X1109742Y5368764D2*
X1130943D1*
X1167967D2*
X1188907D1*
X1108981Y5367764D2*
X1129247D1*
X1169643D2*
X1189698D1*
X1108241Y5366764D2*
X1127835D1*
X1171101D2*
X1190479D1*
X1107451Y5365764D2*
X1126531D1*
X1172360D2*
X1191193D1*
X1106675Y5364764D2*
X1125216D1*
X1173486D2*
X1191884D1*
X1105992Y5363764D2*
X1123933D1*
X1174540D2*
X1192575D1*
X1105393Y5362764D2*
X1122783D1*
X1175562D2*
X1193237D1*
X1104818Y5361764D2*
X1121814D1*
X1176570D2*
X1193902D1*
X1104205Y5360764D2*
X1121010D1*
X1177569D2*
X1194578D1*
X1103554Y5359764D2*
X1120252D1*
X1178535D2*
X1195204D1*
X1102943Y5358764D2*
X1119454D1*
X1179404D2*
X1195771D1*
X1102411Y5357764D2*
X1118676D1*
X1180130D2*
X1196300D1*
X1101976Y5356764D2*
X1117992D1*
X1180742D2*
X1196781D1*
X1101612Y5355764D2*
X1117397D1*
X1181293D2*
X1197191D1*
X1101250Y5354764D2*
X1116853D1*
X1181812D2*
X1197545D1*
X1100907Y5353764D2*
X1116336D1*
X1182321D2*
X1197902D1*
X1100584Y5352764D2*
X1115828D1*
X1182823D2*
X1198244D1*
X1100240Y5351764D2*
X1115327D1*
X1183321D2*
X1198566D1*
X1099903Y5350764D2*
X1114829D1*
X1183789D2*
X1198906D1*
X1322575D2*
X1325575D1*
X1099582Y5349764D2*
X1114364D1*
X1184194D2*
X1199212D1*
X1317463D2*
X1330255D1*
X1027575Y5348764D2*
X1041575D1*
X1067575D2*
X1080575D1*
X1099243D2*
X1113991D1*
X1184546D2*
X1199440D1*
X1313446D2*
X1334039D1*
X1027575Y5347764D2*
X1041575D1*
X1067575D2*
X1080575D1*
X1098942D2*
X1113731D1*
X1184898D2*
X1199667D1*
X1310420D2*
X1336862D1*
X1027575Y5346764D2*
X1041575D1*
X1067575D2*
X1080575D1*
X1098749D2*
X1113491D1*
X1185209D2*
X1199951D1*
X1308067D2*
X1339040D1*
X1027575Y5345764D2*
X1041575D1*
X1067575D2*
X1080575D1*
X1098649D2*
X1113201D1*
X1185439D2*
X1200226D1*
X1306144D2*
X1339963D1*
X1027575Y5344764D2*
X1041575D1*
X1067575D2*
X1080575D1*
X1098600D2*
X1112924D1*
X1185667D2*
X1200408D1*
X1304490D2*
X1340290D1*
X1027575Y5343764D2*
X1041575D1*
X1067575D2*
X1080575D1*
X1098547D2*
X1112742D1*
X1185951D2*
X1200503D1*
X1303042D2*
X1340459D1*
X1027575Y5342764D2*
X1041575D1*
X1067575D2*
X1080575D1*
X1098412D2*
X1112647D1*
X1186226D2*
X1200546D1*
X1301787D2*
X1340531D1*
X1027575Y5341764D2*
X1041575D1*
X1067575D2*
X1080575D1*
X1098170D2*
X1112599D1*
X1186408D2*
X1200564D1*
X1300663D2*
X1340559D1*
X1027575Y5340764D2*
X1041575D1*
X1067575D2*
X1080575D1*
X1097913D2*
X1112546D1*
X1186503D2*
X1200571D1*
X1299609D2*
X1340569D1*
X1027575Y5339764D2*
X1041575D1*
X1067575D2*
X1080575D1*
X1097738D2*
X1112412D1*
X1186546D2*
X1200573D1*
X1298591D2*
X1340573D1*
X1027575Y5338764D2*
X1041575D1*
X1067575D2*
X1080575D1*
X1097645D2*
X1112170D1*
X1186564D2*
X1200574D1*
X1297618D2*
X1340574D1*
X1027575Y5337764D2*
X1041575D1*
X1067575D2*
X1080575D1*
X1097603D2*
X1111917D1*
X1186571D2*
X1200575D1*
X1296747D2*
X1340575D1*
X1027575Y5336764D2*
X1041575D1*
X1067575D2*
X1080575D1*
X1097585D2*
X1111777D1*
X1186573D2*
X1200575D1*
X1296020D2*
X1316617D1*
X1329336D2*
X1340575D1*
X1027575Y5335764D2*
X1041575D1*
X1067575D2*
X1080575D1*
X1097579D2*
X1111812D1*
X1186574D2*
X1200575D1*
X1295404D2*
X1314784D1*
X1331754D2*
X1340575D1*
X1027575Y5334764D2*
X1041575D1*
X1067575D2*
X1080575D1*
X1097580D2*
X1112009D1*
X1186575D2*
X1200575D1*
X1294822D2*
X1313190D1*
X1333683D2*
X1340575D1*
X1027575Y5333764D2*
X1041575D1*
X1067575D2*
X1080575D1*
X1097614D2*
X1112248D1*
X1186575D2*
X1200575D1*
X1294210D2*
X1311853D1*
X1335183D2*
X1340575D1*
X1027575Y5332764D2*
X1041575D1*
X1067575D2*
X1080575D1*
X1097741D2*
X1112415D1*
X1186571D2*
X1200575D1*
X1293589D2*
X1310689D1*
X1336416D2*
X1340575D1*
X1027575Y5331764D2*
X1041575D1*
X1067575D2*
X1080575D1*
X1097981D2*
X1112506D1*
X1186536D2*
X1200575D1*
X1293070D2*
X1309623D1*
X1337515D2*
X1340575D1*
X1027575Y5330764D2*
X1041575D1*
X1067575D2*
X1080575D1*
X1098237D2*
X1112551D1*
X1186408D2*
X1200575D1*
X1292654D2*
X1308630D1*
X1338554D2*
X1340575D1*
X1027575Y5329764D2*
X1041575D1*
X1067575D2*
X1080575D1*
X1098412D2*
X1112604D1*
X1186169D2*
X1200571D1*
X1292268D2*
X1307751D1*
X1339575D2*
X1340575D1*
X1027575Y5328764D2*
X1041575D1*
X1067575D2*
X1080575D1*
X1098504D2*
X1112738D1*
X1185912D2*
X1200536D1*
X1291913D2*
X1307026D1*
X1027575Y5327764D2*
X1041575D1*
X1067575D2*
X1080575D1*
X1098551D2*
X1112980D1*
X1185734D2*
X1200408D1*
X1291586D2*
X1306443D1*
X1027575Y5326764D2*
X1041575D1*
X1067575D2*
X1080575D1*
X1098603D2*
X1113241D1*
X1185606D2*
X1200169D1*
X1291244D2*
X1305988D1*
X1027575Y5325764D2*
X1041575D1*
X1067575D2*
X1080575D1*
X1098738D2*
X1113451D1*
X1185432D2*
X1199912D1*
X1290942D2*
X1305616D1*
X1027575Y5324764D2*
X1041575D1*
X1067575D2*
X1080575D1*
X1098980D2*
X1113675D1*
X1185140D2*
X1199734D1*
X1290749D2*
X1305255D1*
X1027575Y5323764D2*
X1041575D1*
X1067575D2*
X1080575D1*
X1099241D2*
X1113992D1*
X1184750D2*
X1199606D1*
X1290649D2*
X1304946D1*
X1027575Y5322764D2*
X1041575D1*
X1067575D2*
X1080575D1*
X1099451D2*
X1114393D1*
X1184329D2*
X1199436D1*
X1290600D2*
X1304747D1*
X1027575Y5321764D2*
X1041575D1*
X1067575D2*
X1080575D1*
X1099671D2*
X1114818D1*
X1183944D2*
X1199175D1*
X1290547D2*
X1304611D1*
X1027575Y5320764D2*
X1041575D1*
X1067575D2*
X1080575D1*
X1099957D2*
X1115208D1*
X1183596D2*
X1198877D1*
X1290412D2*
X1304438D1*
X1027575Y5319764D2*
X1041575D1*
X1067575D2*
X1080575D1*
X1100266D2*
X1115589D1*
X1183207D2*
X1198569D1*
X1290170D2*
X1304180D1*
X1027575Y5318764D2*
X1041575D1*
X1067575D2*
X1080575D1*
X1100578D2*
X1116070D1*
X1182739D2*
X1198201D1*
X1289917D2*
X1303920D1*
X1027575Y5317764D2*
X1041575D1*
X1067575D2*
X1080575D1*
X1100948D2*
X1116654D1*
X1182173D2*
X1197770D1*
X1289777D2*
X1303778D1*
X1027575Y5316764D2*
X1041575D1*
X1067575D2*
X1080575D1*
X1101379D2*
X1117268D1*
X1181538D2*
X1197303D1*
X1289812D2*
X1303812D1*
X1027575Y5315764D2*
X1041575D1*
X1067575D2*
X1080575D1*
X1101846D2*
X1117913D1*
X1180896D2*
X1196816D1*
X1290009D2*
X1304009D1*
X1027575Y5314764D2*
X1041575D1*
X1067571D2*
X1080575D1*
X1102333D2*
X1118586D1*
X1180208D2*
X1196322D1*
X1290248D2*
X1304248D1*
X1027575Y5313764D2*
X1041575D1*
X1067536D2*
X1080575D1*
X1102827D2*
X1119244D1*
X1179438D2*
X1195823D1*
X1290415D2*
X1304419D1*
X1027575Y5312764D2*
X1041575D1*
X1067408D2*
X1080575D1*
X1103326D2*
X1119942D1*
X1178667D2*
X1195325D1*
X1290506D2*
X1304545D1*
X1027575Y5311764D2*
X1041575D1*
X1067169D2*
X1080575D1*
X1103829D2*
X1120749D1*
X1177951D2*
X1194824D1*
X1290551D2*
X1304718D1*
X1027575Y5310764D2*
X1041579D1*
X1066912D2*
X1080575D1*
X1104360D2*
X1121649D1*
X1177222D2*
X1194321D1*
X1290604D2*
X1305010D1*
X1027575Y5309764D2*
X1041614D1*
X1066738D2*
X1080575D1*
X1104956D2*
X1122608D1*
X1176369D2*
X1193785D1*
X1290738D2*
X1305404D1*
X1027575Y5308764D2*
X1041741D1*
X1066641D2*
X1080575D1*
X1105604D2*
X1123625D1*
X1175336D2*
X1193159D1*
X1290983D2*
X1305855D1*
X1027575Y5307764D2*
X1041985D1*
X1066564D2*
X1080571D1*
X1106251D2*
X1124745D1*
X1174136D2*
X1192418D1*
X1291276D2*
X1306337D1*
X1027575Y5306764D2*
X1042276D1*
X1066415D2*
X1080536D1*
X1106941D2*
X1125986D1*
X1172859D2*
X1191659D1*
X1291582D2*
X1306832D1*
X1027575Y5305764D2*
X1042582D1*
X1066133D2*
X1080408D1*
X1107711D2*
X1127281D1*
X1171525D2*
X1190949D1*
X1291949D2*
X1307366D1*
X1339575D2*
X1340575D1*
X1027575Y5304764D2*
X1042949D1*
X1065743D2*
X1080169D1*
X1108483D2*
X1128621D1*
X1170028D2*
X1190225D1*
X1292380D2*
X1307995D1*
X1338575D2*
X1340575D1*
X1027575Y5303764D2*
X1043383D1*
X1065289D2*
X1079908D1*
X1109198D2*
X1130128D1*
X1168321D2*
X1189407D1*
X1292846D2*
X1308774D1*
X1337571D2*
X1340575D1*
X1027575Y5302764D2*
X1043889D1*
X1064770D2*
X1079699D1*
X1109923D2*
X1131914D1*
X1166416D2*
X1188503D1*
X1293333D2*
X1309700D1*
X1336532D2*
X1340575D1*
X1027575Y5301764D2*
X1044547D1*
X1064108D2*
X1079475D1*
X1110742D2*
X1134172D1*
X1164165D2*
X1187546D1*
X1293831D2*
X1310820D1*
X1335361D2*
X1340575D1*
X1027575Y5300764D2*
X1045517D1*
X1063141D2*
X1079158D1*
X1111647D2*
X1137391D1*
X1160981D2*
X1186564D1*
X1294361D2*
X1312276D1*
X1333885D2*
X1340575D1*
X1027575Y5299764D2*
X1047146D1*
X1061583D2*
X1078752D1*
X1112607D2*
X1142327D1*
X1155885D2*
X1185571D1*
X1294956D2*
X1314402D1*
X1331752D2*
X1340575D1*
X1027575Y5298764D2*
X1050094D1*
X1058890D2*
X1078297D1*
X1113625D2*
X1149350D1*
X1148407D2*
X1184570D1*
X1295604D2*
X1317875D1*
X1328276D2*
X1340575D1*
X1027575Y5297764D2*
X1054812D1*
X1054689D2*
X1077814D1*
X1114745D2*
X1183535D1*
X1296251D2*
X1323175D1*
X1322975D2*
X1340575D1*
X1027575Y5296764D2*
X1077317D1*
X1115986D2*
X1182408D1*
X1296945D2*
X1340575D1*
X1027575Y5295764D2*
X1076784D1*
X1117277D2*
X1181165D1*
X1297754D2*
X1340575D1*
X1027575Y5294764D2*
X1076154D1*
X1118582D2*
X1179869D1*
X1298689D2*
X1340575D1*
X1027575Y5293764D2*
X1075379D1*
X1119953D2*
X1178529D1*
X1299771D2*
X1340575D1*
X1027575Y5292764D2*
X1074488D1*
X1121419D2*
X1177030D1*
X1300996D2*
X1340575D1*
X1027575Y5291764D2*
X1073503D1*
X1123017D2*
X1175325D1*
X1302284D2*
X1340567D1*
X1027575Y5290764D2*
X1072392D1*
X1124782D2*
X1173467D1*
X1303622D2*
X1340485D1*
X1027575Y5289764D2*
X1071118D1*
X1126707D2*
X1171487D1*
X1305124D2*
X1340286D1*
X1027575Y5288764D2*
X1069655D1*
X1128864D2*
X1169300D1*
X1306876D2*
X1339395D1*
X1027575Y5287764D2*
X1067871D1*
X1131454D2*
X1166661D1*
X1308972D2*
X1337428D1*
X1027575Y5286764D2*
X1040575D1*
X1043759D2*
X1065560D1*
X1134664D2*
X1163291D1*
X1311620D2*
X1334889D1*
X1027575Y5285764D2*
X1040575D1*
X1047110D2*
X1062705D1*
X1138472D2*
X1159140D1*
X1314917D2*
X1331852D1*
X1027575Y5284764D2*
X1040575D1*
X1050575D2*
X1059575D1*
X1142575D2*
X1154575D1*
X1318575D2*
X1328575D1*
X1027575Y5283764D2*
X1040575D1*
X1027575Y5282764D2*
X1040575D1*
X1027575Y5281764D2*
X1040575D1*
X1027575Y5280764D2*
X1040575D1*
X1027575Y5279764D2*
X1040575D1*
X1027575Y5278764D2*
X1040575D1*
X1027575Y5277764D2*
X1040575D1*
X1208575D2*
X1282575D1*
X1027575Y5276764D2*
X1040579D1*
X1208575D2*
X1282575D1*
X1027575Y5275764D2*
X1040614D1*
X1208575D2*
X1282575D1*
X1027575Y5274764D2*
X1040741D1*
X1208575D2*
X1282575D1*
X1027575Y5273764D2*
X1040981D1*
X1208575D2*
X1282575D1*
X1027575Y5272764D2*
X1041237D1*
X1208575D2*
X1282575D1*
X1027575Y5271764D2*
X1041412D1*
X1208575D2*
X1282575D1*
X1027575Y5270764D2*
X1041504D1*
X1208575D2*
X1282575D1*
X1027575Y5269764D2*
X1041547D1*
X1208575D2*
X1282575D1*
X1027575Y5268764D2*
X1041564D1*
X1208575D2*
X1282575D1*
X1027575Y5267764D2*
X1041571D1*
X1208575D2*
X1282575D1*
X1027575Y5266764D2*
X1041574D1*
X1208575D2*
X1282575D1*
X1027575Y5265764D2*
X1041574D1*
X1208575D2*
X1282575D1*
X1027575Y5264764D2*
X1041575D1*
X1208575D2*
X1282575D1*
X1027575Y5263764D2*
X1041575D1*
X1027575Y5262764D2*
X1041575D1*
X1027575Y5261764D2*
X1041575D1*
X1027575Y5260764D2*
X1041575D1*
X1027575Y5259764D2*
X1041575D1*
X1027575Y5258764D2*
X1041575D1*
X1027575Y5257764D2*
X1041575D1*
X1027575Y5256764D2*
X1041575D1*
X1027575Y5255764D2*
X1041575D1*
X1027575Y5254764D2*
X1041575D1*
X1027575Y5253764D2*
X1041575D1*
X1027575Y5252764D2*
X1041575D1*
X1146807Y1385751D2*
X1169807D1*
X1188807D2*
X1195807D1*
X1241807D2*
X1248807D1*
X1144542Y1384751D2*
X1174064D1*
X1189153D2*
X1196307D1*
X1241307D2*
X1248461D1*
X1142670Y1383751D2*
X1177459D1*
X1189486D2*
X1196722D1*
X1240892D2*
X1248129D1*
X1141190Y1382751D2*
X1178886D1*
X1189803D2*
X1197111D1*
X1240503D2*
X1247812D1*
X1139963Y1381751D2*
X1179382D1*
X1190144D2*
X1197467D1*
X1240147D2*
X1247470D1*
X1138870Y1380751D2*
X1179635D1*
X1190480D2*
X1197795D1*
X1239815D2*
X1247134D1*
X1137868Y1379751D2*
X1179746D1*
X1190800D2*
X1198141D1*
X1239438D2*
X1246811D1*
X1136985Y1378751D2*
X1150046D1*
X1169807D2*
X1179807D1*
X1191143D2*
X1198479D1*
X1239008D2*
X1246436D1*
X1136255Y1377751D2*
X1147628D1*
X1191479D2*
X1198803D1*
X1238571D2*
X1246008D1*
X1135641Y1376751D2*
X1145699D1*
X1191799D2*
X1199178D1*
X1238180D2*
X1245571D1*
X1135093Y1375751D2*
X1144203D1*
X1192143D2*
X1199607D1*
X1237833D2*
X1245180D1*
X1134605Y1374751D2*
X1143005D1*
X1192479D2*
X1200043D1*
X1237479D2*
X1244833D1*
X1134192Y1373751D2*
X1142038D1*
X1192803D2*
X1200434D1*
X1237138D2*
X1244479D1*
X1133838Y1372751D2*
X1141278D1*
X1193178D2*
X1200781D1*
X1236816D2*
X1244138D1*
X1133484Y1371751D2*
X1140683D1*
X1193607D2*
X1201136D1*
X1236472D2*
X1243816D1*
X1133173Y1370751D2*
X1140223D1*
X1194043D2*
X1201477D1*
X1236135D2*
X1243472D1*
X1132943Y1369751D2*
X1139849D1*
X1194434D2*
X1201799D1*
X1235811D2*
X1243135D1*
X1132715Y1368751D2*
X1139488D1*
X1194781D2*
X1202142D1*
X1235436D2*
X1242811D1*
X1132431Y1367751D2*
X1139178D1*
X1195136D2*
X1202479D1*
X1235008D2*
X1242436D1*
X1132156Y1366751D2*
X1138979D1*
X1195477D2*
X1202799D1*
X1234571D2*
X1242008D1*
X1131974Y1365751D2*
X1138843D1*
X1195799D2*
X1203143D1*
X1234180D2*
X1241571D1*
X1131875Y1364751D2*
X1138670D1*
X1196142D2*
X1203479D1*
X1233833D2*
X1241180D1*
X1131797Y1363751D2*
X1138412D1*
X1196479D2*
X1203799D1*
X1233479D2*
X1240833D1*
X1131651Y1362751D2*
X1138149D1*
X1196799D2*
X1204143D1*
X1233138D2*
X1240479D1*
X1131405Y1361751D2*
X1137972D1*
X1197143D2*
X1204479D1*
X1232816D2*
X1240138D1*
X1131146Y1360751D2*
X1137878D1*
X1197479D2*
X1204799D1*
X1232472D2*
X1239812D1*
X1130971Y1359751D2*
X1137835D1*
X1197799D2*
X1205143D1*
X1232135D2*
X1239437D1*
X1130878Y1358751D2*
X1137818D1*
X1198143D2*
X1205479D1*
X1231811D2*
X1239008D1*
X1130835Y1357751D2*
X1137811D1*
X1198479D2*
X1205799D1*
X1231436D2*
X1238571D1*
X1130818Y1356751D2*
X1137808D1*
X1198799D2*
X1206143D1*
X1231008D2*
X1238180D1*
X1130811Y1355751D2*
X1137808D1*
X1199143D2*
X1206479D1*
X1230571D2*
X1237833D1*
X1130808Y1354751D2*
X1137807D1*
X1199479D2*
X1206803D1*
X1230180D2*
X1237479D1*
X1130808Y1353751D2*
X1137807D1*
X1199803D2*
X1207178D1*
X1229833D2*
X1237138D1*
X1130807Y1352751D2*
X1137807D1*
X1200178D2*
X1207607D1*
X1229479D2*
X1236816D1*
X1130807Y1351751D2*
X1137807D1*
X1200607D2*
X1208043D1*
X1229138D2*
X1236472D1*
X1130807Y1350751D2*
X1137807D1*
X1201043D2*
X1208434D1*
X1228812D2*
X1236135D1*
X1130807Y1349751D2*
X1137807D1*
X1201434D2*
X1208781D1*
X1228437D2*
X1235811D1*
X1130807Y1348751D2*
X1137807D1*
X1201781D2*
X1209136D1*
X1228008D2*
X1235436D1*
X1130807Y1347751D2*
X1137807D1*
X1202136D2*
X1209477D1*
X1227571D2*
X1235008D1*
X1130807Y1346751D2*
X1137807D1*
X1202477D2*
X1209799D1*
X1227180D2*
X1234571D1*
X1130807Y1345751D2*
X1137807D1*
X1202799D2*
X1210142D1*
X1226833D2*
X1234180D1*
X1130807Y1344751D2*
X1137807D1*
X1203142D2*
X1210479D1*
X1226479D2*
X1233833D1*
X1130807Y1343751D2*
X1137807D1*
X1203479D2*
X1210799D1*
X1226138D2*
X1233479D1*
X1130807Y1342751D2*
X1137807D1*
X1203799D2*
X1211143D1*
X1225816D2*
X1233138D1*
X1130807Y1341751D2*
X1137807D1*
X1204143D2*
X1211479D1*
X1225472D2*
X1232816D1*
X1130811Y1340751D2*
X1137807D1*
X1204479D2*
X1211799D1*
X1225135D2*
X1232472D1*
X1130846Y1339751D2*
X1137811D1*
X1204799D2*
X1212143D1*
X1224811D2*
X1232135D1*
X1130974Y1338751D2*
X1137846D1*
X1205143D2*
X1212479D1*
X1224436D2*
X1231811D1*
X1131213Y1337751D2*
X1137974D1*
X1205479D2*
X1212799D1*
X1224008D2*
X1231436D1*
X1131469Y1336751D2*
X1138213D1*
X1205803D2*
X1213143D1*
X1223571D2*
X1231008D1*
X1131644Y1335751D2*
X1138469D1*
X1206178D2*
X1213479D1*
X1223180D2*
X1230571D1*
X1131741Y1334751D2*
X1138648D1*
X1206607D2*
X1213803D1*
X1222833D2*
X1230180D1*
X1131818Y1333751D2*
X1138776D1*
X1207043D2*
X1214178D1*
X1222479D2*
X1229833D1*
X1131963Y1332751D2*
X1138946D1*
X1207434D2*
X1214607D1*
X1222138D2*
X1229479D1*
X1132213Y1331751D2*
X1139206D1*
X1207781D2*
X1215043D1*
X1221816D2*
X1229138D1*
X1132507Y1330751D2*
X1139505D1*
X1208136D2*
X1215434D1*
X1221472D2*
X1228812D1*
X1132810Y1329751D2*
X1139813D1*
X1208477D2*
X1215781D1*
X1221135D2*
X1228437D1*
X1133146Y1328751D2*
X1140185D1*
X1208799D2*
X1216139D1*
X1220807D2*
X1228008D1*
X1133480Y1327751D2*
X1140647D1*
X1209142D2*
X1216522D1*
X1220391D2*
X1227571D1*
X1133804Y1326751D2*
X1141210D1*
X1209479D2*
X1217026D1*
X1219778D2*
X1227180D1*
X1134178Y1325751D2*
X1141844D1*
X1209799D2*
X1217815D1*
X1218886D2*
X1226833D1*
X1134611Y1324751D2*
X1142486D1*
X1210143D2*
X1226479D1*
X1135078Y1323751D2*
X1143182D1*
X1210479D2*
X1226138D1*
X1135566Y1322751D2*
X1144029D1*
X1210799D2*
X1225816D1*
X1136063Y1321751D2*
X1145134D1*
X1211143D2*
X1225472D1*
X1136598Y1320751D2*
X1146661D1*
X1211479D2*
X1225135D1*
X1137227Y1319751D2*
X1148707D1*
X1211799D2*
X1224811D1*
X1138003Y1318751D2*
X1151168D1*
X1174807D2*
X1179807D1*
X1212143D2*
X1224436D1*
X1138893Y1317751D2*
X1179807D1*
X1212479D2*
X1224008D1*
X1139878Y1316751D2*
X1179803D1*
X1212803D2*
X1223571D1*
X1140993Y1315751D2*
X1179745D1*
X1213178D2*
X1223180D1*
X1142311Y1314751D2*
X1179592D1*
X1213607D2*
X1222832D1*
X1143973Y1313751D2*
X1178623D1*
X1214049D2*
X1222473D1*
X1146262Y1312751D2*
X1175966D1*
X1214452D2*
X1222124D1*
X1149322Y1311751D2*
X1172807D1*
X1214807D2*
X1221807D1*
X1152807Y1310751D2*
X1160807D1*
X1130056Y877249D2*
X1143056D1*
X1126714Y876249D2*
X1146399D1*
X1172056D2*
X1178056D1*
X1213056D2*
X1219056D1*
X1229056D2*
X1273056D1*
X1124019Y875249D2*
X1149094D1*
X1172056D2*
X1178056D1*
X1213056D2*
X1219056D1*
X1229056D2*
X1273056D1*
X1121989Y874249D2*
X1151123D1*
X1172056D2*
X1178056D1*
X1213056D2*
X1219056D1*
X1229056D2*
X1273056D1*
X1120462Y873249D2*
X1152654D1*
X1172056D2*
X1178056D1*
X1213056D2*
X1219056D1*
X1229056D2*
X1273056D1*
X1119256Y872249D2*
X1153892D1*
X1172056D2*
X1178056D1*
X1213056D2*
X1219056D1*
X1229056D2*
X1273056D1*
X1118287Y871249D2*
X1154957D1*
X1172056D2*
X1178056D1*
X1213056D2*
X1219056D1*
X1229056D2*
X1273056D1*
X1117523Y870249D2*
X1127098D1*
X1145663D2*
X1155864D1*
X1172056D2*
X1178056D1*
X1213056D2*
X1219056D1*
X1248056D2*
X1254056D1*
X1116897Y869249D2*
X1125270D1*
X1147829D2*
X1156600D1*
X1172056D2*
X1178056D1*
X1213056D2*
X1219056D1*
X1248056D2*
X1254056D1*
X1116341Y868249D2*
X1123711D1*
X1149464D2*
X1157186D1*
X1172056D2*
X1178056D1*
X1213056D2*
X1219056D1*
X1248056D2*
X1254056D1*
X1115820Y867249D2*
X1122505D1*
X1150657D2*
X1157642D1*
X1172056D2*
X1178056D1*
X1213056D2*
X1219056D1*
X1248056D2*
X1254056D1*
X1115314Y866249D2*
X1121616D1*
X1151523D2*
X1158015D1*
X1172056D2*
X1178056D1*
X1213056D2*
X1219056D1*
X1248056D2*
X1254056D1*
X1114844Y865249D2*
X1120933D1*
X1152191D2*
X1158376D1*
X1172056D2*
X1178056D1*
X1213056D2*
X1219056D1*
X1248056D2*
X1254056D1*
X1114438Y864249D2*
X1120358D1*
X1152759D2*
X1158689D1*
X1172056D2*
X1178056D1*
X1213056D2*
X1219056D1*
X1248056D2*
X1254056D1*
X1114086Y863249D2*
X1119864D1*
X1153251D2*
X1158920D1*
X1172056D2*
X1178056D1*
X1213056D2*
X1219056D1*
X1248056D2*
X1254056D1*
X1113733Y862249D2*
X1119483D1*
X1153631D2*
X1159148D1*
X1172056D2*
X1178056D1*
X1213056D2*
X1219056D1*
X1248056D2*
X1254056D1*
X1113426Y861249D2*
X1119250D1*
X1153863D2*
X1159433D1*
X1172056D2*
X1178056D1*
X1213056D2*
X1219056D1*
X1248056D2*
X1254056D1*
X1113232Y860249D2*
X1119100D1*
X1154012D2*
X1159708D1*
X1172056D2*
X1178056D1*
X1213056D2*
X1219056D1*
X1248056D2*
X1254056D1*
X1113127Y859249D2*
X1118922D1*
X1154190D2*
X1159889D1*
X1172056D2*
X1178056D1*
X1213056D2*
X1219056D1*
X1248056D2*
X1254056D1*
X1113047Y858249D2*
X1118662D1*
X1154450D2*
X1159989D1*
X1172056D2*
X1178056D1*
X1213056D2*
X1219056D1*
X1248056D2*
X1254056D1*
X1112901Y857249D2*
X1118398D1*
X1154715D2*
X1160067D1*
X1172056D2*
X1178056D1*
X1213056D2*
X1219056D1*
X1248056D2*
X1254056D1*
X1112654Y856249D2*
X1118221D1*
X1154892D2*
X1160212D1*
X1172056D2*
X1178056D1*
X1213056D2*
X1219056D1*
X1248056D2*
X1254056D1*
X1112395Y855249D2*
X1118127D1*
X1154985D2*
X1160459D1*
X1172056D2*
X1178056D1*
X1213056D2*
X1219056D1*
X1248056D2*
X1254056D1*
X1112220Y854249D2*
X1118085D1*
X1155028D2*
X1160718D1*
X1172056D2*
X1178056D1*
X1213056D2*
X1219056D1*
X1248056D2*
X1254056D1*
X1112127Y853249D2*
X1118067D1*
X1155046D2*
X1160893D1*
X1172056D2*
X1178056D1*
X1213056D2*
X1219056D1*
X1248056D2*
X1254056D1*
X1112085Y852249D2*
X1118060D1*
X1155053D2*
X1160986D1*
X1172056D2*
X1178056D1*
X1213056D2*
X1219056D1*
X1248056D2*
X1254056D1*
X1112067Y851249D2*
X1118058D1*
X1155055D2*
X1161028D1*
X1172056D2*
X1178056D1*
X1213056D2*
X1219056D1*
X1248056D2*
X1254056D1*
X1112060Y850249D2*
X1118057D1*
X1155056D2*
X1161046D1*
X1172056D2*
X1178056D1*
X1213056D2*
X1219056D1*
X1248056D2*
X1254056D1*
X1112058Y849249D2*
X1118057D1*
X1155056D2*
X1161053D1*
X1172056D2*
X1178056D1*
X1213056D2*
X1219056D1*
X1248056D2*
X1254056D1*
X1112057Y848249D2*
X1118056D1*
X1155056D2*
X1161055D1*
X1172056D2*
X1178056D1*
X1213056D2*
X1219056D1*
X1248056D2*
X1254056D1*
X1112057Y847249D2*
X1118056D1*
X1155056D2*
X1161056D1*
X1172056D2*
X1178056D1*
X1213056D2*
X1219056D1*
X1248056D2*
X1254056D1*
X1112056Y846249D2*
X1118056D1*
X1155056D2*
X1161056D1*
X1172056D2*
X1178056D1*
X1213056D2*
X1219056D1*
X1248056D2*
X1254056D1*
X1112056Y845249D2*
X1118056D1*
X1155056D2*
X1161056D1*
X1172056D2*
X1178056D1*
X1213056D2*
X1219056D1*
X1248056D2*
X1254056D1*
X1112056Y844249D2*
X1118056D1*
X1155056D2*
X1161056D1*
X1172056D2*
X1178056D1*
X1213056D2*
X1219056D1*
X1248056D2*
X1254056D1*
X1112056Y843249D2*
X1118056D1*
X1155056D2*
X1161056D1*
X1172056D2*
X1178056D1*
X1213056D2*
X1219056D1*
X1248056D2*
X1254056D1*
X1112056Y842249D2*
X1118056D1*
X1155056D2*
X1161056D1*
X1172056D2*
X1178056D1*
X1213056D2*
X1219056D1*
X1248056D2*
X1254056D1*
X1112056Y841249D2*
X1118056D1*
X1155056D2*
X1161056D1*
X1172056D2*
X1178056D1*
X1213056D2*
X1219056D1*
X1248056D2*
X1254056D1*
X1112056Y840249D2*
X1118056D1*
X1155056D2*
X1161056D1*
X1172056D2*
X1178056D1*
X1213056D2*
X1219056D1*
X1248056D2*
X1254056D1*
X1112056Y839249D2*
X1118056D1*
X1155056D2*
X1161056D1*
X1172056D2*
X1178056D1*
X1213056D2*
X1219056D1*
X1248056D2*
X1254056D1*
X1112056Y838249D2*
X1118056D1*
X1155056D2*
X1161053D1*
X1172060D2*
X1178056D1*
X1213056D2*
X1219053D1*
X1248056D2*
X1254056D1*
X1112060Y837249D2*
X1118056D1*
X1155056D2*
X1161017D1*
X1172095D2*
X1178056D1*
X1213056D2*
X1219017D1*
X1248056D2*
X1254056D1*
X1112095Y836249D2*
X1118056D1*
X1155053D2*
X1160890D1*
X1172223D2*
X1178056D1*
X1213053D2*
X1218890D1*
X1248056D2*
X1254056D1*
X1112223Y835249D2*
X1118056D1*
X1155017D2*
X1160650D1*
X1172462D2*
X1178060D1*
X1213017D2*
X1218650D1*
X1248056D2*
X1254056D1*
X1112462Y834249D2*
X1118060D1*
X1154890D2*
X1160394D1*
X1172719D2*
X1178095D1*
X1212890D2*
X1218394D1*
X1248056D2*
X1254056D1*
X1112719Y833249D2*
X1118095D1*
X1154650D2*
X1160220D1*
X1172893D2*
X1178223D1*
X1212650D2*
X1218220D1*
X1248056D2*
X1254056D1*
X1112893Y832249D2*
X1118223D1*
X1154394D2*
X1160123D1*
X1172986D2*
X1178462D1*
X1212394D2*
X1218127D1*
X1248056D2*
X1254056D1*
X1112990Y831249D2*
X1118462D1*
X1154216D2*
X1160045D1*
X1173032D2*
X1178719D1*
X1212216D2*
X1218081D1*
X1248056D2*
X1254056D1*
X1113067Y830249D2*
X1118723D1*
X1154088D2*
X1159900D1*
X1173085D2*
X1178897D1*
X1212088D2*
X1218028D1*
X1248056D2*
X1254056D1*
X1113212Y829249D2*
X1118932D1*
X1153914D2*
X1159654D1*
X1173219D2*
X1179025D1*
X1211914D2*
X1217894D1*
X1248056D2*
X1254056D1*
X1113459Y828249D2*
X1119156D1*
X1153622D2*
X1159391D1*
X1173461D2*
X1179199D1*
X1211622D2*
X1217648D1*
X1248056D2*
X1254056D1*
X1113721Y827249D2*
X1119477D1*
X1153227D2*
X1159181D1*
X1173722D2*
X1179491D1*
X1211227D2*
X1217355D1*
X1248056D2*
X1254056D1*
X1113932Y826249D2*
X1119918D1*
X1152772D2*
X1158957D1*
X1173932D2*
X1179885D1*
X1210772D2*
X1217053D1*
X1248056D2*
X1254056D1*
X1114156Y825249D2*
X1120505D1*
X1152255D2*
X1158639D1*
X1174152D2*
X1180341D1*
X1210255D2*
X1216717D1*
X1248056D2*
X1254056D1*
X1114473Y824249D2*
X1121266D1*
X1151628D2*
X1158234D1*
X1174438D2*
X1180857D1*
X1209632D2*
X1216383D1*
X1248056D2*
X1254056D1*
X1114879Y823249D2*
X1122193D1*
X1150809D2*
X1157778D1*
X1174747D2*
X1181492D1*
X1208852D2*
X1216060D1*
X1248056D2*
X1254056D1*
X1115338Y822249D2*
X1123385D1*
X1149678D2*
X1157295D1*
X1175060D2*
X1182382D1*
X1207888D2*
X1215682D1*
X1248056D2*
X1254056D1*
X1115857Y821249D2*
X1125103D1*
X1147990D2*
X1156799D1*
X1175434D2*
X1183767D1*
X1206606D2*
X1215214D1*
X1248056D2*
X1254056D1*
X1116480Y820249D2*
X1127561D1*
X1145544D2*
X1156266D1*
X1175900D2*
X1185924D1*
X1204821D2*
X1214615D1*
X1248056D2*
X1254056D1*
X1117253Y819249D2*
X1130666D1*
X1142444D2*
X1155632D1*
X1176498D2*
X1188821D1*
X1202550D2*
X1213853D1*
X1248056D2*
X1254056D1*
X1118143Y818249D2*
X1154818D1*
X1177264D2*
X1212967D1*
X1248056D2*
X1254056D1*
X1119140Y817249D2*
X1153761D1*
X1178189D2*
X1211980D1*
X1248056D2*
X1254056D1*
X1120362Y816249D2*
X1152367D1*
X1179341D2*
X1210835D1*
X1248056D2*
X1254056D1*
X1122065Y815249D2*
X1150571D1*
X1180877D2*
X1209440D1*
X1248056D2*
X1254056D1*
X1124386Y814249D2*
X1148408D1*
X1182850D2*
X1207804D1*
X1248056D2*
X1254056D1*
X1127056Y813249D2*
X1146056D1*
X1185056D2*
X1206056D1*
X1248056D2*
X1254056D1*
X1139575Y5386764D2*
X1136155Y5385764D1*
X1133035Y5384764D1*
X1130300Y5383764D1*
X1127933Y5382764D1*
X1125875Y5381764D1*
X1124073Y5380764D1*
X1122461Y5379764D1*
X1120994Y5378764D1*
X1119618Y5377764D1*
X1118256Y5376764D1*
X1116946Y5375764D1*
X1115750Y5374764D1*
X1114650Y5373764D1*
X1113604Y5372764D1*
X1112586Y5371764D1*
X1111583Y5370764D1*
X1110615Y5369764D1*
X1109742Y5368764D1*
X1108981Y5367764D1*
X1108241Y5366764D1*
X1107451Y5365764D1*
X1106675Y5364764D1*
X1105992Y5363764D1*
X1105393Y5362764D1*
X1104818Y5361764D1*
X1104205Y5360764D1*
X1103554Y5359764D1*
X1102943Y5358764D1*
X1102411Y5357764D1*
X1101976Y5356764D1*
X1101612Y5355764D1*
X1101250Y5354764D1*
X1100907Y5353764D1*
X1100584Y5352764D1*
X1100240Y5351764D1*
X1099903Y5350764D1*
X1099582Y5349764D1*
X1099243Y5348764D1*
X1098942Y5347764D1*
X1098749Y5346764D1*
X1098649Y5345764D1*
X1098600Y5344764D1*
X1098547Y5343764D1*
X1098412Y5342764D1*
X1098170Y5341764D1*
X1097913Y5340764D1*
X1097738Y5339764D1*
X1097645Y5338764D1*
X1097603Y5337764D1*
X1097585Y5336764D1*
X1097579Y5335764D1*
X1097580Y5334764D1*
X1097614Y5333764D1*
X1097741Y5332764D1*
X1097981Y5331764D1*
X1098237Y5330764D1*
X1098412Y5329764D1*
X1098504Y5328764D1*
X1098551Y5327764D1*
X1098603Y5326764D1*
X1098738Y5325764D1*
X1098980Y5324764D1*
X1099241Y5323764D1*
X1099451Y5322764D1*
X1099671Y5321764D1*
X1099957Y5320764D1*
X1100266Y5319764D1*
X1100578Y5318764D1*
X1100948Y5317764D1*
X1101379Y5316764D1*
X1101846Y5315764D1*
X1102333Y5314764D1*
X1102827Y5313764D1*
X1103326Y5312764D1*
X1103829Y5311764D1*
X1104360Y5310764D1*
X1104956Y5309764D1*
X1105604Y5308764D1*
X1106251Y5307764D1*
X1106941Y5306764D1*
X1107711Y5305764D1*
X1108483Y5304764D1*
X1109198Y5303764D1*
X1109923Y5302764D1*
X1110742Y5301764D1*
X1111647Y5300764D1*
X1112607Y5299764D1*
X1113625Y5298764D1*
X1114745Y5297764D1*
X1115986Y5296764D1*
X1117277Y5295764D1*
X1118582Y5294764D1*
X1119953Y5293764D1*
X1121419Y5292764D1*
X1123017Y5291764D1*
X1124782Y5290764D1*
X1126707Y5289764D1*
X1128864Y5288764D1*
X1131454Y5287764D1*
X1134664Y5286764D1*
X1138472Y5285764D1*
X1142575Y5284764D1*
X1159575Y5386764D2*
X1162878Y5385764D1*
X1165874Y5384764D1*
X1168559Y5383764D1*
X1170911Y5382764D1*
X1172907Y5381764D1*
X1174650Y5380764D1*
X1176253Y5379764D1*
X1177764Y5378764D1*
X1179185Y5377764D1*
X1180543Y5376764D1*
X1181897Y5375764D1*
X1183205Y5374764D1*
X1184400Y5373764D1*
X1185496Y5372764D1*
X1186506Y5371764D1*
X1187397Y5370764D1*
X1188165Y5369764D1*
X1188907Y5368764D1*
X1189698Y5367764D1*
X1190479Y5366764D1*
X1191193Y5365764D1*
X1191884Y5364764D1*
X1192575Y5363764D1*
X1193237Y5362764D1*
X1193902Y5361764D1*
X1194578Y5360764D1*
X1195204Y5359764D1*
X1195771Y5358764D1*
X1196300Y5357764D1*
X1196781Y5356764D1*
X1197191Y5355764D1*
X1197545Y5354764D1*
X1197902Y5353764D1*
X1198244Y5352764D1*
X1198566Y5351764D1*
X1198906Y5350764D1*
X1199212Y5349764D1*
X1199440Y5348764D1*
X1199667Y5347764D1*
X1199951Y5346764D1*
X1200226Y5345764D1*
X1200408Y5344764D1*
X1200503Y5343764D1*
X1200546Y5342764D1*
X1200564Y5341764D1*
X1200571Y5340764D1*
X1200573Y5339764D1*
X1200574Y5338764D1*
X1200575Y5337764D1*
Y5336764D1*
Y5335764D1*
Y5334764D1*
Y5333764D1*
Y5332764D1*
Y5331764D1*
Y5330764D1*
X1200571Y5329764D1*
X1200536Y5328764D1*
X1200408Y5327764D1*
X1200169Y5326764D1*
X1199912Y5325764D1*
X1199734Y5324764D1*
X1199606Y5323764D1*
X1199436Y5322764D1*
X1199175Y5321764D1*
X1198877Y5320764D1*
X1198569Y5319764D1*
X1198201Y5318764D1*
X1197770Y5317764D1*
X1197303Y5316764D1*
X1196816Y5315764D1*
X1196322Y5314764D1*
X1195823Y5313764D1*
X1195325Y5312764D1*
X1194824Y5311764D1*
X1194321Y5310764D1*
X1193785Y5309764D1*
X1193159Y5308764D1*
X1192418Y5307764D1*
X1191659Y5306764D1*
X1190949Y5305764D1*
X1190225Y5304764D1*
X1189407Y5303764D1*
X1188503Y5302764D1*
X1187546Y5301764D1*
X1186564Y5300764D1*
X1185571Y5299764D1*
X1184570Y5298764D1*
X1183535Y5297764D1*
X1182408Y5296764D1*
X1181165Y5295764D1*
X1179869Y5294764D1*
X1178529Y5293764D1*
X1177030Y5292764D1*
X1175325Y5291764D1*
X1173467Y5290764D1*
X1171487Y5289764D1*
X1169300Y5288764D1*
X1166661Y5287764D1*
X1163291Y5286764D1*
X1159140Y5285764D1*
X1154575Y5284764D1*
X1145575Y5373764D2*
X1141813Y5372764D1*
X1138396Y5371764D1*
X1135471Y5370764D1*
X1133010Y5369764D1*
X1130943Y5368764D1*
X1129247Y5367764D1*
X1127835Y5366764D1*
X1126531Y5365764D1*
X1125216Y5364764D1*
X1123933Y5363764D1*
X1122783Y5362764D1*
X1121814Y5361764D1*
X1121010Y5360764D1*
X1120252Y5359764D1*
X1119454Y5358764D1*
X1118676Y5357764D1*
X1117992Y5356764D1*
X1117397Y5355764D1*
X1116853Y5354764D1*
X1116336Y5353764D1*
X1115828Y5352764D1*
X1115327Y5351764D1*
X1114829Y5350764D1*
X1114364Y5349764D1*
X1113991Y5348764D1*
X1113731Y5347764D1*
X1113491Y5346764D1*
X1113201Y5345764D1*
X1112924Y5344764D1*
X1112742Y5343764D1*
X1112647Y5342764D1*
X1112599Y5341764D1*
X1112546Y5340764D1*
X1112412Y5339764D1*
X1112170Y5338764D1*
X1111917Y5337764D1*
X1111777Y5336764D1*
X1111812Y5335764D1*
X1112009Y5334764D1*
X1112248Y5333764D1*
X1112415Y5332764D1*
X1112506Y5331764D1*
X1112551Y5330764D1*
X1112604Y5329764D1*
X1112738Y5328764D1*
X1112980Y5327764D1*
X1113241Y5326764D1*
X1113451Y5325764D1*
X1113675Y5324764D1*
X1113992Y5323764D1*
X1114393Y5322764D1*
X1114818Y5321764D1*
X1115208Y5320764D1*
X1115589Y5319764D1*
X1116070Y5318764D1*
X1116654Y5317764D1*
X1117268Y5316764D1*
X1117913Y5315764D1*
X1118586Y5314764D1*
X1119244Y5313764D1*
X1119942Y5312764D1*
X1120749Y5311764D1*
X1121649Y5310764D1*
X1122608Y5309764D1*
X1123625Y5308764D1*
X1124745Y5307764D1*
X1125986Y5306764D1*
X1127281Y5305764D1*
X1128621Y5304764D1*
X1130128Y5303764D1*
X1131914Y5302764D1*
X1134172Y5301764D1*
X1137391Y5300764D1*
X1142327Y5299764D1*
X1149350Y5298764D1*
X1157575Y5297764D1*
X1153575Y5373764D2*
X1157336Y5372764D1*
X1160750Y5371764D1*
X1163644Y5370764D1*
X1166012Y5369764D1*
X1167967Y5368764D1*
X1169643Y5367764D1*
X1171101Y5366764D1*
X1172360Y5365764D1*
X1173486Y5364764D1*
X1174540Y5363764D1*
X1175562Y5362764D1*
X1176570Y5361764D1*
X1177569Y5360764D1*
X1178535Y5359764D1*
X1179404Y5358764D1*
X1180130Y5357764D1*
X1180742Y5356764D1*
X1181293Y5355764D1*
X1181812Y5354764D1*
X1182321Y5353764D1*
X1182823Y5352764D1*
X1183321Y5351764D1*
X1183789Y5350764D1*
X1184194Y5349764D1*
X1184546Y5348764D1*
X1184898Y5347764D1*
X1185209Y5346764D1*
X1185439Y5345764D1*
X1185667Y5344764D1*
X1185951Y5343764D1*
X1186226Y5342764D1*
X1186408Y5341764D1*
X1186503Y5340764D1*
X1186546Y5339764D1*
X1186564Y5338764D1*
X1186571Y5337764D1*
X1186573Y5336764D1*
X1186574Y5335764D1*
X1186575Y5334764D1*
Y5333764D1*
X1186571Y5332764D1*
X1186536Y5331764D1*
X1186408Y5330764D1*
X1186169Y5329764D1*
X1185912Y5328764D1*
X1185734Y5327764D1*
X1185606Y5326764D1*
X1185432Y5325764D1*
X1185140Y5324764D1*
X1184750Y5323764D1*
X1184329Y5322764D1*
X1183944Y5321764D1*
X1183596Y5320764D1*
X1183207Y5319764D1*
X1182739Y5318764D1*
X1182173Y5317764D1*
X1181538Y5316764D1*
X1180896Y5315764D1*
X1180208Y5314764D1*
X1179438Y5313764D1*
X1178667Y5312764D1*
X1177951Y5311764D1*
X1177222Y5310764D1*
X1176369Y5309764D1*
X1175336Y5308764D1*
X1174136Y5307764D1*
X1172859Y5306764D1*
X1171525Y5305764D1*
X1170028Y5304764D1*
X1168321Y5303764D1*
X1166416Y5302764D1*
X1164165Y5301764D1*
X1160981Y5300764D1*
X1155885Y5299764D1*
X1148407Y5298764D1*
X1139575Y5297764D1*
X1322575Y5350764D2*
X1317463Y5349764D1*
X1313446Y5348764D1*
X1310420Y5347764D1*
X1308067Y5346764D1*
X1306144Y5345764D1*
X1304490Y5344764D1*
X1303042Y5343764D1*
X1301787Y5342764D1*
X1300663Y5341764D1*
X1299609Y5340764D1*
X1298591Y5339764D1*
X1297618Y5338764D1*
X1296747Y5337764D1*
X1296020Y5336764D1*
X1295404Y5335764D1*
X1294822Y5334764D1*
X1294210Y5333764D1*
X1293589Y5332764D1*
X1293070Y5331764D1*
X1292654Y5330764D1*
X1292268Y5329764D1*
X1291913Y5328764D1*
X1291586Y5327764D1*
X1291244Y5326764D1*
X1290942Y5325764D1*
X1290749Y5324764D1*
X1290649Y5323764D1*
X1290600Y5322764D1*
X1290547Y5321764D1*
X1290412Y5320764D1*
X1290170Y5319764D1*
X1289917Y5318764D1*
X1289777Y5317764D1*
X1289812Y5316764D1*
X1290009Y5315764D1*
X1290248Y5314764D1*
X1290415Y5313764D1*
X1290506Y5312764D1*
X1290551Y5311764D1*
X1290604Y5310764D1*
X1290738Y5309764D1*
X1290983Y5308764D1*
X1291276Y5307764D1*
X1291582Y5306764D1*
X1291949Y5305764D1*
X1292380Y5304764D1*
X1292846Y5303764D1*
X1293333Y5302764D1*
X1293831Y5301764D1*
X1294361Y5300764D1*
X1294956Y5299764D1*
X1295604Y5298764D1*
X1296251Y5297764D1*
X1296945Y5296764D1*
X1297754Y5295764D1*
X1298689Y5294764D1*
X1299771Y5293764D1*
X1300996Y5292764D1*
X1302284Y5291764D1*
X1303622Y5290764D1*
X1305124Y5289764D1*
X1306876Y5288764D1*
X1308972Y5287764D1*
X1311620Y5286764D1*
X1314917Y5285764D1*
X1318575Y5284764D1*
X1325575Y5350764D2*
X1330255Y5349764D1*
X1334039Y5348764D1*
X1336862Y5347764D1*
X1339040Y5346764D1*
X1339963Y5345764D1*
X1340290Y5344764D1*
X1340459Y5343764D1*
X1340531Y5342764D1*
X1340559Y5341764D1*
X1340569Y5340764D1*
X1340573Y5339764D1*
X1340574Y5338764D1*
X1340575Y5337764D1*
Y5336764D1*
Y5335764D1*
Y5334764D1*
Y5333764D1*
Y5332764D1*
Y5331764D1*
Y5330764D1*
Y5329764D1*
X1027575Y5348764D2*
Y5347764D1*
Y5346764D1*
Y5345764D1*
Y5344764D1*
Y5343764D1*
Y5342764D1*
Y5341764D1*
Y5340764D1*
Y5339764D1*
Y5338764D1*
Y5337764D1*
Y5336764D1*
Y5335764D1*
Y5334764D1*
Y5333764D1*
Y5332764D1*
Y5331764D1*
Y5330764D1*
Y5329764D1*
Y5328764D1*
Y5327764D1*
Y5326764D1*
Y5325764D1*
Y5324764D1*
Y5323764D1*
Y5322764D1*
Y5321764D1*
Y5320764D1*
Y5319764D1*
Y5318764D1*
Y5317764D1*
Y5316764D1*
Y5315764D1*
Y5314764D1*
Y5313764D1*
Y5312764D1*
Y5311764D1*
Y5310764D1*
Y5309764D1*
Y5308764D1*
Y5307764D1*
Y5306764D1*
Y5305764D1*
Y5304764D1*
Y5303764D1*
Y5302764D1*
Y5301764D1*
Y5300764D1*
Y5299764D1*
Y5298764D1*
Y5297764D1*
Y5296764D1*
Y5295764D1*
Y5294764D1*
Y5293764D1*
Y5292764D1*
Y5291764D1*
Y5290764D1*
Y5289764D1*
Y5288764D1*
Y5287764D1*
Y5286764D1*
Y5285764D1*
Y5284764D1*
Y5283764D1*
Y5282764D1*
Y5281764D1*
Y5280764D1*
Y5279764D1*
Y5278764D1*
Y5277764D1*
Y5276764D1*
Y5275764D1*
Y5274764D1*
Y5273764D1*
Y5272764D1*
Y5271764D1*
Y5270764D1*
Y5269764D1*
Y5268764D1*
Y5267764D1*
Y5266764D1*
Y5265764D1*
Y5264764D1*
Y5263764D1*
Y5262764D1*
Y5261764D1*
Y5260764D1*
Y5259764D1*
Y5258764D1*
Y5257764D1*
Y5256764D1*
Y5255764D1*
Y5254764D1*
Y5253764D1*
Y5252764D1*
X1041575Y5348764D2*
Y5347764D1*
Y5346764D1*
Y5345764D1*
Y5344764D1*
Y5343764D1*
Y5342764D1*
Y5341764D1*
Y5340764D1*
Y5339764D1*
Y5338764D1*
Y5337764D1*
Y5336764D1*
Y5335764D1*
Y5334764D1*
Y5333764D1*
Y5332764D1*
Y5331764D1*
Y5330764D1*
Y5329764D1*
Y5328764D1*
Y5327764D1*
Y5326764D1*
Y5325764D1*
Y5324764D1*
Y5323764D1*
Y5322764D1*
Y5321764D1*
Y5320764D1*
Y5319764D1*
Y5318764D1*
Y5317764D1*
Y5316764D1*
Y5315764D1*
Y5314764D1*
Y5313764D1*
Y5312764D1*
Y5311764D1*
X1041579Y5310764D1*
X1041614Y5309764D1*
X1041741Y5308764D1*
X1041985Y5307764D1*
X1042276Y5306764D1*
X1042582Y5305764D1*
X1042949Y5304764D1*
X1043383Y5303764D1*
X1043889Y5302764D1*
X1044547Y5301764D1*
X1045517Y5300764D1*
X1047146Y5299764D1*
X1050094Y5298764D1*
X1054812Y5297764D1*
X1060575Y5296764D1*
X1067575Y5348764D2*
Y5347764D1*
Y5346764D1*
Y5345764D1*
Y5344764D1*
Y5343764D1*
Y5342764D1*
Y5341764D1*
Y5340764D1*
Y5339764D1*
Y5338764D1*
Y5337764D1*
Y5336764D1*
Y5335764D1*
Y5334764D1*
Y5333764D1*
Y5332764D1*
Y5331764D1*
Y5330764D1*
Y5329764D1*
Y5328764D1*
Y5327764D1*
Y5326764D1*
Y5325764D1*
Y5324764D1*
Y5323764D1*
Y5322764D1*
Y5321764D1*
Y5320764D1*
Y5319764D1*
Y5318764D1*
Y5317764D1*
Y5316764D1*
Y5315764D1*
X1067571Y5314764D1*
X1067536Y5313764D1*
X1067408Y5312764D1*
X1067169Y5311764D1*
X1066912Y5310764D1*
X1066738Y5309764D1*
X1066641Y5308764D1*
X1066564Y5307764D1*
X1066415Y5306764D1*
X1066133Y5305764D1*
X1065743Y5304764D1*
X1065289Y5303764D1*
X1064770Y5302764D1*
X1064108Y5301764D1*
X1063141Y5300764D1*
X1061583Y5299764D1*
X1058890Y5298764D1*
X1054689Y5297764D1*
X1049575Y5296764D1*
X1080575Y5348764D2*
Y5347764D1*
Y5346764D1*
Y5345764D1*
Y5344764D1*
Y5343764D1*
Y5342764D1*
Y5341764D1*
Y5340764D1*
Y5339764D1*
Y5338764D1*
Y5337764D1*
Y5336764D1*
Y5335764D1*
Y5334764D1*
Y5333764D1*
Y5332764D1*
Y5331764D1*
Y5330764D1*
Y5329764D1*
Y5328764D1*
Y5327764D1*
Y5326764D1*
Y5325764D1*
Y5324764D1*
Y5323764D1*
Y5322764D1*
Y5321764D1*
Y5320764D1*
Y5319764D1*
Y5318764D1*
Y5317764D1*
Y5316764D1*
Y5315764D1*
Y5314764D1*
Y5313764D1*
Y5312764D1*
Y5311764D1*
Y5310764D1*
Y5309764D1*
Y5308764D1*
X1080571Y5307764D1*
X1080536Y5306764D1*
X1080408Y5305764D1*
X1080169Y5304764D1*
X1079908Y5303764D1*
X1079699Y5302764D1*
X1079475Y5301764D1*
X1079158Y5300764D1*
X1078752Y5299764D1*
X1078297Y5298764D1*
X1077814Y5297764D1*
X1077317Y5296764D1*
X1076784Y5295764D1*
X1076154Y5294764D1*
X1075379Y5293764D1*
X1074488Y5292764D1*
X1073503Y5291764D1*
X1072392Y5290764D1*
X1071118Y5289764D1*
X1069655Y5288764D1*
X1067871Y5287764D1*
X1065560Y5286764D1*
X1062705Y5285764D1*
X1059575Y5284764D1*
X1318575Y5337764D2*
X1316617Y5336764D1*
X1314784Y5335764D1*
X1313190Y5334764D1*
X1311853Y5333764D1*
X1310689Y5332764D1*
X1309623Y5331764D1*
X1308630Y5330764D1*
X1307751Y5329764D1*
X1307026Y5328764D1*
X1306443Y5327764D1*
X1305988Y5326764D1*
X1305616Y5325764D1*
X1305255Y5324764D1*
X1304946Y5323764D1*
X1304747Y5322764D1*
X1304611Y5321764D1*
X1304438Y5320764D1*
X1304180Y5319764D1*
X1303920Y5318764D1*
X1303778Y5317764D1*
X1303812Y5316764D1*
X1304009Y5315764D1*
X1304248Y5314764D1*
X1304419Y5313764D1*
X1304545Y5312764D1*
X1304718Y5311764D1*
X1305010Y5310764D1*
X1305404Y5309764D1*
X1305855Y5308764D1*
X1306337Y5307764D1*
X1306832Y5306764D1*
X1307366Y5305764D1*
X1307995Y5304764D1*
X1308774Y5303764D1*
X1309700Y5302764D1*
X1310820Y5301764D1*
X1312276Y5300764D1*
X1314402Y5299764D1*
X1317875Y5298764D1*
X1323175Y5297764D1*
X1329575Y5296764D1*
X1326575Y5337764D2*
X1329336Y5336764D1*
X1331754Y5335764D1*
X1333683Y5334764D1*
X1335183Y5333764D1*
X1336416Y5332764D1*
X1337515Y5331764D1*
X1338554Y5330764D1*
X1339575Y5329764D1*
Y5305764D2*
X1338575Y5304764D1*
X1337571Y5303764D1*
X1336532Y5302764D1*
X1335361Y5301764D1*
X1333885Y5300764D1*
X1331752Y5299764D1*
X1328276Y5298764D1*
X1322975Y5297764D1*
X1316575Y5296764D1*
X1340575Y5305764D2*
Y5304764D1*
Y5303764D1*
Y5302764D1*
Y5301764D1*
Y5300764D1*
Y5299764D1*
Y5298764D1*
Y5297764D1*
Y5296764D1*
Y5295764D1*
Y5294764D1*
Y5293764D1*
Y5292764D1*
X1340567Y5291764D1*
X1340485Y5290764D1*
X1340286Y5289764D1*
X1339395Y5288764D1*
X1337428Y5287764D1*
X1334889Y5286764D1*
X1331852Y5285764D1*
X1328575Y5284764D1*
X1040575Y5287764D2*
Y5286764D1*
Y5285764D1*
Y5284764D1*
Y5283764D1*
Y5282764D1*
Y5281764D1*
Y5280764D1*
Y5279764D1*
Y5278764D1*
Y5277764D1*
X1040579Y5276764D1*
X1040614Y5275764D1*
X1040741Y5274764D1*
X1040981Y5273764D1*
X1041237Y5272764D1*
X1041412Y5271764D1*
X1041504Y5270764D1*
X1041547Y5269764D1*
X1041564Y5268764D1*
X1041571Y5267764D1*
X1041574Y5266764D1*
Y5265764D1*
X1041575Y5264764D1*
Y5263764D1*
Y5262764D1*
Y5261764D1*
Y5260764D1*
Y5259764D1*
Y5258764D1*
Y5257764D1*
Y5256764D1*
Y5255764D1*
Y5254764D1*
Y5253764D1*
Y5252764D1*
X1040575Y5287764D2*
X1043759Y5286764D1*
X1047110Y5285764D1*
X1050575Y5284764D1*
X1208575Y5277764D2*
Y5276764D1*
Y5275764D1*
Y5274764D1*
Y5273764D1*
Y5272764D1*
Y5271764D1*
Y5270764D1*
Y5269764D1*
Y5268764D1*
Y5267764D1*
Y5266764D1*
Y5265764D1*
Y5264764D1*
X1282575Y5277764D2*
Y5276764D1*
Y5275764D1*
Y5274764D1*
Y5273764D1*
Y5272764D1*
Y5271764D1*
Y5270764D1*
Y5269764D1*
Y5268764D1*
Y5267764D1*
Y5266764D1*
Y5265764D1*
Y5264764D1*
X1146807Y1385751D2*
X1144542Y1384751D1*
X1142670Y1383751D1*
X1141190Y1382751D1*
X1139963Y1381751D1*
X1138870Y1380751D1*
X1137868Y1379751D1*
X1136985Y1378751D1*
X1136255Y1377751D1*
X1135641Y1376751D1*
X1135093Y1375751D1*
X1134605Y1374751D1*
X1134192Y1373751D1*
X1133838Y1372751D1*
X1133484Y1371751D1*
X1133173Y1370751D1*
X1132943Y1369751D1*
X1132715Y1368751D1*
X1132431Y1367751D1*
X1132156Y1366751D1*
X1131974Y1365751D1*
X1131875Y1364751D1*
X1131797Y1363751D1*
X1131651Y1362751D1*
X1131405Y1361751D1*
X1131146Y1360751D1*
X1130971Y1359751D1*
X1130878Y1358751D1*
X1130835Y1357751D1*
X1130818Y1356751D1*
X1130811Y1355751D1*
X1130808Y1354751D1*
Y1353751D1*
X1130807Y1352751D1*
Y1351751D1*
Y1350751D1*
Y1349751D1*
Y1348751D1*
Y1347751D1*
Y1346751D1*
Y1345751D1*
Y1344751D1*
Y1343751D1*
Y1342751D1*
Y1341751D1*
X1130811Y1340751D1*
X1130846Y1339751D1*
X1130974Y1338751D1*
X1131213Y1337751D1*
X1131469Y1336751D1*
X1131644Y1335751D1*
X1131741Y1334751D1*
X1131818Y1333751D1*
X1131963Y1332751D1*
X1132213Y1331751D1*
X1132507Y1330751D1*
X1132810Y1329751D1*
X1133146Y1328751D1*
X1133480Y1327751D1*
X1133804Y1326751D1*
X1134178Y1325751D1*
X1134611Y1324751D1*
X1135078Y1323751D1*
X1135566Y1322751D1*
X1136063Y1321751D1*
X1136598Y1320751D1*
X1137227Y1319751D1*
X1138003Y1318751D1*
X1138893Y1317751D1*
X1139878Y1316751D1*
X1140993Y1315751D1*
X1142311Y1314751D1*
X1143973Y1313751D1*
X1146262Y1312751D1*
X1149322Y1311751D1*
X1152807Y1310751D1*
X1169807Y1385751D2*
X1174064Y1384751D1*
X1177459Y1383751D1*
X1178886Y1382751D1*
X1179382Y1381751D1*
X1179635Y1380751D1*
X1179746Y1379751D1*
X1179807Y1378751D1*
X1188807Y1385751D2*
X1189153Y1384751D1*
X1189486Y1383751D1*
X1189803Y1382751D1*
X1190144Y1381751D1*
X1190480Y1380751D1*
X1190800Y1379751D1*
X1191143Y1378751D1*
X1191479Y1377751D1*
X1191799Y1376751D1*
X1192143Y1375751D1*
X1192479Y1374751D1*
X1192803Y1373751D1*
X1193178Y1372751D1*
X1193607Y1371751D1*
X1194043Y1370751D1*
X1194434Y1369751D1*
X1194781Y1368751D1*
X1195136Y1367751D1*
X1195477Y1366751D1*
X1195799Y1365751D1*
X1196142Y1364751D1*
X1196479Y1363751D1*
X1196799Y1362751D1*
X1197143Y1361751D1*
X1197479Y1360751D1*
X1197799Y1359751D1*
X1198143Y1358751D1*
X1198479Y1357751D1*
X1198799Y1356751D1*
X1199143Y1355751D1*
X1199479Y1354751D1*
X1199803Y1353751D1*
X1200178Y1352751D1*
X1200607Y1351751D1*
X1201043Y1350751D1*
X1201434Y1349751D1*
X1201781Y1348751D1*
X1202136Y1347751D1*
X1202477Y1346751D1*
X1202799Y1345751D1*
X1203142Y1344751D1*
X1203479Y1343751D1*
X1203799Y1342751D1*
X1204143Y1341751D1*
X1204479Y1340751D1*
X1204799Y1339751D1*
X1205143Y1338751D1*
X1205479Y1337751D1*
X1205803Y1336751D1*
X1206178Y1335751D1*
X1206607Y1334751D1*
X1207043Y1333751D1*
X1207434Y1332751D1*
X1207781Y1331751D1*
X1208136Y1330751D1*
X1208477Y1329751D1*
X1208799Y1328751D1*
X1209142Y1327751D1*
X1209479Y1326751D1*
X1209799Y1325751D1*
X1210143Y1324751D1*
X1210479Y1323751D1*
X1210799Y1322751D1*
X1211143Y1321751D1*
X1211479Y1320751D1*
X1211799Y1319751D1*
X1212143Y1318751D1*
X1212479Y1317751D1*
X1212803Y1316751D1*
X1213178Y1315751D1*
X1213607Y1314751D1*
X1214049Y1313751D1*
X1214452Y1312751D1*
X1214807Y1311751D1*
X1195807Y1385751D2*
X1196307Y1384751D1*
X1196722Y1383751D1*
X1197111Y1382751D1*
X1197467Y1381751D1*
X1197795Y1380751D1*
X1198141Y1379751D1*
X1198479Y1378751D1*
X1198803Y1377751D1*
X1199178Y1376751D1*
X1199607Y1375751D1*
X1200043Y1374751D1*
X1200434Y1373751D1*
X1200781Y1372751D1*
X1201136Y1371751D1*
X1201477Y1370751D1*
X1201799Y1369751D1*
X1202142Y1368751D1*
X1202479Y1367751D1*
X1202799Y1366751D1*
X1203143Y1365751D1*
X1203479Y1364751D1*
X1203799Y1363751D1*
X1204143Y1362751D1*
X1204479Y1361751D1*
X1204799Y1360751D1*
X1205143Y1359751D1*
X1205479Y1358751D1*
X1205799Y1357751D1*
X1206143Y1356751D1*
X1206479Y1355751D1*
X1206803Y1354751D1*
X1207178Y1353751D1*
X1207607Y1352751D1*
X1208043Y1351751D1*
X1208434Y1350751D1*
X1208781Y1349751D1*
X1209136Y1348751D1*
X1209477Y1347751D1*
X1209799Y1346751D1*
X1210142Y1345751D1*
X1210479Y1344751D1*
X1210799Y1343751D1*
X1211143Y1342751D1*
X1211479Y1341751D1*
X1211799Y1340751D1*
X1212143Y1339751D1*
X1212479Y1338751D1*
X1212799Y1337751D1*
X1213143Y1336751D1*
X1213479Y1335751D1*
X1213803Y1334751D1*
X1214178Y1333751D1*
X1214607Y1332751D1*
X1215043Y1331751D1*
X1215434Y1330751D1*
X1215781Y1329751D1*
X1216139Y1328751D1*
X1216522Y1327751D1*
X1217026Y1326751D1*
X1217815Y1325751D1*
X1218807Y1324751D1*
X1241807Y1385751D2*
X1241307Y1384751D1*
X1240892Y1383751D1*
X1240503Y1382751D1*
X1240147Y1381751D1*
X1239815Y1380751D1*
X1239438Y1379751D1*
X1239008Y1378751D1*
X1238571Y1377751D1*
X1238180Y1376751D1*
X1237833Y1375751D1*
X1237479Y1374751D1*
X1237138Y1373751D1*
X1236816Y1372751D1*
X1236472Y1371751D1*
X1236135Y1370751D1*
X1235811Y1369751D1*
X1235436Y1368751D1*
X1235008Y1367751D1*
X1234571Y1366751D1*
X1234180Y1365751D1*
X1233833Y1364751D1*
X1233479Y1363751D1*
X1233138Y1362751D1*
X1232816Y1361751D1*
X1232472Y1360751D1*
X1232135Y1359751D1*
X1231811Y1358751D1*
X1231436Y1357751D1*
X1231008Y1356751D1*
X1230571Y1355751D1*
X1230180Y1354751D1*
X1229833Y1353751D1*
X1229479Y1352751D1*
X1229138Y1351751D1*
X1228812Y1350751D1*
X1228437Y1349751D1*
X1228008Y1348751D1*
X1227571Y1347751D1*
X1227180Y1346751D1*
X1226833Y1345751D1*
X1226479Y1344751D1*
X1226138Y1343751D1*
X1225816Y1342751D1*
X1225472Y1341751D1*
X1225135Y1340751D1*
X1224811Y1339751D1*
X1224436Y1338751D1*
X1224008Y1337751D1*
X1223571Y1336751D1*
X1223180Y1335751D1*
X1222833Y1334751D1*
X1222479Y1333751D1*
X1222138Y1332751D1*
X1221816Y1331751D1*
X1221472Y1330751D1*
X1221135Y1329751D1*
X1220807Y1328751D1*
X1220391Y1327751D1*
X1219778Y1326751D1*
X1218886Y1325751D1*
X1217807Y1324751D1*
X1248807Y1385751D2*
X1248461Y1384751D1*
X1248129Y1383751D1*
X1247812Y1382751D1*
X1247470Y1381751D1*
X1247134Y1380751D1*
X1246811Y1379751D1*
X1246436Y1378751D1*
X1246008Y1377751D1*
X1245571Y1376751D1*
X1245180Y1375751D1*
X1244833Y1374751D1*
X1244479Y1373751D1*
X1244138Y1372751D1*
X1243816Y1371751D1*
X1243472Y1370751D1*
X1243135Y1369751D1*
X1242811Y1368751D1*
X1242436Y1367751D1*
X1242008Y1366751D1*
X1241571Y1365751D1*
X1241180Y1364751D1*
X1240833Y1363751D1*
X1240479Y1362751D1*
X1240138Y1361751D1*
X1239812Y1360751D1*
X1239437Y1359751D1*
X1239008Y1358751D1*
X1238571Y1357751D1*
X1238180Y1356751D1*
X1237833Y1355751D1*
X1237479Y1354751D1*
X1237138Y1353751D1*
X1236816Y1352751D1*
X1236472Y1351751D1*
X1236135Y1350751D1*
X1235811Y1349751D1*
X1235436Y1348751D1*
X1235008Y1347751D1*
X1234571Y1346751D1*
X1234180Y1345751D1*
X1233833Y1344751D1*
X1233479Y1343751D1*
X1233138Y1342751D1*
X1232816Y1341751D1*
X1232472Y1340751D1*
X1232135Y1339751D1*
X1231811Y1338751D1*
X1231436Y1337751D1*
X1231008Y1336751D1*
X1230571Y1335751D1*
X1230180Y1334751D1*
X1229833Y1333751D1*
X1229479Y1332751D1*
X1229138Y1331751D1*
X1228812Y1330751D1*
X1228437Y1329751D1*
X1228008Y1328751D1*
X1227571Y1327751D1*
X1227180Y1326751D1*
X1226833Y1325751D1*
X1226479Y1324751D1*
X1226138Y1323751D1*
X1225816Y1322751D1*
X1225472Y1321751D1*
X1225135Y1320751D1*
X1224811Y1319751D1*
X1224436Y1318751D1*
X1224008Y1317751D1*
X1223571Y1316751D1*
X1223180Y1315751D1*
X1222832Y1314751D1*
X1222473Y1313751D1*
X1222124Y1312751D1*
X1221807Y1311751D1*
X1152807Y1379751D2*
X1150046Y1378751D1*
X1147628Y1377751D1*
X1145699Y1376751D1*
X1144203Y1375751D1*
X1143005Y1374751D1*
X1142038Y1373751D1*
X1141278Y1372751D1*
X1140683Y1371751D1*
X1140223Y1370751D1*
X1139849Y1369751D1*
X1139488Y1368751D1*
X1139178Y1367751D1*
X1138979Y1366751D1*
X1138843Y1365751D1*
X1138670Y1364751D1*
X1138412Y1363751D1*
X1138149Y1362751D1*
X1137972Y1361751D1*
X1137878Y1360751D1*
X1137835Y1359751D1*
X1137818Y1358751D1*
X1137811Y1357751D1*
X1137808Y1356751D1*
Y1355751D1*
X1137807Y1354751D1*
Y1353751D1*
Y1352751D1*
Y1351751D1*
Y1350751D1*
Y1349751D1*
Y1348751D1*
Y1347751D1*
Y1346751D1*
Y1345751D1*
Y1344751D1*
Y1343751D1*
Y1342751D1*
Y1341751D1*
Y1340751D1*
X1137811Y1339751D1*
X1137846Y1338751D1*
X1137974Y1337751D1*
X1138213Y1336751D1*
X1138469Y1335751D1*
X1138648Y1334751D1*
X1138776Y1333751D1*
X1138946Y1332751D1*
X1139206Y1331751D1*
X1139505Y1330751D1*
X1139813Y1329751D1*
X1140185Y1328751D1*
X1140647Y1327751D1*
X1141210Y1326751D1*
X1141844Y1325751D1*
X1142486Y1324751D1*
X1143182Y1323751D1*
X1144029Y1322751D1*
X1145134Y1321751D1*
X1146661Y1320751D1*
X1148707Y1319751D1*
X1151168Y1318751D1*
X1153807Y1317751D1*
X1168807Y1379751D2*
X1169807Y1378751D1*
X1174807Y1318751D2*
Y1317751D1*
X1179807Y1318751D2*
Y1317751D1*
X1179803Y1316751D1*
X1179745Y1315751D1*
X1179592Y1314751D1*
X1178623Y1313751D1*
X1175966Y1312751D1*
X1172807Y1311751D1*
X1161807D2*
X1160807Y1310751D1*
X1130056Y877249D2*
X1126714Y876249D1*
X1124019Y875249D1*
X1121989Y874249D1*
X1120462Y873249D1*
X1119256Y872249D1*
X1118287Y871249D1*
X1117523Y870249D1*
X1116897Y869249D1*
X1116341Y868249D1*
X1115820Y867249D1*
X1115314Y866249D1*
X1114844Y865249D1*
X1114438Y864249D1*
X1114086Y863249D1*
X1113733Y862249D1*
X1113426Y861249D1*
X1113232Y860249D1*
X1113127Y859249D1*
X1113047Y858249D1*
X1112901Y857249D1*
X1112654Y856249D1*
X1112395Y855249D1*
X1112220Y854249D1*
X1112127Y853249D1*
X1112085Y852249D1*
X1112067Y851249D1*
X1112060Y850249D1*
X1112058Y849249D1*
X1112057Y848249D1*
Y847249D1*
X1112056Y846249D1*
Y845249D1*
Y844249D1*
Y843249D1*
Y842249D1*
Y841249D1*
Y840249D1*
Y839249D1*
Y838249D1*
X1112060Y837249D1*
X1112095Y836249D1*
X1112223Y835249D1*
X1112462Y834249D1*
X1112719Y833249D1*
X1112893Y832249D1*
X1112990Y831249D1*
X1113067Y830249D1*
X1113212Y829249D1*
X1113459Y828249D1*
X1113721Y827249D1*
X1113932Y826249D1*
X1114156Y825249D1*
X1114473Y824249D1*
X1114879Y823249D1*
X1115338Y822249D1*
X1115857Y821249D1*
X1116480Y820249D1*
X1117253Y819249D1*
X1118143Y818249D1*
X1119140Y817249D1*
X1120362Y816249D1*
X1122065Y815249D1*
X1124386Y814249D1*
X1127056Y813249D1*
X1143056Y877249D2*
X1146399Y876249D1*
X1149094Y875249D1*
X1151123Y874249D1*
X1152654Y873249D1*
X1153892Y872249D1*
X1154957Y871249D1*
X1155864Y870249D1*
X1156600Y869249D1*
X1157186Y868249D1*
X1157642Y867249D1*
X1158015Y866249D1*
X1158376Y865249D1*
X1158689Y864249D1*
X1158920Y863249D1*
X1159148Y862249D1*
X1159433Y861249D1*
X1159708Y860249D1*
X1159889Y859249D1*
X1159989Y858249D1*
X1160067Y857249D1*
X1160212Y856249D1*
X1160459Y855249D1*
X1160718Y854249D1*
X1160893Y853249D1*
X1160986Y852249D1*
X1161028Y851249D1*
X1161046Y850249D1*
X1161053Y849249D1*
X1161055Y848249D1*
X1161056Y847249D1*
Y846249D1*
Y845249D1*
Y844249D1*
Y843249D1*
Y842249D1*
Y841249D1*
Y840249D1*
Y839249D1*
X1161053Y838249D1*
X1161017Y837249D1*
X1160890Y836249D1*
X1160650Y835249D1*
X1160394Y834249D1*
X1160220Y833249D1*
X1160123Y832249D1*
X1160045Y831249D1*
X1159900Y830249D1*
X1159654Y829249D1*
X1159391Y828249D1*
X1159181Y827249D1*
X1158957Y826249D1*
X1158639Y825249D1*
X1158234Y824249D1*
X1157778Y823249D1*
X1157295Y822249D1*
X1156799Y821249D1*
X1156266Y820249D1*
X1155632Y819249D1*
X1154818Y818249D1*
X1153761Y817249D1*
X1152367Y816249D1*
X1150571Y815249D1*
X1148408Y814249D1*
X1146056Y813249D1*
X1172056Y876249D2*
Y875249D1*
Y874249D1*
Y873249D1*
Y872249D1*
Y871249D1*
Y870249D1*
Y869249D1*
Y868249D1*
Y867249D1*
Y866249D1*
Y865249D1*
Y864249D1*
Y863249D1*
Y862249D1*
Y861249D1*
Y860249D1*
Y859249D1*
Y858249D1*
Y857249D1*
Y856249D1*
Y855249D1*
Y854249D1*
Y853249D1*
Y852249D1*
Y851249D1*
Y850249D1*
Y849249D1*
Y848249D1*
Y847249D1*
Y846249D1*
Y845249D1*
Y844249D1*
Y843249D1*
Y842249D1*
Y841249D1*
Y840249D1*
Y839249D1*
X1172060Y838249D1*
X1172095Y837249D1*
X1172223Y836249D1*
X1172462Y835249D1*
X1172719Y834249D1*
X1172893Y833249D1*
X1172986Y832249D1*
X1173032Y831249D1*
X1173085Y830249D1*
X1173219Y829249D1*
X1173461Y828249D1*
X1173722Y827249D1*
X1173932Y826249D1*
X1174152Y825249D1*
X1174438Y824249D1*
X1174747Y823249D1*
X1175060Y822249D1*
X1175434Y821249D1*
X1175900Y820249D1*
X1176498Y819249D1*
X1177264Y818249D1*
X1178189Y817249D1*
X1179341Y816249D1*
X1180877Y815249D1*
X1182850Y814249D1*
X1185056Y813249D1*
X1178056Y876249D2*
Y875249D1*
Y874249D1*
Y873249D1*
Y872249D1*
Y871249D1*
Y870249D1*
Y869249D1*
Y868249D1*
Y867249D1*
Y866249D1*
Y865249D1*
Y864249D1*
Y863249D1*
Y862249D1*
Y861249D1*
Y860249D1*
Y859249D1*
Y858249D1*
Y857249D1*
Y856249D1*
Y855249D1*
Y854249D1*
Y853249D1*
Y852249D1*
Y851249D1*
Y850249D1*
Y849249D1*
Y848249D1*
Y847249D1*
Y846249D1*
Y845249D1*
Y844249D1*
Y843249D1*
Y842249D1*
Y841249D1*
Y840249D1*
Y839249D1*
Y838249D1*
Y837249D1*
Y836249D1*
X1178060Y835249D1*
X1178095Y834249D1*
X1178223Y833249D1*
X1178462Y832249D1*
X1178719Y831249D1*
X1178897Y830249D1*
X1179025Y829249D1*
X1179199Y828249D1*
X1179491Y827249D1*
X1179885Y826249D1*
X1180341Y825249D1*
X1180857Y824249D1*
X1181492Y823249D1*
X1182382Y822249D1*
X1183767Y821249D1*
X1185924Y820249D1*
X1188821Y819249D1*
X1192056Y818249D1*
X1213056Y876249D2*
Y875249D1*
Y874249D1*
Y873249D1*
Y872249D1*
Y871249D1*
Y870249D1*
Y869249D1*
Y868249D1*
Y867249D1*
Y866249D1*
Y865249D1*
Y864249D1*
Y863249D1*
Y862249D1*
Y861249D1*
Y860249D1*
Y859249D1*
Y858249D1*
Y857249D1*
Y856249D1*
Y855249D1*
Y854249D1*
Y853249D1*
Y852249D1*
Y851249D1*
Y850249D1*
Y849249D1*
Y848249D1*
Y847249D1*
Y846249D1*
Y845249D1*
Y844249D1*
Y843249D1*
Y842249D1*
Y841249D1*
Y840249D1*
Y839249D1*
Y838249D1*
Y837249D1*
X1213053Y836249D1*
X1213017Y835249D1*
X1212890Y834249D1*
X1212650Y833249D1*
X1212394Y832249D1*
X1212216Y831249D1*
X1212088Y830249D1*
X1211914Y829249D1*
X1211622Y828249D1*
X1211227Y827249D1*
X1210772Y826249D1*
X1210255Y825249D1*
X1209632Y824249D1*
X1208852Y823249D1*
X1207888Y822249D1*
X1206606Y821249D1*
X1204821Y820249D1*
X1202550Y819249D1*
X1200056Y818249D1*
X1219056Y876249D2*
Y875249D1*
Y874249D1*
Y873249D1*
Y872249D1*
Y871249D1*
Y870249D1*
Y869249D1*
Y868249D1*
Y867249D1*
Y866249D1*
Y865249D1*
Y864249D1*
Y863249D1*
Y862249D1*
Y861249D1*
Y860249D1*
Y859249D1*
Y858249D1*
Y857249D1*
Y856249D1*
Y855249D1*
Y854249D1*
Y853249D1*
Y852249D1*
Y851249D1*
Y850249D1*
Y849249D1*
Y848249D1*
Y847249D1*
Y846249D1*
Y845249D1*
Y844249D1*
Y843249D1*
Y842249D1*
Y841249D1*
Y840249D1*
Y839249D1*
X1219053Y838249D1*
X1219017Y837249D1*
X1218890Y836249D1*
X1218650Y835249D1*
X1218394Y834249D1*
X1218220Y833249D1*
X1218127Y832249D1*
X1218081Y831249D1*
X1218028Y830249D1*
X1217894Y829249D1*
X1217648Y828249D1*
X1217355Y827249D1*
X1217053Y826249D1*
X1216717Y825249D1*
X1216383Y824249D1*
X1216060Y823249D1*
X1215682Y822249D1*
X1215214Y821249D1*
X1214615Y820249D1*
X1213853Y819249D1*
X1212967Y818249D1*
X1211980Y817249D1*
X1210835Y816249D1*
X1209440Y815249D1*
X1207804Y814249D1*
X1206056Y813249D1*
X1229056Y876249D2*
Y875249D1*
Y874249D1*
Y873249D1*
Y872249D1*
Y871249D1*
X1273056Y876249D2*
Y875249D1*
Y874249D1*
Y873249D1*
Y872249D1*
Y871249D1*
X1129056D2*
X1127098Y870249D1*
X1125270Y869249D1*
X1123711Y868249D1*
X1122505Y867249D1*
X1121616Y866249D1*
X1120933Y865249D1*
X1120358Y864249D1*
X1119864Y863249D1*
X1119483Y862249D1*
X1119250Y861249D1*
X1119100Y860249D1*
X1118922Y859249D1*
X1118662Y858249D1*
X1118398Y857249D1*
X1118221Y856249D1*
X1118127Y855249D1*
X1118085Y854249D1*
X1118067Y853249D1*
X1118060Y852249D1*
X1118058Y851249D1*
X1118057Y850249D1*
Y849249D1*
X1118056Y848249D1*
Y847249D1*
Y846249D1*
Y845249D1*
Y844249D1*
Y843249D1*
Y842249D1*
Y841249D1*
Y840249D1*
Y839249D1*
Y838249D1*
Y837249D1*
Y836249D1*
Y835249D1*
X1118060Y834249D1*
X1118095Y833249D1*
X1118223Y832249D1*
X1118462Y831249D1*
X1118723Y830249D1*
X1118932Y829249D1*
X1119156Y828249D1*
X1119477Y827249D1*
X1119918Y826249D1*
X1120505Y825249D1*
X1121266Y824249D1*
X1122193Y823249D1*
X1123385Y822249D1*
X1125103Y821249D1*
X1127561Y820249D1*
X1130666Y819249D1*
X1134056Y818249D1*
X1143056Y871249D2*
X1145663Y870249D1*
X1147829Y869249D1*
X1149464Y868249D1*
X1150657Y867249D1*
X1151523Y866249D1*
X1152191Y865249D1*
X1152759Y864249D1*
X1153251Y863249D1*
X1153631Y862249D1*
X1153863Y861249D1*
X1154012Y860249D1*
X1154190Y859249D1*
X1154450Y858249D1*
X1154715Y857249D1*
X1154892Y856249D1*
X1154985Y855249D1*
X1155028Y854249D1*
X1155046Y853249D1*
X1155053Y852249D1*
X1155055Y851249D1*
X1155056Y850249D1*
Y849249D1*
Y848249D1*
Y847249D1*
Y846249D1*
Y845249D1*
Y844249D1*
Y843249D1*
Y842249D1*
Y841249D1*
Y840249D1*
Y839249D1*
Y838249D1*
Y837249D1*
X1155053Y836249D1*
X1155017Y835249D1*
X1154890Y834249D1*
X1154650Y833249D1*
X1154394Y832249D1*
X1154216Y831249D1*
X1154088Y830249D1*
X1153914Y829249D1*
X1153622Y828249D1*
X1153227Y827249D1*
X1152772Y826249D1*
X1152255Y825249D1*
X1151628Y824249D1*
X1150809Y823249D1*
X1149678Y822249D1*
X1147990Y821249D1*
X1145544Y820249D1*
X1142444Y819249D1*
X1139056Y818249D1*
X1248056Y871249D2*
Y870249D1*
Y869249D1*
Y868249D1*
Y867249D1*
Y866249D1*
Y865249D1*
Y864249D1*
Y863249D1*
Y862249D1*
Y861249D1*
Y860249D1*
Y859249D1*
Y858249D1*
Y857249D1*
Y856249D1*
Y855249D1*
Y854249D1*
Y853249D1*
Y852249D1*
Y851249D1*
Y850249D1*
Y849249D1*
Y848249D1*
Y847249D1*
Y846249D1*
Y845249D1*
Y844249D1*
Y843249D1*
Y842249D1*
Y841249D1*
Y840249D1*
Y839249D1*
Y838249D1*
Y837249D1*
Y836249D1*
Y835249D1*
Y834249D1*
Y833249D1*
Y832249D1*
Y831249D1*
Y830249D1*
Y829249D1*
Y828249D1*
Y827249D1*
Y826249D1*
Y825249D1*
Y824249D1*
Y823249D1*
Y822249D1*
Y821249D1*
Y820249D1*
Y819249D1*
Y818249D1*
Y817249D1*
Y816249D1*
Y815249D1*
Y814249D1*
Y813249D1*
X1254056Y871249D2*
Y870249D1*
Y869249D1*
Y868249D1*
Y867249D1*
Y866249D1*
Y865249D1*
Y864249D1*
Y863249D1*
Y862249D1*
Y861249D1*
Y860249D1*
Y859249D1*
Y858249D1*
Y857249D1*
Y856249D1*
Y855249D1*
Y854249D1*
Y853249D1*
Y852249D1*
Y851249D1*
Y850249D1*
Y849249D1*
Y848249D1*
Y847249D1*
Y846249D1*
Y845249D1*
Y844249D1*
Y843249D1*
Y842249D1*
Y841249D1*
Y840249D1*
Y839249D1*
Y838249D1*
Y837249D1*
Y836249D1*
Y835249D1*
Y834249D1*
Y833249D1*
Y832249D1*
Y831249D1*
Y830249D1*
Y829249D1*
Y828249D1*
Y827249D1*
Y826249D1*
Y825249D1*
Y824249D1*
Y823249D1*
Y822249D1*
Y821249D1*
Y820249D1*
Y819249D1*
Y818249D1*
Y817249D1*
Y816249D1*
Y815249D1*
Y814249D1*
Y813249D1*
M02*
