M48
INCH
T01C0.1063
T02C0.122
T03C0.2
T04C0.2441
T05C0.295
%
T02
X+006873Y+005121
T04
X+009998Y+010440
X+013748Y+010440
X+017498Y+010440
X+006248Y+015502
X+009998Y+015503
X+013748Y+015503
X+017498Y+015503
X+009998Y+020565
X+006248Y+020565
X+006248Y+010440
X+017498Y+020565
X+013748Y+020565
T05
X+007873Y+029440
X+015873Y+029440
T03
X+007873Y+036296
X+015873Y+036296
T02
X+006873Y+053349
T01
X+018119Y+049936G85X+017607Y+049936
X+006139Y+049936G85X+005627Y+049936
T00
M30
