G04 DipTrace 3.1.0.0*
G04 uO_c_panel.GTL*
%MOIN*%
G04 #@! TF.FileFunction,Copper,L1,Top*
G04 #@! TF.Part,Single*
G04 #@! TA.AperFunction,CopperBalancing*
%ADD13C,0.01*%
G04 #@! TA.AperFunction,Nonconductor*
%ADD14C,0.02*%
G04 #@! TA.AperFunction,ComponentPad*
%ADD15O,0.169291X0.11811*%
%FSLAX26Y26*%
G04*
G70*
G90*
G75*
G01*
G04 Top*
%LPD*%
X456719Y5431348D2*
D13*
X415701Y5390329D1*
X499146Y5431348D2*
X415701Y5347903D1*
X541572Y5431348D2*
X415701Y5305476D1*
X583999Y5431348D2*
X415701Y5263050D1*
X626425Y5431348D2*
X415701Y5220623D1*
X668852Y5431348D2*
X415701Y5178197D1*
X711278Y5431348D2*
X691900Y5411970D1*
X610273Y5330344D2*
X415701Y5135770D1*
X753705Y5431348D2*
X724921Y5402566D1*
X619678Y5297323D2*
X415701Y5093344D1*
X796130Y5431348D2*
X747903Y5383119D1*
X639123Y5274341D2*
X415701Y5050917D1*
X838556Y5431348D2*
X762003Y5354794D1*
X667463Y5260255D2*
X415701Y5008491D1*
X880983Y5431348D2*
X760207Y5310572D1*
X711685Y5262050D2*
X415701Y4966064D1*
X923409Y5431348D2*
X901063Y5409001D1*
X891058Y5398996D2*
X560740Y5068678D1*
X487606Y4995545D2*
X415701Y4923638D1*
X965836Y5431348D2*
X944580Y5410092D1*
X889967Y5355479D2*
X603207Y5068719D1*
X494969Y4960480D2*
X415701Y4881213D1*
X1008262Y5431348D2*
X987007Y5410092D1*
X889982Y5313067D2*
X640856Y5063941D1*
X513378Y4936463D2*
X486978Y4910063D1*
X471255Y4894340D2*
X415701Y4838786D1*
X1050689Y5431348D2*
X1029433Y5410092D1*
X889982Y5270640D2*
X666751Y5047409D1*
X540819Y4921479D2*
X529432Y4910091D1*
X471214Y4851873D2*
X415701Y4796360D1*
X1093115Y5431348D2*
X1071860Y5410092D1*
X894110Y5232343D2*
X683724Y5021957D1*
X580167Y4918399D2*
X571857Y4910091D1*
X471214Y4809446D2*
X415701Y4753933D1*
X1135542Y5431348D2*
X1114286Y5410092D1*
X931634Y5227440D2*
X688378Y4984185D1*
X623283Y4919089D2*
X614283Y4910091D1*
X471214Y4767020D2*
X415701Y4711507D1*
X1177969Y5431348D2*
X1156713Y5410092D1*
X974060Y5227440D2*
X656710Y4910091D1*
X471214Y4724593D2*
X415701Y4669080D1*
X1220395Y5431348D2*
X1199139Y5410092D1*
X1016487Y5227440D2*
X699136Y4910091D1*
X471214Y4682167D2*
X415701Y4626654D1*
X1262822Y5431348D2*
X1241566Y5410092D1*
X1058913Y5227440D2*
X741563Y4910091D1*
X471214Y4639740D2*
X415701Y4584227D1*
X1305248Y5431348D2*
X1283991Y5410092D1*
X1101340Y5227440D2*
X783990Y4910091D1*
X471214Y4597314D2*
X415701Y4541801D1*
X1347673Y5431348D2*
X1326417Y5410092D1*
X1143766Y5227440D2*
X826416Y4910091D1*
X471214Y4554887D2*
X415701Y4499374D1*
X1390100Y5431348D2*
X1368844Y5410092D1*
X1186193Y5227440D2*
X868843Y4910091D1*
X471214Y4512462D2*
X415701Y4456948D1*
X1432526Y5431348D2*
X1411270Y5410092D1*
X1228619Y5227440D2*
X911269Y4910091D1*
X471214Y4470035D2*
X415701Y4414521D1*
X1474953Y5431348D2*
X1453697Y5410092D1*
X1271046Y5227440D2*
X953696Y4910091D1*
X471214Y4427609D2*
X415701Y4372096D1*
X1517379Y5431348D2*
X1488693Y5402661D1*
X1313471Y5227440D2*
X996122Y4910091D1*
X471214Y4385182D2*
X415701Y4329669D1*
X1559806Y5431348D2*
X1490890Y5362432D1*
X1355898Y5227440D2*
X1038549Y4910091D1*
X471214Y4342756D2*
X415701Y4287243D1*
X1602232Y5431348D2*
X1490890Y5320005D1*
X1398324Y5227440D2*
X1080975Y4910091D1*
X471214Y4300329D2*
X415701Y4244816D1*
X1644659Y5431348D2*
X1490875Y5277564D1*
X1440751Y5227440D2*
X1123400Y4910091D1*
X471214Y4257903D2*
X415701Y4202390D1*
X1687085Y5431348D2*
X1165827Y4910091D1*
X471214Y4215476D2*
X415701Y4159963D1*
X1729512Y5431348D2*
X1208253Y4910091D1*
X471214Y4173050D2*
X415701Y4117537D1*
X1771938Y5431348D2*
X1250680Y4910091D1*
X471214Y4130623D2*
X415701Y4075110D1*
X1814365Y5431348D2*
X1293106Y4910091D1*
X471862Y4088846D2*
X415701Y4032684D1*
X1856791Y5431348D2*
X1335533Y4910091D1*
X503352Y4077908D2*
X415701Y3990257D1*
X1899217Y5431348D2*
X1377959Y4910091D1*
X545777Y4077908D2*
X415701Y3947831D1*
X1941643Y5431348D2*
X1420386Y4910091D1*
X588203Y4077908D2*
X415701Y3905404D1*
X1958907Y5406185D2*
X1462812Y4910091D1*
X630630Y4077908D2*
X415701Y3862979D1*
X1958907Y5363759D2*
X1505239Y4910091D1*
X673056Y4077908D2*
X415701Y3820552D1*
X1958907Y5321332D2*
X1547665Y4910091D1*
X715483Y4077908D2*
X415701Y3778126D1*
X1958907Y5278906D2*
X1747382Y5067381D1*
X1686885Y5006885D2*
X1590092Y4910091D1*
X757909Y4077908D2*
X415701Y3735699D1*
X1958907Y5236479D2*
X1791147Y5068719D1*
X1689979Y4967551D2*
X1632518Y4910091D1*
X800336Y4077908D2*
X415701Y3693273D1*
X1958907Y5194052D2*
X1831213Y5066358D1*
X1706220Y4941366D2*
X1674945Y4910091D1*
X842762Y4077908D2*
X806542Y4041689D1*
X636514Y3871660D2*
X415701Y3650846D1*
X1958907Y5151627D2*
X1859428Y5052147D1*
X1731396Y4924117D2*
X1717370Y4910091D1*
X885189Y4077908D2*
X827756Y4020475D1*
X678940Y3871660D2*
X415701Y3608420D1*
X1958907Y5109201D2*
X1878542Y5028835D1*
X1768105Y4918399D2*
X1759797Y4910091D1*
X927615Y4077908D2*
X848969Y3999262D1*
X721366Y3871660D2*
X415701Y3565993D1*
X1958907Y5066774D2*
X1887063Y4994929D1*
X1810531Y4918399D2*
X1802223Y4910091D1*
X970042Y4077908D2*
X870182Y3978049D1*
X763793Y3871660D2*
X718155Y3826021D1*
X592789Y3700656D2*
X415701Y3523567D1*
X1958907Y5024348D2*
X1844650Y4910091D1*
X1012469Y4077908D2*
X891395Y3956836D1*
X806219Y3871660D2*
X771035Y3836476D1*
X582335Y3647774D2*
X415701Y3481140D1*
X1958907Y4981921D2*
X1887076Y4910091D1*
X1054895Y4077908D2*
X912609Y3935622D1*
X848646Y3871660D2*
X812302Y3835316D1*
X758945Y3781959D2*
X743290Y3766303D1*
X650642Y3673656D2*
X636850Y3659865D1*
X583495Y3606509D2*
X415701Y3438714D1*
X1958907Y4939495D2*
X1903400Y4883988D1*
X1097322Y4077908D2*
X933822Y3914409D1*
X891072Y3871660D2*
X848913Y3829501D1*
X803126Y3783714D2*
X792801Y3773388D1*
X643543Y3624131D2*
X635083Y3615671D1*
X589308Y3569896D2*
X415701Y3396287D1*
X1958907Y4897068D2*
X1903400Y4841562D1*
X1139747Y4077908D2*
X953143Y3891304D1*
X933499Y3871660D2*
X877736Y3815898D1*
X838577Y3776739D2*
X829247Y3767408D1*
X649537Y3587698D2*
X642071Y3580232D1*
X602912Y3541073D2*
X415701Y3353862D1*
X1958907Y4854642D2*
X1903400Y4799135D1*
X1182173Y4077908D2*
X905841Y3801576D1*
X866682Y3762417D2*
X858927Y3754661D1*
X662270Y3558005D2*
X656392Y3552127D1*
X617234Y3512969D2*
X415701Y3311436D1*
X1958907Y4812215D2*
X1903400Y4756709D1*
X1224600Y4077908D2*
X927993Y3781302D1*
X890672Y3743980D2*
X883579Y3736887D1*
X680045Y3533353D2*
X674816Y3528125D1*
X637508Y3490816D2*
X415701Y3269009D1*
X1958907Y4769789D2*
X1903400Y4714282D1*
X1267026Y4077908D2*
X949207Y3760089D1*
X911885Y3722766D2*
X903714Y3714597D1*
X702336Y3513218D2*
X696030Y3506912D1*
X658722Y3469604D2*
X415701Y3226583D1*
X1958907Y4727362D2*
X1903400Y4671856D1*
X1309453Y4077908D2*
X965559Y3734014D1*
X926386Y3694841D2*
X919182Y3687638D1*
X729308Y3497764D2*
X723969Y3492424D1*
X684797Y3453252D2*
X415701Y3184156D1*
X1958907Y4684936D2*
X1903400Y4629429D1*
X1351879Y4077908D2*
X979866Y3705896D1*
X937034Y3663063D2*
X929001Y3655031D1*
X761915Y3487944D2*
X755747Y3481776D1*
X712900Y3438930D2*
X415701Y3141730D1*
X1958907Y4642509D2*
X1903400Y4587004D1*
X1394306Y4077908D2*
X988622Y3672226D1*
X941192Y3624794D2*
X930189Y3613793D1*
X803154Y3486756D2*
X794003Y3477605D1*
X746571Y3430173D2*
X415701Y3099303D1*
X1958907Y4600084D2*
X1903400Y4544577D1*
X1436732Y4077908D2*
X994423Y3635600D1*
X927243Y3568419D2*
X899916Y3541093D1*
X875853Y3517029D2*
X850391Y3491568D1*
X783211Y3424387D2*
X415701Y3056877D1*
X1958907Y4557657D2*
X1903400Y4502151D1*
X1479159Y4077908D2*
X1455092Y4053843D1*
X1426567Y4025318D2*
X987724Y3586475D1*
X832336Y3431085D2*
X415701Y3014450D1*
X1958907Y4515231D2*
X1903400Y4459724D1*
X1521585Y4077908D2*
X1497518Y4053843D1*
X1447781Y4004104D2*
X956609Y3512933D1*
X905877Y3462201D2*
X669596Y3225920D1*
X505382Y3061705D2*
X415701Y2972024D1*
X1958907Y4472804D2*
X1903400Y4417298D1*
X1564012Y4077908D2*
X1539945Y4053843D1*
X1468993Y3982891D2*
X730459Y3244357D1*
X486944Y3000841D2*
X415701Y2929597D1*
X1958907Y4430378D2*
X1903400Y4374871D1*
X1606438Y4077908D2*
X1582371Y4053843D1*
X1490207Y3961678D2*
X778203Y3249673D1*
X481627Y2953097D2*
X415701Y2887171D1*
X1958907Y4387951D2*
X1903400Y4332445D1*
X1648865Y4077908D2*
X1624798Y4053843D1*
X1511420Y3940465D2*
X819193Y3248238D1*
X483063Y2912108D2*
X415701Y2844744D1*
X1958907Y4345525D2*
X1903400Y4290018D1*
X1691290Y4077908D2*
X1667224Y4053843D1*
X1532634Y3919252D2*
X855639Y3242257D1*
X489058Y2875675D2*
X415701Y2802319D1*
X1958907Y4303098D2*
X1903400Y4247592D1*
X1733717Y4077908D2*
X1709651Y4053843D1*
X1553846Y3898038D2*
X888592Y3232783D1*
X498517Y2842709D2*
X415701Y2759892D1*
X1958907Y4260672D2*
X1903400Y4205165D1*
X1776143Y4077908D2*
X1748210Y4049975D1*
X1575060Y3876825D2*
X1527874Y3829639D1*
X1389168Y3690933D2*
X918685Y3220450D1*
X510865Y2812630D2*
X415701Y2717466D1*
X1958907Y4218245D2*
X1903400Y4162739D1*
X1818570Y4077908D2*
X1578283Y3837622D1*
X1499501Y3758840D2*
X1459967Y3719306D1*
X1381185Y3640525D2*
X946265Y3205604D1*
X525711Y2785050D2*
X415701Y2675039D1*
X1958907Y4175819D2*
X1903400Y4120312D1*
X1860996Y4077908D2*
X1617560Y3834474D1*
X1566193Y3783106D2*
X1551933Y3768845D1*
X1448084Y3664997D2*
X1435702Y3652614D1*
X1384320Y3601232D2*
X971552Y3188465D1*
X542836Y2759748D2*
X415701Y2632613D1*
X1958907Y4133392D2*
X1653606Y3828093D1*
X1608399Y3782885D2*
X1598585Y3773071D1*
X1443858Y3618344D2*
X1435923Y3610408D1*
X1390715Y3565201D2*
X994699Y3169185D1*
X562130Y2736615D2*
X415701Y2590186D1*
X1958907Y4090966D2*
X1681781Y3813840D1*
X1642622Y3774681D2*
X1633871Y3765930D1*
X1451012Y3583072D2*
X1444126Y3576186D1*
X1404967Y3537028D2*
X1015734Y3147793D1*
X583508Y2715568D2*
X415701Y2547760D1*
X1958907Y4048541D2*
X1709636Y3799270D1*
X1670727Y3760360D2*
X1662764Y3752396D1*
X1464533Y3554167D2*
X1458448Y3548081D1*
X1419538Y3509171D2*
X1034681Y3124314D1*
X606987Y2696619D2*
X415701Y2505333D1*
X1958907Y4006114D2*
X1731043Y3778249D1*
X1693722Y3740928D2*
X1686752Y3733959D1*
X1482984Y3530190D2*
X1477879Y3525087D1*
X1440558Y3487764D2*
X1051461Y3098668D1*
X632647Y2679853D2*
X415701Y2462907D1*
X1958907Y3963688D2*
X1752256Y3757037D1*
X1714134Y3718913D2*
X1706239Y3711020D1*
X1505924Y3510703D2*
X1499894Y3504675D1*
X1461770Y3466551D2*
X1065921Y3070701D1*
X660613Y2665394D2*
X415701Y2420480D1*
X1958907Y3921261D2*
X1767614Y3729967D1*
X1728441Y3690795D2*
X1720975Y3683329D1*
X1533614Y3495969D2*
X1527999Y3490353D1*
X1488840Y3451194D2*
X1077825Y3040180D1*
X691135Y2653490D2*
X415701Y2378054D1*
X1958907Y3878835D2*
X1781936Y3701864D1*
X1737874Y3657802D2*
X1729828Y3649756D1*
X1567188Y3487115D2*
X1561007Y3480933D1*
X1516945Y3436871D2*
X1086776Y3006702D1*
X724598Y2644526D2*
X415701Y2335627D1*
X1958907Y3836408D2*
X1789462Y3666963D1*
X1740042Y3617543D2*
X1729178Y3606680D1*
X1610264Y3487764D2*
X1601264Y3478765D1*
X1551844Y3429345D2*
X1092119Y2969621D1*
X761680Y2639181D2*
X415701Y2293201D1*
X1958907Y3793982D2*
X1794517Y3629592D1*
X1720900Y3555975D2*
X1662832Y3497907D1*
X1589217Y3424290D2*
X1092672Y2927747D1*
X803554Y2638629D2*
X415701Y2250776D1*
X1958907Y3751555D2*
X1786576Y3579224D1*
X1639584Y3432232D2*
X1085878Y2878526D1*
X852776Y2645424D2*
X415701Y2208349D1*
X1958907Y3709129D2*
X1479772Y3229993D1*
X1301319Y3051541D2*
X1063697Y2813919D1*
X917395Y2667617D2*
X415701Y2165923D1*
X1958907Y3666702D2*
X1537902Y3245697D1*
X1285615Y2993411D2*
X415701Y2123496D1*
X1958907Y3624276D2*
X1584444Y3249812D1*
X1281487Y2946856D2*
X415701Y2081070D1*
X1958907Y3581849D2*
X1624688Y3247630D1*
X1283682Y2906625D2*
X562605Y2185547D1*
X495769Y2118711D2*
X415701Y2038643D1*
X1958907Y3539423D2*
X1660567Y3241084D1*
X1290215Y2870731D2*
X619491Y2200007D1*
X481295Y2061812D2*
X415701Y1996217D1*
X1958907Y3496997D2*
X1693092Y3231181D1*
X1300131Y2838220D2*
X658244Y2196333D1*
X484970Y2023059D2*
X415701Y1953790D1*
X1958907Y3454571D2*
X1722798Y3218462D1*
X1312850Y2808513D2*
X689400Y2185064D1*
X496239Y1991902D2*
X415701Y1911364D1*
X1958907Y3412144D2*
X1750033Y3203270D1*
X1328042Y2781280D2*
X715227Y2168463D1*
X512839Y1966076D2*
X415701Y1868937D1*
X1958907Y3369718D2*
X1775017Y3185827D1*
X1345486Y2756295D2*
X736482Y2147291D1*
X534010Y1944822D2*
X415701Y1826510D1*
X1958907Y3327291D2*
X1797845Y3166230D1*
X1365068Y2733453D2*
X753151Y2121534D1*
X559782Y1928165D2*
X415701Y1784084D1*
X1958907Y3284865D2*
X1818589Y3144547D1*
X1386752Y2712709D2*
X764517Y2090475D1*
X590828Y1916786D2*
X415701Y1741657D1*
X1958907Y3242438D2*
X1837234Y3120765D1*
X1410547Y2694079D2*
X789058Y2072589D1*
X618546Y1902077D2*
X415701Y1699232D1*
X1958907Y3200012D2*
X1853682Y3094787D1*
X1436525Y2677630D2*
X949690Y2190795D1*
X865522Y2106627D2*
X831484Y2072589D1*
X639760Y1880865D2*
X415701Y1656806D1*
X1958907Y3157585D2*
X1867797Y3066475D1*
X1464837Y2663516D2*
X1001453Y2200131D1*
X660972Y1859651D2*
X415701Y1614379D1*
X1958907Y3115159D2*
X1879301Y3035552D1*
X1495745Y2651997D2*
X1038686Y2194938D1*
X696659Y1852911D2*
X415701Y1571953D1*
X1958907Y3072732D2*
X1887794Y3001621D1*
X1529692Y2643517D2*
X1068890Y2182717D1*
X739085Y1852911D2*
X567949Y1681776D1*
X493283Y1607109D2*
X415701Y1529526D1*
X1958907Y3030306D2*
X1892546Y2963945D1*
X1567367Y2638766D2*
X1093957Y2165356D1*
X781512Y1852911D2*
X622446Y1693845D1*
X481213Y1552612D2*
X415701Y1487100D1*
X1958907Y2987881D2*
X1892241Y2921214D1*
X1610097Y2639071D2*
X1114479Y2143453D1*
X823938Y1852911D2*
X660550Y1689522D1*
X485535Y1514508D2*
X415701Y1444673D1*
X1958907Y2945454D2*
X1883996Y2870543D1*
X1660769Y2647315D2*
X1130375Y2116921D1*
X866365Y1852911D2*
X691293Y1677839D1*
X497206Y1483752D2*
X415701Y1402247D1*
X1958907Y2903028D2*
X1857535Y2801655D1*
X1729656Y2673777D2*
X1140734Y2084853D1*
X908791Y1852911D2*
X716801Y1660921D1*
X514123Y1458244D2*
X415701Y1359820D1*
X1958907Y2860601D2*
X1170896Y2072589D1*
X951218Y1852911D2*
X737752Y1639445D1*
X535613Y1437307D2*
X415701Y1317394D1*
X1958907Y2818175D2*
X1335008Y2194276D1*
X1237030Y2096297D2*
X1213323Y2072589D1*
X993644Y1852911D2*
X754089Y1613357D1*
X561688Y1420955D2*
X415701Y1274967D1*
X1958907Y2775748D2*
X1383097Y2199938D1*
X1036071Y1852911D2*
X765055Y1581896D1*
X593163Y1410003D2*
X415701Y1232541D1*
X1958907Y2733322D2*
X1418963Y2193378D1*
X1061331Y1835744D2*
X791930Y1566345D1*
X619983Y1394396D2*
X415701Y1190114D1*
X1958907Y2690895D2*
X1448256Y2180244D1*
X1083220Y1815209D2*
X954178Y1686167D1*
X863892Y1595881D2*
X834357Y1566345D1*
X641196Y1373184D2*
X415701Y1147689D1*
X1958907Y2648469D2*
X1472563Y2162125D1*
X1105123Y1794685D2*
X1004270Y1693832D1*
X662409Y1351970D2*
X415701Y1105262D1*
X1958907Y2606042D2*
X1492367Y2139503D1*
X1127014Y1774150D2*
X1040924Y1688059D1*
X699518Y1346654D2*
X415701Y1062836D1*
X1958907Y2563615D2*
X1507449Y2112157D1*
X1154442Y1759151D2*
X1070741Y1675450D1*
X741945Y1346654D2*
X572879Y1177588D1*
X491211Y1095920D2*
X415701Y1020409D1*
X1958907Y2521189D2*
X1516757Y2079039D1*
X1196869Y1759151D2*
X1095490Y1657772D1*
X784371Y1346654D2*
X625346Y1187629D1*
X481172Y1043454D2*
X415701Y977983D1*
X1958907Y2478762D2*
X1552734Y2072589D1*
X1333055Y1852911D2*
X1115709Y1635564D1*
X826798Y1346654D2*
X662828Y1182685D1*
X486130Y1005986D2*
X415701Y935556D1*
X1958907Y2436337D2*
X1719235Y2196665D1*
X1609642Y2087071D2*
X1595160Y2072589D1*
X1375482Y1852911D2*
X1131260Y1608689D1*
X869223Y1346654D2*
X693171Y1170600D1*
X498199Y975630D2*
X415701Y893130D1*
X1958907Y2393911D2*
X1764451Y2199454D1*
X1417908Y1852911D2*
X1141189Y1576193D1*
X911650Y1346654D2*
X718361Y1153365D1*
X515436Y950438D2*
X415701Y850703D1*
X1958907Y2351484D2*
X1799060Y2191638D1*
X1460335Y1852911D2*
X1173769Y1566345D1*
X954076Y1346654D2*
X739008Y1131585D1*
X537228Y929806D2*
X415701Y808277D1*
X1958907Y2309058D2*
X1827483Y2177634D1*
X1502761Y1852911D2*
X1338986Y1689136D1*
X1235925Y1586075D2*
X1216196Y1566345D1*
X996503Y1346654D2*
X755014Y1105165D1*
X563635Y913785D2*
X415701Y765850D1*
X1958907Y2266631D2*
X1851058Y2158782D1*
X1545188Y1852911D2*
X1385790Y1693514D1*
X1038929Y1346654D2*
X765552Y1073277D1*
X595524Y903248D2*
X415701Y723424D1*
X1958907Y2224205D2*
X1870131Y2135428D1*
X1587614Y1852911D2*
X1421118Y1686416D1*
X1062808Y1328105D2*
X794790Y1060087D1*
X621419Y886717D2*
X415701Y680997D1*
X1958907Y2181778D2*
X1884383Y2107255D1*
X1630041Y1852911D2*
X1450037Y1672908D1*
X1084698Y1307570D2*
X958419Y1181290D1*
X862512Y1085383D2*
X837217Y1060087D1*
X642633Y865503D2*
X415701Y638571D1*
X1958907Y2139352D2*
X1892559Y2073004D1*
X1672467Y1852911D2*
X1474041Y1654486D1*
X1106602Y1287046D2*
X1007046Y1187491D1*
X663860Y844303D2*
X415701Y596146D1*
X1958907Y2096925D2*
X1890543Y2028562D1*
X1777745Y1915764D2*
X1493541Y1631559D1*
X1128492Y1266510D2*
X1043119Y1181138D1*
X702391Y840409D2*
X415701Y553719D1*
X1958907Y2054499D2*
X1508277Y1603869D1*
X1157315Y1252907D2*
X1072550Y1168142D1*
X744818Y840409D2*
X415701Y511293D1*
X1958907Y2012072D2*
X1517130Y1570295D1*
X1199741Y1252907D2*
X1096995Y1150160D1*
X787244Y840409D2*
X415701Y468866D1*
X1958907Y1969646D2*
X1555606Y1566345D1*
X1335915Y1346654D2*
X1116909Y1127650D1*
X829671Y840409D2*
X415701Y426440D1*
X1958907Y1927219D2*
X1722867Y1691180D1*
X1608869Y1577181D2*
X1598033Y1566345D1*
X1378341Y1346654D2*
X1132130Y1100442D1*
X872096Y840409D2*
X447396Y415709D1*
X1958907Y1884794D2*
X1767034Y1692920D1*
X1420766Y1346654D2*
X1141617Y1067504D1*
X914522Y840409D2*
X656600Y582487D1*
X616930Y542816D2*
X489823Y415709D1*
X1958907Y1842367D2*
X1801146Y1684606D1*
X1463193Y1346654D2*
X1176627Y1060087D1*
X956949Y840409D2*
X704081Y587541D1*
X611890Y495349D2*
X532249Y415709D1*
X1958907Y1799941D2*
X1829223Y1670257D1*
X1505619Y1346654D2*
X1342811Y1183845D1*
X1234972Y1076005D2*
X1219054Y1060087D1*
X999375Y840409D2*
X733332Y574366D1*
X625064Y466098D2*
X574675Y415709D1*
X1958907Y1757514D2*
X1852495Y1651101D1*
X1548046Y1346654D2*
X1388442Y1187049D1*
X1041802Y840409D2*
X753537Y552144D1*
X647273Y445879D2*
X617101Y415709D1*
X1958907Y1715088D2*
X1871262Y1627444D1*
X1590472Y1346654D2*
X1423244Y1179425D1*
X1064286Y820466D2*
X764075Y520256D1*
X679161Y435341D2*
X659528Y415709D1*
X1958907Y1672661D2*
X1885156Y1598911D1*
X1632899Y1346654D2*
X1451806Y1165559D1*
X1086176Y799930D2*
X701954Y415709D1*
X1958907Y1630235D2*
X1892836Y1564163D1*
X1675325Y1346654D2*
X1475504Y1146832D1*
X1108080Y779407D2*
X744381Y415709D1*
X1958907Y1587808D2*
X1889741Y1518643D1*
X1781419Y1410320D2*
X1494701Y1123602D1*
X1129983Y758885D2*
X786807Y415709D1*
X1958907Y1545382D2*
X1509092Y1095567D1*
X1160188Y746663D2*
X829234Y415709D1*
X1958907Y1502955D2*
X1517448Y1061496D1*
X1202614Y746663D2*
X871660Y415709D1*
X1958907Y1460529D2*
X1558465Y1060087D1*
X1338787Y840409D2*
X914087Y415709D1*
X1958907Y1418102D2*
X1726388Y1185585D1*
X1608219Y1067415D2*
X1600891Y1060087D1*
X1381214Y840409D2*
X956513Y415709D1*
X1958907Y1375676D2*
X1769589Y1186358D1*
X1423639Y840409D2*
X998940Y415709D1*
X1958907Y1333251D2*
X1803218Y1177560D1*
X1466066Y840409D2*
X1041366Y415709D1*
X1958907Y1290824D2*
X1830936Y1162853D1*
X1508492Y840409D2*
X1083791Y415709D1*
X1958907Y1248398D2*
X1853903Y1143394D1*
X1550919Y840409D2*
X1126218Y415709D1*
X1958907Y1205971D2*
X1872354Y1119417D1*
X1593345Y840409D2*
X1168644Y415709D1*
X1958907Y1163545D2*
X1885888Y1090526D1*
X1635772Y840409D2*
X1211071Y415709D1*
X1958907Y1121118D2*
X1893056Y1055268D1*
X1678198Y840409D2*
X1253497Y415709D1*
X1958907Y1078692D2*
X1888803Y1008587D1*
X1785217Y905001D2*
X1295924Y415709D1*
X1958907Y1036265D2*
X1338350Y415709D1*
X1958907Y993839D2*
X1380777Y415709D1*
X1958907Y951412D2*
X1423203Y415709D1*
X1958907Y908986D2*
X1465630Y415709D1*
X1958907Y866559D2*
X1508056Y415709D1*
X1958907Y824133D2*
X1550483Y415709D1*
X1958907Y781707D2*
X1592909Y415709D1*
X1958907Y739281D2*
X1635335Y415709D1*
X1958907Y696854D2*
X1677761Y415709D1*
X1958907Y654428D2*
X1720188Y415709D1*
X1958907Y612001D2*
X1762614Y415709D1*
X1958907Y569575D2*
X1805041Y415709D1*
X1958907Y527148D2*
X1847467Y415709D1*
X1958907Y484722D2*
X1889894Y415709D1*
X1958907Y442295D2*
X1932320Y415709D1*
X1917895Y5431348D2*
X1958913Y5390329D1*
X1875469Y5431348D2*
X1958913Y5347903D1*
X1833042Y5431348D2*
X1958913Y5305476D1*
X1790615Y5431348D2*
X1958913Y5263050D1*
X1748189Y5431348D2*
X1958913Y5220623D1*
X1705762Y5431348D2*
X1958913Y5178197D1*
X1663336Y5431348D2*
X1958913Y5135770D1*
X1620909Y5431348D2*
X1958913Y5093344D1*
X1578484Y5431348D2*
X1958913Y5050917D1*
X1536058Y5431348D2*
X1958913Y5008491D1*
X1493631Y5431348D2*
X1958913Y4966064D1*
X1451205Y5431348D2*
X1472461Y5410092D1*
X1490903Y5391650D2*
X1813874Y5068678D1*
X1887008Y4995545D2*
X1958913Y4923638D1*
X1408778Y5431348D2*
X1430034Y5410092D1*
X1490890Y5349236D2*
X1771407Y5068719D1*
X1879646Y4960480D2*
X1958913Y4881213D1*
X1366352Y5431348D2*
X1387608Y5410092D1*
X1490890Y5306810D2*
X1733759Y5063941D1*
X1861236Y4936463D2*
X1887636Y4910063D1*
X1903360Y4894340D2*
X1958913Y4838786D1*
X1323925Y5431348D2*
X1345181Y5410092D1*
X1490875Y5264398D2*
X1707864Y5047409D1*
X1833795Y4921479D2*
X1845182Y4910091D1*
X1903400Y4851873D2*
X1958913Y4796360D1*
X1281499Y5431348D2*
X1302755Y5410092D1*
X1483280Y5229567D2*
X1690890Y5021957D1*
X1794448Y4918399D2*
X1802757Y4910091D1*
X1903400Y4809446D2*
X1958913Y4753933D1*
X1239072Y5431348D2*
X1260328Y5410092D1*
X1442980Y5227440D2*
X1686236Y4984185D1*
X1751331Y4919089D2*
X1760331Y4910091D1*
X1903400Y4767020D2*
X1958913Y4711507D1*
X1196646Y5431348D2*
X1217902Y5410092D1*
X1400554Y5227440D2*
X1717904Y4910091D1*
X1903400Y4724593D2*
X1958913Y4669080D1*
X1154219Y5431348D2*
X1175475Y5410092D1*
X1358127Y5227440D2*
X1675478Y4910091D1*
X1903400Y4682167D2*
X1958913Y4626654D1*
X1111793Y5431348D2*
X1133049Y5410092D1*
X1315701Y5227440D2*
X1633051Y4910091D1*
X1903400Y4639740D2*
X1958913Y4584227D1*
X1069366Y5431348D2*
X1090623Y5410092D1*
X1273274Y5227440D2*
X1590625Y4910091D1*
X1903400Y4597314D2*
X1958913Y4541801D1*
X1026941Y5431348D2*
X1048197Y5410092D1*
X1230848Y5227440D2*
X1548198Y4910091D1*
X1903400Y4554887D2*
X1958913Y4499374D1*
X984514Y5431348D2*
X1005770Y5410092D1*
X1188421Y5227440D2*
X1505772Y4910091D1*
X1903400Y4512462D2*
X1958913Y4456948D1*
X942088Y5431348D2*
X963344Y5410092D1*
X1145995Y5227440D2*
X1463345Y4910091D1*
X1903400Y4470035D2*
X1958913Y4414521D1*
X899661Y5431348D2*
X920917Y5410092D1*
X1103568Y5227440D2*
X1420919Y4910091D1*
X1903400Y4427609D2*
X1958913Y4372096D1*
X857235Y5431348D2*
X890367Y5398215D1*
X1061143Y5227440D2*
X1378492Y4910091D1*
X1903400Y4385182D2*
X1958913Y4329669D1*
X814808Y5431348D2*
X889967Y5356189D1*
X1018717Y5227440D2*
X1336066Y4910091D1*
X1903400Y4342756D2*
X1958913Y4287243D1*
X772382Y5431348D2*
X889982Y5313749D1*
X976290Y5227440D2*
X1293639Y4910091D1*
X1903400Y4300329D2*
X1958913Y4244816D1*
X729955Y5431348D2*
X889982Y5271323D1*
X933864Y5227440D2*
X1251214Y4910091D1*
X1903400Y4257903D2*
X1958913Y4202390D1*
X687529Y5431348D2*
X710705Y5408172D1*
X760539Y5358337D2*
X1208787Y4910091D1*
X1903400Y4215476D2*
X1958913Y4159963D1*
X645102Y5431348D2*
X666953Y5409499D1*
X761865Y5314585D2*
X1166361Y4910091D1*
X1903400Y4173050D2*
X1958913Y4117537D1*
X602676Y5431348D2*
X638765Y5395260D1*
X747613Y5286412D2*
X1123934Y4910091D1*
X1903400Y4130623D2*
X1958913Y4075110D1*
X560249Y5431348D2*
X619458Y5372140D1*
X724507Y5267091D2*
X1081508Y4910091D1*
X1902752Y4088846D2*
X1958913Y4032684D1*
X517823Y5431348D2*
X610245Y5338925D1*
X691293Y5257879D2*
X1039081Y4910091D1*
X1871262Y4077908D2*
X1958913Y3990257D1*
X475398Y5431348D2*
X996655Y4910091D1*
X1828837Y4077908D2*
X1958913Y3947831D1*
X432971Y5431348D2*
X954228Y4910091D1*
X1786411Y4077908D2*
X1958913Y3905404D1*
X415707Y5406185D2*
X911802Y4910091D1*
X1743984Y4077908D2*
X1958913Y3862979D1*
X415707Y5363759D2*
X869375Y4910091D1*
X1701558Y4077908D2*
X1725623Y4053843D1*
X1750875Y4028591D2*
X1958913Y3820552D1*
X415707Y5321332D2*
X826949Y4910091D1*
X1659131Y4077908D2*
X1683197Y4053843D1*
X1729883Y4007156D2*
X1958913Y3778126D1*
X415707Y5278906D2*
X627232Y5067381D1*
X687730Y5006885D2*
X784522Y4910091D1*
X1616705Y4077908D2*
X1640770Y4053843D1*
X1708669Y3985944D2*
X1958913Y3735699D1*
X415707Y5236479D2*
X583467Y5068719D1*
X684635Y4967551D2*
X742096Y4910091D1*
X1574278Y4077908D2*
X1598345Y4053843D1*
X1687457Y3964730D2*
X1958913Y3693273D1*
X415707Y5194052D2*
X543402Y5066358D1*
X668394Y4941366D2*
X699669Y4910091D1*
X1531852Y4077908D2*
X1555919Y4053843D1*
X1666243Y3943517D2*
X1958913Y3650846D1*
X415707Y5151627D2*
X515186Y5052147D1*
X643218Y4924117D2*
X657244Y4910091D1*
X1489425Y4077908D2*
X1513492Y4053843D1*
X1645030Y3922303D2*
X1958913Y3608420D1*
X415707Y5109201D2*
X496072Y5028835D1*
X606509Y4918399D2*
X614818Y4910091D1*
X1446999Y4077908D2*
X1471066Y4053843D1*
X1623818Y3901091D2*
X1958913Y3565993D1*
X415707Y5066774D2*
X487551Y4994929D1*
X564083Y4918399D2*
X572391Y4910091D1*
X1404572Y4077908D2*
X1430089Y4052392D1*
X1602604Y3879877D2*
X1656459Y3826021D1*
X1781825Y3700656D2*
X1958913Y3523567D1*
X415707Y5024348D2*
X529965Y4910091D1*
X1362146Y4077908D2*
X1603579Y3836476D1*
X1792280Y3647774D2*
X1958913Y3481140D1*
X415707Y4981921D2*
X487538Y4910091D1*
X1319719Y4077908D2*
X1562312Y3835316D1*
X1615669Y3781959D2*
X1631324Y3766303D1*
X1723972Y3673656D2*
X1737764Y3659865D1*
X1791119Y3606509D2*
X1958913Y3438714D1*
X415707Y4939495D2*
X471214Y4883988D1*
X1277293Y4077908D2*
X1525701Y3829501D1*
X1571475Y3783727D2*
X1581814Y3773388D1*
X1731071Y3624131D2*
X1739531Y3615671D1*
X1785306Y3569896D2*
X1958913Y3396287D1*
X415707Y4897068D2*
X471214Y4841562D1*
X1234867Y4077908D2*
X1496878Y3815898D1*
X1536037Y3776739D2*
X1545367Y3767408D1*
X1725077Y3587698D2*
X1732543Y3580232D1*
X1771702Y3541073D2*
X1958913Y3353862D1*
X415707Y4854642D2*
X471214Y4799135D1*
X1192441Y4077908D2*
X1468773Y3801576D1*
X1507932Y3762417D2*
X1515688Y3754661D1*
X1712344Y3558005D2*
X1718222Y3552127D1*
X1757381Y3512969D2*
X1958913Y3311436D1*
X415707Y4812215D2*
X471214Y4756709D1*
X1150014Y4077908D2*
X1446621Y3781302D1*
X1483942Y3743980D2*
X1491035Y3736887D1*
X1694570Y3533353D2*
X1699798Y3528125D1*
X1737106Y3490816D2*
X1958913Y3269009D1*
X415707Y4769789D2*
X471214Y4714282D1*
X1107588Y4077908D2*
X1425407Y3760089D1*
X1462730Y3722766D2*
X1470900Y3714597D1*
X1672278Y3513218D2*
X1678584Y3506912D1*
X1715892Y3469604D2*
X1958913Y3226583D1*
X415707Y4727362D2*
X471214Y4671856D1*
X1065161Y4077908D2*
X1409055Y3734014D1*
X1448228Y3694841D2*
X1455432Y3687638D1*
X1645306Y3497764D2*
X1650646Y3492424D1*
X1689818Y3453252D2*
X1958913Y3184156D1*
X415707Y4684936D2*
X471214Y4629429D1*
X1022735Y4077908D2*
X1394734Y3705909D1*
X1437580Y3663063D2*
X1445613Y3655031D1*
X1612699Y3487944D2*
X1618867Y3481776D1*
X1661714Y3438930D2*
X1958913Y3141730D1*
X415707Y4642509D2*
X471214Y4587004D1*
X980308Y4077908D2*
X1385992Y3672226D1*
X1433409Y3624808D2*
X1444425Y3613793D1*
X1571461Y3486756D2*
X1580612Y3477605D1*
X1628043Y3430173D2*
X1958913Y3099303D1*
X415707Y4600084D2*
X471214Y4544577D1*
X937882Y4077908D2*
X1380192Y3635600D1*
X1447371Y3568419D2*
X1474698Y3541093D1*
X1498761Y3517029D2*
X1524223Y3491568D1*
X1591403Y3424387D2*
X1958913Y3056877D1*
X415707Y4557657D2*
X471214Y4502151D1*
X895455Y4077908D2*
X1386890Y3586475D1*
X1542278Y3431085D2*
X1958913Y3014450D1*
X415707Y4515231D2*
X471214Y4459724D1*
X853029Y4077908D2*
X1418005Y3512933D1*
X1468738Y3462201D2*
X1705018Y3225920D1*
X1869232Y3061705D2*
X1958913Y2972024D1*
X415707Y4472804D2*
X471214Y4417298D1*
X810602Y4077908D2*
X1644155Y3244357D1*
X1887671Y3000841D2*
X1958913Y2929597D1*
X415707Y4430378D2*
X471214Y4374871D1*
X768176Y4077908D2*
X794315Y4051770D1*
X951333Y3894751D2*
X1596411Y3249673D1*
X1892987Y2953097D2*
X1958913Y2887171D1*
X415707Y4387951D2*
X471214Y4332445D1*
X725749Y4077908D2*
X765022Y4038636D1*
X931999Y3871660D2*
X1555421Y3248238D1*
X1891551Y2912108D2*
X1958913Y2844744D1*
X415707Y4345525D2*
X471214Y4290018D1*
X683324Y4077908D2*
X743808Y4017424D1*
X889572Y3871660D2*
X1518975Y3242257D1*
X1885556Y2875675D2*
X1958913Y2802319D1*
X415707Y4303098D2*
X471214Y4247592D1*
X640898Y4077908D2*
X722596Y3996210D1*
X847146Y3871660D2*
X1486022Y3232783D1*
X1876097Y2842709D2*
X1958913Y2759892D1*
X415707Y4260672D2*
X471214Y4205165D1*
X598471Y4077908D2*
X701382Y3974997D1*
X804719Y3871660D2*
X846740Y3829639D1*
X985446Y3690933D2*
X1455929Y3220450D1*
X1863749Y2812630D2*
X1958913Y2717466D1*
X415707Y4218245D2*
X471214Y4162739D1*
X556045Y4077908D2*
X680169Y3953783D1*
X762293Y3871660D2*
X796331Y3837622D1*
X875113Y3758840D2*
X914647Y3719306D1*
X993429Y3640525D2*
X1428349Y3205604D1*
X1848903Y2785050D2*
X1958913Y2675039D1*
X415707Y4175819D2*
X471214Y4120312D1*
X513618Y4077908D2*
X658955Y3932571D1*
X719866Y3871660D2*
X757054Y3834474D1*
X808421Y3783106D2*
X822681Y3768845D1*
X926530Y3664997D2*
X938912Y3652614D1*
X990280Y3601247D2*
X1403062Y3188465D1*
X1831778Y2759748D2*
X1958913Y2632613D1*
X415707Y4133392D2*
X637743Y3911357D1*
X677440Y3871660D2*
X721008Y3828093D1*
X766215Y3782885D2*
X776029Y3773071D1*
X930756Y3618344D2*
X938692Y3610408D1*
X983899Y3565201D2*
X1379915Y3169185D1*
X1812484Y2736615D2*
X1958913Y2590186D1*
X415707Y4090966D2*
X621584Y3885089D1*
X634640Y3872033D2*
X692833Y3813840D1*
X731992Y3774681D2*
X740743Y3765930D1*
X923602Y3583072D2*
X930488Y3576186D1*
X969647Y3537028D2*
X1358881Y3147793D1*
X1791106Y2715568D2*
X1958913Y2547760D1*
X415707Y4048541D2*
X664978Y3799270D1*
X703887Y3760360D2*
X711850Y3752396D1*
X910081Y3554167D2*
X916167Y3548081D1*
X955076Y3509171D2*
X1339933Y3124314D1*
X1767627Y2696619D2*
X1958913Y2505333D1*
X415707Y4006114D2*
X643571Y3778249D1*
X680892Y3740928D2*
X687862Y3733959D1*
X891630Y3530190D2*
X896735Y3525087D1*
X934056Y3487764D2*
X1323154Y3098668D1*
X1741967Y2679853D2*
X1958913Y2462907D1*
X415707Y3963688D2*
X622358Y3757037D1*
X660480Y3718913D2*
X668375Y3711020D1*
X868690Y3510703D2*
X874720Y3504675D1*
X912844Y3466551D2*
X1308693Y3070701D1*
X1714001Y2665394D2*
X1958913Y2420480D1*
X415707Y3921261D2*
X607000Y3729967D1*
X646159Y3690808D2*
X653639Y3683329D1*
X841000Y3495969D2*
X846615Y3490353D1*
X885774Y3451194D2*
X1296789Y3040180D1*
X1683479Y2653490D2*
X1958913Y2378054D1*
X415707Y3878835D2*
X592678Y3701864D1*
X636740Y3657802D2*
X644786Y3649756D1*
X807427Y3487115D2*
X813608Y3480933D1*
X857669Y3436871D2*
X1287839Y3006702D1*
X1650016Y2644526D2*
X1958913Y2335627D1*
X415707Y3836408D2*
X585152Y3666963D1*
X634558Y3617558D2*
X645436Y3606680D1*
X764350Y3487764D2*
X773350Y3478765D1*
X822770Y3429345D2*
X1282495Y2969621D1*
X1612934Y2639181D2*
X1958913Y2293201D1*
X415707Y3793982D2*
X580097Y3629592D1*
X653714Y3555975D2*
X711782Y3497907D1*
X785398Y3424290D2*
X1281942Y2927747D1*
X1571060Y2638629D2*
X1958913Y2250776D1*
X415707Y3751555D2*
X588038Y3579224D1*
X735030Y3432232D2*
X1288736Y2878526D1*
X1521839Y2645424D2*
X1958913Y2208349D1*
X415707Y3709129D2*
X894843Y3229993D1*
X1073295Y3051541D2*
X1310917Y2813919D1*
X1457219Y2667617D2*
X1958913Y2165923D1*
X415707Y3666702D2*
X836713Y3245697D1*
X1088999Y2993411D2*
X1958913Y2123496D1*
X415707Y3624276D2*
X790171Y3249812D1*
X1093127Y2946856D2*
X1958913Y2081070D1*
X415707Y3581849D2*
X749927Y3247630D1*
X1090932Y2906625D2*
X1812009Y2185547D1*
X1878845Y2118711D2*
X1958913Y2038643D1*
X415707Y3539423D2*
X714047Y3241084D1*
X1084399Y2870731D2*
X1755123Y2200007D1*
X1893319Y2061812D2*
X1958913Y1996217D1*
X415707Y3496997D2*
X681522Y3231181D1*
X1074483Y2838220D2*
X1716370Y2196333D1*
X1889644Y2023059D2*
X1958913Y1953790D1*
X415707Y3454571D2*
X651816Y3218462D1*
X1061764Y2808513D2*
X1685214Y2185064D1*
X1878375Y1991902D2*
X1958913Y1911364D1*
X415707Y3412144D2*
X624581Y3203270D1*
X1046572Y2781280D2*
X1659387Y2168463D1*
X1861776Y1966076D2*
X1958913Y1868937D1*
X415707Y3369718D2*
X599597Y3185827D1*
X1029129Y2756295D2*
X1638133Y2147291D1*
X1840604Y1944822D2*
X1958913Y1826510D1*
X415707Y3327291D2*
X576769Y3166230D1*
X1009546Y2733453D2*
X1621463Y2121534D1*
X1814832Y1928165D2*
X1958913Y1784084D1*
X415707Y3284865D2*
X556025Y3144547D1*
X987862Y2712709D2*
X1610097Y2090475D1*
X1783786Y1916786D2*
X1958913Y1741657D1*
X415707Y3242438D2*
X537381Y3120765D1*
X964067Y2694079D2*
X1585556Y2072589D1*
X1759189Y1898957D2*
X1958913Y1699232D1*
X415707Y3200012D2*
X520932Y3094787D1*
X938089Y2677630D2*
X1424924Y2190795D1*
X1509092Y2106627D2*
X1543130Y2072589D1*
X1737976Y1877743D2*
X1958913Y1656806D1*
X415707Y3157585D2*
X506818Y3066475D1*
X909777Y2663516D2*
X1373161Y2200131D1*
X1716722Y1856571D2*
X1958913Y1614379D1*
X415707Y3115159D2*
X495314Y3035552D1*
X878869Y2651997D2*
X1335928Y2194938D1*
X1677955Y1852911D2*
X1958913Y1571953D1*
X415707Y3072732D2*
X486820Y3001621D1*
X844923Y2643517D2*
X1305724Y2182717D1*
X1635529Y1852911D2*
X1806651Y1681789D1*
X1881345Y1607094D2*
X1958913Y1529526D1*
X415707Y3030306D2*
X482068Y2963945D1*
X807247Y2638766D2*
X1280657Y2165356D1*
X1593102Y1852911D2*
X1752168Y1693845D1*
X1893402Y1552612D2*
X1958913Y1487100D1*
X415707Y2987881D2*
X482373Y2921214D1*
X764517Y2639071D2*
X1260135Y2143453D1*
X1550676Y1852911D2*
X1714064Y1689522D1*
X1889079Y1514508D2*
X1958913Y1444673D1*
X415707Y2945454D2*
X490618Y2870543D1*
X713845Y2647315D2*
X1244239Y2116921D1*
X1508249Y1852911D2*
X1683322Y1677839D1*
X1877395Y1483766D2*
X1958913Y1402247D1*
X415707Y2903028D2*
X517079Y2801655D1*
X644958Y2673777D2*
X1233881Y2084853D1*
X1465823Y1852911D2*
X1657799Y1660934D1*
X1860491Y1458244D2*
X1958913Y1359820D1*
X415707Y2860601D2*
X1203718Y2072589D1*
X1423396Y1852911D2*
X1636862Y1639445D1*
X1839001Y1437307D2*
X1958913Y1317394D1*
X415707Y2818175D2*
X1039606Y2194276D1*
X1137584Y2096297D2*
X1161291Y2072589D1*
X1380970Y1852911D2*
X1620510Y1613370D1*
X1812927Y1420955D2*
X1958913Y1274967D1*
X415707Y2775748D2*
X991517Y2199938D1*
X1338543Y1852911D2*
X1609559Y1581896D1*
X1781451Y1410003D2*
X1958913Y1232541D1*
X415707Y2733322D2*
X955651Y2193378D1*
X1314003Y1835026D2*
X1582684Y1566345D1*
X1757753Y1391276D2*
X1958913Y1190114D1*
X415707Y2690895D2*
X926358Y2180244D1*
X1292789Y1813814D2*
X1420436Y1686167D1*
X1510722Y1595881D2*
X1540257Y1566345D1*
X1736539Y1370063D2*
X1958913Y1147689D1*
X415707Y2648469D2*
X902051Y2162125D1*
X1271576Y1792600D2*
X1370344Y1693832D1*
X1715077Y1349098D2*
X1958913Y1105262D1*
X415707Y2606042D2*
X882247Y2139503D1*
X1250362Y1771387D2*
X1333690Y1688059D1*
X1675096Y1346654D2*
X1958913Y1062836D1*
X415707Y2563615D2*
X867165Y2112157D1*
X1220172Y1759151D2*
X1303873Y1675450D1*
X1632669Y1346654D2*
X1801735Y1177588D1*
X1883403Y1095920D2*
X1958913Y1020409D1*
X415707Y2521189D2*
X857857Y2079039D1*
X1177745Y1759151D2*
X1279125Y1657772D1*
X1590243Y1346654D2*
X1749268Y1187629D1*
X1893442Y1043454D2*
X1958913Y977983D1*
X415707Y2478762D2*
X821881Y2072589D1*
X1041559Y1852911D2*
X1258906Y1635564D1*
X1547816Y1346654D2*
X1711786Y1182685D1*
X1888484Y1005986D2*
X1958913Y935556D1*
X415707Y2436337D2*
X655379Y2196665D1*
X764972Y2087071D2*
X779454Y2072589D1*
X999133Y1852911D2*
X1243354Y1608689D1*
X1505391Y1346654D2*
X1681444Y1170600D1*
X1876415Y975630D2*
X1958913Y893130D1*
X415707Y2393911D2*
X610163Y2199454D1*
X956706Y1852911D2*
X1233425Y1576193D1*
X1462965Y1346654D2*
X1656253Y1153365D1*
X1859178Y950438D2*
X1958913Y850703D1*
X415707Y2351484D2*
X575554Y2191638D1*
X914280Y1852911D2*
X1200845Y1566345D1*
X1420538Y1346654D2*
X1635606Y1131585D1*
X1837386Y929806D2*
X1958913Y808277D1*
X415707Y2309058D2*
X547131Y2177634D1*
X871853Y1852911D2*
X1035629Y1689136D1*
X1138689Y1586075D2*
X1158419Y1566345D1*
X1378112Y1346654D2*
X1619600Y1105165D1*
X1810979Y913785D2*
X1958913Y765850D1*
X415707Y2266631D2*
X523556Y2158782D1*
X829427Y1852911D2*
X988824Y1693514D1*
X1335685Y1346654D2*
X1609062Y1073277D1*
X1779091Y903248D2*
X1958913Y723424D1*
X415707Y2224205D2*
X504483Y2135428D1*
X787000Y1852911D2*
X953496Y1686416D1*
X1312566Y1327346D2*
X1579824Y1060087D1*
X1756316Y883594D2*
X1958913Y680997D1*
X415707Y2181778D2*
X490231Y2107255D1*
X744573Y1852911D2*
X924577Y1672908D1*
X1291353Y1306133D2*
X1416196Y1181290D1*
X1512102Y1085383D2*
X1537398Y1060087D1*
X1735104Y862382D2*
X1958913Y638571D1*
X415707Y2139352D2*
X482055Y2073004D1*
X702147Y1852911D2*
X900573Y1654486D1*
X1270139Y1284920D2*
X1367568Y1187491D1*
X1713227Y841832D2*
X1958913Y596146D1*
X415707Y2096925D2*
X484071Y2028562D1*
X596869Y1915764D2*
X881073Y1631559D1*
X1248927Y1263706D2*
X1331495Y1181138D1*
X1672223Y840409D2*
X1958913Y553719D1*
X415707Y2054499D2*
X866337Y1603869D1*
X1217299Y1252907D2*
X1302064Y1168142D1*
X1629797Y840409D2*
X1958913Y511293D1*
X415707Y2012072D2*
X857484Y1570295D1*
X1174873Y1252907D2*
X1277619Y1150160D1*
X1587370Y840409D2*
X1958913Y468866D1*
X415707Y1969646D2*
X819008Y1566345D1*
X1038699Y1346654D2*
X1257705Y1127650D1*
X1544944Y840409D2*
X1958913Y426440D1*
X415707Y1927219D2*
X651747Y1691180D1*
X765745Y1577181D2*
X776581Y1566345D1*
X996273Y1346654D2*
X1242484Y1100442D1*
X1502518Y840409D2*
X1927218Y415709D1*
X415707Y1884794D2*
X607580Y1692920D1*
X953848Y1346654D2*
X1232997Y1067504D1*
X1460092Y840409D2*
X1884791Y415709D1*
X415707Y1842367D2*
X573469Y1684606D1*
X911421Y1346654D2*
X1197987Y1060087D1*
X1417665Y840409D2*
X1842365Y415709D1*
X415707Y1799941D2*
X545391Y1670257D1*
X868995Y1346654D2*
X1031803Y1183845D1*
X1139642Y1076005D2*
X1155560Y1060087D1*
X1375239Y840409D2*
X1799940Y415709D1*
X415707Y1757514D2*
X522119Y1651101D1*
X826568Y1346654D2*
X986172Y1187049D1*
X1332812Y840409D2*
X1757513Y415709D1*
X415707Y1715088D2*
X503352Y1627444D1*
X784142Y1346654D2*
X951370Y1179425D1*
X1311143Y819652D2*
X1715087Y415709D1*
X415707Y1672661D2*
X489458Y1598911D1*
X741715Y1346654D2*
X922808Y1165559D1*
X1289930Y798438D2*
X1672660Y415709D1*
X415707Y1630235D2*
X481778Y1564163D1*
X699289Y1346654D2*
X899110Y1146832D1*
X1268717Y777226D2*
X1630234Y415709D1*
X415707Y1587808D2*
X484873Y1518643D1*
X593196Y1410320D2*
X879913Y1123602D1*
X1247504Y756012D2*
X1587807Y415709D1*
X415707Y1545382D2*
X865522Y1095567D1*
X1214427Y746663D2*
X1545381Y415709D1*
X415707Y1502955D2*
X857167Y1061496D1*
X1172000Y746663D2*
X1502954Y415709D1*
X415707Y1460529D2*
X816150Y1060087D1*
X1035827Y840409D2*
X1460528Y415709D1*
X415707Y1418102D2*
X648226Y1185585D1*
X766395Y1067415D2*
X773723Y1060087D1*
X993400Y840409D2*
X1418101Y415709D1*
X415707Y1375676D2*
X605025Y1186358D1*
X950975Y840409D2*
X1375675Y415709D1*
X415707Y1333251D2*
X571396Y1177560D1*
X908549Y840409D2*
X1333248Y415709D1*
X415707Y1290824D2*
X543678Y1162853D1*
X866122Y840409D2*
X1290823Y415709D1*
X415707Y1248398D2*
X520711Y1143394D1*
X823696Y840409D2*
X1248396Y415709D1*
X415707Y1205971D2*
X502260Y1119417D1*
X781269Y840409D2*
X1205970Y415709D1*
X415707Y1163545D2*
X488726Y1090526D1*
X738843Y840409D2*
X1163543Y415709D1*
X415707Y1121118D2*
X481558Y1055268D1*
X696416Y840409D2*
X1121117Y415709D1*
X415707Y1078692D2*
X485811Y1008587D1*
X589398Y905001D2*
X1078690Y415709D1*
X415707Y1036265D2*
X1036264Y415709D1*
X415707Y993839D2*
X993837Y415709D1*
X415707Y951412D2*
X951411Y415709D1*
X415707Y908986D2*
X908984Y415709D1*
X415707Y866559D2*
X693318Y588950D1*
X764143Y518123D2*
X866558Y415709D1*
X415707Y824133D2*
X656692Y583150D1*
X758343Y481497D2*
X824131Y415709D1*
X415707Y781707D2*
X631570Y565844D1*
X741038Y456375D2*
X781705Y415709D1*
X415707Y739281D2*
X615121Y539866D1*
X715060Y439927D2*
X739280Y415709D1*
X415707Y696854D2*
X611005Y501555D1*
X676749Y435811D2*
X696853Y415709D1*
X415707Y654428D2*
X654427Y415709D1*
X415707Y612001D2*
X612000Y415709D1*
X415707Y569575D2*
X569573Y415709D1*
X415707Y527148D2*
X527147Y415709D1*
X415707Y484722D2*
X484720Y415709D1*
X415707Y442295D2*
X442294Y415709D1*
X763567Y507114D2*
X763077Y502139D1*
X762264Y497206D1*
X761129Y492337D1*
X759678Y487554D1*
X757917Y482875D1*
X755856Y478322D1*
X753500Y473912D1*
X750861Y469665D1*
X747950Y465601D1*
X744780Y461736D1*
X741364Y458087D1*
X737715Y454668D1*
X733852Y451496D1*
X729790Y448583D1*
X725546Y445941D1*
X721138Y443583D1*
X716585Y441517D1*
X711907Y439755D1*
X707123Y438301D1*
X702256Y437163D1*
X697324Y436346D1*
X692349Y435853D1*
X687353Y435686D1*
X682357Y435848D1*
X677381Y436333D1*
X672449Y437144D1*
X667579Y438277D1*
X662794Y439724D1*
X658114Y441482D1*
X653559Y443542D1*
X649148Y445895D1*
X644902Y448531D1*
X640835Y451440D1*
X636969Y454608D1*
X633316Y458022D1*
X629895Y461668D1*
X626720Y465529D1*
X623804Y469589D1*
X621160Y473832D1*
X618799Y478239D1*
X616732Y482790D1*
X614966Y487467D1*
X613509Y492249D1*
X612369Y497117D1*
X611549Y502047D1*
X611052Y507022D1*
X610883Y512018D1*
X611041Y517014D1*
X611525Y521991D1*
X612333Y526924D1*
X613462Y531794D1*
X614907Y536580D1*
X616661Y541261D1*
X618718Y545818D1*
X621068Y550230D1*
X623702Y554478D1*
X626609Y558546D1*
X629774Y562415D1*
X633186Y566068D1*
X636829Y569492D1*
X640689Y572669D1*
X644748Y575587D1*
X648990Y578234D1*
X653394Y580597D1*
X657945Y582668D1*
X662621Y584437D1*
X667402Y585896D1*
X672268Y587039D1*
X677199Y587862D1*
X682173Y588361D1*
X687169Y588534D1*
X692165Y588379D1*
X697142Y587899D1*
X702076Y587093D1*
X706946Y585967D1*
X711734Y584525D1*
X716415Y582773D1*
X720972Y580719D1*
X725386Y578371D1*
X729636Y575740D1*
X733706Y572836D1*
X737577Y569673D1*
X741232Y566264D1*
X744657Y562622D1*
X747837Y558765D1*
X750759Y554707D1*
X753408Y550469D1*
X755774Y546064D1*
X757848Y541516D1*
X759618Y536841D1*
X761081Y532060D1*
X762227Y527194D1*
X763054Y522264D1*
X763555Y517290D1*
X763731Y512110D1*
X763567Y507114D1*
X857720Y1059386D2*
X859236Y1069840D1*
X861386Y1079604D1*
X864214Y1089194D1*
X867705Y1098563D1*
X871843Y1107664D1*
X876606Y1116454D1*
X881974Y1124890D1*
X887916Y1132929D1*
X894407Y1140534D1*
X901413Y1147667D1*
X908902Y1154291D1*
X916835Y1160377D1*
X925173Y1165892D1*
X933877Y1170812D1*
X942904Y1175110D1*
X952209Y1178768D1*
X961747Y1181765D1*
X971471Y1184089D1*
X981333Y1185727D1*
X991287Y1186672D1*
X1001282Y1186919D1*
X1011269Y1186466D1*
X1021201Y1185316D1*
X1031028Y1183475D1*
X1040702Y1180951D1*
X1050176Y1177757D1*
X1059404Y1173908D1*
X1068340Y1169424D1*
X1076941Y1164327D1*
X1085164Y1158639D1*
X1092969Y1152392D1*
X1100319Y1145614D1*
X1107176Y1138339D1*
X1113509Y1130602D1*
X1119285Y1122441D1*
X1124476Y1113896D1*
X1129058Y1105010D1*
X1133007Y1095825D1*
X1136304Y1086386D1*
X1138933Y1076740D1*
X1140882Y1066934D1*
X1141879Y1059404D1*
X1232718Y1059400D1*
X1234236Y1069840D1*
X1236386Y1079604D1*
X1239214Y1089194D1*
X1242705Y1098563D1*
X1246843Y1107664D1*
X1251606Y1116454D1*
X1256974Y1124890D1*
X1262916Y1132929D1*
X1269407Y1140534D1*
X1276413Y1147667D1*
X1283902Y1154291D1*
X1291835Y1160377D1*
X1300173Y1165892D1*
X1308877Y1170812D1*
X1317904Y1175110D1*
X1327209Y1178768D1*
X1336747Y1181765D1*
X1346471Y1184089D1*
X1356333Y1185727D1*
X1366287Y1186672D1*
X1376282Y1186919D1*
X1386269Y1186466D1*
X1396201Y1185316D1*
X1406028Y1183475D1*
X1415702Y1180951D1*
X1425176Y1177757D1*
X1434404Y1173908D1*
X1443340Y1169424D1*
X1451941Y1164327D1*
X1460164Y1158639D1*
X1467969Y1152392D1*
X1475319Y1145614D1*
X1482176Y1138339D1*
X1488509Y1130602D1*
X1494285Y1122441D1*
X1499476Y1113896D1*
X1504058Y1105010D1*
X1508007Y1095825D1*
X1511304Y1086386D1*
X1513933Y1076740D1*
X1515882Y1066934D1*
X1516879Y1059404D1*
X1607718Y1059400D1*
X1609236Y1069840D1*
X1611386Y1079604D1*
X1614214Y1089194D1*
X1617705Y1098563D1*
X1621843Y1107664D1*
X1626606Y1116454D1*
X1631974Y1124890D1*
X1637916Y1132929D1*
X1644407Y1140534D1*
X1651413Y1147667D1*
X1658902Y1154291D1*
X1666835Y1160377D1*
X1675173Y1165892D1*
X1683877Y1170812D1*
X1692904Y1175110D1*
X1702209Y1178768D1*
X1711747Y1181765D1*
X1721471Y1184089D1*
X1731333Y1185727D1*
X1741287Y1186672D1*
X1751282Y1186919D1*
X1761269Y1186466D1*
X1771201Y1185316D1*
X1781028Y1183475D1*
X1790702Y1180951D1*
X1800176Y1177757D1*
X1809404Y1173908D1*
X1818340Y1169424D1*
X1826941Y1164327D1*
X1835164Y1158639D1*
X1842969Y1152392D1*
X1850319Y1145614D1*
X1857176Y1138339D1*
X1863509Y1130602D1*
X1869285Y1122441D1*
X1874476Y1113896D1*
X1879058Y1105010D1*
X1883007Y1095825D1*
X1886304Y1086386D1*
X1888933Y1076740D1*
X1890882Y1066934D1*
X1892139Y1057016D1*
X1892701Y1047034D1*
X1892646Y1039001D1*
X1891948Y1029028D1*
X1890552Y1019127D1*
X1888470Y1009349D1*
X1885707Y999740D1*
X1882281Y990348D1*
X1878206Y981218D1*
X1873503Y972395D1*
X1868194Y963923D1*
X1862307Y955843D1*
X1855869Y948193D1*
X1848911Y941013D1*
X1841469Y934336D1*
X1833579Y928197D1*
X1825278Y922623D1*
X1816608Y917644D1*
X1807612Y913283D1*
X1798332Y909563D1*
X1788814Y906500D1*
X1779106Y904109D1*
X1769255Y902403D1*
X1765202Y901919D1*
X1765017Y897841D1*
X1764453Y895492D1*
X1763529Y893259D1*
X1762266Y891198D1*
X1760697Y889361D1*
X1716058Y844790D1*
X1714102Y843369D1*
X1711950Y842272D1*
X1709651Y841525D1*
X1707265Y841147D1*
X1691056Y841100D1*
X1331154D1*
X1241058Y751039D1*
X1239102Y749618D1*
X1236950Y748521D1*
X1234651Y747774D1*
X1232265Y747396D1*
X1216056Y747349D1*
X1148598Y747396D1*
X1146213Y747774D1*
X1143913Y748521D1*
X1141761Y749618D1*
X1139806Y751039D1*
X1043709Y841109D1*
X673598Y841147D1*
X671213Y841525D1*
X668913Y842272D1*
X666761Y843369D1*
X664806Y844790D1*
X653311Y856217D1*
X613097Y896499D1*
X611676Y898454D1*
X610579Y900606D1*
X610136Y901828D1*
X599450Y903341D1*
X589680Y905458D1*
X580080Y908252D1*
X570699Y911711D1*
X561584Y915818D1*
X552777Y920551D1*
X544323Y925888D1*
X536262Y931804D1*
X528636Y938269D1*
X521480Y945251D1*
X514829Y952715D1*
X508717Y960627D1*
X503172Y968948D1*
X498223Y977634D1*
X493892Y986646D1*
X490203Y995938D1*
X487173Y1005466D1*
X484816Y1015182D1*
X483144Y1025039D1*
X482165Y1034990D1*
X481885Y1044983D1*
X482302Y1054972D1*
X483419Y1064908D1*
X485226Y1074741D1*
X487717Y1084424D1*
X490878Y1093909D1*
X494694Y1103150D1*
X499148Y1112101D1*
X504217Y1120719D1*
X509874Y1128962D1*
X516096Y1136789D1*
X522848Y1144161D1*
X530100Y1151045D1*
X537815Y1157403D1*
X545955Y1163207D1*
X554482Y1168428D1*
X563353Y1173041D1*
X572524Y1177021D1*
X581951Y1180350D1*
X591588Y1183013D1*
X601388Y1184995D1*
X611302Y1186287D1*
X621282Y1186883D1*
X631280Y1186780D1*
X641245Y1185978D1*
X651131Y1184482D1*
X660887Y1182298D1*
X670467Y1179437D1*
X679824Y1175913D1*
X688911Y1171744D1*
X697685Y1166950D1*
X706101Y1161555D1*
X714121Y1155584D1*
X721703Y1149067D1*
X728811Y1142037D1*
X735411Y1134526D1*
X741469Y1126572D1*
X746955Y1118214D1*
X751845Y1109493D1*
X756113Y1100453D1*
X759738Y1091135D1*
X762703Y1081587D1*
X764993Y1071854D1*
X766597Y1061986D1*
X766879Y1059404D1*
X857718Y1059400D1*
X610143Y1408089D2*
X604386Y1408789D1*
X594546Y1410563D1*
X584856Y1413020D1*
X575360Y1416150D1*
X566105Y1419934D1*
X557139Y1424357D1*
X548504Y1429395D1*
X540241Y1435025D1*
X532392Y1441219D1*
X524997Y1447946D1*
X518089Y1455175D1*
X511703Y1462867D1*
X505871Y1470988D1*
X500622Y1479497D1*
X495979Y1488352D1*
X491967Y1497509D1*
X488605Y1506925D1*
X485909Y1516552D1*
X483894Y1526345D1*
X482567Y1536255D1*
X481937Y1546234D1*
X482005Y1556231D1*
X482773Y1566199D1*
X484236Y1576089D1*
X486386Y1585853D1*
X489214Y1595444D1*
X492705Y1604812D1*
X496843Y1613913D1*
X501606Y1622703D1*
X506974Y1631139D1*
X512916Y1639178D1*
X519407Y1646783D1*
X526413Y1653916D1*
X533902Y1660541D1*
X541835Y1666626D1*
X550173Y1672142D1*
X558877Y1677062D1*
X567904Y1681360D1*
X577209Y1685017D1*
X586747Y1688014D1*
X596471Y1690339D1*
X606333Y1691976D1*
X616287Y1692921D1*
X626282Y1693168D1*
X636269Y1692715D1*
X646201Y1691566D1*
X656028Y1689724D1*
X665702Y1687201D1*
X675176Y1684007D1*
X684404Y1680157D1*
X693340Y1675673D1*
X701941Y1670576D1*
X710164Y1664888D1*
X717969Y1658642D1*
X725319Y1651864D1*
X732176Y1644588D1*
X738509Y1636852D1*
X744285Y1628690D1*
X749476Y1620146D1*
X754058Y1611260D1*
X758007Y1602075D1*
X761304Y1592635D1*
X763933Y1582990D1*
X765882Y1573184D1*
X766879Y1565654D1*
X857718Y1565650D1*
X859236Y1576091D1*
X861386Y1585854D1*
X864214Y1595445D1*
X867705Y1604814D1*
X871843Y1613915D1*
X876606Y1622705D1*
X881974Y1631140D1*
X887916Y1639180D1*
X894407Y1646785D1*
X901413Y1653917D1*
X908902Y1660542D1*
X916835Y1666627D1*
X925173Y1672143D1*
X933877Y1677063D1*
X942904Y1681361D1*
X952209Y1685018D1*
X961747Y1688016D1*
X971471Y1690340D1*
X981333Y1691978D1*
X991287Y1692923D1*
X1001282Y1693169D1*
X1011269Y1692717D1*
X1021201Y1691567D1*
X1031028Y1689726D1*
X1040702Y1687202D1*
X1050176Y1684008D1*
X1059404Y1680159D1*
X1068340Y1675675D1*
X1076941Y1670577D1*
X1085164Y1664890D1*
X1092969Y1658643D1*
X1100319Y1651865D1*
X1107176Y1644589D1*
X1113509Y1636853D1*
X1119285Y1628692D1*
X1124476Y1620147D1*
X1129058Y1611261D1*
X1133007Y1602076D1*
X1136304Y1592636D1*
X1138933Y1582991D1*
X1140882Y1573185D1*
X1141879Y1565655D1*
X1232718Y1565650D1*
X1234236Y1576091D1*
X1236386Y1585854D1*
X1239214Y1595445D1*
X1242705Y1604814D1*
X1246843Y1613915D1*
X1251606Y1622705D1*
X1256974Y1631140D1*
X1262916Y1639180D1*
X1269407Y1646785D1*
X1276413Y1653917D1*
X1283902Y1660542D1*
X1291835Y1666627D1*
X1300173Y1672143D1*
X1308877Y1677063D1*
X1317904Y1681361D1*
X1327209Y1685018D1*
X1336747Y1688016D1*
X1346471Y1690340D1*
X1356333Y1691978D1*
X1366287Y1692923D1*
X1376282Y1693169D1*
X1386269Y1692717D1*
X1396201Y1691567D1*
X1406028Y1689726D1*
X1415702Y1687202D1*
X1425176Y1684008D1*
X1434404Y1680159D1*
X1443340Y1675675D1*
X1451941Y1670577D1*
X1460164Y1664890D1*
X1467969Y1658643D1*
X1475319Y1651865D1*
X1482176Y1644589D1*
X1488509Y1636853D1*
X1494285Y1628692D1*
X1499476Y1620147D1*
X1504058Y1611261D1*
X1508007Y1602076D1*
X1511304Y1592636D1*
X1513933Y1582991D1*
X1515882Y1573185D1*
X1516879Y1565655D1*
X1607718Y1565650D1*
X1609236Y1576091D1*
X1611386Y1585854D1*
X1614214Y1595445D1*
X1617705Y1604814D1*
X1621843Y1613915D1*
X1626606Y1622705D1*
X1631974Y1631140D1*
X1637916Y1639180D1*
X1644407Y1646785D1*
X1651413Y1653917D1*
X1658902Y1660542D1*
X1666835Y1666627D1*
X1675173Y1672143D1*
X1683877Y1677063D1*
X1692904Y1681361D1*
X1702209Y1685018D1*
X1711747Y1688016D1*
X1721471Y1690340D1*
X1731333Y1691978D1*
X1741287Y1692923D1*
X1751282Y1693169D1*
X1761269Y1692717D1*
X1771201Y1691567D1*
X1781028Y1689726D1*
X1790702Y1687202D1*
X1800176Y1684008D1*
X1809404Y1680159D1*
X1818340Y1675675D1*
X1826941Y1670577D1*
X1835164Y1664890D1*
X1842969Y1658643D1*
X1850319Y1651865D1*
X1857176Y1644589D1*
X1863509Y1636853D1*
X1869285Y1628692D1*
X1874476Y1620147D1*
X1879058Y1611261D1*
X1883007Y1602076D1*
X1886304Y1592636D1*
X1888933Y1582991D1*
X1890882Y1573185D1*
X1892139Y1563266D1*
X1892701Y1553285D1*
X1892646Y1545252D1*
X1891948Y1535278D1*
X1890552Y1525378D1*
X1888470Y1515600D1*
X1885707Y1505991D1*
X1882281Y1496598D1*
X1878206Y1487469D1*
X1873503Y1478646D1*
X1868194Y1470173D1*
X1862307Y1462093D1*
X1855869Y1454444D1*
X1848911Y1447264D1*
X1841469Y1440587D1*
X1833579Y1434448D1*
X1825278Y1428874D1*
X1816608Y1423895D1*
X1807612Y1419534D1*
X1798332Y1415814D1*
X1788814Y1412751D1*
X1779106Y1410360D1*
X1769255Y1408654D1*
X1765202Y1408169D1*
X1765017Y1404092D1*
X1764454Y1401743D1*
X1763529Y1399510D1*
X1762266Y1397450D1*
X1760697Y1395612D1*
X1716058Y1351039D1*
X1714104Y1349618D1*
X1711950Y1348521D1*
X1709652Y1347774D1*
X1707265Y1347396D1*
X1691056Y1347349D1*
X1331154D1*
X1241058Y1257290D1*
X1239102Y1255869D1*
X1236950Y1254772D1*
X1234651Y1254025D1*
X1232265Y1253647D1*
X1216056Y1253600D1*
X1148598Y1253647D1*
X1146213Y1254025D1*
X1143913Y1254772D1*
X1141761Y1255869D1*
X1139806Y1257290D1*
X1043707Y1347358D1*
X673598Y1347396D1*
X671213Y1347774D1*
X668913Y1348521D1*
X666761Y1349618D1*
X664806Y1351039D1*
X653311Y1362467D1*
X613097Y1402749D1*
X611676Y1404705D1*
X610579Y1406857D1*
X610136Y1408079D1*
X857720Y2071886D2*
X859236Y2082340D1*
X861386Y2092104D1*
X864214Y2101694D1*
X867705Y2111063D1*
X871843Y2120164D1*
X876606Y2128954D1*
X881974Y2137390D1*
X887916Y2145429D1*
X894407Y2153034D1*
X901413Y2160167D1*
X908902Y2166791D1*
X916835Y2172877D1*
X925173Y2178392D1*
X933877Y2183312D1*
X942904Y2187610D1*
X952209Y2191268D1*
X961747Y2194265D1*
X971471Y2196589D1*
X981333Y2198227D1*
X991287Y2199172D1*
X1001282Y2199419D1*
X1011269Y2198966D1*
X1021201Y2197816D1*
X1031028Y2195975D1*
X1040702Y2193451D1*
X1050176Y2190257D1*
X1059404Y2186408D1*
X1068340Y2181924D1*
X1076941Y2176827D1*
X1085164Y2171139D1*
X1092969Y2164892D1*
X1100319Y2158114D1*
X1107176Y2150839D1*
X1113509Y2143102D1*
X1119285Y2134941D1*
X1124476Y2126396D1*
X1129058Y2117510D1*
X1133007Y2108325D1*
X1136304Y2098886D1*
X1138933Y2089240D1*
X1140882Y2079434D1*
X1141879Y2071904D1*
X1232718Y2071900D1*
X1234236Y2082340D1*
X1236386Y2092104D1*
X1239214Y2101694D1*
X1242705Y2111063D1*
X1246843Y2120164D1*
X1251606Y2128954D1*
X1256974Y2137390D1*
X1262916Y2145429D1*
X1269407Y2153034D1*
X1276413Y2160167D1*
X1283902Y2166791D1*
X1291835Y2172877D1*
X1300173Y2178392D1*
X1308877Y2183312D1*
X1317904Y2187610D1*
X1327209Y2191268D1*
X1336747Y2194265D1*
X1346471Y2196589D1*
X1356333Y2198227D1*
X1366287Y2199172D1*
X1376282Y2199419D1*
X1386269Y2198966D1*
X1396201Y2197816D1*
X1406028Y2195975D1*
X1415702Y2193451D1*
X1425176Y2190257D1*
X1434404Y2186408D1*
X1443340Y2181924D1*
X1451941Y2176827D1*
X1460164Y2171139D1*
X1467969Y2164892D1*
X1475319Y2158114D1*
X1482176Y2150839D1*
X1488509Y2143102D1*
X1494285Y2134941D1*
X1499476Y2126396D1*
X1504058Y2117510D1*
X1508007Y2108325D1*
X1511304Y2098886D1*
X1513933Y2089240D1*
X1515882Y2079434D1*
X1516879Y2071904D1*
X1607718Y2071900D1*
X1609236Y2082340D1*
X1611386Y2092104D1*
X1614214Y2101694D1*
X1617705Y2111063D1*
X1621843Y2120164D1*
X1626606Y2128954D1*
X1631974Y2137390D1*
X1637916Y2145429D1*
X1644407Y2153034D1*
X1651413Y2160167D1*
X1658902Y2166791D1*
X1666835Y2172877D1*
X1675173Y2178392D1*
X1683877Y2183312D1*
X1692904Y2187610D1*
X1702209Y2191268D1*
X1711747Y2194265D1*
X1721471Y2196589D1*
X1731333Y2198227D1*
X1741287Y2199172D1*
X1751282Y2199419D1*
X1761269Y2198966D1*
X1771201Y2197816D1*
X1781028Y2195975D1*
X1790702Y2193451D1*
X1800176Y2190257D1*
X1809404Y2186408D1*
X1818340Y2181924D1*
X1826941Y2176827D1*
X1835164Y2171139D1*
X1842969Y2164892D1*
X1850319Y2158114D1*
X1857176Y2150839D1*
X1863509Y2143102D1*
X1869285Y2134941D1*
X1874476Y2126396D1*
X1879058Y2117510D1*
X1883007Y2108325D1*
X1886304Y2098886D1*
X1888933Y2089240D1*
X1890882Y2079434D1*
X1892139Y2069516D1*
X1892701Y2059534D1*
X1892646Y2051501D1*
X1891948Y2041528D1*
X1890552Y2031627D1*
X1888470Y2021849D1*
X1885707Y2012240D1*
X1882281Y2002848D1*
X1878206Y1993718D1*
X1873503Y1984895D1*
X1868194Y1976423D1*
X1862307Y1968343D1*
X1855869Y1960693D1*
X1848911Y1953513D1*
X1841469Y1946836D1*
X1833579Y1940697D1*
X1825278Y1935123D1*
X1816608Y1930144D1*
X1807612Y1925783D1*
X1798332Y1922063D1*
X1788814Y1919000D1*
X1779106Y1916609D1*
X1769255Y1914903D1*
X1765202Y1914419D1*
X1765017Y1910341D1*
X1764453Y1907992D1*
X1763529Y1905759D1*
X1762266Y1903698D1*
X1760697Y1901861D1*
X1716058Y1857290D1*
X1714102Y1855869D1*
X1711950Y1854772D1*
X1709651Y1854025D1*
X1707265Y1853647D1*
X1691056Y1853600D1*
X1331154D1*
X1241058Y1763539D1*
X1239102Y1762118D1*
X1236950Y1761021D1*
X1234651Y1760274D1*
X1232265Y1759896D1*
X1216056Y1759849D1*
X1148598Y1759896D1*
X1146213Y1760274D1*
X1143913Y1761021D1*
X1141761Y1762118D1*
X1139806Y1763539D1*
X1043709Y1853609D1*
X673598Y1853647D1*
X671213Y1854025D1*
X668913Y1854772D1*
X666761Y1855869D1*
X664806Y1857290D1*
X653311Y1868717D1*
X613097Y1908999D1*
X611676Y1910954D1*
X610579Y1913106D1*
X610136Y1914328D1*
X599450Y1915841D1*
X589680Y1917958D1*
X580080Y1920752D1*
X570699Y1924211D1*
X561584Y1928318D1*
X552777Y1933051D1*
X544323Y1938388D1*
X536262Y1944304D1*
X528636Y1950769D1*
X521480Y1957751D1*
X514829Y1965215D1*
X508717Y1973127D1*
X503172Y1981448D1*
X498223Y1990134D1*
X493892Y1999146D1*
X490203Y2008438D1*
X487173Y2017966D1*
X484816Y2027682D1*
X483144Y2037539D1*
X482165Y2047490D1*
X481885Y2057483D1*
X482302Y2067472D1*
X483419Y2077408D1*
X485226Y2087241D1*
X487717Y2096924D1*
X490878Y2106409D1*
X494694Y2115650D1*
X499148Y2124601D1*
X504217Y2133219D1*
X509874Y2141462D1*
X516096Y2149289D1*
X522848Y2156661D1*
X530100Y2163545D1*
X537815Y2169903D1*
X545955Y2175707D1*
X554482Y2180928D1*
X563353Y2185541D1*
X572524Y2189521D1*
X581951Y2192850D1*
X591588Y2195513D1*
X601388Y2197495D1*
X611302Y2198787D1*
X621282Y2199383D1*
X631280Y2199280D1*
X641245Y2198478D1*
X651131Y2196982D1*
X660887Y2194798D1*
X670467Y2191937D1*
X679824Y2188413D1*
X688911Y2184244D1*
X697685Y2179450D1*
X706101Y2174055D1*
X714121Y2168084D1*
X721703Y2161567D1*
X728811Y2154537D1*
X735411Y2147026D1*
X741469Y2139072D1*
X746955Y2130714D1*
X751845Y2121993D1*
X756113Y2112953D1*
X759738Y2103635D1*
X762703Y2094087D1*
X764993Y2084354D1*
X766597Y2074486D1*
X766879Y2071904D1*
X857718Y2071900D1*
X1092398Y2939000D2*
X1091783Y2924014D1*
X1090433Y2909076D1*
X1088350Y2894223D1*
X1085541Y2879491D1*
X1082010Y2864913D1*
X1077769Y2850528D1*
X1072824Y2836367D1*
X1067190Y2822467D1*
X1060881Y2808861D1*
X1053909Y2795580D1*
X1046294Y2782659D1*
X1038052Y2770127D1*
X1029206Y2758016D1*
X1019774Y2746354D1*
X1009782Y2735169D1*
X999251Y2724490D1*
X988209Y2714340D1*
X976680Y2704745D1*
X964694Y2695728D1*
X952281Y2687312D1*
X939467Y2679516D1*
X926287Y2672358D1*
X912772Y2665857D1*
X898951Y2660028D1*
X884862Y2654885D1*
X870538Y2650440D1*
X856012Y2646705D1*
X841320Y2643688D1*
X826497Y2641396D1*
X811580Y2639836D1*
X796605Y2639010D1*
X781606Y2638923D1*
X766622Y2639571D1*
X751688Y2640955D1*
X736839Y2643071D1*
X722113Y2645915D1*
X707543Y2649479D1*
X693168Y2653753D1*
X679018Y2658731D1*
X665131Y2664396D1*
X651539Y2670738D1*
X638276Y2677739D1*
X625371Y2685385D1*
X612860Y2693655D1*
X600768Y2702529D1*
X589127Y2711987D1*
X577966Y2722005D1*
X567311Y2732560D1*
X557186Y2743627D1*
X547618Y2755177D1*
X538629Y2767184D1*
X530240Y2779617D1*
X522474Y2792448D1*
X515346Y2805644D1*
X508877Y2819176D1*
X503079Y2833008D1*
X497969Y2847109D1*
X493556Y2861444D1*
X489854Y2875978D1*
X486871Y2890677D1*
X484614Y2905505D1*
X483088Y2920425D1*
X482297Y2935403D1*
X482243Y2950402D1*
X482927Y2965385D1*
X484345Y2980316D1*
X486495Y2995159D1*
X489373Y3009879D1*
X492970Y3024440D1*
X497278Y3038806D1*
X502287Y3052944D1*
X507984Y3066818D1*
X514357Y3080395D1*
X521390Y3093643D1*
X529064Y3106529D1*
X537362Y3119022D1*
X546265Y3131093D1*
X555751Y3142711D1*
X565794Y3153850D1*
X576374Y3164482D1*
X587463Y3174580D1*
X599035Y3184122D1*
X611062Y3193084D1*
X623514Y3201444D1*
X636364Y3209181D1*
X649576Y3216278D1*
X663122Y3222717D1*
X676969Y3228483D1*
X691081Y3233562D1*
X705427Y3237940D1*
X719969Y3241608D1*
X734675Y3244558D1*
X749508Y3246781D1*
X764432Y3248273D1*
X779411Y3249029D1*
X794409Y3249049D1*
X809391Y3248331D1*
X824319Y3246878D1*
X839157Y3244694D1*
X853870Y3241782D1*
X868423Y3238152D1*
X882780Y3233811D1*
X896906Y3228769D1*
X910766Y3223039D1*
X924328Y3216635D1*
X937560Y3209573D1*
X950429Y3201869D1*
X962903Y3193542D1*
X974954Y3184612D1*
X986550Y3175100D1*
X997665Y3165030D1*
X1008273Y3154427D1*
X1018346Y3143314D1*
X1027861Y3131720D1*
X1036795Y3119672D1*
X1045126Y3107201D1*
X1052835Y3094335D1*
X1059900Y3081105D1*
X1066308Y3067545D1*
X1072042Y3053685D1*
X1077088Y3039560D1*
X1081434Y3025206D1*
X1085070Y3010655D1*
X1087984Y2995942D1*
X1090175Y2981104D1*
X1091631Y2966177D1*
X1092353Y2951196D1*
X1092398Y2939000D1*
X1892398D2*
X1891783Y2924014D1*
X1890433Y2909076D1*
X1888350Y2894223D1*
X1885541Y2879491D1*
X1882010Y2864913D1*
X1877769Y2850528D1*
X1872824Y2836367D1*
X1867190Y2822467D1*
X1860881Y2808861D1*
X1853909Y2795580D1*
X1846294Y2782659D1*
X1838052Y2770127D1*
X1829206Y2758016D1*
X1819774Y2746354D1*
X1809782Y2735169D1*
X1799251Y2724490D1*
X1788209Y2714340D1*
X1776680Y2704745D1*
X1764694Y2695728D1*
X1752281Y2687312D1*
X1739467Y2679516D1*
X1726287Y2672358D1*
X1712772Y2665857D1*
X1698951Y2660028D1*
X1684862Y2654885D1*
X1670538Y2650440D1*
X1656012Y2646705D1*
X1641320Y2643688D1*
X1626497Y2641396D1*
X1611580Y2639836D1*
X1596605Y2639010D1*
X1581606Y2638923D1*
X1566622Y2639571D1*
X1551688Y2640955D1*
X1536839Y2643071D1*
X1522113Y2645915D1*
X1507543Y2649479D1*
X1493168Y2653753D1*
X1479018Y2658731D1*
X1465131Y2664396D1*
X1451539Y2670738D1*
X1438276Y2677739D1*
X1425371Y2685385D1*
X1412860Y2693655D1*
X1400768Y2702529D1*
X1389127Y2711987D1*
X1377966Y2722005D1*
X1367311Y2732560D1*
X1357186Y2743627D1*
X1347618Y2755177D1*
X1338629Y2767184D1*
X1330240Y2779617D1*
X1322474Y2792448D1*
X1315346Y2805644D1*
X1308877Y2819176D1*
X1303079Y2833008D1*
X1297969Y2847109D1*
X1293556Y2861444D1*
X1289854Y2875978D1*
X1286871Y2890677D1*
X1284614Y2905505D1*
X1283088Y2920425D1*
X1282297Y2935403D1*
X1282243Y2950402D1*
X1282927Y2965385D1*
X1284345Y2980316D1*
X1286495Y2995159D1*
X1289373Y3009879D1*
X1292970Y3024440D1*
X1297278Y3038806D1*
X1302287Y3052944D1*
X1307984Y3066818D1*
X1314357Y3080395D1*
X1321390Y3093643D1*
X1329064Y3106529D1*
X1337362Y3119022D1*
X1346265Y3131093D1*
X1355751Y3142711D1*
X1365794Y3153850D1*
X1376374Y3164482D1*
X1387463Y3174580D1*
X1399035Y3184122D1*
X1411062Y3193084D1*
X1423514Y3201444D1*
X1436364Y3209181D1*
X1449576Y3216278D1*
X1463122Y3222717D1*
X1476969Y3228483D1*
X1491081Y3233562D1*
X1505427Y3237940D1*
X1519969Y3241608D1*
X1534675Y3244558D1*
X1549508Y3246781D1*
X1564432Y3248273D1*
X1579411Y3249029D1*
X1594409Y3249049D1*
X1609391Y3248331D1*
X1624319Y3246878D1*
X1639157Y3244694D1*
X1653870Y3241782D1*
X1668423Y3238152D1*
X1682780Y3233811D1*
X1696906Y3228769D1*
X1710766Y3223039D1*
X1724328Y3216635D1*
X1737560Y3209573D1*
X1750429Y3201869D1*
X1762903Y3193542D1*
X1774954Y3184612D1*
X1786550Y3175100D1*
X1797665Y3165030D1*
X1808273Y3154427D1*
X1818346Y3143314D1*
X1827861Y3131720D1*
X1836795Y3119672D1*
X1845126Y3107201D1*
X1852835Y3094335D1*
X1859900Y3081105D1*
X1866308Y3067545D1*
X1872042Y3053685D1*
X1877088Y3039560D1*
X1881434Y3025206D1*
X1885070Y3010655D1*
X1887984Y2995942D1*
X1890175Y2981104D1*
X1891631Y2966177D1*
X1892353Y2951196D1*
X1892398Y2939000D1*
X930350Y3624631D2*
X929654Y3614657D1*
X928261Y3604757D1*
X926180Y3594978D1*
X923423Y3585367D1*
X920000Y3575974D1*
X915930Y3566841D1*
X911234Y3558016D1*
X905932Y3549539D1*
X900051Y3541453D1*
X893621Y3533798D1*
X886672Y3526610D1*
X879238Y3519924D1*
X871354Y3513774D1*
X863062Y3508190D1*
X854400Y3503198D1*
X845409Y3498823D1*
X836136Y3495085D1*
X826625Y3492005D1*
X816921Y3489596D1*
X807073Y3487870D1*
X797130Y3486836D1*
X787136Y3486499D1*
X777146Y3486860D1*
X767203Y3487917D1*
X757360Y3489667D1*
X747663Y3492098D1*
X738159Y3495202D1*
X728894Y3498961D1*
X719915Y3503357D1*
X711264Y3508370D1*
X702984Y3513974D1*
X695117Y3520143D1*
X687698Y3526846D1*
X680765Y3534050D1*
X674353Y3541720D1*
X668492Y3549820D1*
X663210Y3558310D1*
X658534Y3567147D1*
X654487Y3576289D1*
X651087Y3585692D1*
X648352Y3595307D1*
X646295Y3605092D1*
X644927Y3614996D1*
X644252Y3624971D1*
X644276Y3634969D1*
X644997Y3644941D1*
X646413Y3654837D1*
X648517Y3664612D1*
X651297Y3674215D1*
X654741Y3683601D1*
X658832Y3692724D1*
X663551Y3701539D1*
X668873Y3710003D1*
X674772Y3718075D1*
X681220Y3725715D1*
X688188Y3732886D1*
X695638Y3739554D1*
X703534Y3745685D1*
X711841Y3751249D1*
X720514Y3756222D1*
X729516Y3760575D1*
X738798Y3764290D1*
X748316Y3767348D1*
X758025Y3769734D1*
X767877Y3771436D1*
X777824Y3772446D1*
X787818Y3772760D1*
X797807Y3772375D1*
X807747Y3771294D1*
X817587Y3769522D1*
X827278Y3767067D1*
X836776Y3763941D1*
X846030Y3760160D1*
X855000Y3755741D1*
X863638Y3750709D1*
X871904Y3745085D1*
X879757Y3738898D1*
X887160Y3732177D1*
X894075Y3724957D1*
X900470Y3717270D1*
X906311Y3709156D1*
X911572Y3700655D1*
X916228Y3691807D1*
X920253Y3682655D1*
X923631Y3673245D1*
X926344Y3663622D1*
X928377Y3653833D1*
X929723Y3643927D1*
X930373Y3633949D1*
X930350Y3624631D1*
X1730350D2*
X1729654Y3614657D1*
X1728261Y3604757D1*
X1726180Y3594978D1*
X1723423Y3585367D1*
X1720000Y3575974D1*
X1715930Y3566841D1*
X1711234Y3558016D1*
X1705932Y3549539D1*
X1700051Y3541453D1*
X1693621Y3533798D1*
X1686672Y3526610D1*
X1679238Y3519924D1*
X1671354Y3513774D1*
X1663062Y3508190D1*
X1654400Y3503198D1*
X1645409Y3498823D1*
X1636136Y3495085D1*
X1626625Y3492005D1*
X1616921Y3489596D1*
X1607073Y3487870D1*
X1597130Y3486836D1*
X1587136Y3486499D1*
X1577146Y3486860D1*
X1567203Y3487917D1*
X1557360Y3489667D1*
X1547663Y3492098D1*
X1538159Y3495202D1*
X1528894Y3498961D1*
X1519915Y3503357D1*
X1511264Y3508370D1*
X1502984Y3513974D1*
X1495117Y3520143D1*
X1487698Y3526846D1*
X1480765Y3534050D1*
X1474353Y3541720D1*
X1468492Y3549820D1*
X1463210Y3558310D1*
X1458534Y3567147D1*
X1454487Y3576289D1*
X1451087Y3585692D1*
X1448352Y3595307D1*
X1446295Y3605092D1*
X1444927Y3614996D1*
X1444252Y3624971D1*
X1444276Y3634969D1*
X1444997Y3644941D1*
X1446413Y3654837D1*
X1448517Y3664612D1*
X1451297Y3674215D1*
X1454741Y3683601D1*
X1458832Y3692724D1*
X1463551Y3701539D1*
X1468873Y3710003D1*
X1474772Y3718075D1*
X1481220Y3725715D1*
X1488188Y3732886D1*
X1495638Y3739554D1*
X1503534Y3745685D1*
X1511841Y3751249D1*
X1520514Y3756222D1*
X1529516Y3760575D1*
X1538798Y3764290D1*
X1548316Y3767348D1*
X1558025Y3769734D1*
X1567877Y3771436D1*
X1577824Y3772446D1*
X1587818Y3772760D1*
X1597807Y3772375D1*
X1607747Y3771294D1*
X1617587Y3769522D1*
X1627278Y3767067D1*
X1636776Y3763941D1*
X1646030Y3760160D1*
X1655000Y3755741D1*
X1663638Y3750709D1*
X1671904Y3745085D1*
X1679757Y3738898D1*
X1687160Y3732177D1*
X1694075Y3724957D1*
X1700470Y3717270D1*
X1706311Y3709156D1*
X1711572Y3700655D1*
X1716228Y3691807D1*
X1720253Y3682655D1*
X1723631Y3673245D1*
X1726344Y3663622D1*
X1728377Y3653833D1*
X1729723Y3643927D1*
X1730373Y3633949D1*
X1730350Y3624631D1*
X763567Y5329949D2*
X763077Y5324974D1*
X762264Y5320041D1*
X761129Y5315172D1*
X759678Y5310388D1*
X757917Y5305710D1*
X755856Y5301156D1*
X753500Y5296747D1*
X750861Y5292500D1*
X747950Y5288436D1*
X744780Y5284571D1*
X741364Y5280921D1*
X737715Y5277503D1*
X733852Y5274331D1*
X729790Y5271417D1*
X725546Y5268776D1*
X721138Y5266417D1*
X716585Y5264352D1*
X711907Y5262589D1*
X707123Y5261135D1*
X702256Y5259997D1*
X697324Y5259181D1*
X692349Y5258688D1*
X687353Y5258521D1*
X682357Y5258682D1*
X677381Y5259168D1*
X672449Y5259979D1*
X667579Y5261112D1*
X662794Y5262559D1*
X658114Y5264316D1*
X653559Y5266377D1*
X649148Y5268730D1*
X644902Y5271366D1*
X640835Y5274274D1*
X636969Y5277442D1*
X633316Y5280857D1*
X629895Y5284503D1*
X626720Y5288364D1*
X623804Y5292424D1*
X621160Y5296667D1*
X618799Y5301073D1*
X616732Y5305625D1*
X614966Y5310302D1*
X613509Y5315084D1*
X612369Y5319951D1*
X611549Y5324882D1*
X611052Y5329857D1*
X610883Y5334853D1*
X611041Y5339849D1*
X611525Y5344825D1*
X612333Y5349759D1*
X613462Y5354629D1*
X614907Y5359415D1*
X616661Y5364096D1*
X618718Y5368652D1*
X621068Y5373064D1*
X623702Y5377312D1*
X626609Y5381381D1*
X629774Y5385249D1*
X633186Y5388903D1*
X636829Y5392327D1*
X640689Y5395504D1*
X644748Y5398421D1*
X648990Y5401068D1*
X653394Y5403432D1*
X657945Y5405503D1*
X662621Y5407272D1*
X667402Y5408731D1*
X672268Y5409874D1*
X677199Y5410697D1*
X682173Y5411196D1*
X687169Y5411369D1*
X692165Y5411214D1*
X697142Y5410734D1*
X702076Y5409928D1*
X706946Y5408802D1*
X711734Y5407360D1*
X716415Y5405608D1*
X720972Y5403554D1*
X725386Y5401206D1*
X729636Y5398575D1*
X733706Y5395671D1*
X737577Y5392508D1*
X741232Y5389098D1*
X744657Y5385457D1*
X747837Y5381600D1*
X750759Y5377542D1*
X753408Y5373303D1*
X755774Y5368899D1*
X757848Y5364350D1*
X759618Y5359676D1*
X761081Y5354895D1*
X762227Y5350029D1*
X763054Y5345098D1*
X763555Y5340125D1*
X763731Y5334945D1*
X763567Y5329949D1*
X1760698Y4919144D2*
X1757671Y4919167D1*
X1752686Y4919538D1*
X1747738Y4920244D1*
X1742846Y4921281D1*
X1738037Y4922642D1*
X1733329Y4924324D1*
X1728744Y4926318D1*
X1724304Y4928615D1*
X1720029Y4931205D1*
X1715936Y4934076D1*
X1712046Y4937215D1*
X1708374Y4940608D1*
X1704940Y4944239D1*
X1701755Y4948093D1*
X1698837Y4952152D1*
X1696198Y4956398D1*
X1693850Y4960811D1*
X1691803Y4965373D1*
X1690067Y4970060D1*
X1688650Y4974854D1*
X1687556Y4979732D1*
X1686794Y4984673D1*
X1686364Y4989654D1*
X1686269Y4994651D1*
X1686510Y4999644D1*
X1687087Y5004610D1*
X1687993Y5009526D1*
X1689230Y5014370D1*
X1690787Y5019121D1*
X1692660Y5023756D1*
X1694840Y5028255D1*
X1697316Y5032597D1*
X1700079Y5036764D1*
X1703114Y5040735D1*
X1706409Y5044493D1*
X1709950Y5048024D1*
X1713719Y5051307D1*
X1717701Y5054331D1*
X1721875Y5057080D1*
X1726226Y5059543D1*
X1730731Y5061709D1*
X1735371Y5063568D1*
X1740127Y5065110D1*
X1744975Y5066331D1*
X1749894Y5067223D1*
X1754861Y5067783D1*
X1760717Y5068014D1*
X1816034Y5067899D1*
X1821013Y5067454D1*
X1825951Y5066676D1*
X1830825Y5065568D1*
X1835615Y5064135D1*
X1840298Y5062385D1*
X1844853Y5060324D1*
X1849259Y5057962D1*
X1853496Y5055310D1*
X1857546Y5052379D1*
X1861390Y5049184D1*
X1865010Y5045736D1*
X1868392Y5042055D1*
X1871520Y5038155D1*
X1874378Y5034054D1*
X1876954Y5029769D1*
X1879238Y5025323D1*
X1881218Y5020732D1*
X1882885Y5016018D1*
X1884231Y5011205D1*
X1885252Y5006311D1*
X1885944Y5001360D1*
X1886353Y4993559D1*
X1886185Y4988563D1*
X1885682Y4983589D1*
X1884846Y4978660D1*
X1883682Y4973799D1*
X1882196Y4969026D1*
X1880390Y4964365D1*
X1878277Y4959833D1*
X1875864Y4955455D1*
X1873163Y4951249D1*
X1870185Y4947234D1*
X1866946Y4943427D1*
X1863458Y4939845D1*
X1859736Y4936507D1*
X1855801Y4933425D1*
X1851667Y4930614D1*
X1847353Y4928088D1*
X1842879Y4925856D1*
X1838266Y4923929D1*
X1833534Y4922318D1*
X1828705Y4921026D1*
X1823801Y4920062D1*
X1818841Y4919428D1*
X1811879Y4919144D1*
X1760717Y4919104D1*
Y4919123D1*
X562698Y4919144D2*
X559671Y4919167D1*
X554686Y4919538D1*
X549738Y4920244D1*
X544846Y4921281D1*
X540037Y4922642D1*
X535329Y4924324D1*
X530744Y4926318D1*
X526304Y4928615D1*
X522029Y4931205D1*
X517936Y4934076D1*
X514046Y4937215D1*
X510374Y4940608D1*
X506940Y4944239D1*
X503755Y4948093D1*
X500837Y4952152D1*
X498198Y4956398D1*
X495850Y4960811D1*
X493803Y4965373D1*
X492067Y4970060D1*
X490650Y4974854D1*
X489556Y4979732D1*
X488794Y4984673D1*
X488364Y4989654D1*
X488269Y4994651D1*
X488510Y4999644D1*
X489087Y5004610D1*
X489993Y5009526D1*
X491230Y5014370D1*
X492787Y5019121D1*
X494660Y5023756D1*
X496840Y5028255D1*
X499316Y5032597D1*
X502079Y5036764D1*
X505114Y5040735D1*
X508409Y5044493D1*
X511950Y5048024D1*
X515719Y5051307D1*
X519701Y5054331D1*
X523875Y5057080D1*
X528226Y5059543D1*
X532731Y5061709D1*
X537371Y5063568D1*
X542127Y5065110D1*
X546975Y5066331D1*
X551894Y5067223D1*
X556861Y5067783D1*
X562717Y5068014D1*
X618034Y5067899D1*
X623013Y5067454D1*
X627951Y5066676D1*
X632825Y5065568D1*
X637615Y5064135D1*
X642298Y5062385D1*
X646853Y5060324D1*
X651259Y5057962D1*
X655496Y5055310D1*
X659546Y5052379D1*
X663390Y5049184D1*
X667010Y5045736D1*
X670392Y5042055D1*
X673520Y5038155D1*
X676378Y5034054D1*
X678954Y5029769D1*
X681238Y5025323D1*
X683218Y5020732D1*
X684885Y5016018D1*
X686231Y5011205D1*
X687252Y5006311D1*
X687944Y5001360D1*
X688353Y4993559D1*
X688185Y4988563D1*
X687682Y4983589D1*
X686846Y4978660D1*
X685682Y4973799D1*
X684196Y4969026D1*
X682390Y4964365D1*
X680277Y4959833D1*
X677864Y4955455D1*
X675163Y4951249D1*
X672185Y4947234D1*
X668946Y4943427D1*
X665458Y4939845D1*
X661736Y4936507D1*
X657801Y4933425D1*
X653667Y4930614D1*
X649353Y4928088D1*
X644879Y4925856D1*
X640266Y4923929D1*
X635534Y4922318D1*
X630705Y4921026D1*
X625801Y4920062D1*
X620841Y4919428D1*
X613879Y4919144D1*
X562717Y4919104D1*
Y4919123D1*
X942849Y3631442D2*
X935223Y3679592D1*
X913122Y3722948D1*
X878705Y3757350D1*
X835343Y3779434D1*
X787277Y3787038D1*
X739214Y3779416D1*
X695860Y3757315D1*
X661455Y3722898D1*
X639371Y3679535D1*
X631769Y3631470D1*
X639390Y3583408D1*
X661491Y3540052D1*
X695908Y3505650D1*
X739272Y3483566D1*
X787336Y3475963D1*
X835399Y3483584D1*
X878753Y3505685D1*
X913157Y3540102D1*
X935241Y3583465D1*
X942845Y3631530D1*
X935223Y3679592D1*
X982154Y3699333D2*
X983843Y3695358D1*
X984773Y3691483D1*
X993878Y3633493D1*
Y3629507D1*
X992862Y3622588D1*
X984383Y3569562D1*
X983152Y3565770D1*
X980047Y3559504D1*
X955598Y3511693D1*
X953255Y3508469D1*
X948366Y3503469D1*
X910339Y3465551D1*
X907114Y3463209D1*
X900919Y3459965D1*
X853035Y3435655D1*
X849245Y3434424D1*
X842350Y3433252D1*
X789299Y3424929D1*
X785314D1*
X778395Y3425945D1*
X725367Y3434424D1*
X721577Y3435655D1*
X715311Y3438760D1*
X667499Y3463209D1*
X664274Y3465551D1*
X659274Y3470441D1*
X621358Y3508469D1*
X619014Y3511693D1*
X615770Y3517888D1*
X591461Y3565770D1*
X590230Y3569562D1*
X589058Y3576455D1*
X580735Y3629507D1*
Y3633493D1*
X581751Y3640412D1*
X590230Y3693438D1*
X591461Y3697230D1*
X594566Y3703496D1*
X619014Y3751307D1*
X621358Y3754531D1*
X626247Y3759531D1*
X664274Y3797449D1*
X667499Y3799791D1*
X673694Y3803035D1*
X721577Y3827345D1*
X725367Y3828576D1*
X732262Y3829748D1*
X785314Y3838071D1*
X789299D1*
X796218Y3837055D1*
X849245Y3828576D1*
X853035Y3827345D1*
X859302Y3824240D1*
X907114Y3799791D1*
X910339Y3797448D1*
X915339Y3792559D1*
X953255Y3754531D1*
X955598Y3751307D1*
X958843Y3745112D1*
X983152Y3697230D1*
X984383Y3693438D1*
X985555Y3686545D1*
X993878Y3633493D1*
Y3629507D1*
X993579Y3627198D1*
X993878Y3629507D1*
X993644Y3627526D1*
X1742849Y3631442D2*
X1735223Y3679592D1*
X1713122Y3722948D1*
X1678705Y3757350D1*
X1635343Y3779434D1*
X1587277Y3787038D1*
X1539214Y3779416D1*
X1495860Y3757315D1*
X1461455Y3722898D1*
X1439371Y3679535D1*
X1431769Y3631470D1*
X1439390Y3583408D1*
X1461491Y3540052D1*
X1495908Y3505650D1*
X1539272Y3483566D1*
X1587336Y3475963D1*
X1635399Y3483584D1*
X1678753Y3505685D1*
X1713157Y3540102D1*
X1735241Y3583465D1*
X1742845Y3631530D1*
X1735223Y3679592D1*
X1782154Y3699333D2*
X1783843Y3695358D1*
X1784773Y3691483D1*
X1793878Y3633493D1*
Y3629507D1*
X1792862Y3622588D1*
X1784383Y3569562D1*
X1783152Y3565770D1*
X1780047Y3559504D1*
X1755598Y3511693D1*
X1753255Y3508469D1*
X1748366Y3503469D1*
X1710339Y3465551D1*
X1707114Y3463209D1*
X1700919Y3459965D1*
X1653035Y3435655D1*
X1649245Y3434424D1*
X1642350Y3433252D1*
X1589299Y3424929D1*
X1585314D1*
X1578395Y3425945D1*
X1525367Y3434424D1*
X1521577Y3435655D1*
X1515311Y3438760D1*
X1467499Y3463209D1*
X1464274Y3465551D1*
X1459274Y3470441D1*
X1421358Y3508469D1*
X1419014Y3511693D1*
X1415770Y3517888D1*
X1391461Y3565770D1*
X1390230Y3569562D1*
X1389058Y3576455D1*
X1380735Y3629507D1*
Y3633493D1*
X1381751Y3640412D1*
X1390230Y3693438D1*
X1391461Y3697230D1*
X1394566Y3703496D1*
X1419014Y3751307D1*
X1421358Y3754531D1*
X1426247Y3759531D1*
X1464274Y3797449D1*
X1467499Y3799791D1*
X1473694Y3803035D1*
X1521577Y3827345D1*
X1525367Y3828576D1*
X1532262Y3829748D1*
X1585314Y3838071D1*
X1589299D1*
X1596218Y3837055D1*
X1649245Y3828576D1*
X1653035Y3827345D1*
X1659302Y3824240D1*
X1707114Y3799791D1*
X1710339Y3797448D1*
X1715339Y3792559D1*
X1753255Y3754531D1*
X1755598Y3751307D1*
X1758843Y3745112D1*
X1783152Y3697230D1*
X1784383Y3693438D1*
X1785555Y3686545D1*
X1793878Y3633493D1*
Y3629507D1*
X1793579Y3627198D1*
X1793878Y3629507D1*
X1793644Y3627526D1*
X890669Y5393665D2*
X890846Y5396409D1*
X891411Y5398759D1*
X892335Y5400992D1*
X893597Y5403052D1*
X895167Y5404890D1*
X897004Y5406459D1*
X899064Y5407722D1*
X901298Y5408646D1*
X903647Y5409210D1*
X906056Y5409400D1*
X1476016Y5409353D1*
X1478402Y5408975D1*
X1480701Y5408228D1*
X1482853Y5407131D1*
X1484808Y5405710D1*
X1486517Y5404001D1*
X1487938Y5402046D1*
X1489035Y5399894D1*
X1489782Y5397594D1*
X1490160Y5395209D1*
X1490205Y5378997D1*
X1490129Y5242322D1*
X1489751Y5239934D1*
X1489004Y5237636D1*
X1487906Y5235484D1*
X1486486Y5233529D1*
X1484776Y5231820D1*
X1482820Y5230400D1*
X1480668Y5229304D1*
X1478369Y5228558D1*
X1475982Y5228180D1*
X1459777Y5228133D1*
X904878Y5228180D1*
X902492Y5228558D1*
X900193Y5229304D1*
X898041Y5230402D1*
X896085Y5231823D1*
X894377Y5233531D1*
X892955Y5235487D1*
X891858Y5237639D1*
X891112Y5239938D1*
X890734Y5242324D1*
X890684Y5258530D1*
X890703Y5395205D1*
X891081Y5397592D1*
X891828Y5399891D1*
X892924Y5402043D1*
X894344Y5403999D1*
X896052Y5405709D1*
X898008Y5407129D1*
X900160Y5408227D1*
X902458Y5408974D1*
X904845Y5409353D1*
X911056Y5409400D1*
X487642Y4078613D2*
X484898Y4078790D1*
X482549Y4079353D1*
X480315Y4080278D1*
X478255Y4081541D1*
X476417Y4083110D1*
X474848Y4084948D1*
X473585Y4087008D1*
X472660Y4089241D1*
X472097Y4091591D1*
X471907Y4094000D1*
X471954Y4895209D1*
X472332Y4897594D1*
X473079Y4899894D1*
X474176Y4902046D1*
X475597Y4904001D1*
X477306Y4905710D1*
X479261Y4907131D1*
X481413Y4908228D1*
X483713Y4908975D1*
X486098Y4909353D1*
X502307Y4909400D1*
X1888516Y4909353D1*
X1890902Y4908975D1*
X1893201Y4908228D1*
X1895353Y4907131D1*
X1897308Y4905710D1*
X1899017Y4904001D1*
X1900438Y4902046D1*
X1901535Y4899894D1*
X1902282Y4897594D1*
X1902660Y4895209D1*
X1902707Y4879000D1*
X1902660Y4092791D1*
X1902282Y4090406D1*
X1901535Y4088106D1*
X1900438Y4085954D1*
X1899017Y4083999D1*
X1897308Y4082290D1*
X1895353Y4080869D1*
X1893201Y4079772D1*
X1890902Y4079025D1*
X1888516Y4078647D1*
X1872307Y4078600D1*
X486098Y4078647D1*
X483713Y4079025D1*
X481413Y4079772D1*
X479261Y4080869D1*
X477306Y4082290D1*
X475597Y4083999D1*
X474176Y4085954D1*
X473079Y4088106D1*
X472332Y4090406D1*
X471954Y4092791D1*
X471920Y4094335D1*
X947950Y3898867D2*
X949766Y3896803D1*
X951029Y3894743D1*
X951954Y3892509D1*
X952517Y3890160D1*
X952707Y3887751D1*
X952517Y3885341D1*
X951954Y3882992D1*
X951029Y3880759D1*
X949766Y3878698D1*
X948197Y3876861D1*
X946360Y3875291D1*
X944299Y3874029D1*
X942066Y3873104D1*
X939717Y3872541D1*
X937307Y3872350D1*
X636098Y3872398D1*
X633713Y3872776D1*
X631413Y3873522D1*
X629261Y3874619D1*
X627306Y3876041D1*
X625597Y3877749D1*
X624176Y3879705D1*
X623079Y3881857D1*
X622332Y3884156D1*
X621954Y3886542D1*
Y3888959D1*
X622332Y3891345D1*
X623079Y3893644D1*
X624176Y3895797D1*
X625597Y3897752D1*
X637024Y3909247D1*
X777306Y4049459D1*
X779261Y4050881D1*
X781413Y4051978D1*
X783713Y4052724D1*
X786098Y4053102D1*
X788516D1*
X790903Y4052724D1*
X793201Y4051978D1*
X795354Y4050881D1*
X797308Y4049459D1*
X808803Y4038033D1*
X949017Y3897752D1*
X950438Y3895798D1*
X951535Y3893644D1*
X952282Y3891346D1*
X952660Y3888959D1*
Y3886542D1*
X952282Y3884156D1*
X951535Y3881857D1*
X950438Y3879705D1*
X949017Y3877749D1*
X947308Y3876041D1*
X945354Y3874619D1*
X943201Y3873522D1*
X940903Y3872776D1*
X938516Y3872398D1*
X936972Y3872364D1*
X1426664Y4026633D2*
X1424848Y4028697D1*
X1423585Y4030757D1*
X1422660Y4032991D1*
X1422097Y4035340D1*
X1421907Y4037749D1*
X1422097Y4040159D1*
X1422660Y4042508D1*
X1423585Y4044741D1*
X1424848Y4046802D1*
X1426417Y4048639D1*
X1428255Y4050209D1*
X1430315Y4051471D1*
X1432549Y4052396D1*
X1434898Y4052959D1*
X1437307Y4053150D1*
X1738516Y4053102D1*
X1740902Y4052724D1*
X1743201Y4051978D1*
X1745353Y4050881D1*
X1747308Y4049459D1*
X1749017Y4047751D1*
X1750438Y4045795D1*
X1751535Y4043643D1*
X1752282Y4041344D1*
X1752660Y4038958D1*
Y4036541D1*
X1752282Y4034155D1*
X1751535Y4031856D1*
X1750438Y4029703D1*
X1749017Y4027748D1*
X1737591Y4016253D1*
X1597308Y3876039D1*
X1595353Y3874618D1*
X1593201Y3873521D1*
X1590902Y3872774D1*
X1588516Y3872396D1*
X1586098D1*
X1583713Y3872774D1*
X1581413Y3873521D1*
X1579261Y3874618D1*
X1577306Y3876039D1*
X1565811Y3887466D1*
X1425597Y4027748D1*
X1424176Y4029703D1*
X1423079Y4031856D1*
X1422332Y4034155D1*
X1421954Y4036541D1*
Y4038958D1*
X1422332Y4041344D1*
X1423079Y4043643D1*
X1424176Y4045795D1*
X1425597Y4047751D1*
X1427306Y4049459D1*
X1429261Y4050881D1*
X1431413Y4051978D1*
X1433713Y4052724D1*
X1436098Y4053102D1*
X1442307Y4053150D1*
X414980Y415000D2*
X1959614D1*
Y5432055D1*
X415000D1*
Y415004D1*
X912066Y5379131D2*
X1468797D1*
X912066Y5369262D2*
X1468797D1*
X912066Y5359394D2*
X1468797D1*
X912066Y5349525D2*
X1468797D1*
X912066Y5339656D2*
X1468797D1*
X912066Y5329787D2*
X1468797D1*
X912066Y5319919D2*
X1468797D1*
X912066Y5310050D2*
X1468797D1*
X912066Y5300181D2*
X1468797D1*
X912085Y5290312D2*
X1468777D1*
X912085Y5280444D2*
X1468777D1*
X912085Y5270575D2*
X1468777D1*
X912085Y5260706D2*
X1468777D1*
X912085Y5250837D2*
X1468777D1*
X1469827Y5389000D2*
X911058Y5389001D1*
X911087Y5248533D1*
X1469778Y5248534D1*
X1469806Y5389022D1*
X493307Y4879131D2*
X1881307D1*
X493307Y4869262D2*
X1881307D1*
X493307Y4859394D2*
X548563D1*
X1826051D2*
X1881307D1*
X493307Y4849525D2*
X542098D1*
X1832516D2*
X1881307D1*
X493307Y4839656D2*
X541316D1*
X1833298D2*
X1881307D1*
X493307Y4829787D2*
X541316D1*
X1833298D2*
X1881307D1*
X493307Y4819919D2*
X541316D1*
X1833298D2*
X1881307D1*
X493307Y4810050D2*
X541316D1*
X1833298D2*
X1881307D1*
X493307Y4800181D2*
X541316D1*
X1833298D2*
X1881307D1*
X493307Y4790312D2*
X541316D1*
X1833298D2*
X1881307D1*
X493307Y4780444D2*
X541316D1*
X1833298D2*
X1881307D1*
X493307Y4770575D2*
X541316D1*
X1833298D2*
X1881307D1*
X493307Y4760706D2*
X541316D1*
X1833298D2*
X1881307D1*
X493307Y4750837D2*
X541316D1*
X1833298D2*
X1881307D1*
X493307Y4740969D2*
X541316D1*
X1833298D2*
X1881307D1*
X493307Y4731100D2*
X541316D1*
X1833298D2*
X1881307D1*
X493307Y4721231D2*
X541316D1*
X1833298D2*
X1881307D1*
X493307Y4711362D2*
X541316D1*
X1833298D2*
X1881307D1*
X493307Y4701493D2*
X541316D1*
X1833298D2*
X1881307D1*
X493307Y4691625D2*
X541316D1*
X1833298D2*
X1881307D1*
X493307Y4681756D2*
X541316D1*
X1833298D2*
X1881307D1*
X493307Y4671887D2*
X541316D1*
X1833298D2*
X1881307D1*
X493307Y4662018D2*
X541316D1*
X1833298D2*
X1881307D1*
X493307Y4652150D2*
X541316D1*
X1833298D2*
X1881307D1*
X493307Y4642281D2*
X541316D1*
X1833298D2*
X1881307D1*
X493307Y4632412D2*
X541316D1*
X1833298D2*
X1881307D1*
X493307Y4622543D2*
X541316D1*
X1833298D2*
X1881307D1*
X493307Y4612675D2*
X541316D1*
X1833298D2*
X1881307D1*
X493307Y4602806D2*
X541316D1*
X1833298D2*
X1881307D1*
X493307Y4592937D2*
X541316D1*
X1833298D2*
X1881307D1*
X493307Y4583068D2*
X541316D1*
X1833298D2*
X1881307D1*
X493307Y4573199D2*
X541316D1*
X1833298D2*
X1881307D1*
X493307Y4563331D2*
X541316D1*
X1833298D2*
X1881307D1*
X493307Y4553462D2*
X541316D1*
X1833298D2*
X1881307D1*
X493307Y4543593D2*
X541316D1*
X1833298D2*
X1881307D1*
X493307Y4533724D2*
X541316D1*
X1833298D2*
X1881307D1*
X493307Y4523856D2*
X541316D1*
X1833298D2*
X1881307D1*
X493307Y4513987D2*
X541316D1*
X1833298D2*
X1881307D1*
X493307Y4504118D2*
X541316D1*
X1833298D2*
X1881307D1*
X493307Y4494249D2*
X541316D1*
X1833298D2*
X1881307D1*
X493307Y4484381D2*
X541316D1*
X1833298D2*
X1881307D1*
X493307Y4474512D2*
X541316D1*
X1833298D2*
X1881307D1*
X493307Y4464643D2*
X541316D1*
X1833298D2*
X1881307D1*
X493307Y4454774D2*
X541316D1*
X1833298D2*
X1881307D1*
X493307Y4444906D2*
X541316D1*
X1833298D2*
X1881307D1*
X493307Y4435037D2*
X541316D1*
X1833298D2*
X1881307D1*
X493307Y4425168D2*
X541316D1*
X1833298D2*
X1881307D1*
X493307Y4415299D2*
X541316D1*
X1833298D2*
X1881307D1*
X493307Y4405430D2*
X541316D1*
X1833298D2*
X1881307D1*
X493307Y4395562D2*
X541316D1*
X1833298D2*
X1881307D1*
X493307Y4385693D2*
X541316D1*
X1833298D2*
X1881307D1*
X493307Y4375824D2*
X541316D1*
X1833298D2*
X1881307D1*
X493307Y4365955D2*
X541316D1*
X1833298D2*
X1881307D1*
X493307Y4356087D2*
X541316D1*
X1833298D2*
X1881307D1*
X493307Y4346218D2*
X541316D1*
X1833298D2*
X1881307D1*
X493307Y4336349D2*
X541316D1*
X1833298D2*
X1881307D1*
X493307Y4326480D2*
X541316D1*
X1833298D2*
X1881307D1*
X493307Y4316612D2*
X541316D1*
X1833298D2*
X1881307D1*
X493307Y4306743D2*
X541316D1*
X1833298D2*
X1881307D1*
X493307Y4296874D2*
X541316D1*
X1833298D2*
X1881307D1*
X493307Y4287005D2*
X541316D1*
X1833298D2*
X1881307D1*
X493307Y4277136D2*
X541316D1*
X1833298D2*
X1881307D1*
X493307Y4267268D2*
X541316D1*
X1833298D2*
X1881307D1*
X493307Y4257399D2*
X541316D1*
X1833298D2*
X1881307D1*
X493307Y4247530D2*
X541316D1*
X1833298D2*
X1881307D1*
X493307Y4237661D2*
X541316D1*
X1833298D2*
X1881307D1*
X493307Y4227793D2*
X541316D1*
X1833298D2*
X1881307D1*
X493307Y4217924D2*
X541316D1*
X1833298D2*
X1881307D1*
X493307Y4208055D2*
X541316D1*
X1833298D2*
X1881307D1*
X493307Y4198186D2*
X541316D1*
X1833298D2*
X1881307D1*
X493307Y4188318D2*
X541316D1*
X1833298D2*
X1881307D1*
X493307Y4178449D2*
X541316D1*
X1833298D2*
X1881307D1*
X493307Y4168580D2*
X541316D1*
X1833298D2*
X1881307D1*
X493307Y4158711D2*
X541316D1*
X1833298D2*
X1881307D1*
X493307Y4148843D2*
X541316D1*
X1833298D2*
X1881307D1*
X493307Y4138974D2*
X541962D1*
X1832652D2*
X1881307D1*
X493307Y4129105D2*
X547976D1*
X1826638D2*
X1881307D1*
X493307Y4119236D2*
X1881307D1*
X493307Y4109367D2*
X1881307D1*
X493307Y4099499D2*
X1881307D1*
X542320Y4843663D2*
X542554Y4847129D1*
X543286Y4850180D1*
X544487Y4853080D1*
X546127Y4855756D1*
X548165Y4858142D1*
X550551Y4860180D1*
X553227Y4861820D1*
X556127Y4863021D1*
X559178Y4863753D1*
X562307Y4864000D1*
X1813877Y4863938D1*
X1816976Y4863448D1*
X1819961Y4862478D1*
X1822757Y4861052D1*
X1825297Y4859209D1*
X1827516Y4856990D1*
X1829360Y4854450D1*
X1830785Y4851654D1*
X1831755Y4848669D1*
X1832245Y4845570D1*
X1832307Y4834000D1*
X1832245Y4142430D1*
X1831755Y4139331D1*
X1830785Y4136346D1*
X1829360Y4133550D1*
X1827516Y4131010D1*
X1825297Y4128791D1*
X1822757Y4126948D1*
X1819961Y4125522D1*
X1816976Y4124552D1*
X1813877Y4124062D1*
X1802307Y4124000D1*
X560738Y4124062D1*
X557638Y4124552D1*
X554654Y4125522D1*
X551857Y4126948D1*
X549318Y4128791D1*
X547098Y4131010D1*
X545255Y4133550D1*
X543829Y4136346D1*
X542860Y4139331D1*
X542369Y4142430D1*
X542307Y4154000D1*
X542369Y4845570D1*
X542860Y4848669D1*
X543829Y4851654D1*
X545255Y4854450D1*
X547098Y4856990D1*
X549318Y4859209D1*
X551857Y4861052D1*
X554654Y4862478D1*
X557638Y4863448D1*
X560738Y4863938D1*
X567307Y4864000D1*
X492307Y4889020D2*
Y4099000D1*
X1882307D1*
Y4889000D1*
X492287D1*
X780504Y4022881D2*
X794110D1*
X770640Y4013012D2*
X803974D1*
X760778Y4003143D2*
X813836D1*
X750895Y3993274D2*
X823719D1*
X741031Y3983406D2*
X833583D1*
X731168Y3973537D2*
X843446D1*
X721306Y3963668D2*
X853308D1*
X711423Y3953799D2*
X863192D1*
X701559Y3943930D2*
X873055D1*
X691696Y3934062D2*
X882919D1*
X681812Y3924193D2*
X892802D1*
X671950Y3914324D2*
X902664D1*
X662087Y3904455D2*
X912528D1*
X652223Y3894587D2*
X922391D1*
X649358Y3892751D2*
X925256D1*
X787307Y4030678D1*
X649352Y3892724D1*
X1460251Y4022881D2*
X1714364D1*
X1470114Y4013012D2*
X1704500D1*
X1479976Y4003143D2*
X1694638D1*
X1489860Y3993274D2*
X1684755D1*
X1499723Y3983406D2*
X1674891D1*
X1509587Y3973537D2*
X1665028D1*
X1519470Y3963668D2*
X1655144D1*
X1529332Y3953799D2*
X1645282D1*
X1539196Y3943930D2*
X1635419D1*
X1549059Y3934062D2*
X1625555D1*
X1558942Y3924193D2*
X1615672D1*
X1568806Y3914324D2*
X1605808D1*
X1578668Y3904455D2*
X1595946D1*
X1725256Y4032749D2*
X1449358D1*
X1587307Y3894820D1*
X1725262Y4032776D1*
X767966Y2041631D2*
X856648D1*
X1142966D2*
X1231648D1*
X1517966D2*
X1606648D1*
X766579Y2031762D2*
X858035D1*
X1141579D2*
X1233035D1*
X1516579D2*
X1608035D1*
X764488Y2021894D2*
X860126D1*
X1139488D2*
X1235126D1*
X1514488D2*
X1610126D1*
X761638Y2012025D2*
X862976D1*
X1136638D2*
X1237976D1*
X1511638D2*
X1612976D1*
X758004Y2002156D2*
X866610D1*
X1133004D2*
X1241610D1*
X1508004D2*
X1616610D1*
X753492Y1992287D2*
X871122D1*
X1128492D2*
X1246122D1*
X1503492D2*
X1621122D1*
X748043Y1982419D2*
X876571D1*
X1123043D2*
X1251571D1*
X1498043D2*
X1626571D1*
X741480Y1972550D2*
X883134D1*
X1116480D2*
X1258134D1*
X1491480D2*
X1633134D1*
X733630Y1962681D2*
X890984D1*
X1108630D2*
X1265984D1*
X1483630D2*
X1640984D1*
X724176Y1952812D2*
X900438D1*
X1099176D2*
X1275438D1*
X1474176D2*
X1650438D1*
X712594Y1942944D2*
X912020D1*
X1087594D2*
X1287020D1*
X1462594D2*
X1662020D1*
X697887Y1933075D2*
X926727D1*
X1072887D2*
X1301727D1*
X1447887D2*
X1676727D1*
X677379Y1923206D2*
X947235D1*
X1052379D2*
X1322235D1*
X1427379D2*
X1697235D1*
X638531Y1913337D2*
X1742312D1*
X648415Y1903469D2*
X1732450D1*
X658278Y1893600D2*
X1722587D1*
X668140Y1883731D2*
X1712723D1*
X1052927Y1873862D2*
X1321591D1*
X1063454Y1863993D2*
X1311727D1*
X1073980Y1854125D2*
X1301864D1*
X1084508Y1844256D2*
X1292000D1*
X1095035Y1834387D2*
X1282118D1*
X1105563Y1824518D2*
X1272255D1*
X1116091Y1814650D2*
X1262391D1*
X1126618Y1804781D2*
X1252508D1*
X1137144Y1794912D2*
X1242644D1*
X1147672Y1785043D2*
X1232782D1*
X1142647Y2051521D2*
X1141948Y2041528D1*
X1140552Y2031627D1*
X1138470Y2021849D1*
X1135707Y2012240D1*
X1132281Y2002848D1*
X1128206Y1993718D1*
X1123503Y1984895D1*
X1118194Y1976423D1*
X1112307Y1968343D1*
X1105869Y1960693D1*
X1098911Y1953513D1*
X1091469Y1946836D1*
X1083579Y1940697D1*
X1075278Y1935123D1*
X1066608Y1930144D1*
X1057612Y1925783D1*
X1048332Y1922063D1*
X1038814Y1919000D1*
X1029106Y1916609D1*
X1019255Y1914903D1*
X1009308Y1913890D1*
X999315Y1913575D1*
X989325Y1913958D1*
X979386Y1915039D1*
X969546Y1916814D1*
X959856Y1919270D1*
X950360Y1922400D1*
X941105Y1926185D1*
X932139Y1930608D1*
X923504Y1935646D1*
X915241Y1941276D1*
X907392Y1947470D1*
X899997Y1954197D1*
X893089Y1961425D1*
X886703Y1969118D1*
X880871Y1977239D1*
X875622Y1985748D1*
X870979Y1994602D1*
X866967Y2003760D1*
X863605Y2013176D1*
X860909Y2022803D1*
X858894Y2032596D1*
X857567Y2042505D1*
X856980Y2051528D1*
X767646Y2051501D1*
X766948Y2041528D1*
X765552Y2031627D1*
X763470Y2021849D1*
X760707Y2012240D1*
X757281Y2002848D1*
X753206Y1993718D1*
X748503Y1984895D1*
X743194Y1976423D1*
X737307Y1968343D1*
X730869Y1960693D1*
X723911Y1953513D1*
X716469Y1946836D1*
X708579Y1940697D1*
X700278Y1935123D1*
X691608Y1930144D1*
X682612Y1925783D1*
X673332Y1922063D1*
X663814Y1919000D1*
X654106Y1916609D1*
X644255Y1914903D1*
X636780Y1914098D1*
X676887Y1873991D1*
X1050589Y1873938D1*
X1052077Y1873455D1*
X1053441Y1872429D1*
X1151803Y1780232D1*
X1229007Y1780249D1*
X1321869Y1873045D1*
X1323262Y1873756D1*
X1324807Y1874000D1*
X1325139Y1873987D1*
X1704007Y1874000D1*
X1743690Y1913705D1*
X1734346Y1914412D1*
X1724450Y1915841D1*
X1714680Y1917958D1*
X1705080Y1920752D1*
X1695699Y1924211D1*
X1686584Y1928318D1*
X1677777Y1933051D1*
X1669323Y1938388D1*
X1661262Y1944304D1*
X1653636Y1950769D1*
X1646480Y1957751D1*
X1639829Y1965215D1*
X1633717Y1973127D1*
X1628172Y1981448D1*
X1623223Y1990134D1*
X1618892Y1999146D1*
X1615203Y2008438D1*
X1612173Y2017966D1*
X1609816Y2027682D1*
X1608144Y2037539D1*
X1607165Y2047490D1*
X1606980Y2051528D1*
X1517646Y2051501D1*
X1516948Y2041528D1*
X1515552Y2031627D1*
X1513470Y2021849D1*
X1510707Y2012240D1*
X1507281Y2002848D1*
X1503206Y1993718D1*
X1498503Y1984895D1*
X1493194Y1976423D1*
X1487307Y1968343D1*
X1480869Y1960693D1*
X1473911Y1953513D1*
X1466469Y1946836D1*
X1458579Y1940697D1*
X1450278Y1935123D1*
X1441608Y1930144D1*
X1432612Y1925783D1*
X1423332Y1922063D1*
X1413814Y1919000D1*
X1404106Y1916609D1*
X1394255Y1914903D1*
X1384308Y1913890D1*
X1374315Y1913575D1*
X1364325Y1913958D1*
X1354386Y1915039D1*
X1344546Y1916814D1*
X1334856Y1919270D1*
X1325360Y1922400D1*
X1316105Y1926185D1*
X1307139Y1930608D1*
X1298504Y1935646D1*
X1290241Y1941276D1*
X1282392Y1947470D1*
X1274997Y1954197D1*
X1268089Y1961425D1*
X1261703Y1969118D1*
X1255871Y1977239D1*
X1250622Y1985748D1*
X1245979Y1994602D1*
X1241967Y2003760D1*
X1238605Y2013176D1*
X1235909Y2022803D1*
X1233894Y2032596D1*
X1232567Y2042505D1*
X1231980Y2051528D1*
X1142639Y2051500D1*
X767966Y1535381D2*
X856648D1*
X1142966D2*
X1231648D1*
X1517966D2*
X1606648D1*
X766579Y1525512D2*
X858035D1*
X1141579D2*
X1233035D1*
X1516579D2*
X1608035D1*
X764488Y1515643D2*
X860126D1*
X1139488D2*
X1235126D1*
X1514488D2*
X1610126D1*
X761638Y1505774D2*
X862976D1*
X1136638D2*
X1237976D1*
X1511638D2*
X1612976D1*
X758004Y1495906D2*
X866610D1*
X1133004D2*
X1241610D1*
X1508004D2*
X1616610D1*
X753492Y1486037D2*
X871122D1*
X1128492D2*
X1246122D1*
X1503492D2*
X1621122D1*
X748043Y1476168D2*
X876571D1*
X1123043D2*
X1251571D1*
X1498043D2*
X1626571D1*
X741480Y1466299D2*
X883134D1*
X1116480D2*
X1258134D1*
X1491480D2*
X1633134D1*
X733630Y1456430D2*
X890984D1*
X1108630D2*
X1265984D1*
X1483630D2*
X1640984D1*
X724176Y1446562D2*
X900438D1*
X1099176D2*
X1275438D1*
X1474176D2*
X1650438D1*
X712594Y1436693D2*
X912020D1*
X1087594D2*
X1287020D1*
X1462594D2*
X1662020D1*
X697887Y1426824D2*
X926747D1*
X1072867D2*
X1301747D1*
X1447867D2*
X1676747D1*
X677379Y1416955D2*
X947235D1*
X1052379D2*
X1322235D1*
X1427379D2*
X1697235D1*
X638551Y1407087D2*
X1742312D1*
X648415Y1397218D2*
X1732450D1*
X658278Y1387349D2*
X1722587D1*
X668140Y1377480D2*
X1712723D1*
X1052927Y1367612D2*
X1321591D1*
X1063454Y1357743D2*
X1311727D1*
X1073980Y1347874D2*
X1301864D1*
X1084508Y1338005D2*
X1292000D1*
X1095035Y1328136D2*
X1282118D1*
X1105563Y1318268D2*
X1272255D1*
X1116091Y1308399D2*
X1262391D1*
X1126618Y1298530D2*
X1252508D1*
X1137144Y1288661D2*
X1242644D1*
X1147672Y1278793D2*
X1232782D1*
X767647Y1545270D2*
X766948Y1535277D1*
X765552Y1525377D1*
X763470Y1515598D1*
X760707Y1505990D1*
X757281Y1496597D1*
X753206Y1487467D1*
X748503Y1478644D1*
X743194Y1470172D1*
X737307Y1462092D1*
X730869Y1454442D1*
X723911Y1447262D1*
X716469Y1440585D1*
X708579Y1434446D1*
X700278Y1428873D1*
X691608Y1423894D1*
X682612Y1419533D1*
X673332Y1415812D1*
X663814Y1412749D1*
X654106Y1410358D1*
X644255Y1408652D1*
X636780Y1407848D1*
X676887Y1367741D1*
X1050589Y1367688D1*
X1052077Y1367205D1*
X1053441Y1366178D1*
X1151803Y1273983D1*
X1229007Y1274000D1*
X1321869Y1366794D1*
X1323262Y1367505D1*
X1324807Y1367749D1*
X1704007D1*
X1743690Y1407455D1*
X1734346Y1408163D1*
X1724450Y1409592D1*
X1714680Y1411709D1*
X1705080Y1414503D1*
X1695699Y1417962D1*
X1686584Y1422068D1*
X1677777Y1426802D1*
X1669323Y1432139D1*
X1661262Y1438055D1*
X1653636Y1444520D1*
X1646480Y1451501D1*
X1639829Y1458966D1*
X1633717Y1466878D1*
X1628172Y1475198D1*
X1623223Y1483885D1*
X1618892Y1492896D1*
X1615203Y1502189D1*
X1612173Y1511717D1*
X1609816Y1521433D1*
X1608144Y1531290D1*
X1607165Y1541240D1*
X1606980Y1545278D1*
X1517646Y1545252D1*
X1516948Y1535278D1*
X1515552Y1525378D1*
X1513470Y1515600D1*
X1510707Y1505991D1*
X1507281Y1496598D1*
X1503206Y1487469D1*
X1498503Y1478646D1*
X1493194Y1470173D1*
X1487307Y1462093D1*
X1480869Y1454444D1*
X1473911Y1447264D1*
X1466469Y1440587D1*
X1458579Y1434448D1*
X1450278Y1428874D1*
X1441608Y1423895D1*
X1432612Y1419534D1*
X1423332Y1415814D1*
X1413814Y1412751D1*
X1404106Y1410360D1*
X1394255Y1408654D1*
X1384308Y1407640D1*
X1374315Y1407325D1*
X1364325Y1407709D1*
X1354386Y1408790D1*
X1344546Y1410564D1*
X1334856Y1413021D1*
X1325360Y1416151D1*
X1316105Y1419936D1*
X1307139Y1424358D1*
X1298504Y1429396D1*
X1290241Y1435026D1*
X1282392Y1441220D1*
X1274997Y1447948D1*
X1268089Y1455176D1*
X1261703Y1462869D1*
X1255871Y1470990D1*
X1250622Y1479499D1*
X1245979Y1488353D1*
X1241967Y1497510D1*
X1238605Y1506927D1*
X1235909Y1516554D1*
X1233894Y1526346D1*
X1232567Y1536256D1*
X1231980Y1545278D1*
X1142646Y1545252D1*
X1141948Y1535278D1*
X1140552Y1525378D1*
X1138470Y1515600D1*
X1135707Y1505991D1*
X1132281Y1496598D1*
X1128206Y1487469D1*
X1123503Y1478646D1*
X1118194Y1470173D1*
X1112307Y1462093D1*
X1105869Y1454444D1*
X1098911Y1447264D1*
X1091469Y1440587D1*
X1083579Y1434448D1*
X1075278Y1428874D1*
X1066608Y1423895D1*
X1057612Y1419534D1*
X1048332Y1415814D1*
X1038814Y1412751D1*
X1029106Y1410360D1*
X1019255Y1408654D1*
X1009308Y1407640D1*
X999315Y1407325D1*
X989325Y1407709D1*
X979386Y1408790D1*
X969546Y1410564D1*
X959856Y1413021D1*
X950360Y1416151D1*
X941105Y1419936D1*
X932139Y1424358D1*
X923504Y1429396D1*
X915241Y1435026D1*
X907392Y1441220D1*
X899997Y1447948D1*
X893089Y1455176D1*
X886703Y1462869D1*
X880871Y1470990D1*
X875622Y1479499D1*
X870979Y1488353D1*
X866967Y1497510D1*
X863605Y1506927D1*
X860909Y1516554D1*
X858894Y1526346D1*
X857567Y1536256D1*
X856980Y1545278D1*
X767639Y1545249D1*
X767966Y1029131D2*
X856648D1*
X1142966D2*
X1231648D1*
X1517966D2*
X1606648D1*
X766579Y1019262D2*
X858035D1*
X1141579D2*
X1233035D1*
X1516579D2*
X1608035D1*
X764488Y1009394D2*
X860126D1*
X1139488D2*
X1235126D1*
X1514488D2*
X1610126D1*
X761638Y999525D2*
X862976D1*
X1136638D2*
X1237976D1*
X1511638D2*
X1612976D1*
X758004Y989656D2*
X866610D1*
X1133004D2*
X1241610D1*
X1508004D2*
X1616610D1*
X753492Y979787D2*
X871122D1*
X1128492D2*
X1246122D1*
X1503492D2*
X1621122D1*
X748043Y969919D2*
X876571D1*
X1123043D2*
X1251571D1*
X1498043D2*
X1626571D1*
X741480Y960050D2*
X883134D1*
X1116480D2*
X1258134D1*
X1491480D2*
X1633134D1*
X733630Y950181D2*
X890984D1*
X1108630D2*
X1265984D1*
X1483630D2*
X1640984D1*
X724176Y940312D2*
X900438D1*
X1099176D2*
X1275438D1*
X1474176D2*
X1650438D1*
X712594Y930444D2*
X912020D1*
X1087594D2*
X1287020D1*
X1462594D2*
X1662020D1*
X697887Y920575D2*
X926727D1*
X1072887D2*
X1301727D1*
X1447887D2*
X1676727D1*
X677379Y910706D2*
X947235D1*
X1052379D2*
X1322235D1*
X1427379D2*
X1697235D1*
X638531Y900837D2*
X1742312D1*
X648415Y890969D2*
X1732450D1*
X658278Y881100D2*
X1722587D1*
X668140Y871231D2*
X1712723D1*
X1052927Y861362D2*
X1321591D1*
X1063454Y851493D2*
X1311727D1*
X1073980Y841625D2*
X1301864D1*
X1084508Y831756D2*
X1292000D1*
X1095035Y821887D2*
X1282118D1*
X1105563Y812018D2*
X1272255D1*
X1116091Y802150D2*
X1262391D1*
X1126618Y792281D2*
X1252508D1*
X1137144Y782412D2*
X1242644D1*
X1147672Y772543D2*
X1232782D1*
X1142647Y1039021D2*
X1141948Y1029028D1*
X1140552Y1019127D1*
X1138470Y1009349D1*
X1135707Y999740D1*
X1132281Y990348D1*
X1128206Y981218D1*
X1123503Y972395D1*
X1118194Y963923D1*
X1112307Y955843D1*
X1105869Y948193D1*
X1098911Y941013D1*
X1091469Y934336D1*
X1083579Y928197D1*
X1075278Y922623D1*
X1066608Y917644D1*
X1057612Y913283D1*
X1048332Y909563D1*
X1038814Y906500D1*
X1029106Y904109D1*
X1019255Y902403D1*
X1009308Y901390D1*
X999315Y901075D1*
X989325Y901458D1*
X979386Y902539D1*
X969546Y904314D1*
X959856Y906770D1*
X950360Y909900D1*
X941105Y913685D1*
X932139Y918108D1*
X923504Y923146D1*
X915241Y928776D1*
X907392Y934970D1*
X899997Y941697D1*
X893089Y948925D1*
X886703Y956618D1*
X880871Y964739D1*
X875622Y973248D1*
X870979Y982102D1*
X866967Y991260D1*
X863605Y1000676D1*
X860909Y1010303D1*
X858894Y1020096D1*
X857567Y1030005D1*
X856980Y1039028D1*
X767646Y1039001D1*
X766948Y1029028D1*
X765552Y1019127D1*
X763470Y1009349D1*
X760707Y999740D1*
X757281Y990348D1*
X753206Y981218D1*
X748503Y972395D1*
X743194Y963923D1*
X737307Y955843D1*
X730869Y948193D1*
X723911Y941013D1*
X716469Y934336D1*
X708579Y928197D1*
X700278Y922623D1*
X691608Y917644D1*
X682612Y913283D1*
X673332Y909563D1*
X663814Y906500D1*
X654106Y904109D1*
X644255Y902403D1*
X636780Y901598D1*
X676887Y861491D1*
X1050589Y861438D1*
X1052077Y860955D1*
X1053441Y859929D1*
X1151803Y767732D1*
X1229007Y767749D1*
X1321869Y860545D1*
X1323262Y861256D1*
X1324807Y861500D1*
X1325139Y861487D1*
X1704007Y861500D1*
X1743690Y901205D1*
X1734346Y901912D1*
X1724450Y903341D1*
X1714680Y905458D1*
X1705080Y908252D1*
X1695699Y911711D1*
X1686584Y915818D1*
X1677777Y920551D1*
X1669323Y925888D1*
X1661262Y931804D1*
X1653636Y938269D1*
X1646480Y945251D1*
X1639829Y952715D1*
X1633717Y960627D1*
X1628172Y968948D1*
X1623223Y977634D1*
X1618892Y986646D1*
X1615203Y995938D1*
X1612173Y1005466D1*
X1609816Y1015182D1*
X1608144Y1025039D1*
X1607165Y1034990D1*
X1606980Y1039028D1*
X1517646Y1039001D1*
X1516948Y1029028D1*
X1515552Y1019127D1*
X1513470Y1009349D1*
X1510707Y999740D1*
X1507281Y990348D1*
X1503206Y981218D1*
X1498503Y972395D1*
X1493194Y963923D1*
X1487307Y955843D1*
X1480869Y948193D1*
X1473911Y941013D1*
X1466469Y934336D1*
X1458579Y928197D1*
X1450278Y922623D1*
X1441608Y917644D1*
X1432612Y913283D1*
X1423332Y909563D1*
X1413814Y906500D1*
X1404106Y904109D1*
X1394255Y902403D1*
X1384308Y901390D1*
X1374315Y901075D1*
X1364325Y901458D1*
X1354386Y902539D1*
X1344546Y904314D1*
X1334856Y906770D1*
X1325360Y909900D1*
X1316105Y913685D1*
X1307139Y918108D1*
X1298504Y923146D1*
X1290241Y928776D1*
X1282392Y934970D1*
X1274997Y941697D1*
X1268089Y948925D1*
X1261703Y956618D1*
X1255871Y964739D1*
X1250622Y973248D1*
X1245979Y982102D1*
X1241967Y991260D1*
X1238605Y1000676D1*
X1235909Y1010303D1*
X1233894Y1020096D1*
X1232567Y1030005D1*
X1231980Y1039028D1*
X1142639Y1039000D1*
D15*
X1786307Y4993559D3*
X588307D3*
X606056Y3631500D2*
D14*
G02X606056Y3631500I181250J0D01*
G01*
X1406056D2*
G02X1406056Y3631500I181250J0D01*
G01*
M02*
